<svg width="289" height="289" viewBox="0 0 289 289" fill="none" xmlns="http://www.w3.org/2000/svg">
<g id="8">
<path id="path2710" d="M244.057 63.4315L213.093 94.3953L216.75 98.0525L220.408 101.71L251.371 70.7458L247.714 67.0887L244.057 63.4315Z" fill="#CCC15C"/>
<path id="path3232" d="M223.846 83.6388L213.092 94.3936L216.75 98.0525L220.409 101.711L229.702 92.418C227.912 89.3747 225.96 86.4483 223.846 83.6388Z" fill="#AAAC4E"/>
<path id="path2674" d="M154.823 25.8033H165.144V56.7672H154.823V25.8033Z" fill="#CCC15C"/>
<path id="path3222" d="M154.823 25.8033V40.3177C156.448 40.9048 158.168 41.285 159.983 41.285C161.799 41.285 163.519 40.9028 165.144 40.3177V25.8033H154.823Z" fill="#AAAC4E"/>
<path id="path2722" d="M70.7263 42.7883L67.0882 46.4455L63.4502 50.1026L89.2344 75.8867L92.8916 72.2492L96.5487 68.611L70.7263 42.7883Z" fill="#CCC15C"/>
<path id="path2706" d="M56.7674 123.856V134.177H25.8035V123.856H56.7674Z" fill="#CCC15C"/>
<path id="path3212" d="M25.8032 123.856V134.177H40.3176C40.9036 132.552 41.2852 130.832 41.2852 129.016C41.2852 127.201 40.9038 125.481 40.3176 123.856H25.8032Z" fill="#AAAC4E"/>
<path id="path2712" d="M68.5921 187.287L37.6282 218.251L41.2853 221.908L44.9425 225.565L75.9064 194.602L72.2492 190.944L68.5921 187.287Z" fill="#CCC15C"/>
<path id="path2696" d="M123.855 232.229H134.177V263.194H123.856L123.855 232.229Z" fill="#CCC15C"/>
<path id="path3217" d="M123.855 232.229V245.323C127.234 246.093 130.67 246.708 134.177 247.098V232.231L123.855 232.229Z" fill="#AAAC4E"/>
<path id="path2724" d="M199.765 213.109L196.108 216.748L192.451 220.386L218.273 246.208L221.911 242.551L225.549 238.894L199.765 213.109Z" fill="#CCC15C"/>
<path id="path3242" d="M199.767 213.109L196.108 216.748L192.449 220.386L202.901 230.839C205.743 228.843 208.439 226.671 211.035 224.377L199.767 213.109Z" fill="#AAAC4E"/>
<path id="path2703" d="M263.196 154.82V165.141H232.232V154.82H263.196Z" fill="#CCC15C"/>
<path id="path3237" d="M232.232 154.82V165.141H246.323C246.894 161.759 247.259 158.314 247.452 154.82H232.232Z" fill="#AAAC4E"/>
<path id="path2968" d="M144.498 51.6066C93.2562 51.6066 51.606 93.257 51.6062 144.499C51.6062 195.74 93.2564 237.39 144.498 237.39C195.74 237.39 237.39 195.74 237.39 144.499C237.39 93.257 195.74 51.6068 144.498 51.6066Z" fill="#EBFF73"/>
<path id="path3169" d="M144.498 237.39C195.74 237.39 237.39 195.74 237.39 144.498C237.39 116.254 224.693 90.9694 204.753 73.9218C218.633 90.1572 227.069 111.18 227.069 134.177C227.069 185.418 185.419 227.069 134.177 227.069C111.18 227.069 90.1576 218.633 73.9224 204.753C90.9698 224.692 116.254 237.39 144.498 237.39Z" fill="#CCC15C"/>
<path id="path3163" d="M144.498 51.6066C93.2565 51.6066 51.6062 93.2568 51.6064 144.499C51.6064 172.743 64.3038 198.027 84.2436 215.074C70.3632 198.839 61.9277 177.816 61.9277 154.819C61.9275 103.578 103.578 61.928 154.82 61.928C177.817 61.928 198.839 70.3634 215.074 84.2436C198.027 64.3038 172.743 51.6066 144.498 51.6066Z" fill="#FFF48F"/>
<path id="path3022" d="M129.016 175.462C120.527 175.462 113.534 182.455 113.534 190.944C113.534 199.434 120.527 206.426 129.016 206.426C137.506 206.426 144.498 199.434 144.498 190.944C144.498 182.455 137.505 175.462 129.016 175.462Z" fill="#CCC15C"/>
<path id="path3047" d="M108.374 108.374C99.8843 108.374 92.8916 115.366 92.8916 123.855C92.8918 132.344 99.8845 139.337 108.374 139.337C116.863 139.337 123.856 132.345 123.856 123.855C123.856 115.366 116.863 108.374 108.374 108.374Z" fill="#CCC15C"/>
<path id="path2980" d="M170.305 87.7311C161.815 87.7311 154.823 94.724 154.823 103.213C154.823 111.703 161.815 118.695 170.305 118.695C178.794 118.695 185.787 111.703 185.787 103.213C185.787 94.7238 178.794 87.7309 170.305 87.7311Z" fill="#CCC15C"/>
<path id="path3084" d="M273.518 144.498C265.029 144.498 258.036 151.491 258.036 159.98C258.036 168.469 265.029 175.462 273.518 175.462C282.008 175.462 289 168.469 289 159.98C289 151.491 282.008 144.498 273.518 144.498Z" fill="#EBFF73"/>
<path id="path3114" d="M15.4817 113.534C6.99243 113.535 -0.000244141 120.527 -0.000244141 129.016C-4.90923e-05 137.505 6.99263 144.498 15.4817 144.498C23.971 144.498 30.9637 137.505 30.9637 129.016C30.9639 120.527 23.9712 113.534 15.4817 113.534Z" fill="#EBFF73"/>
<path id="path3092" d="M129.016 258.033C120.527 258.033 113.534 265.025 113.534 273.514C113.534 282.004 120.527 288.997 129.016 288.997C137.506 288.996 144.498 282.004 144.498 273.514C144.498 265.025 137.506 258.033 129.016 258.033Z" fill="#EBFF73"/>
<path id="path3124" d="M159.983 0C151.494 0 144.501 6.99272 144.501 15.4822C144.501 23.9715 151.494 30.9644 159.983 30.9644C168.472 30.9644 175.465 23.9713 175.465 15.4822C175.465 6.99292 168.472 0.000195048 159.983 0Z" fill="#FFFA81"/>
<path id="path3004" d="M190.947 134.177C182.458 134.177 175.465 141.17 175.465 149.659C175.465 158.148 182.458 165.141 190.947 165.141C199.436 165.141 206.429 158.148 206.429 149.659C206.429 141.17 199.437 134.177 190.947 134.177Z" fill="#CCC15C"/>
<path id="path3096" d="M36.1245 211.587C27.6351 211.587 20.6424 218.58 20.6426 227.069C20.6424 235.558 27.6351 242.551 36.1245 242.551C44.6138 242.55 51.6065 235.558 51.6065 227.069C51.6065 218.58 44.6138 211.587 36.1245 211.587Z" fill="#EBFF73"/>
<path id="path3131" d="M70.7268 42.7871L67.0881 46.4461L63.4495 50.105L73.7103 60.3657C76.895 58.8307 79.4734 56.2533 81.0078 53.0687L70.7268 42.7871Z" fill="#889945"/>
<path id="path3120" d="M61.9275 25.8033C53.4382 25.8033 46.4456 32.7957 46.4456 41.285C46.4456 49.7742 53.4382 56.767 61.9275 56.7672C70.417 56.7672 77.4095 49.7742 77.4095 41.285C77.4095 32.7955 70.417 25.8031 61.9275 25.8033Z" fill="#FFFA81"/>
<path id="path3088" d="M227.072 232.229C218.583 232.229 211.605 239.207 211.605 247.696C211.605 256.185 218.583 263.201 227.072 263.201C235.561 263.201 242.539 256.185 242.539 247.696C242.539 239.207 235.561 232.229 227.072 232.229Z" fill="#EBFF73"/>
<path id="path3071" d="M190.947 51.6066C182.458 51.6066 175.465 58.5995 175.465 67.0888C175.466 75.5781 182.458 82.5704 190.947 82.5704C199.437 82.5704 206.429 75.5781 206.429 67.0888C206.429 58.5995 199.437 51.6066 190.947 51.6066Z" fill="#CCC15C"/>
<path id="path3016" d="M98.0523 206.426C89.5628 206.426 82.5701 213.419 82.5703 221.908C82.5703 230.398 89.563 237.39 98.0523 237.39C106.541 237.39 113.534 230.398 113.534 221.908C113.534 213.419 106.542 206.426 98.0523 206.426Z" fill="#CCC15C"/>
<path id="path3012" d="M165.144 216.747C156.655 216.747 149.662 223.74 149.662 232.229C149.662 240.719 156.655 247.711 165.144 247.711C173.633 247.711 180.626 240.719 180.626 232.229C180.626 223.74 173.633 216.747 165.144 216.747Z" fill="#CCC15C"/>
<path id="path3008" d="M221.911 175.462C213.421 175.462 206.429 182.455 206.429 190.944C206.429 199.434 213.421 206.426 221.911 206.426C230.4 206.426 237.393 199.434 237.393 190.944C237.393 182.455 230.4 175.462 221.911 175.462Z" fill="#CCC15C"/>
<path id="path2990" d="M232.233 113.534C223.743 113.535 216.751 120.527 216.751 129.016C216.751 137.505 223.743 144.498 232.233 144.498C240.722 144.498 247.715 137.506 247.715 129.016C247.715 120.527 240.722 113.534 232.233 113.534Z" fill="#CCC15C"/>
<path id="path3067" d="M123.856 41.2852C115.366 41.2852 108.374 48.2781 108.374 56.7674C108.374 65.2564 115.367 72.2494 123.856 72.2496C132.345 72.2496 139.338 65.2566 139.338 56.7674C139.338 48.2779 132.345 41.285 123.856 41.2852Z" fill="#CCC15C"/>
<path id="path3055" d="M67.0882 82.5704C58.5987 82.5704 51.606 89.5632 51.6062 98.0526C51.6062 106.542 58.5989 113.535 67.0882 113.535C75.5773 113.535 82.5699 106.542 82.5701 98.0526C82.5701 89.5634 75.5774 82.5706 67.0882 82.5704Z" fill="#CCC15C"/>
<path id="path3030" d="M56.7671 149.659C48.2776 149.659 41.285 156.651 41.2852 165.141C41.2852 173.63 48.2778 180.623 56.7671 180.623C65.2562 180.623 72.2489 173.63 72.2491 165.141C72.2491 156.651 65.2564 149.659 56.7671 149.659Z" fill="#CCC15C"/>
<path id="path3077" d="M252.875 46.4458C244.386 46.4458 237.393 53.4387 237.393 61.928C237.393 70.4173 244.386 77.4096 252.875 77.4096C261.364 77.4094 268.357 70.4173 268.357 61.928C268.357 53.4387 261.364 46.4458 252.875 46.4458Z" fill="#EBFF73"/>
<path id="path2827" d="M113.534 159.98C113.534 161.349 112.991 162.662 112.023 163.63C111.055 164.598 109.742 165.141 108.374 165.141C107.696 165.141 107.025 165.008 106.399 164.748C105.773 164.489 105.204 164.109 104.724 163.63C104.245 163.151 103.865 162.581 103.606 161.955C103.346 161.329 103.213 160.658 103.213 159.98C103.213 159.303 103.346 158.631 103.606 158.005C103.865 157.379 104.245 156.811 104.724 156.331C105.204 155.852 105.773 155.472 106.399 155.212C107.025 154.953 107.696 154.82 108.374 154.82C109.742 154.82 111.055 155.364 112.023 156.331C112.991 157.299 113.534 158.612 113.534 159.98Z" fill="#FDFFAA"/>
<path id="path2829" d="M98.0526 180.622C98.0526 181.3 97.9191 181.971 97.6597 182.597C97.4003 183.224 97.0202 183.793 96.541 184.272C96.0618 184.751 95.4928 185.131 94.8667 185.39C94.2406 185.65 93.5695 185.783 92.8918 185.783C91.5231 185.783 90.2105 185.24 89.2427 184.272C88.2749 183.304 87.7312 181.991 87.7312 180.622C87.7312 179.945 87.8647 179.274 88.124 178.648C88.3833 178.022 88.7635 177.453 89.2427 176.974C89.7219 176.494 90.2908 176.114 90.9169 175.855C91.543 175.595 92.2141 175.462 92.8918 175.462C93.5695 175.462 94.2406 175.595 94.8668 175.855C95.4929 176.114 96.0618 176.494 96.541 176.974C97.0203 177.453 97.4004 178.022 97.6598 178.648C97.9191 179.274 98.0526 179.945 98.0526 180.622Z" fill="#FDFFAA"/>
<path id="path2831" d="M170.305 201.265C170.305 201.943 170.171 202.614 169.912 203.24C169.653 203.867 169.273 204.436 168.793 204.915C168.314 205.394 167.745 205.774 167.119 206.033C166.493 206.293 165.822 206.426 165.144 206.426C163.776 206.426 162.463 205.883 161.495 204.915C160.527 203.947 159.984 202.634 159.984 201.265C159.984 200.588 160.117 199.917 160.376 199.29C160.636 198.664 161.016 198.096 161.495 197.617C161.974 197.137 162.543 196.757 163.169 196.498C163.795 196.238 164.467 196.105 165.144 196.105C165.822 196.105 166.493 196.238 167.119 196.498C167.745 196.757 168.314 197.137 168.793 197.616C169.273 198.095 169.653 198.664 169.912 199.29C170.172 199.917 170.305 200.588 170.305 201.265Z" fill="#FDFFAA"/>
<path id="path2833" d="M139.338 98.0519C139.338 99.4205 138.794 100.733 137.826 101.701C136.858 102.669 135.546 103.213 134.177 103.213C132.808 103.213 131.496 102.669 130.528 101.701C129.56 100.733 129.016 99.4205 129.016 98.0519C129.016 96.6832 129.56 95.3708 130.528 94.403C131.496 93.4352 132.808 92.8917 134.177 92.8917C135.546 92.8917 136.858 93.4352 137.826 94.403C138.794 95.3708 139.338 96.6832 139.338 98.0519Z" fill="#FDFFAA"/>
<path id="path2839" d="M139.337 149.658C139.337 151.027 138.794 152.34 137.826 153.308C136.858 154.276 135.546 154.819 134.177 154.819C133.499 154.819 132.828 154.686 132.202 154.426C131.576 154.167 131.007 153.787 130.528 153.308C130.048 152.829 129.668 152.26 129.409 151.633C129.15 151.007 129.016 150.336 129.016 149.658C129.016 148.981 129.15 148.31 129.409 147.683C129.668 147.057 130.048 146.489 130.528 146.01C131.007 145.53 131.576 145.15 132.202 144.891C132.828 144.631 133.499 144.498 134.177 144.498C135.546 144.498 136.858 145.042 137.826 146.01C138.794 146.977 139.337 148.29 139.337 149.658Z" fill="#FDFFAA"/>
<path id="path2841" d="M149.662 129.016C149.662 130.385 149.118 131.697 148.151 132.665C147.183 133.633 145.87 134.177 144.502 134.177C143.824 134.177 143.153 134.044 142.527 133.784C141.901 133.525 141.332 133.144 140.852 132.665C140.373 132.186 139.993 131.618 139.734 130.991C139.474 130.365 139.341 129.694 139.341 129.016C139.341 128.339 139.474 127.668 139.734 127.041C139.993 126.415 140.373 125.846 140.852 125.367C141.332 124.888 141.901 124.508 142.527 124.249C143.153 123.989 143.824 123.856 144.502 123.856C145.87 123.856 147.183 124.399 148.151 125.367C149.118 126.335 149.662 127.648 149.662 129.016Z" fill="#FDFFAA"/>
<path id="path2846" d="M118.695 87.7312C118.695 89.0998 118.151 90.4122 117.183 91.38C116.216 92.3478 114.903 92.8919 113.534 92.8919C112.857 92.8919 112.186 92.7584 111.559 92.499C110.933 92.2397 110.364 91.8592 109.885 91.38C109.406 90.9008 109.026 90.3323 108.766 89.7062C108.507 89.0801 108.374 88.4089 108.374 87.7312C108.374 87.0535 108.507 86.3823 108.766 85.7562C109.026 85.13 109.406 84.561 109.885 84.0817C110.364 83.6025 110.933 83.2226 111.559 82.9633C112.186 82.704 112.857 82.5704 113.534 82.5704C114.903 82.5705 116.216 83.114 117.183 84.0817C118.151 85.0495 118.695 86.3625 118.695 87.7312Z" fill="#FDFFAA"/>
<path id="path2849" d="M159.983 159.98C159.983 160.658 159.85 161.329 159.591 161.955C159.331 162.581 158.951 163.151 158.472 163.63C157.993 164.109 157.424 164.489 156.798 164.748C156.171 165.008 155.5 165.141 154.823 165.141C153.454 165.141 152.141 164.598 151.174 163.63C150.206 162.662 149.662 161.349 149.662 159.98C149.662 159.303 149.796 158.631 150.055 158.005C150.314 157.379 150.694 156.81 151.174 156.331C151.653 155.852 152.222 155.472 152.848 155.212C153.474 154.953 154.145 154.82 154.823 154.82C155.5 154.82 156.172 154.953 156.798 155.212C157.424 155.472 157.993 155.852 158.472 156.331C158.951 156.81 159.331 157.379 159.591 158.005C159.85 158.631 159.983 159.303 159.983 159.98Z" fill="#FDFFAA"/>
<path id="path2889" d="M170.305 180.622C170.305 181.3 170.171 181.971 169.912 182.597C169.653 183.224 169.273 183.793 168.793 184.272C168.314 184.751 167.745 185.131 167.119 185.39C166.493 185.65 165.822 185.783 165.144 185.783C163.776 185.783 162.463 185.24 161.495 184.272C160.527 183.304 159.984 181.991 159.984 180.622C159.984 179.945 160.117 179.274 160.376 178.648C160.636 178.022 161.016 177.453 161.495 176.974C161.974 176.494 162.543 176.114 163.169 175.855C163.795 175.595 164.467 175.462 165.144 175.462C165.822 175.462 166.493 175.595 167.119 175.855C167.745 176.114 168.314 176.494 168.793 176.974C169.273 177.453 169.653 178.022 169.912 178.648C170.172 179.274 170.305 179.945 170.305 180.622Z" fill="#FDFFAA"/>
<path id="path2891" d="M190.947 180.622C190.947 181.3 190.814 181.971 190.554 182.597C190.295 183.224 189.915 183.793 189.436 184.272C188.957 184.751 188.388 185.131 187.761 185.39C187.135 185.65 186.464 185.783 185.787 185.783C184.418 185.783 183.105 185.24 182.137 184.272C181.17 183.304 180.626 181.991 180.626 180.622C180.626 179.945 180.759 179.274 181.019 178.648C181.278 178.022 181.658 177.453 182.137 176.974C182.617 176.494 183.186 176.114 183.812 175.855C184.438 175.595 185.109 175.462 185.787 175.462C186.464 175.462 187.135 175.595 187.762 175.855C188.388 176.114 188.957 176.494 189.436 176.974C189.915 177.453 190.295 178.022 190.555 178.648C190.814 179.274 190.947 179.945 190.947 180.622Z" fill="#FDFFAA"/>
<path id="path2893" d="M206.429 118.695C206.429 119.372 206.296 120.043 206.036 120.67C205.777 121.296 205.397 121.865 204.918 122.344C204.438 122.823 203.87 123.203 203.243 123.462C202.617 123.722 201.946 123.855 201.269 123.855C199.9 123.855 198.587 123.312 197.619 122.344C196.652 121.376 196.108 120.063 196.108 118.695C196.108 118.017 196.241 117.346 196.501 116.72C196.76 116.094 197.14 115.525 197.619 115.046C198.099 114.567 198.667 114.186 199.294 113.927C199.92 113.667 200.591 113.534 201.269 113.534C201.946 113.534 202.617 113.667 203.243 113.927C203.87 114.186 204.439 114.566 204.918 115.046C205.397 115.525 205.777 116.093 206.036 116.72C206.296 117.346 206.429 118.017 206.429 118.695Z" fill="#FDFFAA"/>
<path id="path2896" d="M87.731 144.498C87.731 145.176 87.5975 145.847 87.3382 146.473C87.0788 147.099 86.6987 147.668 86.2194 148.147C85.7402 148.626 85.1713 149.006 84.5452 149.266C83.919 149.525 83.248 149.659 82.5703 149.659C81.2016 149.658 79.889 149.115 78.9212 148.147C77.9534 147.179 77.4097 145.867 77.4097 144.498C77.4097 143.821 77.5431 143.149 77.8025 142.523C78.0618 141.897 78.4419 141.328 78.9211 140.849C79.4003 140.37 79.9692 139.989 80.5953 139.73C81.2215 139.471 81.8925 139.337 82.5703 139.337C83.248 139.337 83.9191 139.471 84.5452 139.73C85.1714 139.989 85.7403 140.37 86.2195 140.849C86.6987 141.328 87.0789 141.897 87.3382 142.523C87.5976 143.149 87.7311 143.821 87.731 144.498Z" fill="#FDFFAA"/>
<path id="path3133" d="M61.9277 56.7675C70.417 56.7675 77.4097 49.7746 77.4097 41.2853C77.4097 35.7268 74.3835 30.8542 69.9308 28.1216C71.3722 30.4698 72.2489 33.1944 72.2489 36.1252C72.2489 44.6145 65.2562 51.6068 56.7669 51.6068C53.836 51.6068 51.1119 50.7294 48.7639 49.2889C51.4963 53.7415 56.3692 56.7675 61.9277 56.7675Z" fill="#A9AC20"/>
<path id="path3146" d="M159.983 30.9642C168.473 30.9642 175.465 23.9713 175.465 15.482C175.465 9.92355 172.439 5.05093 167.986 2.3183C169.428 4.66649 170.305 7.39051 170.305 10.3213C170.305 18.8106 163.312 25.8035 154.823 25.8035C151.892 25.8035 149.168 24.9255 146.82 23.485C149.552 27.9376 154.425 30.9642 159.983 30.9642Z" fill="#A9AC20"/>
<path id="path3148" d="M15.4818 144.499C23.9711 144.499 30.9637 137.506 30.9637 129.016C30.9637 123.458 27.9376 118.585 23.485 115.853C24.9264 118.201 25.8034 120.925 25.8034 123.856C25.8034 132.345 18.8107 139.338 10.3214 139.338C7.3904 139.338 4.66616 138.46 2.31836 137.019C5.05079 141.472 9.92349 144.499 15.4818 144.499Z" fill="#A9AC20"/>
<path id="path3150" d="M36.1244 242.55C44.6136 242.55 51.6063 235.558 51.6063 227.069C51.6063 221.51 48.5801 216.637 44.1276 213.905C45.569 216.253 46.4459 218.977 46.4459 221.908C46.4459 230.397 39.4533 237.39 30.964 237.39C28.033 237.39 25.3087 236.512 22.9609 235.072C25.6934 239.524 30.5661 242.55 36.1244 242.55Z" fill="#A9AC20"/>
<path id="path3152" d="M129.016 288.997C137.505 288.997 144.498 282.004 144.498 273.515C144.498 267.956 141.472 263.084 137.019 260.351C138.461 262.699 139.338 265.424 139.338 268.355C139.338 276.844 132.345 283.836 123.856 283.836C120.925 283.836 118.2 282.959 115.853 281.518C118.585 285.971 123.458 288.997 129.016 288.997Z" fill="#A9AC20"/>
<path id="path3154" d="M227.072 263.194C235.561 263.194 242.554 256.201 242.554 247.711C242.554 242.153 239.528 237.28 235.075 234.548C236.517 236.896 237.394 239.62 237.394 242.551C237.394 251.04 230.401 258.033 221.912 258.033C218.981 258.033 216.256 257.155 213.909 255.714C216.641 260.167 221.514 263.194 227.072 263.194Z" fill="#A9AC20"/>
<path id="path3156" d="M273.518 175.463C282.007 175.463 289 168.47 289 159.98C289 154.422 285.974 149.549 281.521 146.817C282.963 149.165 283.839 151.889 283.839 154.82C283.839 163.309 276.847 170.302 268.358 170.302C265.427 170.302 262.702 169.424 260.354 167.983C263.087 172.436 267.96 175.463 273.518 175.463Z" fill="#A9AC20"/>
<path id="path3158" d="M252.875 77.4095C261.364 77.4095 268.357 70.4172 268.357 61.9279C268.357 56.3694 265.331 51.4968 260.878 48.7642C262.32 51.1123 263.197 53.8364 263.197 56.7672C263.197 65.2564 256.204 72.2494 247.715 72.2494C244.784 72.2494 242.059 71.3713 239.712 69.9309C242.444 74.3835 247.317 77.4095 252.875 77.4095Z" fill="#A9AC20"/>
<path id="path3172" d="M67.0884 113.535C75.5777 113.535 82.5703 106.542 82.5703 98.0525C82.5703 92.494 79.5442 87.6214 75.0914 84.8888C76.5328 87.237 77.4096 89.961 77.4096 92.8918C77.4096 101.381 70.4169 108.374 61.9276 108.374C58.9966 108.374 56.2726 107.496 53.9246 106.056C56.657 110.508 61.5299 113.535 67.0884 113.535Z" fill="#AAAC4E"/>
<path id="path3178" d="M108.374 139.338C116.863 139.338 123.855 132.345 123.855 123.856C123.855 118.297 120.829 113.425 116.377 110.692C117.818 113.04 118.695 115.764 118.695 118.695C118.695 127.184 111.702 134.177 103.213 134.177C100.282 134.177 97.5577 133.3 95.2097 131.859C97.9421 136.312 102.815 139.338 108.374 139.338Z" fill="#AAAC4E"/>
<path id="path3183" d="M56.7673 180.623C65.2566 180.623 72.2493 173.63 72.2493 165.141C72.2493 159.583 69.2231 154.71 64.7704 151.977C66.2118 154.325 67.0885 157.05 67.0885 159.98C67.0885 168.47 60.0958 175.462 51.6065 175.462C48.6756 175.462 45.9515 174.584 43.6035 173.144C46.3359 177.597 51.2088 180.623 56.7673 180.623Z" fill="#AAAC4E"/>
<path id="path3187" d="M129.016 206.426C137.505 206.426 144.498 199.433 144.498 190.944C144.498 185.385 141.472 180.513 137.019 177.78C138.461 180.128 139.337 182.853 139.337 185.784C139.337 194.273 132.345 201.265 123.855 201.265C120.924 201.265 118.2 200.388 115.852 198.947C118.585 203.4 123.458 206.426 129.016 206.426Z" fill="#AAAC4E"/>
<path id="path3191" d="M98.0522 237.39C106.542 237.39 113.534 230.398 113.534 221.908C113.534 216.35 110.508 211.477 106.055 208.744C107.497 211.092 108.373 213.817 108.373 216.747C108.373 225.237 101.381 232.229 92.8915 232.229C89.9605 232.229 87.2364 231.352 84.8884 229.911C87.6209 234.364 92.4938 237.39 98.0522 237.39Z" fill="#AAAC4E"/>
<path id="path3195" d="M165.144 247.711C173.633 247.711 180.626 240.718 180.626 232.229C180.626 226.67 177.6 221.798 173.147 219.065C174.588 221.413 175.465 224.138 175.465 227.069C175.465 235.558 168.473 242.55 159.983 242.55C157.052 242.55 154.328 241.673 151.98 240.233C154.713 244.685 159.586 247.711 165.144 247.711Z" fill="#AAAC4E"/>
<path id="path3197" d="M221.911 206.426C230.401 206.426 237.393 199.433 237.393 190.944C237.393 185.385 234.367 180.513 229.914 177.78C231.356 180.128 232.233 182.853 232.233 185.784C232.233 194.273 225.24 201.265 216.751 201.265C213.82 201.265 211.096 200.388 208.748 198.947C211.48 203.4 216.353 206.426 221.911 206.426Z" fill="#AAAC4E"/>
<path id="path3199" d="M232.233 144.499C240.722 144.499 247.715 137.506 247.715 129.016C247.715 123.458 244.689 118.585 240.236 115.853C241.677 118.201 242.554 120.925 242.554 123.856C242.554 132.345 235.561 139.338 227.072 139.338C224.141 139.338 221.417 138.46 219.069 137.019C221.802 141.472 226.674 144.499 232.233 144.499Z" fill="#AAAC4E"/>
<path id="path3201" d="M190.947 165.141C199.437 165.141 206.429 158.148 206.429 149.659C206.429 144.1 203.403 139.227 198.95 136.495C200.392 138.843 201.268 141.567 201.268 144.498C201.268 152.988 194.276 159.98 185.786 159.98C182.855 159.98 180.131 159.102 177.783 157.662C180.516 162.115 185.389 165.141 190.947 165.141Z" fill="#AAAC4E"/>
<path id="path3203" d="M170.305 118.695C178.794 118.695 185.787 111.702 185.787 103.213C185.787 97.6547 182.76 92.7821 178.308 90.0494C179.749 92.3976 180.626 95.1216 180.626 98.0524C180.626 106.542 173.633 113.535 165.144 113.535C162.213 113.535 159.489 112.657 157.141 111.216C159.873 115.669 164.746 118.695 170.305 118.695Z" fill="#AAAC4E"/>
<path id="path3205" d="M190.947 82.57C199.437 82.57 206.429 75.5777 206.429 67.0884C206.429 61.5299 203.403 56.6567 198.95 53.9241C200.392 56.2723 201.268 58.9969 201.268 61.9277C201.268 70.417 194.276 77.4093 185.786 77.4093C182.855 77.4093 180.131 76.5318 177.783 75.0914C180.516 79.544 185.389 82.57 190.947 82.57Z" fill="#AAAC4E"/>
<path id="path3207" d="M123.855 72.2495C132.345 72.2495 139.337 65.2565 139.337 56.7673C139.337 51.2088 136.311 46.3361 131.858 43.6035C133.3 45.9517 134.177 48.6757 134.177 51.6065C134.177 60.0958 127.184 67.0887 118.695 67.0887C115.764 67.0887 113.04 66.2107 110.692 64.7703C113.424 69.2228 118.297 72.2495 123.855 72.2495Z" fill="#AAAC4E"/>
</g>
</svg>
