<svg width="268" height="268" viewBox="0 0 268 268" fill="none" xmlns="http://www.w3.org/2000/svg">
<g id="chlamydiose">
<path id="path2710" d="M225.636 58.6447L197.009 87.2717L200.39 90.6529L203.772 94.0341L232.399 65.407L229.018 62.0258L225.636 58.6447Z" fill="#3AFFFF"/>
<path id="path3232" d="M206.951 77.327L197.008 87.2702L200.39 90.653L203.773 94.0358L212.365 85.4437C210.71 82.63 208.905 79.9245 206.951 77.327Z" fill="#4EACA6"/>
<path id="path2674" d="M143.136 23.856H152.679V52.4831H143.136V23.856Z" fill="#3AFFFF"/>
<path id="path3222" d="M143.136 23.856V37.275C144.638 37.8178 146.228 38.1693 147.907 38.1693C149.586 38.1693 151.176 37.816 152.678 37.275V23.856H143.136Z" fill="#4EACA6"/>
<path id="path2722" d="M65.3891 39.5593L62.0256 42.9404L58.6621 46.3216L82.5005 70.1598L85.8817 66.7968L89.2628 63.4332L65.3891 39.5593Z" fill="#3AFFFF"/>
<path id="path2706" d="M52.4834 114.509V124.051H23.8562V114.509H52.4834Z" fill="#3AFFFF"/>
<path id="path3212" d="M23.856 114.509V124.051H37.275C37.8168 122.549 38.1696 120.959 38.1696 119.28C38.1696 117.601 37.817 116.011 37.275 114.509H23.856Z" fill="#4EACA6"/>
<path id="path2712" d="M63.4158 173.154L34.7886 201.781L38.1697 205.162L41.5509 208.543L70.1781 179.916L66.7969 176.535L63.4158 173.154Z" fill="#3AFFFF"/>
<path id="path2696" d="M114.509 214.704H124.051V243.332H114.509L114.509 214.704Z" fill="#3AFFFF"/>
<path id="path3217" d="M114.509 214.704V226.809C117.632 227.522 120.809 228.09 124.051 228.45V214.705L114.509 214.704Z" fill="#4EACA6"/>
<path id="path2724" d="M184.687 197.027L181.306 200.391L177.925 203.754L201.798 227.628L205.162 224.246L208.525 220.865L184.687 197.027Z" fill="#3AFFFF"/>
<path id="path3242" d="M184.688 197.026L181.306 200.39L177.923 203.755L187.586 213.418C190.214 211.573 192.706 209.565 195.107 207.444L184.688 197.026Z" fill="#4EACA6"/>
<path id="path2703" d="M243.331 143.136V152.679H214.704V143.136H243.331Z" fill="#3AFFFF"/>
<path id="path3237" d="M214.704 143.136V152.679H227.731C228.259 149.552 228.597 146.367 228.775 143.136H214.704Z" fill="#4EACA6"/>
<path id="path2968" d="M133.594 47.712C86.2188 47.712 47.7117 86.2193 47.7119 133.594C47.7119 180.968 86.219 219.475 133.594 219.475C180.968 219.475 219.475 180.968 219.475 133.594C219.475 86.2193 180.968 47.7122 133.594 47.712Z" fill="#73DDFF"/>
<path id="path3169" d="M133.594 219.475C180.969 219.475 219.476 180.968 219.475 133.593C219.475 107.481 207.736 84.1042 189.301 68.3431C202.134 83.3534 209.933 102.789 209.933 124.051C209.933 171.426 171.426 209.933 124.051 209.933C102.79 209.933 83.354 202.133 68.344 189.301C84.1049 207.736 107.481 219.475 133.594 219.475Z" fill="#3AFFFF"/>
<path id="path3163" d="M133.594 47.712C86.2188 47.712 47.7117 86.2191 47.7119 133.594C47.7119 159.707 59.4511 183.082 77.886 198.844C65.0531 183.833 57.2543 164.397 57.2543 143.136C57.2541 95.7613 95.7612 57.2546 143.136 57.2546C164.398 57.2546 183.833 65.0533 198.843 77.8861C183.082 59.451 159.706 47.712 133.594 47.712Z" fill="#8FFFF2"/>
<path id="path3022" d="M119.28 162.221C111.431 162.221 104.966 168.686 104.966 176.535C104.966 184.383 111.431 190.848 119.28 190.848C127.129 190.848 133.594 184.383 133.594 176.535C133.593 168.686 127.128 162.221 119.28 162.221Z" fill="#3AFFFF"/>
<path id="path3047" d="M100.195 100.195C92.3466 100.195 85.8816 106.66 85.8816 114.508C85.8818 122.357 92.3467 128.822 100.195 128.822C108.044 128.822 114.509 122.357 114.509 114.508C114.509 106.66 108.044 100.195 100.195 100.195Z" fill="#3AFFFF"/>
<path id="path2980" d="M157.45 81.1104C149.601 81.1104 143.136 87.5756 143.136 95.4242C143.136 103.273 149.601 109.737 157.45 109.738C165.298 109.738 171.763 103.273 171.763 95.4242C171.763 87.5754 165.298 81.1102 157.45 81.1104Z" fill="#3AFFFF"/>
<path id="path3084" d="M252.874 133.594C245.025 133.594 238.56 140.058 238.56 147.907C238.56 155.756 245.025 162.221 252.874 162.221C260.722 162.221 267.187 155.756 267.187 147.907C267.187 140.058 260.722 133.594 252.874 133.594Z" fill="#73DDFF"/>
<path id="path3114" d="M14.3136 104.966C6.46497 104.967 0 111.431 0 119.28C0.000180329 127.128 6.46515 133.594 14.3136 133.594C22.1622 133.594 28.6272 127.128 28.6272 119.28C28.6274 111.431 22.1624 104.966 14.3136 104.966Z" fill="#73DDFF"/>
<path id="path3092" d="M119.28 238.56C111.431 238.56 104.966 245.025 104.966 252.873C104.966 260.722 111.431 267.187 119.28 267.187C127.129 267.187 133.594 260.722 133.594 252.873C133.594 245.025 127.129 238.56 119.28 238.56Z" fill="#73DDFF"/>
<path id="path3124" d="M147.907 0C140.058 0 133.594 6.46501 133.594 14.3138C133.594 22.1625 140.058 28.6276 147.907 28.6276C155.756 28.6276 162.221 22.1623 162.221 14.3138C162.221 6.46519 155.756 0.000180329 147.907 0Z" fill="#81FFE8"/>
<path id="path3004" d="M176.534 124.051C168.686 124.051 162.221 130.516 162.221 138.365C162.221 146.214 168.686 152.678 176.534 152.678C184.383 152.678 190.848 146.213 190.848 138.365C190.848 130.516 184.383 124.051 176.534 124.051Z" fill="#3AFFFF"/>
<path id="path3096" d="M33.3983 195.619C25.5495 195.619 19.0845 202.084 19.0847 209.933C19.0845 217.782 25.5495 224.246 33.3983 224.246C41.2469 224.246 47.7119 217.782 47.7119 209.933C47.7119 202.084 41.2469 195.619 33.3983 195.619Z" fill="#73DDFF"/>
<path id="path3131" d="M65.3898 39.5581L62.0257 42.9409L58.6616 46.3237L68.1481 55.8102C71.0925 54.391 73.4763 52.008 74.8949 49.0638L65.3898 39.5581Z" fill="#459499"/>
<path id="path3120" d="M57.2545 23.856C49.4059 23.856 42.9409 30.3207 42.9409 38.1693C42.9409 46.0179 49.4059 52.4829 57.2545 52.4831C65.1033 52.4831 71.5681 46.0179 71.5681 38.1693C71.5681 30.3205 65.1033 23.8558 57.2545 23.856Z" fill="#81FFE8"/>
<path id="path3088" d="M209.933 214.704C202.084 214.704 195.633 221.155 195.633 229.004C195.633 236.852 202.084 243.338 209.933 243.338C217.782 243.338 224.232 236.852 224.232 229.004C224.232 221.155 217.782 214.704 209.933 214.704Z" fill="#73DDFF"/>
<path id="path3071" d="M176.534 47.712C168.686 47.712 162.221 54.1772 162.221 62.0258C162.221 69.8745 168.686 76.3391 176.534 76.3391C184.383 76.3391 190.848 69.8745 190.848 62.0258C190.848 54.1772 184.383 47.712 176.534 47.712Z" fill="#3AFFFF"/>
<path id="path3016" d="M90.6527 190.848C82.8039 190.848 76.3389 197.313 76.3391 205.162C76.3391 213.01 82.8041 219.475 90.6527 219.475C98.5012 219.475 104.966 213.01 104.966 205.162C104.966 197.313 98.5014 190.848 90.6527 190.848Z" fill="#3AFFFF"/>
<path id="path3012" d="M152.679 200.39C144.83 200.39 138.365 206.855 138.365 214.704C138.365 222.553 144.83 229.018 152.679 229.018C160.527 229.018 166.992 222.553 166.992 214.704C166.992 206.855 160.527 200.39 152.679 200.39Z" fill="#3AFFFF"/>
<path id="path3008" d="M205.161 162.221C197.313 162.221 190.848 168.686 190.848 176.535C190.848 184.383 197.313 190.848 205.161 190.848C213.01 190.848 219.475 184.383 219.475 176.535C219.475 168.686 213.01 162.221 205.161 162.221Z" fill="#3AFFFF"/>
<path id="path2990" d="M214.704 104.966C206.855 104.967 200.39 111.431 200.39 119.28C200.39 127.128 206.855 133.594 214.704 133.594C222.553 133.594 229.018 127.129 229.018 119.28C229.018 111.431 222.553 104.966 214.704 104.966Z" fill="#3AFFFF"/>
<path id="path3067" d="M114.509 38.1696C106.66 38.1696 100.195 44.6348 100.195 52.4834C100.195 60.3319 106.66 66.7971 114.509 66.7973C122.357 66.7973 128.822 60.3321 128.822 52.4834C128.822 44.6346 122.357 38.1694 114.509 38.1696Z" fill="#3AFFFF"/>
<path id="path3055" d="M62.0255 76.3392C54.1767 76.3392 47.7117 82.8042 47.7119 90.6531C47.7119 98.5017 54.1769 104.967 62.0255 104.967C69.874 104.967 76.3389 98.5015 76.3391 90.6531C76.3391 82.8044 69.8741 76.3394 62.0255 76.3392Z" fill="#3AFFFF"/>
<path id="path3030" d="M52.4833 138.365C44.6345 138.365 38.1695 144.829 38.1697 152.678C38.1697 160.527 44.6346 166.992 52.4833 166.992C60.3317 166.992 66.7967 160.527 66.7969 152.678C66.7969 144.829 60.3319 138.365 52.4833 138.365Z" fill="#3AFFFF"/>
<path id="path3077" d="M233.789 42.9408C225.94 42.9408 219.475 49.406 219.475 57.2546C219.475 65.1033 225.94 71.5679 233.789 71.5679C241.637 71.5677 248.102 65.1033 248.102 57.2546C248.102 49.406 241.637 42.9408 233.789 42.9408Z" fill="#73DDFF"/>
<path id="path2827" d="M104.966 147.907C104.966 149.173 104.464 150.387 103.569 151.281C102.674 152.176 101.461 152.679 100.195 152.679C99.5686 152.679 98.9481 152.555 98.3693 152.315C97.7904 152.076 97.2644 151.724 96.8213 151.281C96.3783 150.838 96.0268 150.312 95.787 149.733C95.5473 149.154 95.4238 148.534 95.4238 147.907C95.4238 147.281 95.5473 146.66 95.787 146.081C96.0268 145.502 96.3783 144.977 96.8213 144.534C97.2644 144.091 97.7904 143.739 98.3693 143.499C98.9481 143.259 99.5686 143.136 100.195 143.136C101.461 143.136 102.674 143.639 103.569 144.534C104.464 145.429 104.966 146.642 104.966 147.907Z" fill="white"/>
<path id="path2829" d="M90.6531 166.991C90.653 167.618 90.5296 168.239 90.2898 168.817C90.0501 169.396 89.6986 169.922 89.2555 170.366C88.8125 170.809 88.2865 171.16 87.7076 171.4C87.1287 171.639 86.5083 171.763 85.8817 171.763C84.6164 171.763 83.4028 171.26 82.508 170.366C81.6133 169.471 81.1106 168.257 81.1106 166.991C81.1106 166.365 81.234 165.745 81.4737 165.166C81.7135 164.587 82.0649 164.061 82.508 163.618C82.951 163.175 83.477 162.823 84.0559 162.583C84.6347 162.344 85.2552 162.22 85.8817 162.22C86.5083 162.22 87.1288 162.344 87.7077 162.583C88.2865 162.823 88.8125 163.175 89.2556 163.618C89.6987 164.061 90.0501 164.587 90.2899 165.166C90.5297 165.745 90.6531 166.365 90.6531 166.991Z" fill="white"/>
<path id="path2831" d="M157.45 186.077C157.45 186.704 157.326 187.324 157.086 187.903C156.847 188.482 156.495 189.008 156.052 189.451C155.609 189.894 155.083 190.245 154.504 190.485C153.925 190.725 153.305 190.848 152.678 190.848C151.413 190.848 150.199 190.346 149.305 189.451C148.41 188.556 147.907 187.342 147.907 186.077C147.907 185.45 148.031 184.83 148.27 184.251C148.51 183.672 148.862 183.147 149.305 182.703C149.748 182.26 150.274 181.909 150.852 181.669C151.431 181.429 152.052 181.306 152.678 181.306C153.305 181.306 153.925 181.429 154.504 181.669C155.083 181.909 155.609 182.26 156.052 182.703C156.495 183.146 156.847 183.672 157.087 184.251C157.326 184.83 157.45 185.45 157.45 186.077Z" fill="white"/>
<path id="path2833" d="M128.822 90.6523C128.822 91.9177 128.32 93.1316 127.425 94.0264C126.53 94.9211 125.317 95.4236 124.051 95.4236C122.786 95.4236 121.572 94.9211 120.677 94.0264C119.783 93.1316 119.28 91.9177 119.28 90.6523C119.28 89.387 119.783 88.1736 120.677 87.2789C121.572 86.3841 122.786 85.8816 124.051 85.8816C125.317 85.8816 126.53 86.3841 127.425 87.2789C128.32 88.1736 128.822 89.387 128.822 90.6523Z" fill="white"/>
<path id="path2839" d="M128.822 138.364C128.822 139.63 128.32 140.844 127.425 141.738C126.53 142.633 125.317 143.136 124.051 143.136C123.425 143.136 122.804 143.012 122.225 142.772C121.647 142.533 121.121 142.181 120.678 141.738C120.234 141.295 119.883 140.769 119.643 140.19C119.403 139.611 119.28 138.991 119.28 138.364C119.28 137.738 119.403 137.117 119.643 136.538C119.883 135.96 120.234 135.434 120.678 134.991C121.121 134.548 121.647 134.196 122.225 133.956C122.804 133.717 123.425 133.594 124.051 133.594C125.317 133.594 126.53 134.096 127.425 134.991C128.32 135.886 128.822 137.099 128.822 138.364Z" fill="white"/>
<path id="path2841" d="M138.365 119.28C138.365 120.545 137.862 121.759 136.967 122.654C136.073 123.548 134.859 124.051 133.594 124.051C132.967 124.051 132.347 123.928 131.768 123.688C131.189 123.448 130.663 123.097 130.22 122.654C129.777 122.21 129.425 121.685 129.185 121.106C128.946 120.527 128.822 119.907 128.822 119.28C128.822 118.653 128.946 118.033 129.185 117.454C129.425 116.875 129.777 116.349 130.22 115.906C130.663 115.463 131.189 115.112 131.768 114.872C132.347 114.632 132.967 114.509 133.594 114.509C134.859 114.509 136.073 115.011 136.967 115.906C137.862 116.801 138.365 118.015 138.365 119.28Z" fill="white"/>
<path id="path2846" d="M109.738 81.1105C109.738 82.3759 109.235 83.5892 108.34 84.484C107.445 85.3787 106.232 85.8818 104.966 85.8818C104.34 85.8818 103.719 85.7583 103.141 85.5186C102.562 85.2788 102.036 84.927 101.593 84.484C101.15 84.0409 100.798 83.5153 100.558 82.9365C100.319 82.3576 100.195 81.7371 100.195 81.1105C100.195 80.4839 100.319 79.8634 100.558 79.2845C100.798 78.7057 101.15 78.1795 101.593 77.7365C102.036 77.2935 102.562 76.9422 103.141 76.7024C103.719 76.4627 104.34 76.3392 104.966 76.3392C106.232 76.3393 107.445 76.8417 108.34 77.7365C109.235 78.6313 109.738 79.8451 109.738 81.1105Z" fill="white"/>
<path id="path2849" d="M147.907 147.907C147.907 148.534 147.784 149.154 147.544 149.733C147.304 150.312 146.953 150.838 146.51 151.281C146.067 151.724 145.541 152.076 144.962 152.315C144.383 152.555 143.763 152.679 143.136 152.679C141.871 152.679 140.657 152.176 139.762 151.281C138.868 150.387 138.365 149.173 138.365 147.907C138.365 147.281 138.488 146.66 138.728 146.081C138.968 145.502 139.319 144.976 139.762 144.533C140.205 144.09 140.731 143.739 141.31 143.499C141.889 143.259 142.51 143.136 143.136 143.136C143.763 143.136 144.383 143.259 144.962 143.499C145.541 143.739 146.067 144.09 146.51 144.533C146.953 144.976 147.304 145.502 147.544 146.081C147.784 146.66 147.907 147.281 147.907 147.907Z" fill="white"/>
<path id="path2889" d="M157.45 166.991C157.45 167.618 157.326 168.239 157.086 168.817C156.847 169.396 156.495 169.922 156.052 170.366C155.609 170.809 155.083 171.16 154.504 171.4C153.925 171.639 153.305 171.763 152.678 171.763C151.413 171.763 150.199 171.26 149.305 170.366C148.41 169.471 147.907 168.257 147.907 166.991C147.907 166.365 148.031 165.745 148.27 165.166C148.51 164.587 148.862 164.061 149.305 163.618C149.748 163.175 150.274 162.823 150.852 162.583C151.431 162.344 152.052 162.22 152.678 162.22C153.305 162.22 153.925 162.344 154.504 162.583C155.083 162.823 155.609 163.175 156.052 163.618C156.495 164.061 156.847 164.587 157.087 165.166C157.326 165.745 157.45 166.365 157.45 166.991Z" fill="white"/>
<path id="path2891" d="M176.534 166.991C176.534 167.618 176.411 168.239 176.171 168.817C175.931 169.396 175.58 169.922 175.137 170.366C174.694 170.809 174.168 171.16 173.589 171.4C173.01 171.639 172.39 171.763 171.763 171.763C170.498 171.763 169.284 171.26 168.389 170.366C167.495 169.471 166.992 168.257 166.992 166.991C166.992 166.365 167.115 165.745 167.355 165.166C167.595 164.587 167.946 164.061 168.389 163.618C168.832 163.175 169.358 162.823 169.937 162.583C170.516 162.344 171.137 162.22 171.763 162.22C172.39 162.22 173.01 162.344 173.589 162.583C174.168 162.823 174.694 163.175 175.137 163.618C175.58 164.061 175.931 164.587 176.171 165.166C176.411 165.745 176.534 166.365 176.534 166.991Z" fill="white"/>
<path id="path2893" d="M190.848 109.737C190.848 110.364 190.725 110.984 190.485 111.563C190.245 112.142 189.894 112.668 189.451 113.111C189.008 113.554 188.482 113.905 187.903 114.145C187.324 114.385 186.703 114.508 186.077 114.508C184.811 114.508 183.598 114.006 182.703 113.111C181.808 112.216 181.306 111.002 181.306 109.737C181.306 109.111 181.429 108.491 181.669 107.912C181.909 107.333 182.26 106.807 182.703 106.364C183.146 105.921 183.672 105.569 184.251 105.329C184.83 105.089 185.45 104.966 186.077 104.966C186.703 104.966 187.324 105.089 187.903 105.329C188.482 105.569 189.008 105.921 189.451 106.364C189.894 106.807 190.245 107.332 190.485 107.911C190.725 108.49 190.848 109.111 190.848 109.737Z" fill="white"/>
<path id="path2896" d="M81.1106 133.594C81.1106 134.22 80.9871 134.84 80.7474 135.419C80.5076 135.998 80.1561 136.524 79.7131 136.967C79.27 137.41 78.744 137.761 78.1651 138.001C77.5863 138.241 76.9658 138.364 76.3393 138.364C75.0739 138.364 73.8603 137.862 72.9656 136.967C72.0708 136.072 71.5681 134.859 71.5681 133.594C71.5681 132.967 71.6915 132.347 71.9313 131.768C72.171 131.189 72.5225 130.663 72.9655 130.22C73.4085 129.777 73.9345 129.425 74.5134 129.185C75.0923 128.945 75.7127 128.822 76.3393 128.822C76.9658 128.822 77.5863 128.945 78.1652 129.185C78.7441 129.425 79.2701 129.777 79.7131 130.22C80.1562 130.663 80.5076 131.189 80.7474 131.768C80.9872 132.347 81.1106 132.967 81.1106 133.594Z" fill="white"/>
<path id="path3133" d="M57.2544 52.4835C65.103 52.4835 71.568 46.0183 71.568 38.1697C71.568 33.0306 68.7702 28.5257 64.6535 25.9993C65.9861 28.1703 66.7967 30.6893 66.7967 33.3989C66.7967 41.2476 60.3317 47.7122 52.4831 47.7122C49.7733 47.7122 47.2548 46.901 45.084 45.5693C47.6102 49.6858 52.1154 52.4835 57.2544 52.4835Z" fill="#68C8E6"/>
<path id="path3146" d="M147.907 28.6275C155.756 28.6275 162.221 22.1623 162.221 14.3136C162.221 9.17462 159.423 4.66972 155.306 2.14331C156.639 4.31429 157.45 6.83274 157.45 9.54236C157.45 17.391 150.985 23.8562 143.136 23.8562C140.426 23.8562 137.908 23.0444 135.737 21.7127C138.263 25.8292 142.768 28.6275 147.907 28.6275Z" fill="#68C8E6"/>
<path id="path3148" d="M14.3136 133.594C22.1622 133.594 28.6272 127.129 28.6272 119.28C28.6272 114.141 25.8294 109.636 21.7128 107.11C23.0455 109.281 23.8562 111.799 23.8562 114.509C23.8562 122.357 17.3913 128.823 9.54263 128.823C6.83283 128.823 4.31417 128.011 2.14355 126.679C4.66978 130.796 9.17476 133.594 14.3136 133.594Z" fill="#68C8E6"/>
<path id="path3150" d="M33.3983 224.246C41.2469 224.246 47.7119 217.781 47.7119 209.933C47.7119 204.794 44.9141 200.288 40.7976 197.762C42.1302 199.933 42.941 202.452 42.941 205.162C42.941 213.01 36.476 219.475 28.6273 219.475C25.9175 219.475 23.3989 218.664 21.2283 217.332C23.7545 221.448 28.2595 224.246 33.3983 224.246Z" fill="#68C8E6"/>
<path id="path3152" d="M119.28 267.188C127.129 267.188 133.594 260.722 133.594 252.874C133.594 247.735 130.796 243.23 126.679 240.703C128.012 242.874 128.823 245.393 128.823 248.103C128.823 255.952 122.358 262.416 114.509 262.416C111.799 262.416 109.281 261.605 107.11 260.273C109.636 264.39 114.141 267.188 119.28 267.188Z" fill="#68C8E6"/>
<path id="path3154" d="M209.933 243.331C217.781 243.331 224.246 236.866 224.246 229.018C224.246 223.879 221.449 219.374 217.332 216.847C218.665 219.018 219.475 221.537 219.475 224.246C219.475 232.095 213.01 238.56 205.162 238.56C202.452 238.56 199.933 237.748 197.763 236.417C200.289 240.533 204.794 243.331 209.933 243.331Z" fill="#68C8E6"/>
<path id="path3156" d="M252.874 162.221C260.722 162.221 267.187 155.756 267.187 147.907C267.187 142.768 264.389 138.263 260.273 135.737C261.606 137.908 262.416 140.426 262.416 143.136C262.416 150.985 255.951 157.45 248.103 157.45C245.393 157.45 242.874 156.638 240.704 155.306C243.23 159.423 247.735 162.221 252.874 162.221Z" fill="#68C8E6"/>
<path id="path3158" d="M233.789 71.5677C241.637 71.5677 248.102 65.1031 248.102 57.2544C248.102 52.1154 245.304 47.6105 241.188 45.0841C242.521 47.2551 243.331 49.7735 243.331 52.4832C243.331 60.3318 236.866 66.797 229.018 66.797C226.308 66.797 223.789 65.9852 221.619 64.6535C224.145 68.77 228.65 71.5677 233.789 71.5677Z" fill="#68C8E6"/>
<path id="path3172" d="M62.0256 104.967C69.8743 104.967 76.3392 98.5015 76.3392 90.6529C76.3392 85.5139 73.5414 81.009 69.4247 78.4825C70.7573 80.6535 71.5679 83.172 71.5679 85.8816C71.5679 93.7302 65.1029 100.195 57.2543 100.195C54.5445 100.195 52.026 99.3836 49.8552 98.0519C52.3815 102.168 56.8866 104.967 62.0256 104.967Z" fill="#4EACA6"/>
<path id="path3178" d="M100.195 128.823C108.044 128.823 114.509 122.357 114.509 114.509C114.509 109.37 111.711 104.865 107.594 102.339C108.927 104.509 109.738 107.028 109.738 109.738C109.738 117.586 103.273 124.051 95.424 124.051C92.7142 124.051 90.1957 123.24 88.0249 121.908C90.5511 126.025 95.0563 128.823 100.195 128.823Z" fill="#4EACA6"/>
<path id="path3183" d="M52.4831 166.992C60.3318 166.992 66.7967 160.527 66.7967 152.679C66.7967 147.539 63.9989 143.035 59.8822 140.508C61.2148 142.679 62.0254 145.198 62.0254 147.907C62.0254 155.756 55.5605 162.221 47.7118 162.221C45.002 162.221 42.4835 161.409 40.3127 160.078C42.839 164.194 47.3441 166.992 52.4831 166.992Z" fill="#4EACA6"/>
<path id="path3187" d="M119.28 190.848C127.129 190.848 133.594 184.382 133.594 176.534C133.594 171.395 130.796 166.89 126.679 164.364C128.012 166.535 128.822 169.054 128.822 171.763C128.822 179.612 122.357 186.076 114.509 186.076C111.799 186.076 109.28 185.265 107.11 183.933C109.636 188.05 114.141 190.848 119.28 190.848Z" fill="#4EACA6"/>
<path id="path3191" d="M90.6528 219.475C98.5014 219.475 104.966 213.01 104.966 205.162C104.966 200.023 102.169 195.517 98.0519 192.991C99.3845 195.162 100.195 197.681 100.195 200.39C100.195 208.239 93.7301 214.704 85.8815 214.704C83.1717 214.704 80.6532 213.892 78.4824 212.561C81.0086 216.677 85.5138 219.475 90.6528 219.475Z" fill="#4EACA6"/>
<path id="path3195" d="M152.678 229.017C160.527 229.017 166.992 222.552 166.992 214.704C166.992 209.565 164.194 205.06 160.078 202.533C161.41 204.704 162.221 207.223 162.221 209.933C162.221 217.781 155.756 224.246 147.907 224.246C145.197 224.246 142.679 223.435 140.508 222.103C143.034 226.22 147.539 229.017 152.678 229.017Z" fill="#4EACA6"/>
<path id="path3197" d="M205.162 190.848C213.01 190.848 219.475 184.382 219.475 176.534C219.475 171.395 216.677 166.89 212.561 164.364C213.893 166.535 214.704 169.054 214.704 171.763C214.704 179.612 208.239 186.076 200.39 186.076C197.68 186.076 195.162 185.265 192.991 183.933C195.517 188.05 200.023 190.848 205.162 190.848Z" fill="#4EACA6"/>
<path id="path3199" d="M214.704 133.594C222.553 133.594 229.018 127.129 229.018 119.28C229.018 114.141 226.22 109.636 222.103 107.11C223.436 109.281 224.246 111.799 224.246 114.509C224.246 122.357 217.781 128.823 209.933 128.823C207.223 128.823 204.704 128.011 202.534 126.679C205.06 130.796 209.565 133.594 214.704 133.594Z" fill="#4EACA6"/>
<path id="path3201" d="M176.534 152.678C184.383 152.678 190.848 146.213 190.848 138.365C190.848 133.226 188.05 128.72 183.933 126.194C185.266 128.365 186.077 130.884 186.077 133.594C186.077 141.442 179.612 147.907 171.763 147.907C169.053 147.907 166.535 147.096 164.364 145.764C166.89 149.88 171.395 152.678 176.534 152.678Z" fill="#4EACA6"/>
<path id="path3203" d="M157.45 109.737C165.298 109.737 171.763 103.273 171.763 95.424C171.763 90.285 168.965 85.7801 164.849 83.2537C166.181 85.4247 166.992 87.9432 166.992 90.6528C166.992 98.5014 160.527 104.967 152.678 104.967C149.969 104.967 147.45 104.155 145.279 102.823C147.806 106.94 152.311 109.737 157.45 109.737Z" fill="#4EACA6"/>
<path id="path3205" d="M176.534 76.3389C184.383 76.3389 190.848 69.8742 190.848 62.0256C190.848 56.8866 188.05 52.3811 183.933 49.8547C185.266 52.0257 186.077 54.5447 186.077 57.2543C186.077 65.103 179.612 71.5676 171.763 71.5676C169.053 71.5676 166.535 70.7564 164.364 69.4247C166.89 73.5412 171.395 76.3389 176.534 76.3389Z" fill="#4EACA6"/>
<path id="path3207" d="M114.509 66.7971C122.357 66.7971 128.822 60.3319 128.822 52.4833C128.822 47.3442 126.025 42.8393 121.908 40.3129C123.24 42.4839 124.051 45.0024 124.051 47.712C124.051 55.5606 117.586 62.0258 109.737 62.0258C107.028 62.0258 104.509 61.214 102.338 59.8823C104.865 63.9988 109.37 66.7971 114.509 66.7971Z" fill="#4EACA6"/>
</g>
</svg>
