<svg width="225" height="224" viewBox="0 0 225 224" fill="none" xmlns="http://www.w3.org/2000/svg">
<path d="M41 95L28 91.5M47 64.5C47 64.9 51.3333 67.6667 53.5 69M61.5 30L74.5 51M99.5 35L100 41.5M132 29.5L128 43M158 48.5L153 55.5M171 75L193 63M181 101.5L188 100M179 129L195 133M168 153L174.5 158.5M146.5 171L160 194.5M120 179L122.5 191M93.5 179L89.5 197.5M68.5 167.5L62.5 175.5M50.5 148.5L28 162M31.5 124L39 122.5" stroke="#53FF50" stroke-width="7" stroke-linejoin="round"/>
<path d="M181.5 111.5C181.5 149.543 149.778 180.5 110.5 180.5C71.2223 180.5 39.5 149.543 39.5 111.5C39.5 73.4569 71.2223 42.5 110.5 42.5C149.778 42.5 181.5 73.4569 181.5 111.5Z" fill="#F96FD2" stroke="#53FF50" stroke-width="5"/>
<circle cx="102" cy="75" r="14" fill="#FFC700"/>
<circle cx="136.5" cy="15.5" r="15.5" fill="#5CC0F8"/>
<circle cx="87.5" cy="208.5" r="15.5" fill="#5CC0F8"/>
<circle cx="15.5" cy="88.5" r="15.5" fill="#5CC0F8"/>
<circle cx="209.5" cy="136.5" r="15.5" fill="#5CC0F8"/>
<circle cx="82.5" cy="115.5" r="23.5" fill="#FFC700"/>
<ellipse cx="141.5" cy="91" rx="17.5" ry="18" fill="#FFC700"/>
<circle cx="114.5" cy="104.5" r="6.5" fill="#FFC700"/>
<circle cx="43.5" cy="62.5" r="6.5" fill="#FFC700"/>
<circle cx="98.5" cy="29.5" r="6.5" fill="#FFC700"/>
<circle cx="160.5" cy="44.5" r="6.5" fill="#FFC700"/>
<circle cx="193.5" cy="99.5" r="6.5" fill="#FFC700"/>
<circle cx="177.5" cy="161.5" r="6.5" fill="#FFC700"/>
<circle cx="123.5" cy="195.5" r="6.5" fill="#FFC700"/>
<circle cx="60.5" cy="179.5" r="6.5" fill="#FFC700"/>
<circle cx="27.5" cy="124.5" r="6.5" fill="#FFC700"/>
<circle cx="124" cy="127" r="9" fill="#FFC700"/>
<circle cx="151.5" cy="126.5" r="7.5" fill="#FFC700"/>
<circle cx="139.5" cy="149.5" r="7.5" fill="#FFC700"/>
<circle cx="106.5" cy="151.5" r="10.5" fill="#FFC700"/>
<circle cx="55.5" cy="21.5" r="11.5" fill="#5CC0F8"/>
<circle cx="19.5" cy="166.5" r="11.5" fill="#5CC0F8"/>
<circle cx="165.5" cy="202.5" r="11.5" fill="#5CC0F8"/>
<circle cx="201.5" cy="57.5" r="11.5" fill="#5CC0F8"/>
</svg>
