<?xml version="1.0" ?><svg id="Layer_1" style="enable-background:new 0 0 512 512;" version="1.1" viewBox="0 0 512 512" xml:space="preserve" xmlns="http://www.w3.org/2000/svg" xmlns:xlink="http://www.w3.org/1999/xlink"><style type="text/css">
	.st0{fill:#1C1C1C;}
</style><g id="XMLID_526_"><g id="XMLID_2251_"><g id="XMLID_942_"><path class="st0" d="M147.3,360.3c4.5,0,6.8-3.5,6.8-7.1c0-3.5-2.3-7.1-6.8-7.1c-4.5,0-6.8,3.5-6.8,7.1     C140.4,356.8,142.7,360.3,147.3,360.3L147.3,360.3z" id="XMLID_1078_"/></g><path class="st0" d="M154,325c0-22,0-44.9,0-67.3c0-3.8-2.9-7.7-6.7-7.7c-14,0-28.1,0-42.1,0    c-3.8,0-7.2,3.8-7.2,7.7c0,53.9,0,107.8,0,161.6c0,21.3-0.6,42.7,0.1,64c0.6,20.1,20.6,34.9,39.7,26c15.1-7,16.2-21.4,16.2-35.9    c0-30.7,0-60.5,0-91.5c0-10-14-10-14,0c0,25,0,50.3,0,75.7c0,9.1,1.3,19,0,28c-1.6,11.3-15.7,16-23.7,8c-3.2-3.2-4.1-7.3-4.2-11.6    c-0.5-54.3-0.1-108.7-0.1-163.1c0-18.1,0-36,0-55c10,0,18,0,28,0c0,20,0,41,0,61C140,334,154,334,154,325z" id="XMLID_1108_"/><path class="st0" d="M112.9,259.6c0-0.6-0.1-1.3-0.1-1.9c0-2.2-0.8-4.1-2.1-5.2c-1.1-1.3-2.8-2.4-5.1-2.4    c-14,0-28.1,0-42.1,0c-3.8,0-6.6,3.8-6.6,7.7c0,29.8,0,59.6,0,89.3c0,41.5,0,83.1,0,124.6c0,15.2,0.2,31,17,38.1    c14.7,6.2,32.2-1.4,37.5-16.6c1.6-4.6,1.6-9.3,1.6-14.1c0-38,0-75.9,0-113.9C113,330,113.8,294.7,112.9,259.6z M93.4,495    c-9.7,7.5-21.9-0.3-22.5-11.5c-0.2-3.3,0.1-6.6,0.1-9.9c0-38.7,0-77.5,0-116.2c0-30.9,0-61.4,0-93.4c8,0,18,0,28,0    c0,67,0,134.1,0,200.8C99,473.7,101.4,488.8,93.4,495z" id="XMLID_1156_"/><path class="st0" d="M175,179.8c0-3.8-3.2-7.1-7-7.1c-28.4,0-57-1-85.4,0c-12.1,0.4-22.5,8.5-24.5,20.8    c-2.1,13.7,7.7,26.4,21.4,28.1c15.2,1.9,31.5,0.2,46.7,0.2c6.4,0,12.9,0.2,19.4,0c16.1-0.6,28.1-12.4,29.4-28.2    c0.1-0.4,0.1-0.8,0.1-1.3C175,188.1,175,183.9,175,179.8z M126.8,207.7c-14.4,0-28.8,0.3-43.2,0c-8.1-0.2-15.1-7.6-10.4-15.6    c2.9-5,8-5.1,13-5.1c14.8,0,29.6,0,44.5,0c10.1,0,20.3,0,30.3,0c0,1,0,3.5,0,5.3C160,210.8,139.7,207.7,126.8,207.7z" id="XMLID_1190_"/><path class="st0" d="M130.1,36.3c-1.3-3.6-4.8-6-8.7-4.9c-10.3,2.8-20.5,5.5-30.8,8.3c-14.9,4-29.2,8.3-42.5-3.2    c-3.9-3.3-10.4-2.3-11.8,3.1C26.9,76.2,58.9,109,95.4,101c0.4-0.1,0.8-0.1,1.2-0.2c0.4-0.1,0.7-0.2,1-0.3    C124.4,91.9,139.4,63.3,130.1,36.3z M92.8,87.1c-22.9,5.6-43.5-11.6-44.1-33.5c7.3,3.7,15.3,5.5,23.7,4.7    c5.9-0.5,11.5-2.3,17.2-3.8c9.5-2.5,19-5.1,28.5-7.6C121,64.6,111,81.7,92.8,87.1z" id="XMLID_1320_"/><g id="XMLID_2355_"><path class="st0" d="M133,180c0,0,0-30,0-44c0-9-14-9-14,0c0,14,0,30,0,44C119,188,133,188,133,180     C133,180,133,188,133,180z" id="XMLID_931_"/></g><path class="st0" d="M130.3,36.3c-3.1-11.6-5.6-23-16.1-30.3C102.1-2.6,89.4,0.5,76.3,4    c-15.4,4.1-30.8,8.3-46.2,12.4c-3.6,1-6,5-4.9,8.7C33,51.5,58.7,62.8,84.3,56c13.7-3.7,27.4-7.1,41-11c2-0.6,3.3-1.7,4.1-3.1    C130.4,40.4,130.9,38.5,130.3,36.3z M70,44.4c-12.2,0.5-22.8-6.2-28.4-16.4C52.6,25,63.7,22,74.8,19c8.4-2.2,18.8-7,27.4-3.7    c8.1,3.1,10.8,10.3,12.7,17.8c-9.5,2.6-19,5-28.5,7.6C81.1,42.2,75.5,44.1,70,44.4z" id="XMLID_1322_"/><path class="st0" d="M49.8,197.3c0-0.9,0-1.6-0.2-2.3c-1.7-12.3-11.3-22.2-24.3-22.2    c-13.4,0-24.5,11.2-24.6,24.6c-0.1,13.1,10.7,23.9,23.6,24.5c13.4,0.6,23.5-9.6,25.3-22.2C49.7,198.9,49.8,198.1,49.8,197.3z     M14.8,197.3c0-13.5,20.2-13.4,20.9,0C34.9,210.7,14.8,210.8,14.8,197.3z" id="XMLID_1236_"/><path class="st0" d="M79.2,180.9c-2.6-8.3-5.1-16.5-7.7-24.8c-0.9-3-3.6-5.1-6.8-5.1c-13.2,0-26.3,0-39.5,0    c-4.5,0-8.2,4.4-6.8,8.8c2.4,7.8,4.8,15.6,7.3,23.4c2.7,8.7,16.3,5.5,13.6-3.2c-1.5-4.8-3-10-4.5-14c8.2,0,16.5,0,24.7,0    c2,5,4.1,12.6,6.1,19.2C68.3,193.9,81.9,189.7,79.2,180.9z" id="XMLID_933_"/><path class="st0" d="M82,208c-11,0-22.6,0-34,0c-0.3-1-0.7-2.3-1-3.4c-2.7-8.7-16.3-5-13.6,3.7    c0.9,2.8,1.7,5.7,2.6,8.5c0.9,3,3.6,5.2,6.8,5.2c13.2,0,26.2,0,39.2,0C92,222,92,208,82,208z" id="XMLID_529_"/><path class="st0" d="M172.9,121.4c-5.1-16.1-18.9-29-35.6-32.3c-9.6-1.9-20-1-29.8-1c-9.4,0-19-0.7-28.3,0.2    c-19.1,1.7-35.5,15.3-41.3,33.6c-3.6,11.4-2.1,24.1-2.1,37.1c0,8,14.1,8,14.1,0c0-9-0.4-16.9,0-25c0.9-16.2,14-30.1,30.2-31.4    c15.9-1.3,32.7-0.7,48.6-0.2c15.9,0.5,29.6,12.5,31.9,28.3c0.7,4.9,0.3,10,0.3,14.9c0,20.7,0,41.5,0,62.2c0,14.3,0,28.2,0,42.2    c-34,0-68.4,0-102.7,0c-2.8,0-6.3,0-8.3,0c0-11,0-24,0-35c0-10-14-10-14,0c0,14,0,28.4,0,42.7c0,3.8,3,6.3,6.8,6.3    c36.6,0,73.1,0,109.7,0c5.2,0,10.4,0,15.5,0c3.8,0,7-2.5,7-6.3c0-38.1,0-76.3,0-114.4C175,135.8,175.2,128.5,172.9,121.4z" id="XMLID_527_"/><g id="XMLID_2396_"><path class="st0" d="M64,471c0,0,55,0,83,0c10,0,10-14,0-14c-28,0-55,0-83,0C54,457,54,471,64,471     C64,471,54,471,64,471z" id="XMLID_531_"/></g></g><g id="XMLID_2408_"><path class="st0" d="M427,455.7c0-15.4,0-30.8,0-46.2c0-3.8-3.3-6.5-7.1-6.5c-14.1,0-28.2,0-42.4,0    c-2.2,0-4,0.5-5.2,1.7c-1.3,1.1-2.4,2.5-2.4,4.8c0,12.8,0,25.7,0,38.5c0,12.9-1.2,26.7,0.6,39.5c3.6,26.8,41.1,33.1,53.3,8.8    C429.6,485,427,467.9,427,455.7z M412.8,482c-0.1,7-3,13.4-10.4,15.4c-9.4,2.6-17.7-4.8-18.2-14c-0.6-11.7-0.3-23.7-0.3-35.4    c0-10.5,0-21,0-31c10,0,19.4,0,28.8,0C412.9,438,413,460.3,412.8,482z" id="XMLID_1337_"/><path class="st0" d="M469,455.7c0-15.4,0-30.8,0-46.2c0-3.8-3.4-6.5-7.3-6.5c-14.1,0-28.2,0-42.4,0    c-2.2,0-3.5,0.5-4.6,1.7c-1.3,1.1-1.8,2.5-1.8,4.8c0,12.8,0,25.7,0,38.5c0,12.9-1.7,26.7,0,39.5c3.6,26.8,40.9,33.1,53.1,8.8    C471.8,485,469,467.9,469,455.7z M454.7,482c-0.1,7-3,13.4-10.4,15.4c-9.4,2.6-17.1-4.8-17.6-14c-0.6-11.7,0.3-23.7,0.3-35.4    c0-10.5,0-21,0-31c8,0,18.3,0,27.7,0C454.7,438,454.9,460.3,454.7,482z" id="XMLID_1333_"/><g id="XMLID_2468_"><path class="st0" d="M349.5,190.1c0,10.5-0.7,21.9,6.9,30.2c3,3.3,6.3,6.3,9.5,9.5     c10.8,10.8,21.7,21.7,32.5,32.5c2.6,2.6,5.1,5.4,7.9,7.7c9.1,7.6,22.8,7.7,31.8,0c8.5-7.3,11.3-19.9,6.1-29.9     c-2.4-4.7-6.5-8.3-10.2-11.9C424,218,414,208,404,197.9c0.7,1.7,1.4,3.3,2.1,5c0-20.5,0-41,0-61.5c0-6,0.1-10.8-2.5-16.4     c-6.3-13.9-20.2-19.8-34.8-20.1c-9.1-0.2-9.1,13.9,0,14.1c11.1,0.2,19.5,5,23,14.7c1.2,3.3,0.3-1.7,0.1,1.6     c-0.2,3.5,0,7.2,0,10.7c0,11.3,0,22.6,0,34c0,7.4-0.7,15.2,0,22.6c0.6,6.3,8.1,11.3,12.2,15.5c7.5,7.5,15.1,15.1,22.6,22.6     c2.7,2.7,5.6,5.3,5.9,9.4c0.8,8.6-8.9,14.5-16.2,9.9c-5.4-3.4-10-9.7-14.5-14.2c-9-9-17.9-17.9-26.9-26.9     c-2.7-2.7-5.6-5.3-8.1-8.1c-4.7-5.3-3.3-14.1-3.3-20.7C363.7,181,349.6,181,349.5,190.1L349.5,190.1z" id="XMLID_927_"/></g><path class="st0" d="M465.7,44c-1-0.7-2.1-1-3.6-1c-24,0-47.1,0-70.6,0c-5.7,0-9.9,7.9-5,12    c9.9,8.3,13.4,19.8,9.5,32.1c-1.3,3.9,1.5,7.3,4.9,8.7c32.7,13,67.5-11.2,68.3-45.8C469.2,46.9,467.7,45,465.7,44z M411.1,84.2    c1.5-9.5-0.2-19.2-4.7-27.2c15.9,0,31.7,0,47.8,0C450.1,77,430.8,88.4,411.1,84.2z" id="XMLID_1328_"/><g id="XMLID_2527_"><path class="st0" d="M468,208c0,0,0-73,0-110c0-10-14-10-14,0c0,37,0,73,0,110C454,216,468,216,468,208     C468,208,468,216,468,208z" id="XMLID_925_"/></g><path class="st0" d="M474.1,31.1C472,15.7,460.6,2.9,444.6,0.7c-9.1-1.3-18.7-0.4-27.8-0.4    c-15.7,0-32.8-1.7-47,6.3c-12.6,7.1-18.2,20-19.4,33.8c-18.9,10.1-26.6,32.8-19,52.4c-19.3,11.1-22.3,40.5-1.4,53.4    c21.9,13.5,47.5-4.8,46.9-27.8c13.6-2.4,25.5-11.2,31.2-24c5.5-12.3,4.5-26.4-1.8-37.4c20.3,0,40.6,0,60.9,0    c3.8,0,7.7-3.3,7.7-7.1c0-5,0-9.9,0-15.6C475,33,474.6,32,474.1,31.1z M395.1,88.9c-4.8,10.2-15.2,16.2-26.4,16    c-4.5-0.1-8.1,4.6-6.8,8.9c4.4,14.6-10.8,29.1-24.8,20.2c-13.1-8.4-8.3-27.1,5.8-30.8c4.3-1.1,6.6-6.5,4.2-10.4    c-9.8-15.9-3.2-34.6,13.7-41.8c2.2-1,3.5-3.8,3.5-6.1c0.2-12.9,5.1-24.3,18.1-28.5c6-1.9,12-2.1,18.3-2c10.8,0,21.6,0,32.5,0    c4.1,0,8.4-0.3,12.3,0.8c8.9,2.6,14.6,10.6,14.9,19.7c0,0.9-0.4,1.7,0.6,2.4c0,1.9,0,3.7,0,5.7c-23,0-46.5,0-69.5,0    c-5.7,0-9.9,7.9-5,12C396.5,63.3,400.9,76.6,395.1,88.9z" id="XMLID_1325_"/><path class="st0" d="M497.1,307.1c0-3.8-3.2-7.1-7.1-7.1c-37,0-74.1,0-111.1,0c-2.2,0-3.8,0.9-4.9,2.1    c-1.3,1.1-2.1,2.8-2.1,5.1c0,14.7-0.1,29.5,0,44.2c0.1,10.4,3.5,19.7,12.1,26.1c6.5,4.8,13.9,5.5,21.7,5.5c17.4,0,34.8,0,52.2,0    c6.3,0,12.9,0.7,18.9-1.3c12.3-4.1,19.8-15.4,20.2-28C497.6,338.2,497.1,322.6,497.1,307.1z M476.3,366.4    c-4.7,3.3-10.2,2.6-15.6,2.6c-15.9,0-31.8,0-47.7,0c-4.2,0-8.5,0.5-12.6,0.1c-9.7-0.8-14.4-8.6-14.5-17.6c-0.1-12.5,0-24.5,0-37.5    c32.3,0,65.1,0,97.1,0c0,11,0,22.5,0,33.6C483,354.8,483,361.7,476.3,366.4z" id="XMLID_1331_"/><g id="XMLID_2549_"><path class="st0" d="M428.7,271.7c8.8,5.3,19.6,5.4,28-0.6c3.3-2.4,6.1-5.6,9-8.5c7.3-7.3,14.7-14.7,22-22     c6.4-6.4-3.5-16.4-10-10c-5.8,5.8-11.6,11.6-17.4,17.4c-6.6,6.6-14.1,17.8-24.4,11.4C428,254.7,420.9,266.9,428.7,271.7     L428.7,271.7z" id="XMLID_537_"/></g><g id="XMLID_2557_"><path class="st0" d="M455.7,202.3c-9.6,9.6-19.3,19.3-28.9,28.9c-6.4,6.4,3.5,16.4,10,10     c9.6-9.6,19.3-19.3,28.9-28.9C472.1,205.9,462.1,195.9,455.7,202.3L455.7,202.3z" id="XMLID_538_"/></g><path class="st0" d="M511.8,407.8c-6.5-44.8-13-89.6-19.5-134.4c-0.9-6.4-1.9-12.9-2.8-19.3    c-1.3-9-14.9-5.2-13.6,3.7c6.5,44.8,13,89.8,19.5,134.5c0.5,3.4,1,6.5,1.5,10.5c-47.2,0-94.3,0-141.5,0c-4.3,0-8.7,0-13,0    c6.1-42,12.2-83.9,18.2-125.7c0.7-4.7,1.4-9.3,2-14.3c12.7,0,26.3,0,37.3,0c10,0,10-14,0-14c-14,0-28.7,0-43.4,0    c-2.8,0-6.4,2.1-6.8,5.2c-6.5,44.8-13,89.5-19.5,134.3c-0.9,6.4-1.9,13-2.8,19.4c-0.6,4.4,1.8,9.2,6.8,9.2c49.9,0,99.7,0,149.6,0    c7,0,14.1,0,21.1,0C510,417,512.5,412.3,511.8,407.8z" id="XMLID_536_"/><path class="st0" d="M489.9,133.5c-0.4-24-17.7-44.7-41.8-47.7c-15.3-1.9-31.4-0.4-46.8-0.4c-2.4,0-5,1.3-6.1,3.5    c-5.3,10.1-14.9,16.2-26.4,16c-4.5-0.1-8.1,4.6-6.8,8.9c2.7,8.9-1,17-9.2,21.3c-2.2,1.2-3.8,3.7-3.8,6.1c0,38.3,0,76.5,0,114.8    c0,3.8,3.8,7,7.6,7c14.7,0,29.4,0,43.4,0c10,0,10-14,0-14c0,0-21,0-37,0c0-35,0-69.1,0-103.7c9-6.2,14.1-16.3,13.7-26.9    c11.6-2,21.9-8.8,28.4-18.8c12,0,24-0.1,36,0c19.5,0.2,34.5,15,34.6,34.5c0.2,29.5,0.2,59,0.2,88.4c0,11.2,0,22.6,0,33.6    c0,9,14,9,14,0c0-29,0-57.9,0-86.9C490,157.3,490,145.4,489.9,133.5z" id="XMLID_926_"/><path class="st0" d="M458.8,261.7c-5-7.5-17.7-0.5-12.7,7.1c4.2,6.4,2.9,13.3,2.9,20.6c0,3.6,0,7.6,0,10.6    c-9,0-19,0-31,0c0-3,0-6.1,0-9.2c0-6.6-0.5-14.1,2.6-20.1c4.2-8.1-7.8-15.2-12-7.1c-6.6,12.8-3.9,29.5-3.9,43.5    c0,3.8,3.4,6.9,7.2,6.9c15,0,30.1,0,45.1,0c3.8,0,7.1-3.1,7.1-6.9C464,292.7,467.1,274.3,458.8,261.7z" id="XMLID_539_"/></g><g id="XMLID_309_"><path class="st0" d="M224.7,270.7c-5.5-4.9-10.6-9.8-16.3-14.7c5.7-4.9,10.8-9.8,16.3-14.7c6.8-6-3-16-9.8-10    c-7.4,6.6-14.8,13.1-22.2,19.7c-2.7,2.4-2.7,7.6,0,10c7.4,6.6,14.8,13.1,22.2,19.7C221.7,286.7,231.5,276.8,224.7,270.7z" id="XMLID_930_"/><path class="st0" d="M320.9,251c-7.4-6.6-14.8-13.1-22.2-19.7c-6.8-6-16.8,3.9-10,10c5.5,4.9,11.3,9.8,16.8,14.7    c-5.5,4.9-11.2,9.8-16.8,14.7c-6.8,6,3.2,16,10,10c7.4-6.6,14.8-13.1,22.2-19.7C323.7,258.6,323.6,253.4,320.9,251z" id="XMLID_1323_"/><g id="XMLID_2610_"><path class="st0" d="M198,263c0,0,78,0,117,0c9,0,9-14,0-14c-39,0-78,0-117,0C189,249,189,263,198,263     C198,263,189,263,198,263z" id="XMLID_308_"/></g></g></g></svg>