<svg xmlns="http://www.w3.org/2000/svg" viewBox="0 0 32 32">
    <path d="M 4 10 L 4 11.5625 C 2.882048 12.149496 2 13.159551 2 14.5 C 2 15.935684 2.9705771 17.026833 4.21875 17.5625 C 5.0053058 23.426373 9.9289042 28 16 28 C 22.071096 28 26.994694 23.426373 27.78125 17.5625 C 29.029423 17.026833 30 15.935684 30 14.5 C 30 13.160035 29.118088 12.149661 28 11.5625 L 28 10 L 26 10 L 26 12.0625 L 26 12.875 L 26.8125 13.03125 C 27.494751 13.169972 28 13.76467 28 14.5 C 28 15.245304 27.480126 15.840863 26.78125 15.96875 L 26.03125 16.09375 L 25.96875 16.875 C 25.527496 21.995366 21.241035 26 16 26 C 10.758965 26 6.472504 21.995366 6.03125 16.875 L 5.96875 16.09375 L 5.21875 15.96875 C 4.5198744 15.840863 4 15.245304 4 14.5 C 4 13.763278 4.5046989 13.170084 5.1875 13.03125 L 6 12.875 L 6 12.0625 L 6 10 L 4 10 z M 11.5 12 C 10.671573 12 10 12.671573 10 13.5 C 10 14.328427 10.671573 15 11.5 15 C 12.328427 15 13 14.328427 13 13.5 C 13 12.671573 12.328427 12 11.5 12 z M 20.5 12 C 19.671573 12 19 12.671573 19 13.5 C 19 14.328427 19.671573 15 20.5 15 C 21.328427 15 22 14.328427 22 13.5 C 22 12.671573 21.328427 12 20.5 12 z M 11.40625 16.90625 L 10.59375 18.75 L 11.90625 19.3125 L 14.4375 18.21875 L 11.40625 16.90625 z M 20.59375 16.90625 L 10.59375 21.25 L 11.40625 23.09375 L 21.40625 18.75 L 20.59375 16.90625 z M 20.25 20.75 L 17.75 21.84375 L 20.59375 23.09375 L 21.40625 21.25 L 20.25 20.75 z"/>
</svg>