<?xml version="1.0" encoding="iso-8859-1"?>
<!-- Generator: Adobe Illustrator 21.1.0, SVG Export Plug-In . SVG Version: 6.00 Build 0)  -->
<svg version="1.1" id="Layer_1" xmlns="http://www.w3.org/2000/svg" xmlns:xlink="http://www.w3.org/1999/xlink" x="0px" y="0px"
	 viewBox="0 0 24 24" enable-background="new 0 0 24 24" xml:space="preserve">
<g>
	<path fill="#303C42" d="M21,1h-0.6533203c-0.1762695,0-0.3398438,0.0927734-0.4296875,0.2446289
		C19.8710938,1.3212891,19.7392578,1.5,19.5,1.5s-0.3710938-0.1787109-0.4169922-0.2553711
		C18.9931641,1.0927734,18.8295898,1,18.6533203,1h-1.3066406c-0.1762695,0-0.3398438,0.0927734-0.4296875,0.2446289
		C16.8710938,1.3212891,16.7392578,1.5,16.5,1.5s-0.3710938-0.1787109-0.4169922-0.2553711
		C15.9931641,1.0927734,15.8295898,1,15.6533203,1h-1.3066406c-0.1762695,0-0.3398438,0.0927734-0.4296875,0.2446289
		C13.8710938,1.3212891,13.7392578,1.5,13.5,1.5s-0.3710938-0.1787109-0.4169922-0.2553711
		C12.9931641,1.0927734,12.8295898,1,12.6533203,1h-1.3066406c-0.1762695,0-0.3398438,0.0927734-0.4296875,0.2446289
		C10.8710938,1.3212891,10.7392578,1.5,10.5,1.5s-0.3710938-0.1787109-0.4169922-0.2553711
		C9.9931641,1.0927734,9.8295898,1,9.6533203,1H8.3466797C8.1704102,1,8.0068359,1.0927734,7.9169922,1.2446289
		C7.8710938,1.3212891,7.7392578,1.5,7.5,1.5S7.1289063,1.3212891,7.0830078,1.2446289C6.9931641,1.0927734,6.8295898,1,6.6533203,1
		H5.3466797C5.1704102,1,5.0068359,1.0927734,4.9169922,1.2446289C4.8710938,1.3212891,4.7392578,1.5,4.5,1.5
		S4.1289063,1.3212891,4.0830078,1.2446289C3.9931641,1.0927734,3.8295898,1,3.6533203,1H3C1.8969727,1,1,1.8969727,1,3v18
		c0,1.1030273,0.8969727,2,2,2h0.6533203c0.1762695,0,0.3398438-0.0927734,0.4296875-0.2446289
		C4.1289063,22.6787109,4.2607422,22.5,4.5,22.5s0.3710938,0.1787109,0.4169922,0.2553711
		C5.0068359,22.9072266,5.1704102,23,5.3466797,23h1.3066406c0.1762695,0,0.3398438-0.0927734,0.4296875-0.2446289
		C7.1289063,22.6787109,7.2607422,22.5,7.5,22.5s0.3710938,0.1787109,0.4169922,0.2553711
		C8.0068359,22.9072266,8.1704102,23,8.3466797,23h1.3066406c0.1762695,0,0.3398438-0.0927734,0.4296875-0.2446289
		C10.1289063,22.6787109,10.2607422,22.5,10.5,22.5s0.3710938,0.1787109,0.4169922,0.2553711
		C11.0068359,22.9072266,11.1704102,23,11.3466797,23h1.3066406c0.1762695,0,0.3398438-0.0927734,0.4296875-0.2446289
		C13.1289063,22.6787109,13.2607422,22.5,13.5,22.5s0.3710938,0.1787109,0.4169922,0.2553711
		C14.0068359,22.9072266,14.1704102,23,14.3466797,23h1.3066406c0.1762695,0,0.3398438-0.0927734,0.4296875-0.2446289
		C16.1289063,22.6787109,16.2607422,22.5,16.5,22.5s0.3710938,0.1787109,0.4169922,0.2553711
		C17.0068359,22.9072266,17.1704102,23,17.3466797,23h1.3066406c0.1762695,0,0.3398438-0.0927734,0.4296875-0.2446289
		C19.1289063,22.6787109,19.2607422,22.5,19.5,22.5s0.3710938,0.1787109,0.4169922,0.2553711
		C20.0068359,22.9072266,20.1704102,23,20.3466797,23H21c1.1030273,0,2-0.8969727,2-2V3C23,1.8969727,22.1030273,1,21,1z"/>
	<path fill="#CEADD2" d="M22,21c0,0.5512695-0.4487305,1-1,1h-0.4018555c-0.5625-0.6347656-1.6337891-0.6347656-2.1962891,0
		h-0.8037109c-0.5625-0.6347656-1.6337891-0.6347656-2.1962891,0h-0.8037109c-0.5625-0.6347656-1.6337891-0.6347656-2.1962891,0
		h-0.8037109c-0.5625-0.6347656-1.6337891-0.6347656-2.1962891,0H8.5981445c-0.5625-0.6347656-1.6337891-0.6347656-2.1962891,0
		H5.5981445c-0.5625-0.6347656-1.6337891-0.6347656-2.1962891,0H3c-0.5512695,0-1-0.4487305-1-1V3c0-0.5512695,0.4487305-1,1-1
		h0.4018555c0.5625,0.6347656,1.6337891,0.6347656,2.1962891,0h0.8037109c0.5625,0.6347656,1.6337891,0.6347656,2.1962891,0
		h0.8037109c0.5625,0.6347656,1.6337891,0.6347656,2.1962891,0h0.8037109c0.5625,0.6347656,1.6337891,0.6347656,2.1962891,0
		h0.8037109c0.5625,0.6347656,1.6337891,0.6347656,2.1962891,0h0.8037109c0.5625,0.6347656,1.6337891,0.6347656,2.1962891,0H21
		c0.5512695,0,1,0.4487305,1,1V21z"/>
	<path opacity="0.1" fill="#010101" d="M21,20.5h-0.4018555c-0.5625-0.6347656-1.6337891-0.6347656-2.1962891,0h-0.8037109
		c-0.5625-0.6347656-1.6337891-0.6347656-2.1962891,0h-0.8037109c-0.5625-0.6347656-1.6337891-0.6347656-2.1962891,0h-0.8037109
		c-0.5625-0.6347656-1.6337891-0.6347656-2.1962891,0H8.5981445c-0.5625-0.6347656-1.6337891-0.6347656-2.1962891,0H5.5981445
		c-0.5625-0.6347656-1.6337891-0.6347656-2.1962891,0H3c-0.5512695,0-1-0.4487305-1-1V21c0,0.5512695,0.4487305,1,1,1h0.4018555
		c0.5625-0.6347656,1.6337891-0.6347656,2.1962891,0h0.8037109c0.5625-0.6347656,1.6337891-0.6347656,2.1962891,0h0.8037109
		c0.5625-0.6347656,1.6337891-0.6347656,2.1962891,0h0.8037109c0.5625-0.6347656,1.6337891-0.6347656,2.1962891,0h0.8037109
		c0.5625-0.6347656,1.6337891-0.6347656,2.1962891,0h0.8037109c0.5625-0.6347656,1.6337891-0.6347656,2.1962891,0H21
		c0.5512695,0,1-0.4487305,1-1v-1.5C22,20.0512695,21.5512695,20.5,21,20.5z"/>
	<circle opacity="0.15" fill="#FFFFFF" cx="12" cy="11.875" r="7.875"/>
	<circle opacity="0.15" fill="#FFFFFF" cx="12" cy="12" r="6"/>
	<path opacity="0.6" fill="#FFFFFF" d="M12,4c-0.2763672,0-0.5,0.2236328-0.5,0.5S11.7236328,5,12,5c3.8598633,0,7,3.1401367,7,7
		s-3.1401367,7-7,7s-7-3.1401367-7-7c0-0.2763672-0.2236328-0.5-0.5-0.5S4,11.7236328,4,12c0,4.4111328,3.5888672,8,8,8
		s8-3.5888672,8-8S16.4111328,4,12,4z"/>
	<path opacity="0.6" fill="#FFFFFF" d="M12,18c0.2763672,0,0.5-0.2236328,0.5-0.5S12.2763672,17,12,17c-2.7568359,0-5-2.2431641-5-5
		s2.2431641-5,5-5s5,2.2431641,5,5c0,0.2763672,0.2236328,0.5,0.5,0.5S18,12.2763672,18,12c0-3.3085938-2.6914063-6-6-6
		s-6,2.6914063-6,6S8.6914063,18,12,18z"/>
	<linearGradient id="SVGID_1_" gradientUnits="userSpaceOnUse" x1="-0.6523309" y1="6.100121" x2="24.6523304" y2="17.8998795">
		<stop  offset="0" style="stop-color:#FFFFFF;stop-opacity:0.2"/>
		<stop  offset="1" style="stop-color:#FFFFFF;stop-opacity:0"/>
	</linearGradient>
	<path fill="url(#SVGID_1_)" d="M21,1h-0.6533203c-0.1762695,0-0.3398438,0.0927734-0.4296875,0.2446289
		C19.8710938,1.3212891,19.7392578,1.5,19.5,1.5s-0.3710938-0.1787109-0.4169922-0.2553711
		C18.9931641,1.0927734,18.8295898,1,18.6533203,1h-1.3066406c-0.1762695,0-0.3398438,0.0927734-0.4296875,0.2446289
		C16.8710938,1.3212891,16.7392578,1.5,16.5,1.5s-0.3710938-0.1787109-0.4169922-0.2553711
		C15.9931641,1.0927734,15.8295898,1,15.6533203,1h-1.3066406c-0.1762695,0-0.3398438,0.0927734-0.4296875,0.2446289
		C13.8710938,1.3212891,13.7392578,1.5,13.5,1.5s-0.3710938-0.1787109-0.4169922-0.2553711
		C12.9931641,1.0927734,12.8295898,1,12.6533203,1h-1.3066406c-0.1762695,0-0.3398438,0.0927734-0.4296875,0.2446289
		C10.8710938,1.3212891,10.7392578,1.5,10.5,1.5s-0.3710938-0.1787109-0.4169922-0.2553711
		C9.9931641,1.0927734,9.8295898,1,9.6533203,1H8.3466797C8.1704102,1,8.0068359,1.0927734,7.9169922,1.2446289
		C7.8710938,1.3212891,7.7392578,1.5,7.5,1.5S7.1289063,1.3212891,7.0830078,1.2446289C6.9931641,1.0927734,6.8295898,1,6.6533203,1
		H5.3466797C5.1704102,1,5.0068359,1.0927734,4.9169922,1.2446289C4.8710938,1.3212891,4.7392578,1.5,4.5,1.5
		S4.1289063,1.3212891,4.0830078,1.2446289C3.9931641,1.0927734,3.8295898,1,3.6533203,1H3C1.8969727,1,1,1.8969727,1,3v18
		c0,1.1030273,0.8969727,2,2,2h0.6533203c0.1762695,0,0.3398438-0.0927734,0.4296875-0.2446289
		C4.1289063,22.6787109,4.2607422,22.5,4.5,22.5s0.3710938,0.1787109,0.4169922,0.2553711
		C5.0068359,22.9072266,5.1704102,23,5.3466797,23h1.3066406c0.1762695,0,0.3398438-0.0927734,0.4296875-0.2446289
		C7.1289063,22.6787109,7.2607422,22.5,7.5,22.5s0.3710938,0.1787109,0.4169922,0.2553711
		C8.0068359,22.9072266,8.1704102,23,8.3466797,23h1.3066406c0.1762695,0,0.3398438-0.0927734,0.4296875-0.2446289
		C10.1289063,22.6787109,10.2607422,22.5,10.5,22.5s0.3710938,0.1787109,0.4169922,0.2553711
		C11.0068359,22.9072266,11.1704102,23,11.3466797,23h1.3066406c0.1762695,0,0.3398438-0.0927734,0.4296875-0.2446289
		C13.1289063,22.6787109,13.2607422,22.5,13.5,22.5s0.3710938,0.1787109,0.4169922,0.2553711
		C14.0068359,22.9072266,14.1704102,23,14.3466797,23h1.3066406c0.1762695,0,0.3398438-0.0927734,0.4296875-0.2446289
		C16.1289063,22.6787109,16.2607422,22.5,16.5,22.5s0.3710938,0.1787109,0.4169922,0.2553711
		C17.0068359,22.9072266,17.1704102,23,17.3466797,23h1.3066406c0.1762695,0,0.3398438-0.0927734,0.4296875-0.2446289
		C19.1289063,22.6787109,19.2607422,22.5,19.5,22.5s0.3710938,0.1787109,0.4169922,0.2553711
		C20.0068359,22.9072266,20.1704102,23,20.3466797,23H21c1.1030273,0,2-0.8969727,2-2V3C23,1.8969727,22.1030273,1,21,1z"/>
</g>
<g>
</g>
<g>
</g>
<g>
</g>
<g>
</g>
<g>
</g>
<g>
</g>
<g>
</g>
<g>
</g>
<g>
</g>
<g>
</g>
<g>
</g>
<g>
</g>
<g>
</g>
<g>
</g>
<g>
</g>
</svg>
