<?xml version="1.0" ?><svg data-name="Filled Outline" id="Filled_Outline" viewBox="0 0 128 128" xmlns="http://www.w3.org/2000/svg"><title/><rect height="36.913" rx="13.535" ry="13.535" style="fill:#ffd0ca" width="51.974" x="9.763" y="87.104"/><circle cx="20.172" cy="74.802" r="7.59" style="fill:#ffe3de"/><circle cx="41.488" cy="69.763" r="4.692" style="fill:#ffe3de"/><circle cx="25.601" cy="55.558" r="4.692" style="fill:#ffe3de"/><path d="M48.2,125.518H23.3A15.053,15.053,0,0,1,8.263,110.482V100.64A15.053,15.053,0,0,1,23.3,85.6H48.2A15.053,15.053,0,0,1,63.237,100.64v9.842A15.053,15.053,0,0,1,48.2,125.518ZM23.3,88.6A12.05,12.05,0,0,0,11.263,100.64v9.842A12.05,12.05,0,0,0,23.3,122.518H48.2a12.05,12.05,0,0,0,12.035-12.036V100.64A12.05,12.05,0,0,0,48.2,88.6Z" style="fill:#332c44"/><path d="M20.171,83.892a9.09,9.09,0,1,1,9.09-9.09A9.1,9.1,0,0,1,20.171,83.892Zm0-15.18a6.09,6.09,0,1,0,6.09,6.09A6.1,6.1,0,0,0,20.171,68.712Z" style="fill:#332c44"/><path d="M41.488,75.955a6.193,6.193,0,1,1,6.192-6.192A6.2,6.2,0,0,1,41.488,75.955Zm0-9.385a3.193,3.193,0,1,0,3.192,3.193A3.2,3.2,0,0,0,41.488,66.57Z" style="fill:#332c44"/><path d="M25.6,61.75a6.193,6.193,0,1,1,6.192-6.192A6.2,6.2,0,0,1,25.6,61.75Zm0-9.385a3.193,3.193,0,1,0,3.192,3.193A3.2,3.2,0,0,0,25.6,52.365Z" style="fill:#332c44"/><rect height="17.878" style="fill:#ffc0bb" width="8.391" x="81.804" y="19.372"/><path d="M73.677,33.875H98.323a0,0,0,0,1,0,0v6.979a4.687,4.687,0,0,1-4.687,4.687H78.364a4.687,4.687,0,0,1-4.687-4.687V33.875a0,0,0,0,1,0,0Z" style="fill:#4a4263" transform="translate(172 79.416) rotate(180)"/><path d="M96.16,19.816C89.744,19.092,77.007,18.338,66.745,22a3.715,3.715,0,0,1-5.007-3.465h0a3.685,3.685,0,0,1,2.092-3.343c11.1-5.217,26.556-4.09,33.194-3.275a3.7,3.7,0,0,1,3.238,3.675v.546A3.7,3.7,0,0,1,96.16,19.816Z" style="fill:#ffe3de"/><rect height="78.633" rx="15" ry="15" style="fill:#3abaae" width="63.923" x="54.038" y="44.995"/><rect height="78.633" rx="15" ry="15" style="fill:#3abaae" width="63.923" x="54.038" y="45.384"/><rect height="31.516" rx="7.447" ry="7.447" style="fill:#fff4f3" width="44.315" x="63.843" y="68.773"/><path d="M102.961,125.128H69.039a16.518,16.518,0,0,1-16.5-16.5V59.994a16.518,16.518,0,0,1,16.5-16.5h33.922a16.518,16.518,0,0,1,16.5,16.5v48.634A16.518,16.518,0,0,1,102.961,125.128ZM69.039,46.494a13.515,13.515,0,0,0-13.5,13.5v48.634a13.515,13.515,0,0,0,13.5,13.5h33.922a13.515,13.515,0,0,0,13.5-13.5V59.994a13.515,13.515,0,0,0-13.5-13.5Z" style="fill:#332c44"/><path d="M102.961,125.518H69.039a16.519,16.519,0,0,1-16.5-16.5V60.384a16.518,16.518,0,0,1,16.5-16.5h33.922a16.518,16.518,0,0,1,16.5,16.5v48.634A16.519,16.519,0,0,1,102.961,125.518ZM69.039,46.884a13.515,13.515,0,0,0-13.5,13.5v48.634a13.515,13.515,0,0,0,13.5,13.5h33.922a13.515,13.515,0,0,0,13.5-13.5V60.384a13.515,13.515,0,0,0-13.5-13.5Z" style="fill:#332c44"/><path d="M100.71,101.789H71.29a8.958,8.958,0,0,1-8.948-8.947V76.22a8.958,8.958,0,0,1,8.948-8.948h29.42a8.958,8.958,0,0,1,8.948,8.948V92.842A8.958,8.958,0,0,1,100.71,101.789ZM71.29,70.272a5.954,5.954,0,0,0-5.948,5.948V92.842a5.954,5.954,0,0,0,5.948,5.947h29.42a5.954,5.954,0,0,0,5.948-5.947V76.22a5.954,5.954,0,0,0-5.948-5.948Z" style="fill:#332c44"/><path d="M98.323,47.041H73.677a1.5,1.5,0,0,1-1.5-1.5V38.563a6.194,6.194,0,0,1,6.187-6.188H93.636a6.194,6.194,0,0,1,6.187,6.188v6.978A1.5,1.5,0,0,1,98.323,47.041Zm-23.146-3H96.823V38.563a3.191,3.191,0,0,0-3.187-3.188H78.364a3.191,3.191,0,0,0-3.187,3.188Z" style="fill:#332c44"/><path d="M65.46,23.719a5.259,5.259,0,0,1-3.033-.958,5.113,5.113,0,0,1-2.189-4.23,5.2,5.2,0,0,1,2.954-4.7C74.735,8.4,90.825,9.642,97.207,10.425a5.2,5.2,0,0,1,4.555,5.164v.546a5.2,5.2,0,0,1-5.771,5.172h0c-6.48-.733-18.829-1.433-28.742,2.1A5.338,5.338,0,0,1,65.46,23.719Zm20.231-11c-6.755,0-14.8.806-21.223,3.828a2.188,2.188,0,0,0-1.23,1.985,2.15,2.15,0,0,0,.918,1.779,2.262,2.262,0,0,0,2.085.273c10.483-3.737,23.349-3.017,30.087-2.257h0a2.156,2.156,0,0,0,1.7-.541,2.188,2.188,0,0,0,.738-1.65v-.546A2.2,2.2,0,0,0,96.841,13.4,93.639,93.639,0,0,0,85.691,12.718Z" style="fill:#332c44"/><path d="M90.2,35.375H81.8a1.5,1.5,0,0,1-1.5-1.5v-14.5a1.5,1.5,0,0,1,1.5-1.5H90.2a1.5,1.5,0,0,1,1.5,1.5v14.5A1.5,1.5,0,0,1,90.2,35.375Zm-6.892-3H88.7v-11.5H83.3Z" style="fill:#332c44"/></svg>