<svg xmlns="http://www.w3.org/2000/svg" viewBox="0 0 64 64"><defs><style>.cls-1{fill:#ffb74d;}.cls-2{fill:#ff2400;}.cls-3{fill:#eaa242;}.cls-4{fill:#ba1d08;}.cls-5{fill:#5dad00;}.cls-6{fill:#ffda00;}.cls-7{fill:#ebeff1;}</style></defs><title>Food Pizza</title><g id="Layer_2" data-name="Layer 2"><g id="Layer_1-2" data-name="Layer 1"><path class="cls-1" d="M64,2.81a6.18,6.18,0,0,1-.44,2.29l-2.83,7.07L59.2,16l-3.5,8.74-1.53,3.84-2,5-.77,1.92L46.41,48l-.77,1.93-4.1,10.25a4,4,0,0,0-3-2.12,37.28,37.28,0,0,1-20.59-9.49c-.51-.46-1-.94-1.49-1.43a36.93,36.93,0,0,1-7.75-11.6c-.27-.63-.53-1.28-.76-1.93A37.38,37.38,0,0,1,6,25.5a4,4,0,0,0-2.11-3.05L22,15.2l6.23-2.49,5.63-2.25L40,8l3.44-1.38,4.22-1.69L58.9.44A6.18,6.18,0,0,1,61.19,0a2.86,2.86,0,0,1,2,.82A2.86,2.86,0,0,1,64,2.81Z"/><path class="cls-2" d="M22,41a9,9,0,0,1-4.09,7.54,37.06,37.06,0,0,1-10-15A8.9,8.9,0,0,1,13,32,9,9,0,0,1,22,41Z"/><path class="cls-3" d="M40,64a4,4,0,0,1-.5,0A45.42,45.42,0,0,1,0,24.5,4,4,0,1,1,8,23.5,37.43,37.43,0,0,0,40.5,56,4,4,0,0,1,40,64Z"/><path class="cls-4" d="M48,8A14,14,0,0,1,34,22a14,14,0,0,1-12-6.8l6.23-2.49,5.63-2.25L40,8l3.44-1.38,4.22-1.69A14.09,14.09,0,0,1,48,8Z"/><path class="cls-2" d="M36,14a4,4,0,1,1-7.78-1.29l5.63-2.25A4,4,0,0,1,36,14Z"/><path class="cls-2" d="M44,8a2,2,0,0,1-4,0l3.44-1.38A2,2,0,0,1,44,8Z"/><path class="cls-2" d="M47.12,12.88A13.94,13.94,0,0,1,44,17.81a3,3,0,1,1,3.14-4.93Z"/><path class="cls-2" d="M52.15,33.63l-.77,1.92L46.41,48l-.77,1.93A9,9,0,0,1,47,32,8.89,8.89,0,0,1,52.15,33.63Z"/><path class="cls-5" d="M59,12a9,9,0,0,0-4.83,16.59l1.53-3.84A5,5,0,0,1,59,16h.2l1.53-3.84A9,9,0,0,0,59,12Z"/><path class="cls-5" d="M24,32a2,2,0,0,1-1.41-.59l-6-6a2,2,0,0,1,2.83-2.83l6,6A2,2,0,0,1,24,32Z"/><path class="cls-6" d="M38,32a2,2,0,0,1-.9-3.79l4-2a2,2,0,0,1,1.79,3.58l-4,2A2,2,0,0,1,38,32Z"/><path class="cls-7" d="M30,48a2,2,0,0,1-1.79-2.89l2-4a2,2,0,1,1,3.58,1.79l-2,4A2,2,0,0,1,30,48Z"/></g></g></svg>