<?xml version="1.0" ?><!DOCTYPE svg  PUBLIC '-//W3C//DTD SVG 1.1//EN'  'http://www.w3.org/Graphics/SVG/1.1/DTD/svg11.dtd'><svg enable-background="new 0 0 128 128" id="Слой_1" version="1.1" viewBox="0 0 128 128" xml:space="preserve" xmlns="http://www.w3.org/2000/svg" xmlns:xlink="http://www.w3.org/1999/xlink"><g><g><g><path d="M13.1,66.5l-2.5,35l13-4.7l9.5-19.6l-5.8-15.8L13.1,66.5z M20.7,93.5L15,95.6l1.9-26.2l8.1-2.9l3.8,10.5     L20.7,93.5z" fill="#3EBBC4"/><path d="M108.6,45.6l13.7-9.2l-5-13.7L38.2,53.1l-0.7-1.8L2.2,64.1l1.4,3.8l1.9-0.7l-1.2,38.8l-2.5,0.9l1.4,3.8     l28-10.2l2-4l28.9-19.5C63.6,93.2,77.3,106,94,106c17.6,0,32-14.4,32-32C126,61.6,118.9,50.9,108.6,45.6z M28.3,97.1l-20,7.3     l1.2-38.8l25.5-9.3L41,72.5L28.3,97.1z M45.3,72.7l-5.8-15.9l75.5-29l2.5,7l-13.3,8.9C101,42.6,97.6,42,94,42     c-17,0-31,13.3-31.9,30.1L37,89L45.3,72.7z M94,102c-15.4,0-28-12.6-28-28s12.6-28,28-28s28,12.6,28,28S109.4,102,94,102z" fill="#3EBBC4"/></g><g opacity="0.3"><path d="M94,100c-14.3,0-26-11.7-26-26h4c0,12.1,9.9,22,22,22s22-9.9,22-22s-9.9-22-22-22v-4     c14.3,0,26,11.7,26,26S108.3,100,94,100z" fill="#3EBBC4"/></g><g opacity="0.3"><path d="M94,94c-0.5,0-1,0-1.5-0.1c-5.3-0.4-10.2-2.8-13.7-6.9l3-2.6c2.8,3.2,6.7,5.2,10.9,5.5     c4.3,0.3,8.4-1.1,11.6-3.8c6.7-5.8,7.4-15.9,1.6-22.6c-2.8-3.2-6.7-5.2-10.9-5.5c-4.3-0.3-8.4,1.1-11.6,3.8l-2.6-3     c4-3.5,9.2-5.2,14.5-4.8c5.3,0.4,10.2,2.8,13.7,6.9c3.5,4,5.2,9.2,4.8,14.5c-0.4,5.3-2.8,10.2-6.9,13.7C103.4,92.3,98.8,94,94,94     z" fill="#3EBBC4"/></g><g opacity="0.3"><path d="M94,88c-7.7,0-14-6.3-14-14s6.3-14,14-14s14,6.3,14,14S101.7,88,94,88z M94,64c-5.5,0-10,4.5-10,10     s4.5,10,10,10s10-4.5,10-10S99.5,64,94,64z" fill="#3EBBC4"/></g><g opacity="0.3"><path d="M94,82c-4.4,0-8-3.6-8-8s3.6-8,8-8s8,3.6,8,8S98.4,82,94,82z M94,70c-2.2,0-4,1.8-4,4s1.8,4,4,4     s4-1.8,4-4S96.2,70,94,70z" fill="#3EBBC4"/></g></g><g opacity="0.3"><rect fill="#3EBBC4" height="4" width="4" x="72.5" y="58.7"/></g><g opacity="0.3"><rect fill="#3EBBC4" height="4" width="4" x="84.5" y="18.7"/></g><g opacity="0.3"><rect fill="#3EBBC4" height="4" width="4" x="57.5" y="8.7"/></g><g opacity="0.3"><rect fill="#3EBBC4" height="4" width="4" x="37.5" y="28.7"/></g><g opacity="0.3"><rect fill="#3EBBC4" height="4" width="4" x="36.5" y="116.7"/></g><g opacity="0.3"><rect fill="#3EBBC4" height="4" width="4" x="47.5" y="36.7"/></g><g opacity="0.3"><rect fill="#3EBBC4" height="4" width="4" x="75.5" y="112.7"/></g><g opacity="0.3"><rect fill="#3EBBC4" height="4" width="4" x="50.5" y="105.7"/></g><g opacity="0.3"><rect fill="#3EBBC4" height="4" width="4" x="75.5" y="77.7"/></g><g opacity="0.3"><rect fill="#3EBBC4" height="4" width="4" x="44.5" y="95.7"/></g><g opacity="0.3"><rect fill="#3EBBC4" height="4" width="4" x="58.5" y="89.7"/></g></g></svg>