<?xml version="1.0" encoding="utf-8"?>
<!-- Generator: Adobe Illustrator 21.1.0, SVG Export Plug-In . SVG Version: 6.00 Build 0)  -->
<svg version="1.1" xmlns="http://www.w3.org/2000/svg" xmlns:xlink="http://www.w3.org/1999/xlink" x="0px" y="0px"
	 viewBox="0 0 48 48" style="enable-background:new 0 0 48 48;" xml:space="preserve">
<style type="text/css">
	.st0{fill:#FFD4C3;stroke:#504B46;stroke-linecap:round;stroke-linejoin:round;stroke-miterlimit:10;}
	.st1{fill:#FFC258;}
	.st2{fill:#4F4B45;}
	.st3{fill:#FABFA5;}
	.st4{fill:none;stroke:#504B46;stroke-linecap:round;stroke-linejoin:round;stroke-miterlimit:10;}
	.Graphic_x0020_Style{opacity:0.15;fill:#45413C;}
	.st5{opacity:0.15;fill:#45413C;}
	.st6{fill:#DEBB7E;stroke:#45413C;stroke-linecap:round;stroke-linejoin:round;stroke-miterlimit:10;}
	.st7{fill:#F0D5A8;}
	.st8{fill:#F7E5C6;}
	.st9{fill:#DEBB7E;}
	.st10{fill:none;stroke:#45413C;stroke-linecap:round;stroke-linejoin:round;stroke-miterlimit:10;}
	.st11{fill:#FFE500;}
	.st12{fill:#EBCB00;}
	.st13{fill:none;stroke:#EBCB00;stroke-linecap:round;stroke-linejoin:round;stroke-miterlimit:10;}
	.st14{fill:#FF6242;stroke:#45413C;stroke-linecap:round;stroke-linejoin:round;stroke-miterlimit:10;}
	.st15{fill:#FFFFFF;stroke:#45413C;stroke-linecap:round;stroke-linejoin:round;stroke-miterlimit:10;}
	.st16{fill:#E5F8FF;}
	.st17{fill:#FFFFFF;}
	.st18{fill:#E8F4FA;}
	.st19{fill:#E8F4FA;stroke:#45413C;stroke-linecap:round;stroke-linejoin:round;stroke-miterlimit:10;}
	.st20{fill:#FFCCDD;}
	.st21{fill:#FFB0CA;stroke:#45413C;stroke-linecap:round;stroke-linejoin:round;stroke-miterlimit:10;}
	.st22{fill:#FF87AF;stroke:#45413C;stroke-linecap:round;stroke-linejoin:round;stroke-miterlimit:10;}
	.st23{fill:#E5F8FF;stroke:#45413C;stroke-linecap:round;stroke-linejoin:round;stroke-miterlimit:10;}
	.st24{fill:#BF8256;stroke:#45413C;stroke-linecap:round;stroke-linejoin:round;stroke-miterlimit:10;}
	.st25{fill:#9CEB60;}
	.st26{fill:#6DD627;}
	.st27{fill:#C8FFA1;}
	.st28{fill:#FFFACF;}
	.st29{fill:#FF87AF;}
	.st30{fill:#FFB0CA;}
	.st31{fill:#FF6196;}
	.st32{fill:#FFCCDD;stroke:#45413C;stroke-linecap:round;stroke-linejoin:round;stroke-miterlimit:10;}
	.st33{fill:#FF6196;stroke:#45413C;stroke-linecap:round;stroke-linejoin:round;stroke-miterlimit:10;}
	.st34{fill:#FFE5EE;}
	.st35{fill:#00B8F0;}
	.st36{fill:#4ACFFF;}
	.st37{fill:#BF8256;}
	.st38{fill:#DEA47A;}
	.st39{fill:#915E3A;}
	.st40{fill:#FFF5E3;}
	.st41{fill:#F0F0F0;}
	.st42{fill:#8CA4B8;}
	.st43{fill:#627B8C;}
	.st44{fill:#C0DCEB;}
	.st45{fill:#FFF48C;}
	.st46{fill:#FFE500;stroke:#45413C;stroke-linecap:round;stroke-linejoin:round;stroke-miterlimit:10;}
	.st47{fill:#FFAA54;}
	.st48{fill:#6DD627;stroke:#45413C;stroke-linecap:round;stroke-linejoin:round;stroke-miterlimit:10;}
	.st49{fill:#FF8A14;}
	.st50{fill:#FFCC99;}
	.st51{fill:#EBCB00;stroke:#45413C;stroke-linecap:round;stroke-linejoin:round;stroke-miterlimit:10;}
	.st52{fill:#00F5BC;stroke:#45413C;stroke-linecap:round;stroke-linejoin:round;stroke-miterlimit:10;}
	.st53{fill:#BF8DF2;stroke:#45413C;stroke-linecap:round;stroke-linejoin:round;stroke-miterlimit:10;}
	.st54{fill:#FF8A14;stroke:#45413C;stroke-linecap:round;stroke-linejoin:round;stroke-miterlimit:10;}
	.st55{fill:#4AEFF7;stroke:#45413C;stroke-linecap:round;stroke-linejoin:round;stroke-miterlimit:10;}
	.st56{fill:#FFF48C;stroke:#45413C;stroke-linecap:round;stroke-linejoin:round;stroke-miterlimit:10;}
	.st57{fill:#FF6242;}
	.st58{fill:#E04122;}
	.st59{fill:#46B000;}
	.st60{fill:none;stroke:#45413C;stroke-miterlimit:10;}
	.st61{fill:#00B8F0;stroke:#45413C;stroke-linecap:round;stroke-linejoin:round;stroke-miterlimit:10;}
	.st62{fill:#FF866E;}
	.st63{fill:#9F5AE5;stroke:#45413C;stroke-linecap:round;stroke-linejoin:round;stroke-miterlimit:10;}
	.st64{fill:#E4FFD1;}
	.st65{fill:#FFFEF2;}
	.st66{fill:#B89558;}
	.st67{fill:none;stroke:#915E3A;stroke-linecap:round;stroke-linejoin:round;stroke-miterlimit:10;}
	.st68{fill:#915E3A;stroke:#45413C;stroke-linecap:round;stroke-linejoin:round;stroke-miterlimit:10;}
	.st69{fill:#BF8DF2;}
	.st70{fill:#9F5AE5;}
	.st71{fill:#DABFF5;}
	.st72{fill:none;stroke:#45413C;stroke-linejoin:round;stroke-miterlimit:10;}
	.st73{fill:#656769;}
	.st74{fill:#87898C;}
	.st75{fill:#E0E0E0;}
	.st76{fill:#BDBEC0;}
	.st77{fill:#656769;stroke:#45413C;stroke-linecap:round;stroke-linejoin:round;stroke-miterlimit:10;}
	.st78{fill:#45413C;stroke:#45413C;stroke-linecap:round;stroke-linejoin:round;stroke-miterlimit:10;}
	.st79{fill:#FFA694;}
	.st80{fill:#E04122;stroke:#45413C;stroke-linecap:round;stroke-linejoin:round;stroke-miterlimit:10;}
	.st81{fill:#E0E0E0;stroke:#45413C;stroke-linecap:round;stroke-linejoin:round;stroke-miterlimit:10;}
	.st82{fill:#F0F0F0;stroke:#45413C;stroke-linecap:round;stroke-linejoin:round;stroke-miterlimit:10;}
	.st83{fill:#DAEDF7;}
	.st84{fill:#BDBEC0;stroke:#45413C;stroke-linecap:round;stroke-linejoin:round;stroke-miterlimit:10;}
	.st85{fill:#87898C;stroke:#45413C;stroke-linecap:round;stroke-linejoin:round;stroke-miterlimit:10;}
	.st86{fill:#00DFEB;}
	.st87{fill:#4AEFF7;}
	.st88{fill:#DAEDF7;stroke:#45413C;stroke-linecap:round;stroke-linejoin:round;stroke-miterlimit:10;}
	.st89{fill:#FFDA8F;}
	.st90{fill:#FFBE3D;}
	.st91{fill:#FFE9BD;}
	.st92{fill:#DEA47A;stroke:#45413C;stroke-linecap:round;stroke-linejoin:round;stroke-miterlimit:10;}
	.st93{fill:#45413C;}
	.st94{fill:#F0C2A1;}
	.st95{fill:none;stroke:#45413C;stroke-width:1.0064;stroke-linecap:round;stroke-linejoin:round;stroke-miterlimit:10;}
	.st96{fill:#525252;}
	.st97{fill:#EB6D00;stroke:#45413C;stroke-linecap:round;stroke-linejoin:round;stroke-miterlimit:10;}
	.st98{fill:#EB6D00;}
	.st99{fill:#E5FEFF;}
	.st100{fill:#FF866E;stroke:#45413C;stroke-linecap:round;stroke-linejoin:round;stroke-miterlimit:10;}
	.st101{fill:#627B8C;stroke:#45413C;stroke-linecap:round;stroke-linejoin:round;stroke-miterlimit:10;}
	.st102{fill:#FFFCE5;stroke:#45413C;stroke-linecap:round;stroke-linejoin:round;stroke-miterlimit:10;}
	.st103{fill:#A6FBFF;}
	.st104{fill:#D9FDFF;}
	.st105{fill:#FFFACF;stroke:#45413C;stroke-linecap:round;stroke-linejoin:round;stroke-miterlimit:10;}
	.st106{fill:#B8ECFF;}
	.st107{fill:#FFCABF;}
	.st108{fill:#E5FFF9;}
	.st109{fill:#C8FFA1;stroke:#45413C;stroke-linecap:round;stroke-linejoin:round;stroke-miterlimit:10;}
	.st110{fill:#4CF4FC;}
	.st111{fill:#F0D5A8;stroke:#45413C;stroke-linecap:round;stroke-linejoin:round;stroke-miterlimit:10;}
	.st112{fill:#FFDCD1;stroke:#45413C;stroke-linecap:round;stroke-linejoin:round;stroke-miterlimit:10;}
	.st113{fill:#80DDFF;}
	.st114{fill:#46B000;stroke:#45413C;stroke-linecap:round;stroke-linejoin:round;stroke-miterlimit:10;}
	.st115{fill:#4ACFFF;stroke:#45413C;stroke-linecap:round;stroke-linejoin:round;stroke-miterlimit:10;}
	.st116{fill:#ADC4D9;}
	.st117{fill:#BDBEC0;stroke:#45413C;stroke-width:1.0064;stroke-linecap:round;stroke-linejoin:round;stroke-miterlimit:10;}
	.st118{fill:#FFFCE5;}
	.st119{fill:#947746;}
	.st120{fill:#525252;stroke:#45413C;stroke-linecap:round;stroke-linejoin:round;stroke-miterlimit:10;}
</style>
<symbol  id="New_Symbol_14" viewBox="-6.5 -6.5 13 13">
	<path class="st0" d="M0-6c2.2,0,4.1,1.5,4.7,3.5c0,0,0,0,0,0C6.3-2.5,6.4,0,5,0v1c0,2.8-2.2,5-5,5c-2.8,0-5-2.2-5-5V0
		c-1.4,0-1.3-2.5,0.2-2.5c0,0,0,0,0,0C-4.1-4.5-2.2-6,0-6z"/>
	<g>
		<circle class="st1" cx="-1.6" cy="-0.1" r="0.1"/>
		<path class="st2" d="M-1.6,0.5c-0.3,0-0.6-0.3-0.6-0.6S-2-0.8-1.6-0.8C-1.3-0.8-1-0.5-1-0.1S-1.3,0.5-1.6,0.5L-1.6,0.5z"/>
	</g>
	<g>
		<circle class="st1" cx="1.6" cy="-0.1" r="0.1"/>
		<path class="st2" d="M1.6,0.5C1.3,0.5,1,0.2,1-0.1s0.3-0.6,0.6-0.6c0.3,0,0.6,0.3,0.6,0.6S2,0.5,1.6,0.5L1.6,0.5z"/>
	</g>
	<circle class="st3" cx="-3" cy="-1.5" r="0.5"/>
	<circle class="st3" cx="3" cy="-1.5" r="0.5"/>
	<path class="st4" d="M-1.2-3c0.8-0.5,1.7-0.5,2.5,0"/>
</symbol>
<g id="Bg">
</g>
<g id="Icons">
	<g id="XMLID_1876_">
		<ellipse id="XMLID_2866_" class="st5" cx="26" cy="40.8" rx="17.7" ry="1.7"/>
		<path id="XMLID_2865_" class="st36" d="M31.3,21.2L26.8,7.7c-0.4-1.2-1.6-1.9-2.8-1.8l-1.9,0.2c-0.4,0-0.8,0.4-0.9,0.8l-3.5,11.5
			L31.3,21.2z"/>
		<path id="XMLID_2864_" class="st113" d="M26.8,7.7c-0.4-1.2-1.6-1.9-2.8-1.8l-1.9,0.2c-0.4,0-0.8,0.4-0.9,0.8l-0.7,2.2
			c0.1-0.4,1.2-0.7,1.6-0.8L24,8.1c1.2-0.1,3.1,0.6,3.5,1.8L26.8,7.7z"/>
		<path id="XMLID_2863_" class="st10" d="M31.3,21.2L26.8,7.7c-0.4-1.2-1.6-1.9-2.8-1.8l-1.9,0.2c-0.4,0-0.8,0.4-0.9,0.8l-3.5,11.5
			L31.3,21.2z"/>
		<path id="XMLID_2862_" class="st41" d="M44,38L3,23L9.1,6.4c0.4-1,1.6-1.2,2.3-0.5l0,0C14,8.7,18.1,10.1,22,9.6l0,0
			c1.2-0.1,2.3,0.3,3.2,1.2L35.7,22c1.7,1.8,3.7,3.2,5.8,4.3l0,0c3.2,1.6,4.7,5.4,3.5,8.8L44,38z"/>
		<path id="XMLID_1717_" class="st17" d="M8.6,9.5c2.9,2.9,7.2,4.3,11.3,4c1.2-0.1,2.5,0.3,3.4,1.2l11.4,11.5
			c1.8,1.8,3.9,3.3,6.3,4.5c2,1,3.4,2.7,4,4.7l0.1-0.3c1.2-3.4-0.3-7.1-3.5-8.8c-2.2-1.1-4.2-2.6-5.8-4.3L25.1,10.8
			c-0.8-0.9-2-1.3-3.2-1.2c-3.8,0.4-8-0.9-10.6-3.7c-0.7-0.7-1.9-0.5-2.3,0.5L8,9.2C8.2,9.3,8.4,9.4,8.6,9.5z"/>
		<path id="XMLID_1716_" class="st10" d="M44,38L3,23L9.1,6.4c0.4-1,1.6-1.2,2.3-0.5l0,0C14,8.7,18.1,10.1,22,9.6l0,0
			c1.2-0.1,2.3,0.3,3.2,1.2L35.7,22c1.7,1.8,3.7,3.2,5.8,4.3l0,0c3.2,1.6,4.7,5.4,3.5,8.8L44,38z"/>
		<path id="XMLID_1715_" class="st117" d="M39.2,39.2l-15.8-5.8c-1.5-0.5-2.9-1.2-4.2-2l-3-1.8c-0.5-0.3-1.1-0.4-1.7-0.2l0,0
			c-0.7,0.2-1.4,0.2-2.1,0L5,26.7c-1.7-0.7-2.7-1.6-2.4-2.5L3,23l41,15l-0.4,1C43.1,40.1,41.4,40,39.2,39.2z"/>
		<path id="XMLID_1714_" class="st36" d="M45.5,32.7c0,0.8-0.1,1.6-0.4,2.4L44,38l-11.5-4.2c1-3,2.4-4.4,4.7-4.8
			c1.9-0.4,3.4-1.7,3.9-2.9c0.1,0.1,0.3,0.2,0.4,0.2C44,27.6,45.5,30.1,45.5,32.7z"/>
		<path id="XMLID_1713_" class="st113" d="M45.5,32.7c0,0.8-0.1,1.6-0.4,2.4l-0.1,0.3c-0.6-2-2-3.7-4-4.7c-1.1-0.5-2.2-1.2-3.2-1.9
			c1.7-0.5,3-1.7,3.4-2.8c0.9,0.5,1.6,0.8,2.4,1.7C44.9,29.3,45.5,31,45.5,32.7z"/>
		<path id="XMLID_1712_" class="st10" d="M45.5,32.7c0,0.8-0.1,1.6-0.4,2.4L44,38l-11.5-4.2c1-3,2.4-4.4,4.7-4.8
			c1.9-0.4,3.4-1.7,3.9-2.9c0.1,0.1,0.3,0.2,0.4,0.2C44,27.6,45.5,30.1,45.5,32.7z"/>
		<path id="XMLID_1711_" class="st36" d="M16.5,27.9L3,23L8,9.2l1-2.8c0.4-1,1.6-1.2,2.3-0.5c0.1,0.2,0.3,0.3,0.5,0.5
			c0.2,0.2,0.3,0.3,0.5,0.4l0,0c0.2,0.1,0.3,0.3,0.5,0.4c0.4,0.3,0.7,0.5,1.1,0.7C14,8,14.3,8.1,14.5,8.3c0.2,0.1,0.4,0.2,0.6,0.3
			c0.4,0.2,0.8,0.3,1.2,0.5c-0.6,1.5-0.8,2.9-0.3,4.3c0.2,0.6,0.5,1.2,1,1.8C19.4,18.1,19.3,20.1,16.5,27.9z"/>
		<path id="XMLID_1710_" class="st113" d="M16,13.3c-2.8-0.5-5.5-1.8-7.4-3.8C8.4,9.4,8.2,9.3,8,9.2l1-2.8c0.4-1,1.6-1.2,2.3-0.5
			c1.3,1.5,3.3,2.6,5,3.1C15.8,10.6,15.6,12,16,13.3z"/>
		<path id="XMLID_1709_" class="st10" d="M16.5,27.9L3,23L9.1,6.4c0.4-1,1.6-1.2,2.3-0.5c1.7,1.8,3.4,2.5,5,3.1
			c-0.8,2.2-0.9,4.1,0.7,6.1C19.4,18.1,19.3,20.1,16.5,27.9z"/>
		<path id="XMLID_1708_" class="st15" d="M30.1,21.4L30.1,21.4c-0.4-0.5-0.3-1.2,0.1-1.6l2.3-2c0.5-0.4,1.2-0.3,1.6,0.1l0,0
			c0.4,0.5,0.3,1.2-0.1,1.6l-2.3,2C31.2,21.9,30.5,21.8,30.1,21.4z"/>
		<path id="XMLID_1689_" class="st15" d="M26,16.9L26,16.9c-0.4-0.5-0.3-1.2,0.1-1.6l2.3-2c0.5-0.4,1.2-0.3,1.6,0.1l0,0
			c0.4,0.5,0.3,1.2-0.1,1.6l-2.3,2C27.1,17.4,26.4,17.4,26,16.9z"/>
		<path id="XMLID_1688_" class="st15" d="M34.5,25L34.5,25c-0.4-0.5-0.3-1.2,0.1-1.6l1.9-1.6c0.5-0.4,1.2-0.3,1.6,0.1l0,0
			c0.4,0.5,0.3,1.2-0.1,1.6l-1.9,1.6C35.6,25.5,34.9,25.5,34.5,25z"/>
	</g>
</g>
</svg>
