<svg width="152" height="152" viewBox="0 0 152 152" fill="none" xmlns="http://www.w3.org/2000/svg">
<path d="M137.306 0H132.82C131.61 0 130.487 0.636915 129.87 1.67945C129.555 2.20574 128.65 3.43264 127.008 3.43264C125.365 3.43264 124.46 2.20574 124.145 1.67945C123.528 0.636915 122.405 0 121.195 0H112.224C111.014 0 109.891 0.636915 109.275 1.67945C108.959 2.20574 108.054 3.43264 106.412 3.43264C104.769 3.43264 103.864 2.20574 103.549 1.67945C102.932 0.636915 101.809 0 100.599 0H91.6286C90.4185 0 89.2955 0.636915 88.6787 1.67945C88.3636 2.20574 87.4585 3.43264 85.816 3.43264C84.1734 3.43264 83.2683 2.20574 82.9532 1.67945C82.3364 0.636915 81.2134 0 80.0033 0H71.0328C69.8227 0 68.6997 0.636915 68.0829 1.67945C67.7678 2.20574 66.8627 3.43264 65.2201 3.43264C63.5776 3.43264 62.6725 2.20574 62.3574 1.67945C61.7406 0.636915 60.6176 0 59.4074 0H50.437C49.2269 0 48.1039 0.636915 47.4871 1.67945C47.172 2.20574 46.2669 3.43264 44.6243 3.43264C42.9817 3.43264 42.0766 2.20574 41.7615 1.67945C41.1447 0.636915 40.0217 0 38.8116 0H29.8412C28.631 0 27.508 0.636915 26.8912 1.67945C26.5761 2.20574 25.671 3.43264 24.0285 3.43264C22.3859 3.43264 21.4808 2.20574 21.1657 1.67945C20.5489 0.636915 19.4259 0 18.2158 0H13.7306C6.15797 0 0 6.15797 0 13.7306V137.306C0 144.878 6.15797 151.036 13.7306 151.036H18.2158C19.4259 151.036 20.5489 150.399 21.1657 149.357C21.4808 148.83 22.3859 147.603 24.0285 147.603C25.671 147.603 26.5761 148.83 26.8912 149.357C27.508 150.399 28.631 151.036 29.8412 151.036H38.8116C40.0217 151.036 41.1447 150.399 41.7615 149.357C42.0766 148.83 42.9817 147.603 44.6243 147.603C46.2669 147.603 47.172 148.83 47.4871 149.357C48.1039 150.399 49.2269 151.036 50.437 151.036H59.4074C60.6176 151.036 61.7406 150.399 62.3574 149.357C62.6725 148.83 63.5776 147.603 65.2201 147.603C66.8627 147.603 67.7678 148.83 68.0829 149.357C68.6997 150.399 69.8227 151.036 71.0328 151.036H80.0033C81.2134 151.036 82.3364 150.399 82.9532 149.357C83.2683 148.83 84.1734 147.603 85.816 147.603C87.4585 147.603 88.3636 148.83 88.6787 149.357C89.2955 150.399 90.4185 151.036 91.6286 151.036H100.599C101.809 151.036 102.932 150.399 103.549 149.357C103.864 148.83 104.769 147.603 106.412 147.603C108.054 147.603 108.959 148.83 109.275 149.357C109.891 150.399 111.014 151.036 112.224 151.036H121.195C122.405 151.036 123.528 150.399 124.145 149.357C124.46 148.83 125.365 147.603 127.008 147.603C128.65 147.603 129.555 148.83 129.87 149.357C130.487 150.399 131.61 151.036 132.82 151.036H137.306C144.878 151.036 151.036 144.878 151.036 137.306V13.7306C151.036 6.15797 144.878 0 137.306 0Z" fill="#5F37FF"/>
<path d="M144.171 137.305C144.171 141.09 141.09 144.171 137.305 144.171H134.547C130.685 139.813 123.33 139.813 119.469 144.171H113.951C110.089 139.813 102.734 139.813 98.8727 144.171H93.355C89.4933 139.813 82.1386 139.813 78.2769 144.171H72.7592C68.8974 139.813 61.5427 139.813 57.681 144.171H52.1633C48.3016 139.813 40.9469 139.813 37.0852 144.171H31.5675C27.7058 139.813 20.3511 139.813 16.4894 144.171H13.7305C9.94589 144.171 6.86523 141.09 6.86523 137.305L6.86523 13.7305C6.86523 9.94589 9.94589 6.86523 13.7305 6.86523H16.4894C20.3511 11.2231 27.7058 11.2231 31.5675 6.86523H37.0852C40.9469 11.2231 48.3016 11.2231 52.1633 6.86523H57.681C61.5427 11.2231 68.8974 11.2231 72.7592 6.86523L78.2769 6.86523C82.1386 11.2231 89.4933 11.2231 93.355 6.86523H98.8727C102.734 11.2231 110.089 11.2231 113.951 6.86523H119.469C123.33 11.2231 130.685 11.2231 134.547 6.86523H137.305C141.09 6.86523 144.171 9.94589 144.171 13.7305V137.305Z" fill="#F632D2"/>
<path opacity="0.1" d="M137.305 133.873H134.547C130.685 129.515 123.33 129.515 119.469 133.873H113.951C110.089 129.515 102.734 129.515 98.8727 133.873H93.355C89.4933 129.515 82.1386 129.515 78.2769 133.873H72.7592C68.8974 129.515 61.5427 129.515 57.681 133.873H52.1633C48.3016 129.515 40.9469 129.515 37.0852 133.873H31.5675C27.7058 129.515 20.3511 129.515 16.4894 133.873H13.7305C9.94589 133.873 6.86523 130.792 6.86523 127.008L6.86523 137.306C6.86523 141.09 9.94589 144.171 13.7305 144.171H16.4894C20.3511 139.813 27.7058 139.813 31.5675 144.171H37.0852C40.9469 139.813 48.3016 139.813 52.1633 144.171H57.681C61.5427 139.813 68.8974 139.813 72.7592 144.171H78.2769C82.1386 139.813 89.4933 139.813 93.355 144.171H98.8727C102.734 139.813 110.089 139.813 113.951 144.171H119.469C123.33 139.813 130.685 139.813 134.547 144.171H137.305C141.09 144.171 144.171 141.09 144.171 137.306V127.008C144.171 130.792 141.09 133.873 137.305 133.873Z" fill="white"/>
<path opacity="0.15" d="M75.5182 128.724C105.377 128.724 129.582 104.519 129.582 74.6599C129.582 44.8012 105.377 20.5959 75.5182 20.5959C45.6594 20.5959 21.4541 44.8012 21.4541 74.6599C21.4541 104.519 45.6594 128.724 75.5182 128.724Z" fill="white"/>
<path opacity="0.15" d="M75.5183 116.71C98.2678 116.71 116.71 98.2676 116.71 75.518C116.71 52.7685 98.2678 34.3264 75.5183 34.3264C52.7688 34.3264 34.3267 52.7685 34.3267 75.518C34.3267 98.2676 52.7688 116.71 75.5183 116.71Z" fill="white"/>
<path opacity="0.6" d="M75.5179 20.5958C73.6206 20.5958 72.0853 22.1311 72.0853 24.0284C72.0853 25.9258 73.6206 27.4611 75.5179 27.4611C102.017 27.4611 123.575 49.019 123.575 75.518C123.575 102.017 102.017 123.575 75.5179 123.575C49.0189 123.575 27.461 102.017 27.461 75.518C27.461 73.6207 25.9257 72.0854 24.0283 72.0854C22.131 72.0854 20.5957 73.6207 20.5957 75.518C20.5957 105.802 45.2343 130.44 75.5179 130.44C105.802 130.44 130.44 105.802 130.44 75.518C130.44 45.2344 105.802 20.5958 75.5179 20.5958Z" fill="white"/>
<path opacity="0.6" d="M75.5183 116.71C77.4157 116.71 78.951 115.174 78.951 113.277C78.951 111.38 77.4157 109.844 75.5183 109.844C56.5919 109.844 41.1919 94.4445 41.1919 75.518C41.1919 56.5916 56.5919 41.1917 75.5183 41.1917C94.4448 41.1917 109.845 56.5916 109.845 75.518C109.845 77.4154 111.38 78.9507 113.277 78.9507C115.175 78.9507 116.71 77.4154 116.71 75.518C116.71 52.8036 98.2327 34.3264 75.5183 34.3264C52.8039 34.3264 34.3267 52.8036 34.3267 75.518C34.3267 98.2325 52.8039 116.71 75.5183 116.71Z" fill="white"/>
</svg>
