<svg width="897" height="325" viewBox="0 0 897 325" fill="none" xmlns="http://www.w3.org/2000/svg">
<g filter="url(#filter0_d_1_94)">
<rect x="58" y="24" width="773" height="201" rx="25" fill="#C5BF38"/>
<rect x="58" y="24" width="773" height="201" rx="25" fill="url(#paint0_radial_1_94)" fill-opacity="0.7"/>
<g filter="url(#filter1_d_1_94)">
<path d="M171.941 157.707C171.258 157.642 170.493 157.577 169.646 157.512C168.898 157.447 168.003 157.398 166.961 157.365C165.919 157.333 164.715 157.316 163.348 157.316C160.711 157.316 157.651 157.43 154.168 157.658C150.685 157.886 146.909 158.326 142.84 158.977C143.556 157.512 144.174 155.656 144.695 153.41C145.216 151.164 145.639 148.771 145.965 146.232C146.323 143.661 146.6 141.057 146.795 138.42C146.99 135.783 147.137 133.326 147.234 131.047C147.332 128.768 147.381 126.799 147.381 125.139C147.413 123.479 147.43 122.339 147.43 121.721C147.43 121.59 147.413 121.086 147.381 120.207C147.381 119.328 147.365 118.189 147.332 116.789C147.299 115.389 147.251 113.794 147.186 112.004C147.12 110.181 147.023 108.293 146.893 106.34C146.795 104.387 146.648 102.417 146.453 100.432C146.29 98.446 146.079 96.5742 145.818 94.8164C145.59 93.0586 145.314 91.4798 144.988 90.0801C144.695 88.6478 144.337 87.5247 143.914 86.7109C147.202 87.2969 150.213 87.6875 152.947 87.8828C155.714 88.0781 158.204 88.1758 160.418 88.1758C161.883 88.1758 163.201 88.1432 164.373 88.0781C165.545 88.013 166.538 87.9479 167.352 87.8828C168.296 87.7852 169.126 87.6875 169.842 87.5898C169.451 89.4128 169.109 91.4473 168.816 93.6934C168.523 95.9069 168.263 98.2832 168.035 100.822C167.807 103.329 167.628 105.965 167.498 108.732C167.4 111.499 167.352 114.348 167.352 117.277C167.352 120.663 167.433 124.113 167.596 127.629C167.758 131.112 168.019 134.579 168.377 138.029C168.768 141.48 169.24 144.865 169.793 148.186C170.379 151.506 171.095 154.68 171.941 157.707ZM204.021 157.707C203.403 157.642 202.671 157.577 201.824 157.512C201.108 157.447 200.245 157.398 199.236 157.365C198.227 157.333 197.072 157.316 195.77 157.316C193.23 157.316 190.252 157.43 186.834 157.658C183.449 157.886 179.721 158.326 175.652 158.977C176.368 157.512 176.987 155.656 177.508 153.41C178.029 151.164 178.452 148.771 178.777 146.232C179.135 143.661 179.412 141.057 179.607 138.42C179.803 135.783 179.949 133.326 180.047 131.047C180.145 128.768 180.193 126.799 180.193 125.139C180.226 123.479 180.242 122.339 180.242 121.721C180.242 121.59 180.226 121.086 180.193 120.207C180.193 119.328 180.177 118.189 180.145 116.789C180.112 115.389 180.063 113.794 179.998 112.004C179.933 110.181 179.835 108.293 179.705 106.34C179.607 104.387 179.461 102.417 179.266 100.432C179.103 98.446 178.891 96.5742 178.631 94.8164C178.403 93.0586 178.126 91.4798 177.801 90.0801C177.508 88.6478 177.15 87.5247 176.727 86.7109C180.014 87.2969 183.009 87.6875 185.711 87.8828C188.413 88.0781 190.822 88.1758 192.938 88.1758C194.37 88.1758 195.639 88.1432 196.746 88.0781C197.885 88.013 198.829 87.9479 199.578 87.8828C200.457 87.7852 201.238 87.6875 201.922 87.5898C203.322 94.4909 204.917 100.887 206.707 106.779C208.497 112.671 210.516 118.14 212.762 123.186V121.184C212.664 115.878 212.485 110.93 212.225 106.34C212.094 104.387 211.948 102.417 211.785 100.432C211.622 98.446 211.411 96.5742 211.15 94.8164C210.923 93.0586 210.646 91.4798 210.32 90.0801C210.027 88.6478 209.669 87.5247 209.246 86.7109C212.501 87.2969 215.496 87.6875 218.23 87.8828C220.997 88.0781 223.439 88.1758 225.555 88.1758C226.987 88.1758 228.257 88.1432 229.363 88.0781C230.503 88.013 231.447 87.9479 232.195 87.8828C233.074 87.7852 233.855 87.6875 234.539 87.5898C234.148 89.4128 233.807 91.4473 233.514 93.6934C233.221 95.9395 232.96 98.332 232.732 100.871C232.505 103.41 232.326 106.079 232.195 108.879C232.098 111.678 232.049 114.559 232.049 117.521C232.049 120.874 232.13 124.292 232.293 127.775C232.456 131.226 232.716 134.676 233.074 138.127C233.465 141.545 233.937 144.914 234.49 148.234C235.076 151.522 235.76 154.68 236.541 157.707C235.955 157.642 235.255 157.577 234.441 157.512C233.758 157.447 232.928 157.398 231.951 157.365C230.975 157.333 229.868 157.316 228.631 157.316C226.287 157.316 223.585 157.43 220.525 157.658C217.465 157.886 214.178 158.326 210.662 158.977C210.662 155.624 210.385 152.352 209.832 149.162C209.311 145.939 208.562 142.782 207.586 139.689C206.609 136.564 205.438 133.505 204.07 130.51C202.703 127.515 201.189 124.553 199.529 121.623C199.562 124.683 199.676 127.775 199.871 130.9C200.099 134.025 200.392 137.118 200.75 140.178C201.141 143.238 201.596 146.249 202.117 149.211C202.671 152.141 203.305 154.973 204.021 157.707ZM287.273 109.416C285.678 107.691 284.002 106.356 282.244 105.412C280.486 104.436 278.859 103.736 277.361 103.312C275.864 102.857 274.611 102.596 273.602 102.531C272.592 102.434 272.023 102.385 271.893 102.385C270.265 102.385 268.947 102.596 267.938 103.02C266.928 103.41 266.131 103.931 265.545 104.582C264.992 105.201 264.601 105.917 264.373 106.73C264.178 107.512 264.08 108.309 264.08 109.123C264.08 109.904 264.161 110.718 264.324 111.564C264.52 112.411 264.829 113.192 265.252 113.908C265.675 114.592 266.245 115.161 266.961 115.617C267.677 116.073 268.589 116.301 269.695 116.301C269.76 116.301 270.021 116.301 270.477 116.301C270.932 116.268 271.502 116.138 272.186 115.91C272.869 115.65 273.618 115.227 274.432 114.641C275.278 114.022 276.124 113.143 276.971 112.004V131.877C276.287 130.64 275.538 129.663 274.725 128.947C273.911 128.231 273.13 127.71 272.381 127.385C271.665 127.027 271.014 126.815 270.428 126.75C269.874 126.652 269.5 126.604 269.305 126.604C268.23 126.604 267.335 126.783 266.619 127.141C265.936 127.499 265.382 128.003 264.959 128.654C264.568 129.273 264.292 130.038 264.129 130.949C263.966 131.828 263.885 132.805 263.885 133.879C263.982 136.385 264.227 138.973 264.617 141.643C264.78 142.782 264.992 143.986 265.252 145.256C265.512 146.525 265.838 147.844 266.229 149.211C266.619 150.546 267.075 151.896 267.596 153.264C268.117 154.598 268.719 155.917 269.402 157.219C268.686 157.186 267.905 157.137 267.059 157.072C266.31 157.007 265.431 156.958 264.422 156.926C263.445 156.893 262.339 156.877 261.102 156.877C259.637 156.877 258.042 156.926 256.316 157.023C254.591 157.089 252.833 157.219 251.043 157.414C249.253 157.609 247.446 157.87 245.623 158.195C243.8 158.553 242.059 158.993 240.398 159.514C241.115 158.049 241.733 156.193 242.254 153.947C242.775 151.701 243.198 149.309 243.523 146.77C243.882 144.23 244.158 141.643 244.354 139.006C244.549 136.369 244.695 133.928 244.793 131.682C244.891 129.403 244.939 127.434 244.939 125.773C244.972 124.081 244.988 122.925 244.988 122.307C244.988 122.176 244.972 121.672 244.939 120.793C244.939 119.914 244.923 118.775 244.891 117.375C244.858 115.975 244.809 114.38 244.744 112.59C244.679 110.767 244.581 108.879 244.451 106.926C244.354 104.973 244.207 103.003 244.012 101.018C243.849 99.0319 243.637 97.1602 243.377 95.4023C243.149 93.612 242.872 92.0169 242.547 90.6172C242.254 89.1849 241.896 88.0456 241.473 87.1992C244.598 87.8503 247.771 88.3223 250.994 88.6152C254.249 88.8757 257.456 89.0059 260.613 89.0059C264.227 89.0059 267.645 88.8919 270.867 88.6641C274.09 88.4036 276.922 88.1107 279.363 87.7852C282.228 87.4271 284.865 87.0039 287.273 86.5156V109.416ZM344.305 125.285C344.305 130.233 343.751 134.888 342.645 139.25C341.538 143.579 339.861 147.372 337.615 150.627C335.369 153.85 332.521 156.389 329.07 158.244C325.652 160.132 321.6 161.076 316.912 161.076C312.257 161.076 308.204 160.132 304.754 158.244C301.336 156.389 298.488 153.85 296.209 150.627C293.963 147.372 292.286 143.579 291.18 139.25C290.073 134.888 289.52 130.233 289.52 125.285C289.52 121.639 289.861 118.124 290.545 114.738C291.229 111.353 292.173 108.195 293.377 105.266C294.581 102.336 296.03 99.6667 297.723 97.2578C299.415 94.849 301.271 92.7982 303.289 91.1055C305.34 89.3802 307.505 88.0456 309.783 87.1016C312.094 86.1576 314.471 85.6855 316.912 85.6855C321.014 85.6855 324.741 86.6947 328.094 88.7129C331.479 90.6986 334.36 93.4655 336.736 97.0137C339.145 100.562 341.001 104.745 342.303 109.562C343.637 114.38 344.305 119.621 344.305 125.285ZM324.334 121.086C324.334 118.645 324.139 116.398 323.748 114.348C323.357 112.264 322.82 110.474 322.137 108.977C321.486 107.447 320.704 106.258 319.793 105.412C318.882 104.533 317.921 104.094 316.912 104.094C315.936 104.094 315.008 104.615 314.129 105.656C313.25 106.665 312.469 107.984 311.785 109.611C311.134 111.239 310.613 113.062 310.223 115.08C309.832 117.098 309.637 119.1 309.637 121.086C309.637 123.007 309.799 124.797 310.125 126.457C310.483 128.085 310.971 129.501 311.59 130.705C312.208 131.91 312.957 132.87 313.836 133.586C314.747 134.27 315.773 134.611 316.912 134.611C318.019 134.611 319.028 134.27 319.939 133.586C320.883 132.87 321.665 131.91 322.283 130.705C322.934 129.501 323.439 128.085 323.797 126.457C324.155 124.797 324.334 123.007 324.334 121.086ZM406.219 158.781C404.103 158.618 402.117 158.505 400.262 158.439C398.439 158.407 396.746 158.391 395.184 158.391C392.124 158.391 389.568 158.472 387.518 158.635C385.467 158.83 383.79 159.025 382.488 159.221C380.958 159.449 379.738 159.709 378.826 160.002C378.956 158.993 379.087 158.049 379.217 157.17C379.347 156.291 379.445 155.445 379.51 154.631C379.607 153.785 379.673 152.954 379.705 152.141C379.77 151.294 379.803 150.415 379.803 149.504C379.803 145.923 379.656 142.945 379.363 140.568C379.103 138.192 378.712 136.206 378.191 134.611C377.671 133.016 377.036 131.73 376.287 130.754C375.538 129.777 374.708 128.898 373.797 128.117C373.732 129.582 373.683 130.998 373.65 132.365C373.618 133.732 373.602 135.181 373.602 136.711C373.602 138.208 373.634 139.771 373.699 141.398C373.764 143.026 373.878 144.751 374.041 146.574C374.204 148.397 374.448 150.35 374.773 152.434C375.099 154.484 375.506 156.714 375.994 159.123C375.962 158.993 375.538 158.846 374.725 158.684C373.911 158.521 372.82 158.374 371.453 158.244C370.086 158.114 368.507 158.016 366.717 157.951C364.959 157.854 363.12 157.805 361.199 157.805C358.693 157.805 356.186 157.886 353.68 158.049C351.173 158.244 348.911 158.602 346.893 159.123C347.674 158.114 348.374 156.844 348.992 155.314C349.643 153.752 350.213 152.043 350.701 150.188C351.189 148.332 351.596 146.379 351.922 144.328C352.28 142.277 352.589 140.259 352.85 138.273C353.436 133.618 353.826 128.654 354.021 123.381C354.021 122.079 354.021 120.435 354.021 118.449C354.054 116.464 354.021 114.299 353.924 111.955C353.859 109.611 353.729 107.202 353.533 104.729C353.37 102.255 353.077 99.8783 352.654 97.5996C352.264 95.321 351.743 93.2376 351.092 91.3496C350.441 89.4616 349.611 87.9479 348.602 86.8086C350.945 87.1667 353.224 87.4108 355.438 87.541C357.651 87.6387 359.539 87.6875 361.102 87.6875C362.469 87.6875 363.722 87.6549 364.861 87.5898C366.033 87.5247 367.189 87.4596 368.328 87.3945C369.467 87.3294 370.656 87.2643 371.893 87.1992C373.13 87.1341 374.497 87.1016 375.994 87.1016C378.045 87.1016 380.112 87.2155 382.195 87.4434C384.279 87.6387 386.264 88.013 388.152 88.5664C390.073 89.0872 391.847 89.8197 393.475 90.7637C395.135 91.6751 396.567 92.847 397.771 94.2793C399.008 95.679 399.969 97.3717 400.652 99.3574C401.368 101.343 401.727 103.654 401.727 106.291C401.727 107.756 401.531 109.221 401.141 110.686C400.783 112.15 400.18 113.599 399.334 115.031C398.488 116.431 397.381 117.782 396.014 119.084C394.679 120.354 393.035 121.525 391.082 122.6C393.393 123.544 395.135 124.715 396.307 126.115C397.511 127.515 398.374 129.11 398.895 130.9C399.415 132.691 399.692 134.644 399.725 136.76C399.79 138.843 399.855 141.024 399.92 143.303C400.05 145.744 400.359 148.007 400.848 150.09C401.043 150.969 401.287 151.864 401.58 152.775C401.906 153.687 402.28 154.533 402.703 155.314C403.159 156.096 403.663 156.796 404.217 157.414C404.803 158.033 405.47 158.488 406.219 158.781ZM373.797 116.691C374.513 116.171 375.311 115.52 376.189 114.738C377.101 113.924 377.931 113.046 378.68 112.102C379.461 111.125 380.112 110.1 380.633 109.025C381.154 107.951 381.414 106.877 381.414 105.803C381.414 104.761 381.105 103.915 380.486 103.264C379.9 102.613 379.233 102.287 378.484 102.287C377.443 102.287 376.613 102.775 375.994 103.752C375.376 104.696 374.887 105.819 374.529 107.121C374.204 108.423 373.976 109.742 373.846 111.076C373.748 112.378 373.699 113.387 373.699 114.104C373.699 114.494 373.699 114.917 373.699 115.373C373.699 115.796 373.732 116.236 373.797 116.691ZM465.789 158.586C463.771 158.326 461.818 158.146 459.93 158.049C458.074 157.951 456.186 157.902 454.266 157.902C449.09 157.902 443.784 158.407 438.348 159.416C438.543 158.635 438.755 157.951 438.982 157.365C439.243 156.747 439.471 156.079 439.666 155.363C439.861 154.615 440.024 153.752 440.154 152.775C440.285 151.799 440.35 150.546 440.35 149.016C440.35 147.453 440.236 145.972 440.008 144.572C439.78 143.14 439.438 141.887 438.982 140.812C438.527 139.706 437.957 138.827 437.273 138.176C436.622 137.525 435.857 137.199 434.979 137.199C434.002 137.199 433.172 137.492 432.488 138.078C431.837 138.664 431.3 139.462 430.877 140.471C430.486 141.48 430.193 142.635 429.998 143.938C429.835 145.24 429.754 146.623 429.754 148.088C429.754 149.553 429.835 150.822 429.998 151.896C430.193 152.938 430.405 153.85 430.633 154.631C430.893 155.412 431.137 156.112 431.365 156.73C431.593 157.316 431.756 157.902 431.854 158.488C429.607 158.228 427.394 158.033 425.213 157.902C423.064 157.772 420.916 157.707 418.768 157.707C416.619 157.707 414.454 157.772 412.273 157.902C410.125 158.033 407.895 158.228 405.584 158.488C407.602 152.629 409.36 146.818 410.857 141.057C412.387 135.295 413.689 129.501 414.764 123.674C415.838 117.847 416.701 111.955 417.352 105.998C418.035 100.041 418.54 93.9375 418.865 87.6875C421.274 88.013 423.911 88.2572 426.775 88.4199C429.673 88.5501 432.635 88.6152 435.662 88.6152C438.234 88.6152 440.724 88.5501 443.133 88.4199C445.574 88.2897 447.82 88.013 449.871 87.5898C450.099 93.8073 450.685 99.9271 451.629 105.949C452.573 111.971 453.745 117.945 455.145 123.869C456.577 129.761 458.204 135.604 460.027 141.398C461.85 147.16 463.771 152.889 465.789 158.586ZM438.445 120.695C438.38 120.077 438.185 119.165 437.859 117.961C437.566 116.919 437.127 115.552 436.541 113.859C435.955 112.134 435.092 109.921 433.953 107.219C433.693 108.911 433.4 110.425 433.074 111.76C432.749 113.062 432.439 114.25 432.146 115.324C431.854 116.366 431.593 117.326 431.365 118.205C431.17 119.084 431.072 119.914 431.072 120.695C431.072 122.323 431.447 123.592 432.195 124.504C432.977 125.383 433.839 125.822 434.783 125.822C435.792 125.822 436.639 125.334 437.322 124.357C438.006 123.381 438.38 122.16 438.445 120.695ZM493.084 157.707C492.531 157.642 491.847 157.577 491.033 157.512C490.35 157.447 489.503 157.398 488.494 157.365C487.518 157.333 486.411 157.316 485.174 157.316C482.765 157.316 479.9 157.43 476.58 157.658C473.26 157.886 469.565 158.326 465.496 158.977C467.221 151.717 468.41 144.605 469.061 137.639C469.744 130.673 470.086 123.967 470.086 117.521C470.086 111.662 469.858 106.161 469.402 101.018C468.947 95.8418 468.344 91.0729 467.596 86.7109C470.851 87.2969 473.764 87.6875 476.336 87.8828C478.94 88.0781 481.186 88.1758 483.074 88.1758C484.376 88.1758 485.516 88.1432 486.492 88.0781C487.501 88.013 488.331 87.9479 488.982 87.8828C489.764 87.7852 490.431 87.6875 490.984 87.5898C492.091 93.9701 493.475 100.285 495.135 106.535C496.795 112.753 498.846 119.003 501.287 125.285C503.338 118.938 504.965 112.59 506.17 106.242C507.374 99.862 508.188 93.3516 508.611 86.7109L509.002 87.5898L508.611 86.7109C511.867 87.2969 514.829 87.6875 517.498 87.8828C520.167 88.0781 522.527 88.1758 524.578 88.1758C525.945 88.1758 527.15 88.1432 528.191 88.0781C529.233 88.013 530.128 87.9479 530.877 87.8828C531.723 87.7852 532.456 87.6875 533.074 87.5898C532.391 90.8451 531.87 94.7025 531.512 99.1621C531.154 103.589 530.975 108.342 530.975 113.42C530.975 117.033 531.072 120.76 531.268 124.602C531.463 128.41 531.756 132.219 532.146 136.027C532.57 139.803 533.107 143.531 533.758 147.209C534.409 150.887 535.19 154.387 536.102 157.707C535.451 157.642 534.702 157.577 533.855 157.512C533.107 157.447 532.228 157.398 531.219 157.365C530.21 157.333 529.038 157.316 527.703 157.316C525.164 157.316 522.169 157.43 518.719 157.658C515.301 157.886 511.557 158.326 507.488 158.977C508.302 157.349 508.969 155.266 509.49 152.727C510.044 150.188 510.483 147.486 510.809 144.621C511.167 141.757 511.427 138.908 511.59 136.076C511.785 133.212 511.915 130.656 511.98 128.41C511.036 130.428 510.125 132.479 509.246 134.562C508.367 136.646 507.456 138.876 506.512 141.252C505.6 143.596 504.64 146.135 503.631 148.869C502.622 151.604 501.515 154.647 500.311 158C499.074 154.647 497.951 151.604 496.941 148.869C495.932 146.135 494.972 143.596 494.061 141.252C493.182 138.908 492.303 136.695 491.424 134.611C490.577 132.495 489.699 130.396 488.787 128.312C489.08 133.456 489.568 138.534 490.252 143.547C490.936 148.527 491.88 153.247 493.084 157.707ZM578.436 157.805C577.687 157.74 576.824 157.674 575.848 157.609C575.001 157.544 574.008 157.495 572.869 157.463C571.73 157.43 570.444 157.414 569.012 157.414C566.603 157.414 563.885 157.512 560.857 157.707C557.863 157.87 554.689 158.195 551.336 158.684C552.475 153.866 553.338 149.227 553.924 144.768C554.51 140.308 554.949 136.337 555.242 132.854C555.568 128.785 555.763 124.96 555.828 121.379C555.828 119.849 555.796 118.173 555.73 116.35C555.665 114.787 555.584 112.98 555.486 110.93C555.389 108.846 555.258 106.6 555.096 104.191C553.566 105.656 552.036 107.235 550.506 108.928C549.008 110.588 547.56 112.329 546.16 114.152C544.76 115.943 543.442 117.766 542.205 119.621C541.001 121.477 539.943 123.299 539.031 125.09L540.203 87.7852C543.263 88.1432 546.486 88.4199 549.871 88.6152C553.289 88.8105 556.772 88.9082 560.32 88.9082C565.398 88.9082 570.428 88.7292 575.408 88.3711C580.389 88.013 584.962 87.4922 589.129 86.8086L590.936 124.504C588.592 120.044 585.988 115.861 583.123 111.955C580.291 108.016 577.264 104.729 574.041 102.092C573.781 104.305 573.585 106.633 573.455 109.074C573.357 111.483 573.309 113.957 573.309 116.496C573.309 119.784 573.406 123.169 573.602 126.652C573.829 130.103 574.139 133.586 574.529 137.102C574.952 140.617 575.49 144.117 576.141 147.6C576.792 151.083 577.557 154.484 578.436 157.805ZM623.016 157.707C622.332 157.642 621.567 157.577 620.721 157.512C619.972 157.447 619.077 157.398 618.035 157.365C616.993 157.333 615.789 157.316 614.422 157.316C611.785 157.316 608.725 157.43 605.242 157.658C601.759 157.886 597.983 158.326 593.914 158.977C594.63 157.512 595.249 155.656 595.77 153.41C596.29 151.164 596.714 148.771 597.039 146.232C597.397 143.661 597.674 141.057 597.869 138.42C598.064 135.783 598.211 133.326 598.309 131.047C598.406 128.768 598.455 126.799 598.455 125.139C598.488 123.479 598.504 122.339 598.504 121.721C598.504 121.59 598.488 121.086 598.455 120.207C598.455 119.328 598.439 118.189 598.406 116.789C598.374 115.389 598.325 113.794 598.26 112.004C598.195 110.181 598.097 108.293 597.967 106.34C597.869 104.387 597.723 102.417 597.527 100.432C597.365 98.446 597.153 96.5742 596.893 94.8164C596.665 93.0586 596.388 91.4798 596.062 90.0801C595.77 88.6478 595.411 87.5247 594.988 86.7109C598.276 87.2969 601.287 87.6875 604.021 87.8828C606.788 88.0781 609.279 88.1758 611.492 88.1758C612.957 88.1758 614.275 88.1432 615.447 88.0781C616.619 88.013 617.612 87.9479 618.426 87.8828C619.37 87.7852 620.2 87.6875 620.916 87.5898C620.525 89.4128 620.184 91.4473 619.891 93.6934C619.598 95.9069 619.337 98.2832 619.109 100.822C618.882 103.329 618.702 105.965 618.572 108.732C618.475 111.499 618.426 114.348 618.426 117.277C618.426 120.663 618.507 124.113 618.67 127.629C618.833 131.112 619.093 134.579 619.451 138.029C619.842 141.48 620.314 144.865 620.867 148.186C621.453 151.506 622.169 154.68 623.016 157.707ZM681.219 125.285C681.219 130.233 680.665 134.888 679.559 139.25C678.452 143.579 676.775 147.372 674.529 150.627C672.283 153.85 669.435 156.389 665.984 158.244C662.566 160.132 658.514 161.076 653.826 161.076C649.171 161.076 645.118 160.132 641.668 158.244C638.25 156.389 635.402 153.85 633.123 150.627C630.877 147.372 629.201 143.579 628.094 139.25C626.987 134.888 626.434 130.233 626.434 125.285C626.434 121.639 626.775 118.124 627.459 114.738C628.143 111.353 629.087 108.195 630.291 105.266C631.495 102.336 632.944 99.6667 634.637 97.2578C636.329 94.849 638.185 92.7982 640.203 91.1055C642.254 89.3802 644.419 88.0456 646.697 87.1016C649.008 86.1576 651.385 85.6855 653.826 85.6855C657.928 85.6855 661.655 86.6947 665.008 88.7129C668.393 90.6986 671.274 93.4655 673.65 97.0137C676.059 100.562 677.915 104.745 679.217 109.562C680.551 114.38 681.219 119.621 681.219 125.285ZM661.248 121.086C661.248 118.645 661.053 116.398 660.662 114.348C660.271 112.264 659.734 110.474 659.051 108.977C658.4 107.447 657.618 106.258 656.707 105.412C655.796 104.533 654.835 104.094 653.826 104.094C652.85 104.094 651.922 104.615 651.043 105.656C650.164 106.665 649.383 107.984 648.699 109.611C648.048 111.239 647.527 113.062 647.137 115.08C646.746 117.098 646.551 119.1 646.551 121.086C646.551 123.007 646.714 124.797 647.039 126.457C647.397 128.085 647.885 129.501 648.504 130.705C649.122 131.91 649.871 132.87 650.75 133.586C651.661 134.27 652.687 134.611 653.826 134.611C654.933 134.611 655.942 134.27 656.854 133.586C657.798 132.87 658.579 131.91 659.197 130.705C659.848 129.501 660.353 128.085 660.711 126.457C661.069 124.797 661.248 123.007 661.248 121.086ZM713.494 157.707C712.876 157.642 712.143 157.577 711.297 157.512C710.581 157.447 709.718 157.398 708.709 157.365C707.7 157.333 706.544 157.316 705.242 157.316C702.703 157.316 699.725 157.43 696.307 157.658C692.921 157.886 689.194 158.326 685.125 158.977C685.841 157.512 686.46 155.656 686.98 153.41C687.501 151.164 687.924 148.771 688.25 146.232C688.608 143.661 688.885 141.057 689.08 138.42C689.275 135.783 689.422 133.326 689.52 131.047C689.617 128.768 689.666 126.799 689.666 125.139C689.699 123.479 689.715 122.339 689.715 121.721C689.715 121.59 689.699 121.086 689.666 120.207C689.666 119.328 689.65 118.189 689.617 116.789C689.585 115.389 689.536 113.794 689.471 112.004C689.406 110.181 689.308 108.293 689.178 106.34C689.08 104.387 688.934 102.417 688.738 100.432C688.576 98.446 688.364 96.5742 688.104 94.8164C687.876 93.0586 687.599 91.4798 687.273 90.0801C686.98 88.6478 686.622 87.5247 686.199 86.7109C689.487 87.2969 692.482 87.6875 695.184 87.8828C697.885 88.0781 700.294 88.1758 702.41 88.1758C703.842 88.1758 705.112 88.1432 706.219 88.0781C707.358 88.013 708.302 87.9479 709.051 87.8828C709.93 87.7852 710.711 87.6875 711.395 87.5898C712.794 94.4909 714.389 100.887 716.18 106.779C717.97 112.671 719.988 118.14 722.234 123.186V121.184C722.137 115.878 721.958 110.93 721.697 106.34C721.567 104.387 721.421 102.417 721.258 100.432C721.095 98.446 720.883 96.5742 720.623 94.8164C720.395 93.0586 720.118 91.4798 719.793 90.0801C719.5 88.6478 719.142 87.5247 718.719 86.7109C721.974 87.2969 724.969 87.6875 727.703 87.8828C730.47 88.0781 732.911 88.1758 735.027 88.1758C736.46 88.1758 737.729 88.1432 738.836 88.0781C739.975 88.013 740.919 87.9479 741.668 87.8828C742.547 87.7852 743.328 87.6875 744.012 87.5898C743.621 89.4128 743.279 91.4473 742.986 93.6934C742.693 95.9395 742.433 98.332 742.205 100.871C741.977 103.41 741.798 106.079 741.668 108.879C741.57 111.678 741.521 114.559 741.521 117.521C741.521 120.874 741.603 124.292 741.766 127.775C741.928 131.226 742.189 134.676 742.547 138.127C742.938 141.545 743.41 144.914 743.963 148.234C744.549 151.522 745.232 154.68 746.014 157.707C745.428 157.642 744.728 157.577 743.914 157.512C743.23 157.447 742.4 157.398 741.424 157.365C740.447 157.333 739.34 157.316 738.104 157.316C735.76 157.316 733.058 157.43 729.998 157.658C726.938 157.886 723.65 158.326 720.135 158.977C720.135 155.624 719.858 152.352 719.305 149.162C718.784 145.939 718.035 142.782 717.059 139.689C716.082 136.564 714.91 133.505 713.543 130.51C712.176 127.515 710.662 124.553 709.002 121.623C709.035 124.683 709.148 127.775 709.344 130.9C709.572 134.025 709.865 137.118 710.223 140.178C710.613 143.238 711.069 146.249 711.59 149.211C712.143 152.141 712.778 154.973 713.494 157.707Z" fill="white" fill-opacity="0.85"/>
</g>
</g>
<defs>
<filter id="filter0_d_1_94" x="0" y="0" width="897" height="325" filterUnits="userSpaceOnUse" color-interpolation-filters="sRGB">
<feFlood flood-opacity="0" result="BackgroundImageFix"/>
<feColorMatrix in="SourceAlpha" type="matrix" values="0 0 0 0 0 0 0 0 0 0 0 0 0 0 0 0 0 0 127 0" result="hardAlpha"/>
<feOffset dx="4" dy="38"/>
<feGaussianBlur stdDeviation="31"/>
<feColorMatrix type="matrix" values="0 0 0 0 0 0 0 0 0 0 0 0 0 0 0 0 0 0 0.5 0"/>
<feBlend mode="normal" in2="BackgroundImageFix" result="effect1_dropShadow_1_94"/>
<feBlend mode="normal" in="SourceGraphic" in2="effect1_dropShadow_1_94" result="shape"/>
</filter>
<filter id="filter1_d_1_94" x="142.84" y="85.6855" width="605.174" height="77.3906" filterUnits="userSpaceOnUse" color-interpolation-filters="sRGB">
<feFlood flood-opacity="0" result="BackgroundImageFix"/>
<feColorMatrix in="SourceAlpha" type="matrix" values="0 0 0 0 0 0 0 0 0 0 0 0 0 0 0 0 0 0 127 0" result="hardAlpha"/>
<feOffset dx="1" dy="1"/>
<feGaussianBlur stdDeviation="0.5"/>
<feColorMatrix type="matrix" values="0 0 0 0 0 0 0 0 0 0 0 0 0 0 0 0 0 0 0.25 0"/>
<feBlend mode="normal" in2="BackgroundImageFix" result="effect1_dropShadow_1_94"/>
<feBlend mode="normal" in="SourceGraphic" in2="effect1_dropShadow_1_94" result="shape"/>
</filter>
<radialGradient id="paint0_radial_1_94" cx="0" cy="0" r="1" gradientUnits="userSpaceOnUse" gradientTransform="translate(305.107 63.541) rotate(21.0586) scale(353.055 255.256)">
<stop stop-color="white"/>
<stop offset="0.697917" stop-color="white" stop-opacity="0"/>
<stop offset="1" stop-color="white" stop-opacity="0"/>
</radialGradient>
</defs>
</svg>
