<svg width="947" height="325" viewBox="0 0 947 325" fill="none" xmlns="http://www.w3.org/2000/svg">
<g filter="url(#filter0_d_1_94)">
<rect x="58" y="24" width="823" height="201" rx="25" fill="#C5BF38"/>
<rect x="58" y="24" width="823" height="201" rx="25" fill="url(#paint0_radial_1_94)" fill-opacity="0.7"/>
<g filter="url(#filter1_d_1_94)">
<path d="M169.598 157.707C168.914 157.642 168.149 157.577 167.303 157.512C166.554 157.447 165.659 157.398 164.617 157.365C163.576 157.333 162.371 157.316 161.004 157.316C158.367 157.316 155.307 157.43 151.824 157.658C148.341 157.886 144.565 158.326 140.496 158.977C141.212 157.512 141.831 155.656 142.352 153.41C142.872 151.164 143.296 148.771 143.621 146.232C143.979 143.661 144.256 141.057 144.451 138.42C144.646 135.783 144.793 133.326 144.891 131.047C144.988 128.768 145.037 126.799 145.037 125.139C145.07 123.479 145.086 122.339 145.086 121.721C145.086 121.59 145.07 121.086 145.037 120.207C145.037 119.328 145.021 118.189 144.988 116.789C144.956 115.389 144.907 113.794 144.842 112.004C144.777 110.181 144.679 108.293 144.549 106.34C144.451 104.387 144.305 102.417 144.109 100.432C143.947 98.446 143.735 96.5742 143.475 94.8164C143.247 93.0586 142.97 91.4798 142.645 90.0801C142.352 88.6478 141.993 87.5247 141.57 86.7109C144.858 87.2969 147.869 87.6875 150.604 87.8828C153.37 88.0781 155.861 88.1758 158.074 88.1758C159.539 88.1758 160.857 88.1432 162.029 88.0781C163.201 88.013 164.194 87.9479 165.008 87.8828C165.952 87.7852 166.782 87.6875 167.498 87.5898C167.107 89.4128 166.766 91.4473 166.473 93.6934C166.18 95.9069 165.919 98.2832 165.691 100.822C165.464 103.329 165.285 105.965 165.154 108.732C165.057 111.499 165.008 114.348 165.008 117.277C165.008 120.663 165.089 124.113 165.252 127.629C165.415 131.112 165.675 134.579 166.033 138.029C166.424 141.48 166.896 144.865 167.449 148.186C168.035 151.506 168.751 154.68 169.598 157.707ZM201.678 157.707C201.059 157.642 200.327 157.577 199.48 157.512C198.764 157.447 197.902 157.398 196.893 157.365C195.883 157.333 194.728 157.316 193.426 157.316C190.887 157.316 187.908 157.43 184.49 157.658C181.105 157.886 177.378 158.326 173.309 158.977C174.025 157.512 174.643 155.656 175.164 153.41C175.685 151.164 176.108 148.771 176.434 146.232C176.792 143.661 177.068 141.057 177.264 138.42C177.459 135.783 177.605 133.326 177.703 131.047C177.801 128.768 177.85 126.799 177.85 125.139C177.882 123.479 177.898 122.339 177.898 121.721C177.898 121.59 177.882 121.086 177.85 120.207C177.85 119.328 177.833 118.189 177.801 116.789C177.768 115.389 177.719 113.794 177.654 112.004C177.589 110.181 177.492 108.293 177.361 106.34C177.264 104.387 177.117 102.417 176.922 100.432C176.759 98.446 176.548 96.5742 176.287 94.8164C176.059 93.0586 175.783 91.4798 175.457 90.0801C175.164 88.6478 174.806 87.5247 174.383 86.7109C177.671 87.2969 180.665 87.6875 183.367 87.8828C186.069 88.0781 188.478 88.1758 190.594 88.1758C192.026 88.1758 193.296 88.1432 194.402 88.0781C195.542 88.013 196.486 87.9479 197.234 87.8828C198.113 87.7852 198.895 87.6875 199.578 87.5898C200.978 94.4909 202.573 100.887 204.363 106.779C206.154 112.671 208.172 118.14 210.418 123.186V121.184C210.32 115.878 210.141 110.93 209.881 106.34C209.751 104.387 209.604 102.417 209.441 100.432C209.279 98.446 209.067 96.5742 208.807 94.8164C208.579 93.0586 208.302 91.4798 207.977 90.0801C207.684 88.6478 207.326 87.5247 206.902 86.7109C210.158 87.2969 213.152 87.6875 215.887 87.8828C218.654 88.0781 221.095 88.1758 223.211 88.1758C224.643 88.1758 225.913 88.1432 227.02 88.0781C228.159 88.013 229.103 87.9479 229.852 87.8828C230.73 87.7852 231.512 87.6875 232.195 87.5898C231.805 89.4128 231.463 91.4473 231.17 93.6934C230.877 95.9395 230.617 98.332 230.389 100.871C230.161 103.41 229.982 106.079 229.852 108.879C229.754 111.678 229.705 114.559 229.705 117.521C229.705 120.874 229.786 124.292 229.949 127.775C230.112 131.226 230.372 134.676 230.73 138.127C231.121 141.545 231.593 144.914 232.146 148.234C232.732 151.522 233.416 154.68 234.197 157.707C233.611 157.642 232.911 157.577 232.098 157.512C231.414 157.447 230.584 157.398 229.607 157.365C228.631 157.333 227.524 157.316 226.287 157.316C223.943 157.316 221.242 157.43 218.182 157.658C215.122 157.886 211.834 158.326 208.318 158.977C208.318 155.624 208.042 152.352 207.488 149.162C206.967 145.939 206.219 142.782 205.242 139.689C204.266 136.564 203.094 133.505 201.727 130.51C200.359 127.515 198.846 124.553 197.186 121.623C197.218 124.683 197.332 127.775 197.527 130.9C197.755 134.025 198.048 137.118 198.406 140.178C198.797 143.238 199.253 146.249 199.773 149.211C200.327 152.141 200.962 154.973 201.678 157.707ZM284.93 109.416C283.335 107.691 281.658 106.356 279.9 105.412C278.143 104.436 276.515 103.736 275.018 103.312C273.52 102.857 272.267 102.596 271.258 102.531C270.249 102.434 269.679 102.385 269.549 102.385C267.921 102.385 266.603 102.596 265.594 103.02C264.585 103.41 263.787 103.931 263.201 104.582C262.648 105.201 262.257 105.917 262.029 106.73C261.834 107.512 261.736 108.309 261.736 109.123C261.736 109.904 261.818 110.718 261.98 111.564C262.176 112.411 262.485 113.192 262.908 113.908C263.331 114.592 263.901 115.161 264.617 115.617C265.333 116.073 266.245 116.301 267.352 116.301C267.417 116.301 267.677 116.301 268.133 116.301C268.589 116.268 269.158 116.138 269.842 115.91C270.525 115.65 271.274 115.227 272.088 114.641C272.934 114.022 273.781 113.143 274.627 112.004V131.877C273.943 130.64 273.195 129.663 272.381 128.947C271.567 128.231 270.786 127.71 270.037 127.385C269.321 127.027 268.67 126.815 268.084 126.75C267.531 126.652 267.156 126.604 266.961 126.604C265.887 126.604 264.992 126.783 264.275 127.141C263.592 127.499 263.038 128.003 262.615 128.654C262.225 129.273 261.948 130.038 261.785 130.949C261.622 131.828 261.541 132.805 261.541 133.879C261.639 136.385 261.883 138.973 262.273 141.643C262.436 142.782 262.648 143.986 262.908 145.256C263.169 146.525 263.494 147.844 263.885 149.211C264.275 150.546 264.731 151.896 265.252 153.264C265.773 154.598 266.375 155.917 267.059 157.219C266.342 157.186 265.561 157.137 264.715 157.072C263.966 157.007 263.087 156.958 262.078 156.926C261.102 156.893 259.995 156.877 258.758 156.877C257.293 156.877 255.698 156.926 253.973 157.023C252.247 157.089 250.49 157.219 248.699 157.414C246.909 157.609 245.102 157.87 243.279 158.195C241.456 158.553 239.715 158.993 238.055 159.514C238.771 158.049 239.389 156.193 239.91 153.947C240.431 151.701 240.854 149.309 241.18 146.77C241.538 144.23 241.814 141.643 242.01 139.006C242.205 136.369 242.352 133.928 242.449 131.682C242.547 129.403 242.596 127.434 242.596 125.773C242.628 124.081 242.645 122.925 242.645 122.307C242.645 122.176 242.628 121.672 242.596 120.793C242.596 119.914 242.579 118.775 242.547 117.375C242.514 115.975 242.465 114.38 242.4 112.59C242.335 110.767 242.238 108.879 242.107 106.926C242.01 104.973 241.863 103.003 241.668 101.018C241.505 99.0319 241.294 97.1602 241.033 95.4023C240.805 93.612 240.529 92.0169 240.203 90.6172C239.91 89.1849 239.552 88.0456 239.129 87.1992C242.254 87.8503 245.428 88.3223 248.65 88.6152C251.906 88.8757 255.112 89.0059 258.27 89.0059C261.883 89.0059 265.301 88.8919 268.523 88.6641C271.746 88.4036 274.578 88.1107 277.02 87.7852C279.884 87.4271 282.521 87.0039 284.93 86.5156V109.416ZM341.961 125.285C341.961 130.233 341.408 134.888 340.301 139.25C339.194 143.579 337.518 147.372 335.271 150.627C333.025 153.85 330.177 156.389 326.727 158.244C323.309 160.132 319.256 161.076 314.568 161.076C309.913 161.076 305.861 160.132 302.41 158.244C298.992 156.389 296.144 153.85 293.865 150.627C291.619 147.372 289.943 143.579 288.836 139.25C287.729 134.888 287.176 130.233 287.176 125.285C287.176 121.639 287.518 118.124 288.201 114.738C288.885 111.353 289.829 108.195 291.033 105.266C292.238 102.336 293.686 99.6667 295.379 97.2578C297.072 94.849 298.927 92.7982 300.945 91.1055C302.996 89.3802 305.161 88.0456 307.439 87.1016C309.751 86.1576 312.127 85.6855 314.568 85.6855C318.67 85.6855 322.397 86.6947 325.75 88.7129C329.135 90.6986 332.016 93.4655 334.393 97.0137C336.801 100.562 338.657 104.745 339.959 109.562C341.294 114.38 341.961 119.621 341.961 125.285ZM321.99 121.086C321.99 118.645 321.795 116.398 321.404 114.348C321.014 112.264 320.477 110.474 319.793 108.977C319.142 107.447 318.361 106.258 317.449 105.412C316.538 104.533 315.577 104.094 314.568 104.094C313.592 104.094 312.664 104.615 311.785 105.656C310.906 106.665 310.125 107.984 309.441 109.611C308.79 111.239 308.27 113.062 307.879 115.08C307.488 117.098 307.293 119.1 307.293 121.086C307.293 123.007 307.456 124.797 307.781 126.457C308.139 128.085 308.628 129.501 309.246 130.705C309.865 131.91 310.613 132.87 311.492 133.586C312.404 134.27 313.429 134.611 314.568 134.611C315.675 134.611 316.684 134.27 317.596 133.586C318.54 132.87 319.321 131.91 319.939 130.705C320.59 129.501 321.095 128.085 321.453 126.457C321.811 124.797 321.99 123.007 321.99 121.086ZM403.875 158.781C401.759 158.618 399.773 158.505 397.918 158.439C396.095 158.407 394.402 158.391 392.84 158.391C389.78 158.391 387.225 158.472 385.174 158.635C383.123 158.83 381.447 159.025 380.145 159.221C378.615 159.449 377.394 159.709 376.482 160.002C376.613 158.993 376.743 158.049 376.873 157.17C377.003 156.291 377.101 155.445 377.166 154.631C377.264 153.785 377.329 152.954 377.361 152.141C377.426 151.294 377.459 150.415 377.459 149.504C377.459 145.923 377.312 142.945 377.02 140.568C376.759 138.192 376.368 136.206 375.848 134.611C375.327 133.016 374.692 131.73 373.943 130.754C373.195 129.777 372.365 128.898 371.453 128.117C371.388 129.582 371.339 130.998 371.307 132.365C371.274 133.732 371.258 135.181 371.258 136.711C371.258 138.208 371.29 139.771 371.355 141.398C371.421 143.026 371.535 144.751 371.697 146.574C371.86 148.397 372.104 150.35 372.43 152.434C372.755 154.484 373.162 156.714 373.65 159.123C373.618 158.993 373.195 158.846 372.381 158.684C371.567 158.521 370.477 158.374 369.109 158.244C367.742 158.114 366.163 158.016 364.373 157.951C362.615 157.854 360.776 157.805 358.855 157.805C356.349 157.805 353.842 157.886 351.336 158.049C348.829 158.244 346.567 158.602 344.549 159.123C345.33 158.114 346.03 156.844 346.648 155.314C347.299 153.752 347.869 152.043 348.357 150.188C348.846 148.332 349.253 146.379 349.578 144.328C349.936 142.277 350.245 140.259 350.506 138.273C351.092 133.618 351.482 128.654 351.678 123.381C351.678 122.079 351.678 120.435 351.678 118.449C351.71 116.464 351.678 114.299 351.58 111.955C351.515 109.611 351.385 107.202 351.189 104.729C351.027 102.255 350.734 99.8783 350.311 97.5996C349.92 95.321 349.399 93.2376 348.748 91.3496C348.097 89.4616 347.267 87.9479 346.258 86.8086C348.602 87.1667 350.88 87.4108 353.094 87.541C355.307 87.6387 357.195 87.6875 358.758 87.6875C360.125 87.6875 361.378 87.6549 362.518 87.5898C363.689 87.5247 364.845 87.4596 365.984 87.3945C367.124 87.3294 368.312 87.2643 369.549 87.1992C370.786 87.1341 372.153 87.1016 373.65 87.1016C375.701 87.1016 377.768 87.2155 379.852 87.4434C381.935 87.6387 383.921 88.013 385.809 88.5664C387.729 89.0872 389.503 89.8197 391.131 90.7637C392.791 91.6751 394.223 92.847 395.428 94.2793C396.665 95.679 397.625 97.3717 398.309 99.3574C399.025 101.343 399.383 103.654 399.383 106.291C399.383 107.756 399.188 109.221 398.797 110.686C398.439 112.15 397.837 113.599 396.99 115.031C396.144 116.431 395.037 117.782 393.67 119.084C392.335 120.354 390.691 121.525 388.738 122.6C391.049 123.544 392.791 124.715 393.963 126.115C395.167 127.515 396.03 129.11 396.551 130.9C397.072 132.691 397.348 134.644 397.381 136.76C397.446 138.843 397.511 141.024 397.576 143.303C397.706 145.744 398.016 148.007 398.504 150.09C398.699 150.969 398.943 151.864 399.236 152.775C399.562 153.687 399.936 154.533 400.359 155.314C400.815 156.096 401.32 156.796 401.873 157.414C402.459 158.033 403.126 158.488 403.875 158.781ZM371.453 116.691C372.169 116.171 372.967 115.52 373.846 114.738C374.757 113.924 375.587 113.046 376.336 112.102C377.117 111.125 377.768 110.1 378.289 109.025C378.81 107.951 379.07 106.877 379.07 105.803C379.07 104.761 378.761 103.915 378.143 103.264C377.557 102.613 376.889 102.287 376.141 102.287C375.099 102.287 374.269 102.775 373.65 103.752C373.032 104.696 372.544 105.819 372.186 107.121C371.86 108.423 371.632 109.742 371.502 111.076C371.404 112.378 371.355 113.387 371.355 114.104C371.355 114.494 371.355 114.917 371.355 115.373C371.355 115.796 371.388 116.236 371.453 116.691ZM433.514 157.707C432.96 157.642 432.277 157.577 431.463 157.512C430.779 157.447 429.933 157.398 428.924 157.365C427.947 157.333 426.84 157.316 425.604 157.316C423.195 157.316 420.33 157.43 417.01 157.658C413.689 157.886 409.995 158.326 405.926 158.977C407.651 151.717 408.839 144.605 409.49 137.639C410.174 130.673 410.516 123.967 410.516 117.521C410.516 111.662 410.288 106.161 409.832 101.018C409.376 95.8418 408.774 91.0729 408.025 86.7109C411.281 87.2969 414.194 87.6875 416.766 87.8828C419.37 88.0781 421.616 88.1758 423.504 88.1758C424.806 88.1758 425.945 88.1432 426.922 88.0781C427.931 88.013 428.761 87.9479 429.412 87.8828C430.193 87.7852 430.861 87.6875 431.414 87.5898C432.521 93.9701 433.904 100.285 435.564 106.535C437.225 112.753 439.275 119.003 441.717 125.285C443.768 118.938 445.395 112.59 446.6 106.242C447.804 99.862 448.618 93.3516 449.041 86.7109L449.432 87.5898L449.041 86.7109C452.296 87.2969 455.258 87.6875 457.928 87.8828C460.597 88.0781 462.957 88.1758 465.008 88.1758C466.375 88.1758 467.579 88.1432 468.621 88.0781C469.663 88.013 470.558 87.9479 471.307 87.8828C472.153 87.7852 472.885 87.6875 473.504 87.5898C472.82 90.8451 472.299 94.7025 471.941 99.1621C471.583 103.589 471.404 108.342 471.404 113.42C471.404 117.033 471.502 120.76 471.697 124.602C471.893 128.41 472.186 132.219 472.576 136.027C472.999 139.803 473.536 143.531 474.188 147.209C474.839 150.887 475.62 154.387 476.531 157.707C475.88 157.642 475.132 157.577 474.285 157.512C473.536 157.447 472.658 157.398 471.648 157.365C470.639 157.333 469.467 157.316 468.133 157.316C465.594 157.316 462.599 157.43 459.148 157.658C455.73 157.886 451.987 158.326 447.918 158.977C448.732 157.349 449.399 155.266 449.92 152.727C450.473 150.188 450.913 147.486 451.238 144.621C451.596 141.757 451.857 138.908 452.02 136.076C452.215 133.212 452.345 130.656 452.41 128.41C451.466 130.428 450.555 132.479 449.676 134.562C448.797 136.646 447.885 138.876 446.941 141.252C446.03 143.596 445.07 146.135 444.061 148.869C443.051 151.604 441.945 154.647 440.74 158C439.503 154.647 438.38 151.604 437.371 148.869C436.362 146.135 435.402 143.596 434.49 141.252C433.611 138.908 432.732 136.695 431.854 134.611C431.007 132.495 430.128 130.396 429.217 128.312C429.51 133.456 429.998 138.534 430.682 143.547C431.365 148.527 432.309 153.247 433.514 157.707ZM537.371 158.586C535.353 158.326 533.4 158.146 531.512 158.049C529.656 157.951 527.768 157.902 525.848 157.902C520.672 157.902 515.366 158.407 509.93 159.416C510.125 158.635 510.337 157.951 510.564 157.365C510.825 156.747 511.053 156.079 511.248 155.363C511.443 154.615 511.606 153.752 511.736 152.775C511.867 151.799 511.932 150.546 511.932 149.016C511.932 147.453 511.818 145.972 511.59 144.572C511.362 143.14 511.02 141.887 510.564 140.812C510.109 139.706 509.539 138.827 508.855 138.176C508.204 137.525 507.439 137.199 506.561 137.199C505.584 137.199 504.754 137.492 504.07 138.078C503.419 138.664 502.882 139.462 502.459 140.471C502.068 141.48 501.775 142.635 501.58 143.938C501.417 145.24 501.336 146.623 501.336 148.088C501.336 149.553 501.417 150.822 501.58 151.896C501.775 152.938 501.987 153.85 502.215 154.631C502.475 155.412 502.719 156.112 502.947 156.73C503.175 157.316 503.338 157.902 503.436 158.488C501.189 158.228 498.976 158.033 496.795 157.902C494.646 157.772 492.498 157.707 490.35 157.707C488.201 157.707 486.036 157.772 483.855 157.902C481.707 158.033 479.477 158.228 477.166 158.488C479.184 152.629 480.942 146.818 482.439 141.057C483.969 135.295 485.271 129.501 486.346 123.674C487.42 117.847 488.283 111.955 488.934 105.998C489.617 100.041 490.122 93.9375 490.447 87.6875C492.856 88.013 495.493 88.2572 498.357 88.4199C501.255 88.5501 504.217 88.6152 507.244 88.6152C509.816 88.6152 512.306 88.5501 514.715 88.4199C517.156 88.2897 519.402 88.013 521.453 87.5898C521.681 93.8073 522.267 99.9271 523.211 105.949C524.155 111.971 525.327 117.945 526.727 123.869C528.159 129.761 529.786 135.604 531.609 141.398C533.432 147.16 535.353 152.889 537.371 158.586ZM510.027 120.695C509.962 120.077 509.767 119.165 509.441 117.961C509.148 116.919 508.709 115.552 508.123 113.859C507.537 112.134 506.674 109.921 505.535 107.219C505.275 108.911 504.982 110.425 504.656 111.76C504.331 113.062 504.021 114.25 503.729 115.324C503.436 116.366 503.175 117.326 502.947 118.205C502.752 119.084 502.654 119.914 502.654 120.695C502.654 122.323 503.029 123.592 503.777 124.504C504.559 125.383 505.421 125.822 506.365 125.822C507.374 125.822 508.221 125.334 508.904 124.357C509.588 123.381 509.962 122.16 510.027 120.695ZM574.432 157.805C573.683 157.74 572.82 157.674 571.844 157.609C570.997 157.544 570.005 157.495 568.865 157.463C567.726 157.43 566.44 157.414 565.008 157.414C562.599 157.414 559.881 157.512 556.854 157.707C553.859 157.87 550.685 158.195 547.332 158.684C548.471 153.866 549.334 149.227 549.92 144.768C550.506 140.308 550.945 136.337 551.238 132.854C551.564 128.785 551.759 124.96 551.824 121.379C551.824 119.849 551.792 118.173 551.727 116.35C551.661 114.787 551.58 112.98 551.482 110.93C551.385 108.846 551.255 106.6 551.092 104.191C549.562 105.656 548.032 107.235 546.502 108.928C545.005 110.588 543.556 112.329 542.156 114.152C540.757 115.943 539.438 117.766 538.201 119.621C536.997 121.477 535.939 123.299 535.027 125.09L536.199 87.7852C539.259 88.1432 542.482 88.4199 545.867 88.6152C549.285 88.8105 552.768 88.9082 556.316 88.9082C561.395 88.9082 566.424 88.7292 571.404 88.3711C576.385 88.013 580.958 87.4922 585.125 86.8086L586.932 124.504C584.588 120.044 581.984 115.861 579.119 111.955C576.287 108.016 573.26 104.729 570.037 102.092C569.777 104.305 569.581 106.633 569.451 109.074C569.354 111.483 569.305 113.957 569.305 116.496C569.305 119.784 569.402 123.169 569.598 126.652C569.826 130.103 570.135 133.586 570.525 137.102C570.949 140.617 571.486 144.117 572.137 147.6C572.788 151.083 573.553 154.484 574.432 157.805ZM619.012 157.707C618.328 157.642 617.563 157.577 616.717 157.512C615.968 157.447 615.073 157.398 614.031 157.365C612.99 157.333 611.785 157.316 610.418 157.316C607.781 157.316 604.721 157.43 601.238 157.658C597.755 157.886 593.979 158.326 589.91 158.977C590.626 157.512 591.245 155.656 591.766 153.41C592.286 151.164 592.71 148.771 593.035 146.232C593.393 143.661 593.67 141.057 593.865 138.42C594.061 135.783 594.207 133.326 594.305 131.047C594.402 128.768 594.451 126.799 594.451 125.139C594.484 123.479 594.5 122.339 594.5 121.721C594.5 121.59 594.484 121.086 594.451 120.207C594.451 119.328 594.435 118.189 594.402 116.789C594.37 115.389 594.321 113.794 594.256 112.004C594.191 110.181 594.093 108.293 593.963 106.34C593.865 104.387 593.719 102.417 593.523 100.432C593.361 98.446 593.149 96.5742 592.889 94.8164C592.661 93.0586 592.384 91.4798 592.059 90.0801C591.766 88.6478 591.408 87.5247 590.984 86.7109C594.272 87.2969 597.283 87.6875 600.018 87.8828C602.785 88.0781 605.275 88.1758 607.488 88.1758C608.953 88.1758 610.271 88.1432 611.443 88.0781C612.615 88.013 613.608 87.9479 614.422 87.8828C615.366 87.7852 616.196 87.6875 616.912 87.5898C616.521 89.4128 616.18 91.4473 615.887 93.6934C615.594 95.9069 615.333 98.2832 615.105 100.822C614.878 103.329 614.699 105.965 614.568 108.732C614.471 111.499 614.422 114.348 614.422 117.277C614.422 120.663 614.503 124.113 614.666 127.629C614.829 131.112 615.089 134.579 615.447 138.029C615.838 141.48 616.31 144.865 616.863 148.186C617.449 151.506 618.165 154.68 619.012 157.707ZM677.215 125.285C677.215 130.233 676.661 134.888 675.555 139.25C674.448 143.579 672.771 147.372 670.525 150.627C668.279 153.85 665.431 156.389 661.98 158.244C658.562 160.132 654.51 161.076 649.822 161.076C645.167 161.076 641.115 160.132 637.664 158.244C634.246 156.389 631.398 153.85 629.119 150.627C626.873 147.372 625.197 143.579 624.09 139.25C622.983 134.888 622.43 130.233 622.43 125.285C622.43 121.639 622.771 118.124 623.455 114.738C624.139 111.353 625.083 108.195 626.287 105.266C627.492 102.336 628.94 99.6667 630.633 97.2578C632.326 94.849 634.181 92.7982 636.199 91.1055C638.25 89.3802 640.415 88.0456 642.693 87.1016C645.005 86.1576 647.381 85.6855 649.822 85.6855C653.924 85.6855 657.651 86.6947 661.004 88.7129C664.389 90.6986 667.27 93.4655 669.646 97.0137C672.055 100.562 673.911 104.745 675.213 109.562C676.548 114.38 677.215 119.621 677.215 125.285ZM657.244 121.086C657.244 118.645 657.049 116.398 656.658 114.348C656.268 112.264 655.73 110.474 655.047 108.977C654.396 107.447 653.615 106.258 652.703 105.412C651.792 104.533 650.831 104.094 649.822 104.094C648.846 104.094 647.918 104.615 647.039 105.656C646.16 106.665 645.379 107.984 644.695 109.611C644.044 111.239 643.523 113.062 643.133 115.08C642.742 117.098 642.547 119.1 642.547 121.086C642.547 123.007 642.71 124.797 643.035 126.457C643.393 128.085 643.882 129.501 644.5 130.705C645.118 131.91 645.867 132.87 646.746 133.586C647.658 134.27 648.683 134.611 649.822 134.611C650.929 134.611 651.938 134.27 652.85 133.586C653.794 132.87 654.575 131.91 655.193 130.705C655.844 129.501 656.349 128.085 656.707 126.457C657.065 124.797 657.244 123.007 657.244 121.086ZM709.49 157.707C708.872 157.642 708.139 157.577 707.293 157.512C706.577 157.447 705.714 157.398 704.705 157.365C703.696 157.333 702.54 157.316 701.238 157.316C698.699 157.316 695.721 157.43 692.303 157.658C688.917 157.886 685.19 158.326 681.121 158.977C681.837 157.512 682.456 155.656 682.977 153.41C683.497 151.164 683.921 148.771 684.246 146.232C684.604 143.661 684.881 141.057 685.076 138.42C685.271 135.783 685.418 133.326 685.516 131.047C685.613 128.768 685.662 126.799 685.662 125.139C685.695 123.479 685.711 122.339 685.711 121.721C685.711 121.59 685.695 121.086 685.662 120.207C685.662 119.328 685.646 118.189 685.613 116.789C685.581 115.389 685.532 113.794 685.467 112.004C685.402 110.181 685.304 108.293 685.174 106.34C685.076 104.387 684.93 102.417 684.734 100.432C684.572 98.446 684.36 96.5742 684.1 94.8164C683.872 93.0586 683.595 91.4798 683.27 90.0801C682.977 88.6478 682.618 87.5247 682.195 86.7109C685.483 87.2969 688.478 87.6875 691.18 87.8828C693.882 88.0781 696.29 88.1758 698.406 88.1758C699.839 88.1758 701.108 88.1432 702.215 88.0781C703.354 88.013 704.298 87.9479 705.047 87.8828C705.926 87.7852 706.707 87.6875 707.391 87.5898C708.79 94.4909 710.385 100.887 712.176 106.779C713.966 112.671 715.984 118.14 718.23 123.186V121.184C718.133 115.878 717.954 110.93 717.693 106.34C717.563 104.387 717.417 102.417 717.254 100.432C717.091 98.446 716.88 96.5742 716.619 94.8164C716.391 93.0586 716.115 91.4798 715.789 90.0801C715.496 88.6478 715.138 87.5247 714.715 86.7109C717.97 87.2969 720.965 87.6875 723.699 87.8828C726.466 88.0781 728.908 88.1758 731.023 88.1758C732.456 88.1758 733.725 88.1432 734.832 88.0781C735.971 88.013 736.915 87.9479 737.664 87.8828C738.543 87.7852 739.324 87.6875 740.008 87.5898C739.617 89.4128 739.275 91.4473 738.982 93.6934C738.689 95.9395 738.429 98.332 738.201 100.871C737.973 103.41 737.794 106.079 737.664 108.879C737.566 111.678 737.518 114.559 737.518 117.521C737.518 120.874 737.599 124.292 737.762 127.775C737.924 131.226 738.185 134.676 738.543 138.127C738.934 141.545 739.406 144.914 739.959 148.234C740.545 151.522 741.229 154.68 742.01 157.707C741.424 157.642 740.724 157.577 739.91 157.512C739.227 157.447 738.396 157.398 737.42 157.365C736.443 157.333 735.337 157.316 734.1 157.316C731.756 157.316 729.054 157.43 725.994 157.658C722.934 157.886 719.646 158.326 716.131 158.977C716.131 155.624 715.854 152.352 715.301 149.162C714.78 145.939 714.031 142.782 713.055 139.689C712.078 136.564 710.906 133.505 709.539 130.51C708.172 127.515 706.658 124.553 704.998 121.623C705.031 124.683 705.145 127.775 705.34 130.9C705.568 134.025 705.861 137.118 706.219 140.178C706.609 143.238 707.065 146.249 707.586 149.211C708.139 152.141 708.774 154.973 709.49 157.707ZM796.355 102.287C796.355 103.915 796.046 105.396 795.428 106.73C794.842 108.033 794.012 109.156 792.938 110.1C791.863 111.044 790.594 111.776 789.129 112.297C787.697 112.818 786.134 113.078 784.441 113.078C782.586 113.078 780.991 112.85 779.656 112.395C778.354 111.939 777.247 111.369 776.336 110.686C775.457 109.969 774.757 109.188 774.236 108.342C773.715 107.463 773.309 106.617 773.016 105.803C772.755 104.989 772.576 104.24 772.479 103.557C772.413 102.873 772.381 102.352 772.381 101.994C772.771 102.645 773.227 103.068 773.748 103.264C774.269 103.426 774.708 103.508 775.066 103.508C775.978 103.508 776.613 103.264 776.971 102.775C777.361 102.287 777.557 101.766 777.557 101.213C777.557 100.855 777.475 100.48 777.312 100.09C777.182 99.6992 776.922 99.3411 776.531 99.0156C776.173 98.6576 775.669 98.3646 775.018 98.1367C774.399 97.9089 773.618 97.7949 772.674 97.7949C772.023 97.7949 771.355 97.9251 770.672 98.1855C769.988 98.4134 769.354 98.7878 768.768 99.3086C768.214 99.7969 767.758 100.415 767.4 101.164C767.042 101.913 766.863 102.792 766.863 103.801C766.863 104.777 767.059 105.754 767.449 106.73C767.872 107.674 768.426 108.57 769.109 109.416C769.826 110.262 770.656 111.027 771.6 111.711C772.576 112.395 773.634 112.964 774.773 113.42C776.564 114.169 778.403 114.901 780.291 115.617C782.212 116.333 784.067 117.115 785.857 117.961C787.648 118.807 789.324 119.784 790.887 120.891C792.482 121.965 793.865 123.251 795.037 124.748C796.242 126.245 797.186 128.003 797.869 130.021C798.585 132.007 798.943 134.335 798.943 137.004C798.943 140.812 798.162 144.296 796.6 147.453C795.07 150.578 793.003 153.264 790.398 155.51C787.827 157.723 784.832 159.432 781.414 160.637C778.029 161.874 774.48 162.492 770.77 162.492C767.417 162.492 764.227 161.988 761.199 160.979C758.172 160.002 755.519 158.651 753.24 156.926C750.962 155.201 749.139 153.182 747.771 150.871C746.437 148.527 745.77 146.005 745.77 143.303C745.77 141.317 746.095 139.576 746.746 138.078C747.397 136.581 748.292 135.344 749.432 134.367C750.604 133.358 751.954 132.609 753.484 132.121C755.047 131.633 756.707 131.389 758.465 131.389C759.832 131.389 761.167 131.535 762.469 131.828C763.803 132.121 765.04 132.561 766.18 133.146C767.352 133.7 768.393 134.383 769.305 135.197C770.249 136.011 770.997 136.939 771.551 137.98C770.867 137.785 770.265 137.688 769.744 137.688C768.865 137.688 768.165 137.948 767.645 138.469C767.124 138.99 766.863 139.771 766.863 140.812C766.863 141.366 766.993 141.887 767.254 142.375C767.514 142.831 767.84 143.238 768.23 143.596C768.654 143.954 769.126 144.23 769.646 144.426C770.2 144.621 770.77 144.719 771.355 144.719C772.007 144.719 772.609 144.589 773.162 144.328C773.715 144.035 774.204 143.661 774.627 143.205C775.05 142.749 775.376 142.245 775.604 141.691C775.831 141.138 775.945 140.568 775.945 139.982C775.945 138.843 775.587 137.688 774.871 136.516C774.188 135.344 773.178 134.302 771.844 133.391C769.305 131.828 766.912 130.477 764.666 129.338C762.42 128.199 760.353 127.124 758.465 126.115C756.577 125.074 754.868 124.032 753.338 122.99C751.84 121.949 750.555 120.744 749.48 119.377C748.439 118.01 747.641 116.415 747.088 114.592C746.535 112.736 746.258 110.507 746.258 107.902C746.258 104.777 746.86 101.848 748.064 99.1133C749.269 96.3789 751.01 94.0026 753.289 91.9844C755.6 89.9336 758.416 88.3223 761.736 87.1504C765.057 85.9785 768.833 85.3926 773.064 85.3926C777.329 85.3926 780.942 85.9134 783.904 86.9551C786.867 87.9642 789.259 89.2826 791.082 90.9102C792.938 92.5378 794.272 94.3607 795.086 96.3789C795.932 98.3646 796.355 100.334 796.355 102.287Z" fill="white" fill-opacity="0.85"/>
</g>
</g>
<defs>
<filter id="filter0_d_1_94" x="0" y="0" width="947" height="325" filterUnits="userSpaceOnUse" color-interpolation-filters="sRGB">
<feFlood flood-opacity="0" result="BackgroundImageFix"/>
<feColorMatrix in="SourceAlpha" type="matrix" values="0 0 0 0 0 0 0 0 0 0 0 0 0 0 0 0 0 0 127 0" result="hardAlpha"/>
<feOffset dx="4" dy="38"/>
<feGaussianBlur stdDeviation="31"/>
<feColorMatrix type="matrix" values="0 0 0 0 0 0 0 0 0 0 0 0 0 0 0 0 0 0 0.5 0"/>
<feBlend mode="normal" in2="BackgroundImageFix" result="effect1_dropShadow_1_94"/>
<feBlend mode="normal" in="SourceGraphic" in2="effect1_dropShadow_1_94" result="shape"/>
</filter>
<filter id="filter1_d_1_94" x="140.496" y="85.3926" width="660.447" height="79.0996" filterUnits="userSpaceOnUse" color-interpolation-filters="sRGB">
<feFlood flood-opacity="0" result="BackgroundImageFix"/>
<feColorMatrix in="SourceAlpha" type="matrix" values="0 0 0 0 0 0 0 0 0 0 0 0 0 0 0 0 0 0 127 0" result="hardAlpha"/>
<feOffset dx="1" dy="1"/>
<feGaussianBlur stdDeviation="0.5"/>
<feColorMatrix type="matrix" values="0 0 0 0 0 0 0 0 0 0 0 0 0 0 0 0 0 0 0.25 0"/>
<feBlend mode="normal" in2="BackgroundImageFix" result="effect1_dropShadow_1_94"/>
<feBlend mode="normal" in="SourceGraphic" in2="effect1_dropShadow_1_94" result="shape"/>
</filter>
<radialGradient id="paint0_radial_1_94" cx="0" cy="0" r="1" gradientUnits="userSpaceOnUse" gradientTransform="translate(321.09 63.541) rotate(19.8823) scale(373.021 257.22)">
<stop stop-color="white"/>
<stop offset="0.697917" stop-color="white" stop-opacity="0"/>
<stop offset="1" stop-color="white" stop-opacity="0"/>
</radialGradient>
</defs>
</svg>
