<svg width="1090" height="384" viewBox="0 0 1090 384" fill="none" xmlns="http://www.w3.org/2000/svg">
<g clip-path="url(#clip0_53_2493)">
<g filter="url(#filter0_d_53_2493)">
<rect x="133" y="92" width="823" height="201" rx="25" fill="#C5BF38"/>
<rect x="133" y="92" width="823" height="201" rx="25" fill="url(#paint0_radial_53_2493)" fill-opacity="0.7"/>
<g filter="url(#filter1_d_53_2493)">
<path d="M244.598 225.707C243.914 225.642 243.149 225.577 242.303 225.512C241.554 225.447 240.659 225.398 239.617 225.365C238.576 225.333 237.371 225.316 236.004 225.316C233.367 225.316 230.307 225.43 226.824 225.658C223.341 225.886 219.565 226.326 215.496 226.977C216.212 225.512 216.831 223.656 217.352 221.41C217.872 219.164 218.296 216.771 218.621 214.232C218.979 211.661 219.256 209.057 219.451 206.42C219.646 203.783 219.793 201.326 219.891 199.047C219.988 196.768 220.037 194.799 220.037 193.139C220.07 191.479 220.086 190.339 220.086 189.721C220.086 189.59 220.07 189.086 220.037 188.207C220.037 187.328 220.021 186.189 219.988 184.789C219.956 183.389 219.907 181.794 219.842 180.004C219.777 178.181 219.679 176.293 219.549 174.34C219.451 172.387 219.305 170.417 219.109 168.432C218.947 166.446 218.735 164.574 218.475 162.816C218.247 161.059 217.97 159.48 217.645 158.08C217.352 156.648 216.993 155.525 216.57 154.711C219.858 155.297 222.869 155.688 225.604 155.883C228.37 156.078 230.861 156.176 233.074 156.176C234.539 156.176 235.857 156.143 237.029 156.078C238.201 156.013 239.194 155.948 240.008 155.883C240.952 155.785 241.782 155.688 242.498 155.59C242.107 157.413 241.766 159.447 241.473 161.693C241.18 163.907 240.919 166.283 240.691 168.822C240.464 171.329 240.285 173.965 240.154 176.732C240.057 179.499 240.008 182.348 240.008 185.277C240.008 188.663 240.089 192.113 240.252 195.629C240.415 199.112 240.675 202.579 241.033 206.029C241.424 209.48 241.896 212.865 242.449 216.186C243.035 219.506 243.751 222.68 244.598 225.707ZM276.678 225.707C276.059 225.642 275.327 225.577 274.48 225.512C273.764 225.447 272.902 225.398 271.893 225.365C270.883 225.333 269.728 225.316 268.426 225.316C265.887 225.316 262.908 225.43 259.49 225.658C256.105 225.886 252.378 226.326 248.309 226.977C249.025 225.512 249.643 223.656 250.164 221.41C250.685 219.164 251.108 216.771 251.434 214.232C251.792 211.661 252.068 209.057 252.264 206.42C252.459 203.783 252.605 201.326 252.703 199.047C252.801 196.768 252.85 194.799 252.85 193.139C252.882 191.479 252.898 190.339 252.898 189.721C252.898 189.59 252.882 189.086 252.85 188.207C252.85 187.328 252.833 186.189 252.801 184.789C252.768 183.389 252.719 181.794 252.654 180.004C252.589 178.181 252.492 176.293 252.361 174.34C252.264 172.387 252.117 170.417 251.922 168.432C251.759 166.446 251.548 164.574 251.287 162.816C251.059 161.059 250.783 159.48 250.457 158.08C250.164 156.648 249.806 155.525 249.383 154.711C252.671 155.297 255.665 155.688 258.367 155.883C261.069 156.078 263.478 156.176 265.594 156.176C267.026 156.176 268.296 156.143 269.402 156.078C270.542 156.013 271.486 155.948 272.234 155.883C273.113 155.785 273.895 155.688 274.578 155.59C275.978 162.491 277.573 168.887 279.363 174.779C281.154 180.671 283.172 186.14 285.418 191.186V189.184C285.32 183.878 285.141 178.93 284.881 174.34C284.751 172.387 284.604 170.417 284.441 168.432C284.279 166.446 284.067 164.574 283.807 162.816C283.579 161.059 283.302 159.48 282.977 158.08C282.684 156.648 282.326 155.525 281.902 154.711C285.158 155.297 288.152 155.688 290.887 155.883C293.654 156.078 296.095 156.176 298.211 156.176C299.643 156.176 300.913 156.143 302.02 156.078C303.159 156.013 304.103 155.948 304.852 155.883C305.73 155.785 306.512 155.688 307.195 155.59C306.805 157.413 306.463 159.447 306.17 161.693C305.877 163.939 305.617 166.332 305.389 168.871C305.161 171.41 304.982 174.079 304.852 176.879C304.754 179.678 304.705 182.559 304.705 185.521C304.705 188.874 304.786 192.292 304.949 195.775C305.112 199.226 305.372 202.676 305.73 206.127C306.121 209.545 306.593 212.914 307.146 216.234C307.732 219.522 308.416 222.68 309.197 225.707C308.611 225.642 307.911 225.577 307.098 225.512C306.414 225.447 305.584 225.398 304.607 225.365C303.631 225.333 302.524 225.316 301.287 225.316C298.943 225.316 296.242 225.43 293.182 225.658C290.122 225.886 286.834 226.326 283.318 226.977C283.318 223.624 283.042 220.352 282.488 217.162C281.967 213.939 281.219 210.782 280.242 207.689C279.266 204.564 278.094 201.505 276.727 198.51C275.359 195.515 273.846 192.553 272.186 189.623C272.218 192.683 272.332 195.775 272.527 198.9C272.755 202.025 273.048 205.118 273.406 208.178C273.797 211.238 274.253 214.249 274.773 217.211C275.327 220.141 275.962 222.973 276.678 225.707ZM359.93 177.416C358.335 175.691 356.658 174.356 354.9 173.412C353.143 172.436 351.515 171.736 350.018 171.312C348.52 170.857 347.267 170.596 346.258 170.531C345.249 170.434 344.679 170.385 344.549 170.385C342.921 170.385 341.603 170.596 340.594 171.02C339.585 171.41 338.787 171.931 338.201 172.582C337.648 173.201 337.257 173.917 337.029 174.73C336.834 175.512 336.736 176.309 336.736 177.123C336.736 177.904 336.818 178.718 336.98 179.564C337.176 180.411 337.485 181.192 337.908 181.908C338.331 182.592 338.901 183.161 339.617 183.617C340.333 184.073 341.245 184.301 342.352 184.301C342.417 184.301 342.677 184.301 343.133 184.301C343.589 184.268 344.158 184.138 344.842 183.91C345.525 183.65 346.274 183.227 347.088 182.641C347.934 182.022 348.781 181.143 349.627 180.004V199.877C348.943 198.64 348.195 197.663 347.381 196.947C346.567 196.231 345.786 195.71 345.037 195.385C344.321 195.027 343.67 194.815 343.084 194.75C342.531 194.652 342.156 194.604 341.961 194.604C340.887 194.604 339.992 194.783 339.275 195.141C338.592 195.499 338.038 196.003 337.615 196.654C337.225 197.273 336.948 198.038 336.785 198.949C336.622 199.828 336.541 200.805 336.541 201.879C336.639 204.385 336.883 206.973 337.273 209.643C337.436 210.782 337.648 211.986 337.908 213.256C338.169 214.525 338.494 215.844 338.885 217.211C339.275 218.546 339.731 219.896 340.252 221.264C340.773 222.598 341.375 223.917 342.059 225.219C341.342 225.186 340.561 225.137 339.715 225.072C338.966 225.007 338.087 224.958 337.078 224.926C336.102 224.893 334.995 224.877 333.758 224.877C332.293 224.877 330.698 224.926 328.973 225.023C327.247 225.089 325.49 225.219 323.699 225.414C321.909 225.609 320.102 225.87 318.279 226.195C316.456 226.553 314.715 226.993 313.055 227.514C313.771 226.049 314.389 224.193 314.91 221.947C315.431 219.701 315.854 217.309 316.18 214.77C316.538 212.23 316.814 209.643 317.01 207.006C317.205 204.369 317.352 201.928 317.449 199.682C317.547 197.403 317.596 195.434 317.596 193.773C317.628 192.081 317.645 190.925 317.645 190.307C317.645 190.176 317.628 189.672 317.596 188.793C317.596 187.914 317.579 186.775 317.547 185.375C317.514 183.975 317.465 182.38 317.4 180.59C317.335 178.767 317.238 176.879 317.107 174.926C317.01 172.973 316.863 171.003 316.668 169.018C316.505 167.032 316.294 165.16 316.033 163.402C315.805 161.612 315.529 160.017 315.203 158.617C314.91 157.185 314.552 156.046 314.129 155.199C317.254 155.85 320.428 156.322 323.65 156.615C326.906 156.876 330.112 157.006 333.27 157.006C336.883 157.006 340.301 156.892 343.523 156.664C346.746 156.404 349.578 156.111 352.02 155.785C354.884 155.427 357.521 155.004 359.93 154.516V177.416ZM416.961 193.285C416.961 198.233 416.408 202.888 415.301 207.25C414.194 211.579 412.518 215.372 410.271 218.627C408.025 221.85 405.177 224.389 401.727 226.244C398.309 228.132 394.256 229.076 389.568 229.076C384.913 229.076 380.861 228.132 377.41 226.244C373.992 224.389 371.144 221.85 368.865 218.627C366.619 215.372 364.943 211.579 363.836 207.25C362.729 202.888 362.176 198.233 362.176 193.285C362.176 189.639 362.518 186.124 363.201 182.738C363.885 179.353 364.829 176.195 366.033 173.266C367.238 170.336 368.686 167.667 370.379 165.258C372.072 162.849 373.927 160.798 375.945 159.105C377.996 157.38 380.161 156.046 382.439 155.102C384.751 154.158 387.127 153.686 389.568 153.686C393.67 153.686 397.397 154.695 400.75 156.713C404.135 158.699 407.016 161.465 409.393 165.014C411.801 168.562 413.657 172.745 414.959 177.562C416.294 182.38 416.961 187.621 416.961 193.285ZM396.99 189.086C396.99 186.645 396.795 184.398 396.404 182.348C396.014 180.264 395.477 178.474 394.793 176.977C394.142 175.447 393.361 174.258 392.449 173.412C391.538 172.533 390.577 172.094 389.568 172.094C388.592 172.094 387.664 172.615 386.785 173.656C385.906 174.665 385.125 175.984 384.441 177.611C383.79 179.239 383.27 181.062 382.879 183.08C382.488 185.098 382.293 187.1 382.293 189.086C382.293 191.007 382.456 192.797 382.781 194.457C383.139 196.085 383.628 197.501 384.246 198.705C384.865 199.91 385.613 200.87 386.492 201.586C387.404 202.27 388.429 202.611 389.568 202.611C390.675 202.611 391.684 202.27 392.596 201.586C393.54 200.87 394.321 199.91 394.939 198.705C395.59 197.501 396.095 196.085 396.453 194.457C396.811 192.797 396.99 191.007 396.99 189.086ZM478.875 226.781C476.759 226.618 474.773 226.505 472.918 226.439C471.095 226.407 469.402 226.391 467.84 226.391C464.78 226.391 462.225 226.472 460.174 226.635C458.123 226.83 456.447 227.025 455.145 227.221C453.615 227.449 452.394 227.709 451.482 228.002C451.613 226.993 451.743 226.049 451.873 225.17C452.003 224.291 452.101 223.445 452.166 222.631C452.264 221.785 452.329 220.954 452.361 220.141C452.426 219.294 452.459 218.415 452.459 217.504C452.459 213.923 452.312 210.945 452.02 208.568C451.759 206.192 451.368 204.206 450.848 202.611C450.327 201.016 449.692 199.73 448.943 198.754C448.195 197.777 447.365 196.898 446.453 196.117C446.388 197.582 446.339 198.998 446.307 200.365C446.274 201.732 446.258 203.181 446.258 204.711C446.258 206.208 446.29 207.771 446.355 209.398C446.421 211.026 446.535 212.751 446.697 214.574C446.86 216.397 447.104 218.35 447.43 220.434C447.755 222.484 448.162 224.714 448.65 227.123C448.618 226.993 448.195 226.846 447.381 226.684C446.567 226.521 445.477 226.374 444.109 226.244C442.742 226.114 441.163 226.016 439.373 225.951C437.615 225.854 435.776 225.805 433.855 225.805C431.349 225.805 428.842 225.886 426.336 226.049C423.829 226.244 421.567 226.602 419.549 227.123C420.33 226.114 421.03 224.844 421.648 223.314C422.299 221.752 422.869 220.043 423.357 218.188C423.846 216.332 424.253 214.379 424.578 212.328C424.936 210.277 425.245 208.259 425.506 206.273C426.092 201.618 426.482 196.654 426.678 191.381C426.678 190.079 426.678 188.435 426.678 186.449C426.71 184.464 426.678 182.299 426.58 179.955C426.515 177.611 426.385 175.202 426.189 172.729C426.027 170.255 425.734 167.878 425.311 165.6C424.92 163.321 424.399 161.238 423.748 159.35C423.097 157.462 422.267 155.948 421.258 154.809C423.602 155.167 425.88 155.411 428.094 155.541C430.307 155.639 432.195 155.688 433.758 155.688C435.125 155.688 436.378 155.655 437.518 155.59C438.689 155.525 439.845 155.46 440.984 155.395C442.124 155.329 443.312 155.264 444.549 155.199C445.786 155.134 447.153 155.102 448.65 155.102C450.701 155.102 452.768 155.215 454.852 155.443C456.935 155.639 458.921 156.013 460.809 156.566C462.729 157.087 464.503 157.82 466.131 158.764C467.791 159.675 469.223 160.847 470.428 162.279C471.665 163.679 472.625 165.372 473.309 167.357C474.025 169.343 474.383 171.654 474.383 174.291C474.383 175.756 474.188 177.221 473.797 178.686C473.439 180.15 472.837 181.599 471.99 183.031C471.144 184.431 470.037 185.782 468.67 187.084C467.335 188.354 465.691 189.525 463.738 190.6C466.049 191.544 467.791 192.715 468.963 194.115C470.167 195.515 471.03 197.11 471.551 198.9C472.072 200.691 472.348 202.644 472.381 204.76C472.446 206.843 472.511 209.024 472.576 211.303C472.706 213.744 473.016 216.007 473.504 218.09C473.699 218.969 473.943 219.864 474.236 220.775C474.562 221.687 474.936 222.533 475.359 223.314C475.815 224.096 476.32 224.796 476.873 225.414C477.459 226.033 478.126 226.488 478.875 226.781ZM446.453 184.691C447.169 184.171 447.967 183.52 448.846 182.738C449.757 181.924 450.587 181.046 451.336 180.102C452.117 179.125 452.768 178.1 453.289 177.025C453.81 175.951 454.07 174.877 454.07 173.803C454.07 172.761 453.761 171.915 453.143 171.264C452.557 170.613 451.889 170.287 451.141 170.287C450.099 170.287 449.269 170.775 448.65 171.752C448.032 172.696 447.544 173.819 447.186 175.121C446.86 176.423 446.632 177.742 446.502 179.076C446.404 180.378 446.355 181.387 446.355 182.104C446.355 182.494 446.355 182.917 446.355 183.373C446.355 183.796 446.388 184.236 446.453 184.691ZM508.514 225.707C507.96 225.642 507.277 225.577 506.463 225.512C505.779 225.447 504.933 225.398 503.924 225.365C502.947 225.333 501.84 225.316 500.604 225.316C498.195 225.316 495.33 225.43 492.01 225.658C488.689 225.886 484.995 226.326 480.926 226.977C482.651 219.717 483.839 212.605 484.49 205.639C485.174 198.673 485.516 191.967 485.516 185.521C485.516 179.662 485.288 174.161 484.832 169.018C484.376 163.842 483.774 159.073 483.025 154.711C486.281 155.297 489.194 155.688 491.766 155.883C494.37 156.078 496.616 156.176 498.504 156.176C499.806 156.176 500.945 156.143 501.922 156.078C502.931 156.013 503.761 155.948 504.412 155.883C505.193 155.785 505.861 155.688 506.414 155.59C507.521 161.97 508.904 168.285 510.564 174.535C512.225 180.753 514.275 187.003 516.717 193.285C518.768 186.938 520.395 180.59 521.6 174.242C522.804 167.862 523.618 161.352 524.041 154.711L524.432 155.59L524.041 154.711C527.296 155.297 530.258 155.688 532.928 155.883C535.597 156.078 537.957 156.176 540.008 156.176C541.375 156.176 542.579 156.143 543.621 156.078C544.663 156.013 545.558 155.948 546.307 155.883C547.153 155.785 547.885 155.688 548.504 155.59C547.82 158.845 547.299 162.702 546.941 167.162C546.583 171.589 546.404 176.342 546.404 181.42C546.404 185.033 546.502 188.76 546.697 192.602C546.893 196.41 547.186 200.219 547.576 204.027C547.999 207.803 548.536 211.531 549.188 215.209C549.839 218.887 550.62 222.387 551.531 225.707C550.88 225.642 550.132 225.577 549.285 225.512C548.536 225.447 547.658 225.398 546.648 225.365C545.639 225.333 544.467 225.316 543.133 225.316C540.594 225.316 537.599 225.43 534.148 225.658C530.73 225.886 526.987 226.326 522.918 226.977C523.732 225.349 524.399 223.266 524.92 220.727C525.473 218.188 525.913 215.486 526.238 212.621C526.596 209.757 526.857 206.908 527.02 204.076C527.215 201.212 527.345 198.656 527.41 196.41C526.466 198.428 525.555 200.479 524.676 202.562C523.797 204.646 522.885 206.876 521.941 209.252C521.03 211.596 520.07 214.135 519.061 216.869C518.051 219.604 516.945 222.647 515.74 226C514.503 222.647 513.38 219.604 512.371 216.869C511.362 214.135 510.402 211.596 509.49 209.252C508.611 206.908 507.732 204.695 506.854 202.611C506.007 200.495 505.128 198.396 504.217 196.312C504.51 201.456 504.998 206.534 505.682 211.547C506.365 216.527 507.309 221.247 508.514 225.707ZM612.371 226.586C610.353 226.326 608.4 226.146 606.512 226.049C604.656 225.951 602.768 225.902 600.848 225.902C595.672 225.902 590.366 226.407 584.93 227.416C585.125 226.635 585.337 225.951 585.564 225.365C585.825 224.747 586.053 224.079 586.248 223.363C586.443 222.615 586.606 221.752 586.736 220.775C586.867 219.799 586.932 218.546 586.932 217.016C586.932 215.453 586.818 213.972 586.59 212.572C586.362 211.14 586.02 209.887 585.564 208.812C585.109 207.706 584.539 206.827 583.855 206.176C583.204 205.525 582.439 205.199 581.561 205.199C580.584 205.199 579.754 205.492 579.07 206.078C578.419 206.664 577.882 207.462 577.459 208.471C577.068 209.48 576.775 210.635 576.58 211.938C576.417 213.24 576.336 214.623 576.336 216.088C576.336 217.553 576.417 218.822 576.58 219.896C576.775 220.938 576.987 221.85 577.215 222.631C577.475 223.412 577.719 224.112 577.947 224.73C578.175 225.316 578.338 225.902 578.436 226.488C576.189 226.228 573.976 226.033 571.795 225.902C569.646 225.772 567.498 225.707 565.35 225.707C563.201 225.707 561.036 225.772 558.855 225.902C556.707 226.033 554.477 226.228 552.166 226.488C554.184 220.629 555.942 214.818 557.439 209.057C558.969 203.295 560.271 197.501 561.346 191.674C562.42 185.847 563.283 179.955 563.934 173.998C564.617 168.041 565.122 161.938 565.447 155.688C567.856 156.013 570.493 156.257 573.357 156.42C576.255 156.55 579.217 156.615 582.244 156.615C584.816 156.615 587.306 156.55 589.715 156.42C592.156 156.29 594.402 156.013 596.453 155.59C596.681 161.807 597.267 167.927 598.211 173.949C599.155 179.971 600.327 185.945 601.727 191.869C603.159 197.761 604.786 203.604 606.609 209.398C608.432 215.16 610.353 220.889 612.371 226.586ZM585.027 188.695C584.962 188.077 584.767 187.165 584.441 185.961C584.148 184.919 583.709 183.552 583.123 181.859C582.537 180.134 581.674 177.921 580.535 175.219C580.275 176.911 579.982 178.425 579.656 179.76C579.331 181.062 579.021 182.25 578.729 183.324C578.436 184.366 578.175 185.326 577.947 186.205C577.752 187.084 577.654 187.914 577.654 188.695C577.654 190.323 578.029 191.592 578.777 192.504C579.559 193.383 580.421 193.822 581.365 193.822C582.374 193.822 583.221 193.334 583.904 192.357C584.588 191.381 584.962 190.16 585.027 188.695ZM649.432 225.805C648.683 225.74 647.82 225.674 646.844 225.609C645.997 225.544 645.005 225.495 643.865 225.463C642.726 225.43 641.44 225.414 640.008 225.414C637.599 225.414 634.881 225.512 631.854 225.707C628.859 225.87 625.685 226.195 622.332 226.684C623.471 221.866 624.334 217.227 624.92 212.768C625.506 208.308 625.945 204.337 626.238 200.854C626.564 196.785 626.759 192.96 626.824 189.379C626.824 187.849 626.792 186.173 626.727 184.35C626.661 182.787 626.58 180.98 626.482 178.93C626.385 176.846 626.255 174.6 626.092 172.191C624.562 173.656 623.032 175.235 621.502 176.928C620.005 178.588 618.556 180.329 617.156 182.152C615.757 183.943 614.438 185.766 613.201 187.621C611.997 189.477 610.939 191.299 610.027 193.09L611.199 155.785C614.259 156.143 617.482 156.42 620.867 156.615C624.285 156.811 627.768 156.908 631.316 156.908C636.395 156.908 641.424 156.729 646.404 156.371C651.385 156.013 655.958 155.492 660.125 154.809L661.932 192.504C659.588 188.044 656.984 183.861 654.119 179.955C651.287 176.016 648.26 172.729 645.037 170.092C644.777 172.305 644.581 174.633 644.451 177.074C644.354 179.483 644.305 181.957 644.305 184.496C644.305 187.784 644.402 191.169 644.598 194.652C644.826 198.103 645.135 201.586 645.525 205.102C645.949 208.617 646.486 212.117 647.137 215.6C647.788 219.083 648.553 222.484 649.432 225.805ZM694.012 225.707C693.328 225.642 692.563 225.577 691.717 225.512C690.968 225.447 690.073 225.398 689.031 225.365C687.99 225.333 686.785 225.316 685.418 225.316C682.781 225.316 679.721 225.43 676.238 225.658C672.755 225.886 668.979 226.326 664.91 226.977C665.626 225.512 666.245 223.656 666.766 221.41C667.286 219.164 667.71 216.771 668.035 214.232C668.393 211.661 668.67 209.057 668.865 206.42C669.061 203.783 669.207 201.326 669.305 199.047C669.402 196.768 669.451 194.799 669.451 193.139C669.484 191.479 669.5 190.339 669.5 189.721C669.5 189.59 669.484 189.086 669.451 188.207C669.451 187.328 669.435 186.189 669.402 184.789C669.37 183.389 669.321 181.794 669.256 180.004C669.191 178.181 669.093 176.293 668.963 174.34C668.865 172.387 668.719 170.417 668.523 168.432C668.361 166.446 668.149 164.574 667.889 162.816C667.661 161.059 667.384 159.48 667.059 158.08C666.766 156.648 666.408 155.525 665.984 154.711C669.272 155.297 672.283 155.688 675.018 155.883C677.785 156.078 680.275 156.176 682.488 156.176C683.953 156.176 685.271 156.143 686.443 156.078C687.615 156.013 688.608 155.948 689.422 155.883C690.366 155.785 691.196 155.688 691.912 155.59C691.521 157.413 691.18 159.447 690.887 161.693C690.594 163.907 690.333 166.283 690.105 168.822C689.878 171.329 689.699 173.965 689.568 176.732C689.471 179.499 689.422 182.348 689.422 185.277C689.422 188.663 689.503 192.113 689.666 195.629C689.829 199.112 690.089 202.579 690.447 206.029C690.838 209.48 691.31 212.865 691.863 216.186C692.449 219.506 693.165 222.68 694.012 225.707ZM752.215 193.285C752.215 198.233 751.661 202.888 750.555 207.25C749.448 211.579 747.771 215.372 745.525 218.627C743.279 221.85 740.431 224.389 736.98 226.244C733.562 228.132 729.51 229.076 724.822 229.076C720.167 229.076 716.115 228.132 712.664 226.244C709.246 224.389 706.398 221.85 704.119 218.627C701.873 215.372 700.197 211.579 699.09 207.25C697.983 202.888 697.43 198.233 697.43 193.285C697.43 189.639 697.771 186.124 698.455 182.738C699.139 179.353 700.083 176.195 701.287 173.266C702.492 170.336 703.94 167.667 705.633 165.258C707.326 162.849 709.181 160.798 711.199 159.105C713.25 157.38 715.415 156.046 717.693 155.102C720.005 154.158 722.381 153.686 724.822 153.686C728.924 153.686 732.651 154.695 736.004 156.713C739.389 158.699 742.27 161.465 744.646 165.014C747.055 168.562 748.911 172.745 750.213 177.562C751.548 182.38 752.215 187.621 752.215 193.285ZM732.244 189.086C732.244 186.645 732.049 184.398 731.658 182.348C731.268 180.264 730.73 178.474 730.047 176.977C729.396 175.447 728.615 174.258 727.703 173.412C726.792 172.533 725.831 172.094 724.822 172.094C723.846 172.094 722.918 172.615 722.039 173.656C721.16 174.665 720.379 175.984 719.695 177.611C719.044 179.239 718.523 181.062 718.133 183.08C717.742 185.098 717.547 187.1 717.547 189.086C717.547 191.007 717.71 192.797 718.035 194.457C718.393 196.085 718.882 197.501 719.5 198.705C720.118 199.91 720.867 200.87 721.746 201.586C722.658 202.27 723.683 202.611 724.822 202.611C725.929 202.611 726.938 202.27 727.85 201.586C728.794 200.87 729.575 199.91 730.193 198.705C730.844 197.501 731.349 196.085 731.707 194.457C732.065 192.797 732.244 191.007 732.244 189.086ZM784.49 225.707C783.872 225.642 783.139 225.577 782.293 225.512C781.577 225.447 780.714 225.398 779.705 225.365C778.696 225.333 777.54 225.316 776.238 225.316C773.699 225.316 770.721 225.43 767.303 225.658C763.917 225.886 760.19 226.326 756.121 226.977C756.837 225.512 757.456 223.656 757.977 221.41C758.497 219.164 758.921 216.771 759.246 214.232C759.604 211.661 759.881 209.057 760.076 206.42C760.271 203.783 760.418 201.326 760.516 199.047C760.613 196.768 760.662 194.799 760.662 193.139C760.695 191.479 760.711 190.339 760.711 189.721C760.711 189.59 760.695 189.086 760.662 188.207C760.662 187.328 760.646 186.189 760.613 184.789C760.581 183.389 760.532 181.794 760.467 180.004C760.402 178.181 760.304 176.293 760.174 174.34C760.076 172.387 759.93 170.417 759.734 168.432C759.572 166.446 759.36 164.574 759.1 162.816C758.872 161.059 758.595 159.48 758.27 158.08C757.977 156.648 757.618 155.525 757.195 154.711C760.483 155.297 763.478 155.688 766.18 155.883C768.882 156.078 771.29 156.176 773.406 156.176C774.839 156.176 776.108 156.143 777.215 156.078C778.354 156.013 779.298 155.948 780.047 155.883C780.926 155.785 781.707 155.688 782.391 155.59C783.79 162.491 785.385 168.887 787.176 174.779C788.966 180.671 790.984 186.14 793.23 191.186V189.184C793.133 183.878 792.954 178.93 792.693 174.34C792.563 172.387 792.417 170.417 792.254 168.432C792.091 166.446 791.88 164.574 791.619 162.816C791.391 161.059 791.115 159.48 790.789 158.08C790.496 156.648 790.138 155.525 789.715 154.711C792.97 155.297 795.965 155.688 798.699 155.883C801.466 156.078 803.908 156.176 806.023 156.176C807.456 156.176 808.725 156.143 809.832 156.078C810.971 156.013 811.915 155.948 812.664 155.883C813.543 155.785 814.324 155.688 815.008 155.59C814.617 157.413 814.275 159.447 813.982 161.693C813.689 163.939 813.429 166.332 813.201 168.871C812.973 171.41 812.794 174.079 812.664 176.879C812.566 179.678 812.518 182.559 812.518 185.521C812.518 188.874 812.599 192.292 812.762 195.775C812.924 199.226 813.185 202.676 813.543 206.127C813.934 209.545 814.406 212.914 814.959 216.234C815.545 219.522 816.229 222.68 817.01 225.707C816.424 225.642 815.724 225.577 814.91 225.512C814.227 225.447 813.396 225.398 812.42 225.365C811.443 225.333 810.337 225.316 809.1 225.316C806.756 225.316 804.054 225.43 800.994 225.658C797.934 225.886 794.646 226.326 791.131 226.977C791.131 223.624 790.854 220.352 790.301 217.162C789.78 213.939 789.031 210.782 788.055 207.689C787.078 204.564 785.906 201.505 784.539 198.51C783.172 195.515 781.658 192.553 779.998 189.623C780.031 192.683 780.145 195.775 780.34 198.9C780.568 202.025 780.861 205.118 781.219 208.178C781.609 211.238 782.065 214.249 782.586 217.211C783.139 220.141 783.774 222.973 784.49 225.707ZM871.355 170.287C871.355 171.915 871.046 173.396 870.428 174.73C869.842 176.033 869.012 177.156 867.938 178.1C866.863 179.044 865.594 179.776 864.129 180.297C862.697 180.818 861.134 181.078 859.441 181.078C857.586 181.078 855.991 180.85 854.656 180.395C853.354 179.939 852.247 179.369 851.336 178.686C850.457 177.969 849.757 177.188 849.236 176.342C848.715 175.463 848.309 174.617 848.016 173.803C847.755 172.989 847.576 172.24 847.479 171.557C847.413 170.873 847.381 170.352 847.381 169.994C847.771 170.645 848.227 171.068 848.748 171.264C849.269 171.426 849.708 171.508 850.066 171.508C850.978 171.508 851.613 171.264 851.971 170.775C852.361 170.287 852.557 169.766 852.557 169.213C852.557 168.855 852.475 168.48 852.312 168.09C852.182 167.699 851.922 167.341 851.531 167.016C851.173 166.658 850.669 166.365 850.018 166.137C849.399 165.909 848.618 165.795 847.674 165.795C847.023 165.795 846.355 165.925 845.672 166.186C844.988 166.413 844.354 166.788 843.768 167.309C843.214 167.797 842.758 168.415 842.4 169.164C842.042 169.913 841.863 170.792 841.863 171.801C841.863 172.777 842.059 173.754 842.449 174.73C842.872 175.674 843.426 176.57 844.109 177.416C844.826 178.262 845.656 179.027 846.6 179.711C847.576 180.395 848.634 180.964 849.773 181.42C851.564 182.169 853.403 182.901 855.291 183.617C857.212 184.333 859.067 185.115 860.857 185.961C862.648 186.807 864.324 187.784 865.887 188.891C867.482 189.965 868.865 191.251 870.037 192.748C871.242 194.245 872.186 196.003 872.869 198.021C873.585 200.007 873.943 202.335 873.943 205.004C873.943 208.812 873.162 212.296 871.6 215.453C870.07 218.578 868.003 221.264 865.398 223.51C862.827 225.723 859.832 227.432 856.414 228.637C853.029 229.874 849.48 230.492 845.77 230.492C842.417 230.492 839.227 229.988 836.199 228.979C833.172 228.002 830.519 226.651 828.24 224.926C825.962 223.201 824.139 221.182 822.771 218.871C821.437 216.527 820.77 214.005 820.77 211.303C820.77 209.317 821.095 207.576 821.746 206.078C822.397 204.581 823.292 203.344 824.432 202.367C825.604 201.358 826.954 200.609 828.484 200.121C830.047 199.633 831.707 199.389 833.465 199.389C834.832 199.389 836.167 199.535 837.469 199.828C838.803 200.121 840.04 200.561 841.18 201.146C842.352 201.7 843.393 202.383 844.305 203.197C845.249 204.011 845.997 204.939 846.551 205.98C845.867 205.785 845.265 205.688 844.744 205.688C843.865 205.688 843.165 205.948 842.645 206.469C842.124 206.99 841.863 207.771 841.863 208.812C841.863 209.366 841.993 209.887 842.254 210.375C842.514 210.831 842.84 211.238 843.23 211.596C843.654 211.954 844.126 212.23 844.646 212.426C845.2 212.621 845.77 212.719 846.355 212.719C847.007 212.719 847.609 212.589 848.162 212.328C848.715 212.035 849.204 211.661 849.627 211.205C850.05 210.749 850.376 210.245 850.604 209.691C850.831 209.138 850.945 208.568 850.945 207.982C850.945 206.843 850.587 205.688 849.871 204.516C849.188 203.344 848.178 202.302 846.844 201.391C844.305 199.828 841.912 198.477 839.666 197.338C837.42 196.199 835.353 195.124 833.465 194.115C831.577 193.074 829.868 192.032 828.338 190.99C826.84 189.949 825.555 188.744 824.48 187.377C823.439 186.01 822.641 184.415 822.088 182.592C821.535 180.736 821.258 178.507 821.258 175.902C821.258 172.777 821.86 169.848 823.064 167.113C824.269 164.379 826.01 162.003 828.289 159.984C830.6 157.934 833.416 156.322 836.736 155.15C840.057 153.979 843.833 153.393 848.064 153.393C852.329 153.393 855.942 153.913 858.904 154.955C861.867 155.964 864.259 157.283 866.082 158.91C867.938 160.538 869.272 162.361 870.086 164.379C870.932 166.365 871.355 168.334 871.355 170.287Z" fill="white" fill-opacity="0.85"/>
</g>
</g>
</g>
<defs>
<filter id="filter0_d_53_2493" x="75" y="68" width="947" height="325" filterUnits="userSpaceOnUse" color-interpolation-filters="sRGB">
<feFlood flood-opacity="0" result="BackgroundImageFix"/>
<feColorMatrix in="SourceAlpha" type="matrix" values="0 0 0 0 0 0 0 0 0 0 0 0 0 0 0 0 0 0 127 0" result="hardAlpha"/>
<feOffset dx="4" dy="38"/>
<feGaussianBlur stdDeviation="31"/>
<feColorMatrix type="matrix" values="0 0 0 0 0 0 0 0 0 0 0 0 0 0 0 0 0 0 0.5 0"/>
<feBlend mode="normal" in2="BackgroundImageFix" result="effect1_dropShadow_53_2493"/>
<feBlend mode="normal" in="SourceGraphic" in2="effect1_dropShadow_53_2493" result="shape"/>
</filter>
<filter id="filter1_d_53_2493" x="215.496" y="153.393" width="660.447" height="79.0996" filterUnits="userSpaceOnUse" color-interpolation-filters="sRGB">
<feFlood flood-opacity="0" result="BackgroundImageFix"/>
<feColorMatrix in="SourceAlpha" type="matrix" values="0 0 0 0 0 0 0 0 0 0 0 0 0 0 0 0 0 0 127 0" result="hardAlpha"/>
<feOffset dx="1" dy="1"/>
<feGaussianBlur stdDeviation="0.5"/>
<feColorMatrix type="matrix" values="0 0 0 0 0 0 0 0 0 0 0 0 0 0 0 0 0 0 0.25 0"/>
<feBlend mode="normal" in2="BackgroundImageFix" result="effect1_dropShadow_53_2493"/>
<feBlend mode="normal" in="SourceGraphic" in2="effect1_dropShadow_53_2493" result="shape"/>
</filter>
<radialGradient id="paint0_radial_53_2493" cx="0" cy="0" r="1" gradientUnits="userSpaceOnUse" gradientTransform="translate(396.09 131.541) rotate(19.8823) scale(373.021 257.22)">
<stop stop-color="white"/>
<stop offset="0.697917" stop-color="white" stop-opacity="0"/>
<stop offset="1" stop-color="white" stop-opacity="0"/>
</radialGradient>
<clipPath id="clip0_53_2493">
<rect width="1090" height="384" fill="white"/>
</clipPath>
</defs>
</svg>
