<svg width="897" height="325" viewBox="0 0 897 325" fill="none" xmlns="http://www.w3.org/2000/svg">
<g filter="url(#filter0_d_1_94)">
<rect x="58" y="24" width="773" height="201" rx="25" fill="#C5BF38"/>
<rect x="58" y="24" width="773" height="201" rx="25" fill="url(#paint0_radial_1_94)" fill-opacity="0.7"/>
<g filter="url(#filter1_d_1_94)">
<path d="M172.771 157.707C172.088 157.642 171.323 157.577 170.477 157.512C169.728 157.447 168.833 157.398 167.791 157.365C166.749 157.333 165.545 157.316 164.178 157.316C161.541 157.316 158.481 157.43 154.998 157.658C151.515 157.886 147.739 158.326 143.67 158.977C144.386 157.512 145.005 155.656 145.525 153.41C146.046 151.164 146.469 148.771 146.795 146.232C147.153 143.661 147.43 141.057 147.625 138.42C147.82 135.783 147.967 133.326 148.064 131.047C148.162 128.768 148.211 126.799 148.211 125.139C148.243 123.479 148.26 122.339 148.26 121.721C148.26 121.59 148.243 121.086 148.211 120.207C148.211 119.328 148.195 118.189 148.162 116.789C148.13 115.389 148.081 113.794 148.016 112.004C147.951 110.181 147.853 108.293 147.723 106.34C147.625 104.387 147.479 102.417 147.283 100.432C147.12 98.446 146.909 96.5742 146.648 94.8164C146.421 93.0586 146.144 91.4798 145.818 90.0801C145.525 88.6478 145.167 87.5247 144.744 86.7109C148.032 87.2969 151.043 87.6875 153.777 87.8828C156.544 88.0781 159.035 88.1758 161.248 88.1758C162.713 88.1758 164.031 88.1432 165.203 88.0781C166.375 88.013 167.368 87.9479 168.182 87.8828C169.126 87.7852 169.956 87.6875 170.672 87.5898C170.281 89.4128 169.939 91.4473 169.646 93.6934C169.354 95.9069 169.093 98.2832 168.865 100.822C168.637 103.329 168.458 105.965 168.328 108.732C168.23 111.499 168.182 114.348 168.182 117.277C168.182 120.663 168.263 124.113 168.426 127.629C168.589 131.112 168.849 134.579 169.207 138.029C169.598 141.48 170.07 144.865 170.623 148.186C171.209 151.506 171.925 154.68 172.771 157.707ZM204.852 157.707C204.233 157.642 203.501 157.577 202.654 157.512C201.938 157.447 201.076 157.398 200.066 157.365C199.057 157.333 197.902 157.316 196.6 157.316C194.061 157.316 191.082 157.43 187.664 157.658C184.279 157.886 180.551 158.326 176.482 158.977C177.199 157.512 177.817 155.656 178.338 153.41C178.859 151.164 179.282 148.771 179.607 146.232C179.965 143.661 180.242 141.057 180.438 138.42C180.633 135.783 180.779 133.326 180.877 131.047C180.975 128.768 181.023 126.799 181.023 125.139C181.056 123.479 181.072 122.339 181.072 121.721C181.072 121.59 181.056 121.086 181.023 120.207C181.023 119.328 181.007 118.189 180.975 116.789C180.942 115.389 180.893 113.794 180.828 112.004C180.763 110.181 180.665 108.293 180.535 106.34C180.438 104.387 180.291 102.417 180.096 100.432C179.933 98.446 179.721 96.5742 179.461 94.8164C179.233 93.0586 178.956 91.4798 178.631 90.0801C178.338 88.6478 177.98 87.5247 177.557 86.7109C180.844 87.2969 183.839 87.6875 186.541 87.8828C189.243 88.0781 191.652 88.1758 193.768 88.1758C195.2 88.1758 196.469 88.1432 197.576 88.0781C198.715 88.013 199.66 87.9479 200.408 87.8828C201.287 87.7852 202.068 87.6875 202.752 87.5898C204.152 94.4909 205.747 100.887 207.537 106.779C209.327 112.671 211.346 118.14 213.592 123.186V121.184C213.494 115.878 213.315 110.93 213.055 106.34C212.924 104.387 212.778 102.417 212.615 100.432C212.452 98.446 212.241 96.5742 211.98 94.8164C211.753 93.0586 211.476 91.4798 211.15 90.0801C210.857 88.6478 210.499 87.5247 210.076 86.7109C213.331 87.2969 216.326 87.6875 219.061 87.8828C221.827 88.0781 224.269 88.1758 226.385 88.1758C227.817 88.1758 229.087 88.1432 230.193 88.0781C231.333 88.013 232.277 87.9479 233.025 87.8828C233.904 87.7852 234.686 87.6875 235.369 87.5898C234.979 89.4128 234.637 91.4473 234.344 93.6934C234.051 95.9395 233.79 98.332 233.562 100.871C233.335 103.41 233.156 106.079 233.025 108.879C232.928 111.678 232.879 114.559 232.879 117.521C232.879 120.874 232.96 124.292 233.123 127.775C233.286 131.226 233.546 134.676 233.904 138.127C234.295 141.545 234.767 144.914 235.32 148.234C235.906 151.522 236.59 154.68 237.371 157.707C236.785 157.642 236.085 157.577 235.271 157.512C234.588 157.447 233.758 157.398 232.781 157.365C231.805 157.333 230.698 157.316 229.461 157.316C227.117 157.316 224.415 157.43 221.355 157.658C218.296 157.886 215.008 158.326 211.492 158.977C211.492 155.624 211.215 152.352 210.662 149.162C210.141 145.939 209.393 142.782 208.416 139.689C207.439 136.564 206.268 133.505 204.9 130.51C203.533 127.515 202.02 124.553 200.359 121.623C200.392 124.683 200.506 127.775 200.701 130.9C200.929 134.025 201.222 137.118 201.58 140.178C201.971 143.238 202.426 146.249 202.947 149.211C203.501 152.141 204.135 154.973 204.852 157.707ZM288.104 109.416C286.508 107.691 284.832 106.356 283.074 105.412C281.316 104.436 279.689 103.736 278.191 103.312C276.694 102.857 275.441 102.596 274.432 102.531C273.423 102.434 272.853 102.385 272.723 102.385C271.095 102.385 269.777 102.596 268.768 103.02C267.758 103.41 266.961 103.931 266.375 104.582C265.822 105.201 265.431 105.917 265.203 106.73C265.008 107.512 264.91 108.309 264.91 109.123C264.91 109.904 264.992 110.718 265.154 111.564C265.35 112.411 265.659 113.192 266.082 113.908C266.505 114.592 267.075 115.161 267.791 115.617C268.507 116.073 269.419 116.301 270.525 116.301C270.59 116.301 270.851 116.301 271.307 116.301C271.762 116.268 272.332 116.138 273.016 115.91C273.699 115.65 274.448 115.227 275.262 114.641C276.108 114.022 276.954 113.143 277.801 112.004V131.877C277.117 130.64 276.368 129.663 275.555 128.947C274.741 128.231 273.96 127.71 273.211 127.385C272.495 127.027 271.844 126.815 271.258 126.75C270.704 126.652 270.33 126.604 270.135 126.604C269.061 126.604 268.165 126.783 267.449 127.141C266.766 127.499 266.212 128.003 265.789 128.654C265.398 129.273 265.122 130.038 264.959 130.949C264.796 131.828 264.715 132.805 264.715 133.879C264.812 136.385 265.057 138.973 265.447 141.643C265.61 142.782 265.822 143.986 266.082 145.256C266.342 146.525 266.668 147.844 267.059 149.211C267.449 150.546 267.905 151.896 268.426 153.264C268.947 154.598 269.549 155.917 270.232 157.219C269.516 157.186 268.735 157.137 267.889 157.072C267.14 157.007 266.261 156.958 265.252 156.926C264.275 156.893 263.169 156.877 261.932 156.877C260.467 156.877 258.872 156.926 257.146 157.023C255.421 157.089 253.663 157.219 251.873 157.414C250.083 157.609 248.276 157.87 246.453 158.195C244.63 158.553 242.889 158.993 241.229 159.514C241.945 158.049 242.563 156.193 243.084 153.947C243.605 151.701 244.028 149.309 244.354 146.77C244.712 144.23 244.988 141.643 245.184 139.006C245.379 136.369 245.525 133.928 245.623 131.682C245.721 129.403 245.77 127.434 245.77 125.773C245.802 124.081 245.818 122.925 245.818 122.307C245.818 122.176 245.802 121.672 245.77 120.793C245.77 119.914 245.753 118.775 245.721 117.375C245.688 115.975 245.639 114.38 245.574 112.59C245.509 110.767 245.411 108.879 245.281 106.926C245.184 104.973 245.037 103.003 244.842 101.018C244.679 99.0319 244.467 97.1602 244.207 95.4023C243.979 93.612 243.702 92.0169 243.377 90.6172C243.084 89.1849 242.726 88.0456 242.303 87.1992C245.428 87.8503 248.602 88.3223 251.824 88.6152C255.079 88.8757 258.286 89.0059 261.443 89.0059C265.057 89.0059 268.475 88.8919 271.697 88.6641C274.92 88.4036 277.752 88.1107 280.193 87.7852C283.058 87.4271 285.695 87.0039 288.104 86.5156V109.416ZM345.135 125.285C345.135 130.233 344.581 134.888 343.475 139.25C342.368 143.579 340.691 147.372 338.445 150.627C336.199 153.85 333.351 156.389 329.9 158.244C326.482 160.132 322.43 161.076 317.742 161.076C313.087 161.076 309.035 160.132 305.584 158.244C302.166 156.389 299.318 153.85 297.039 150.627C294.793 147.372 293.117 143.579 292.01 139.25C290.903 134.888 290.35 130.233 290.35 125.285C290.35 121.639 290.691 118.124 291.375 114.738C292.059 111.353 293.003 108.195 294.207 105.266C295.411 102.336 296.86 99.6667 298.553 97.2578C300.245 94.849 302.101 92.7982 304.119 91.1055C306.17 89.3802 308.335 88.0456 310.613 87.1016C312.924 86.1576 315.301 85.6855 317.742 85.6855C321.844 85.6855 325.571 86.6947 328.924 88.7129C332.309 90.6986 335.19 93.4655 337.566 97.0137C339.975 100.562 341.831 104.745 343.133 109.562C344.467 114.38 345.135 119.621 345.135 125.285ZM325.164 121.086C325.164 118.645 324.969 116.398 324.578 114.348C324.188 112.264 323.65 110.474 322.967 108.977C322.316 107.447 321.535 106.258 320.623 105.412C319.712 104.533 318.751 104.094 317.742 104.094C316.766 104.094 315.838 104.615 314.959 105.656C314.08 106.665 313.299 107.984 312.615 109.611C311.964 111.239 311.443 113.062 311.053 115.08C310.662 117.098 310.467 119.1 310.467 121.086C310.467 123.007 310.63 124.797 310.955 126.457C311.313 128.085 311.801 129.501 312.42 130.705C313.038 131.91 313.787 132.87 314.666 133.586C315.577 134.27 316.603 134.611 317.742 134.611C318.849 134.611 319.858 134.27 320.77 133.586C321.714 132.87 322.495 131.91 323.113 130.705C323.764 129.501 324.269 128.085 324.627 126.457C324.985 124.797 325.164 123.007 325.164 121.086ZM407.049 158.781C404.933 158.618 402.947 158.505 401.092 158.439C399.269 158.407 397.576 158.391 396.014 158.391C392.954 158.391 390.398 158.472 388.348 158.635C386.297 158.83 384.62 159.025 383.318 159.221C381.788 159.449 380.568 159.709 379.656 160.002C379.786 158.993 379.917 158.049 380.047 157.17C380.177 156.291 380.275 155.445 380.34 154.631C380.438 153.785 380.503 152.954 380.535 152.141C380.6 151.294 380.633 150.415 380.633 149.504C380.633 145.923 380.486 142.945 380.193 140.568C379.933 138.192 379.542 136.206 379.021 134.611C378.501 133.016 377.866 131.73 377.117 130.754C376.368 129.777 375.538 128.898 374.627 128.117C374.562 129.582 374.513 130.998 374.48 132.365C374.448 133.732 374.432 135.181 374.432 136.711C374.432 138.208 374.464 139.771 374.529 141.398C374.594 143.026 374.708 144.751 374.871 146.574C375.034 148.397 375.278 150.35 375.604 152.434C375.929 154.484 376.336 156.714 376.824 159.123C376.792 158.993 376.368 158.846 375.555 158.684C374.741 158.521 373.65 158.374 372.283 158.244C370.916 158.114 369.337 158.016 367.547 157.951C365.789 157.854 363.95 157.805 362.029 157.805C359.523 157.805 357.016 157.886 354.51 158.049C352.003 158.244 349.741 158.602 347.723 159.123C348.504 158.114 349.204 156.844 349.822 155.314C350.473 153.752 351.043 152.043 351.531 150.188C352.02 148.332 352.426 146.379 352.752 144.328C353.11 142.277 353.419 140.259 353.68 138.273C354.266 133.618 354.656 128.654 354.852 123.381C354.852 122.079 354.852 120.435 354.852 118.449C354.884 116.464 354.852 114.299 354.754 111.955C354.689 109.611 354.559 107.202 354.363 104.729C354.201 102.255 353.908 99.8783 353.484 97.5996C353.094 95.321 352.573 93.2376 351.922 91.3496C351.271 89.4616 350.441 87.9479 349.432 86.8086C351.775 87.1667 354.054 87.4108 356.268 87.541C358.481 87.6387 360.369 87.6875 361.932 87.6875C363.299 87.6875 364.552 87.6549 365.691 87.5898C366.863 87.5247 368.019 87.4596 369.158 87.3945C370.298 87.3294 371.486 87.2643 372.723 87.1992C373.96 87.1341 375.327 87.1016 376.824 87.1016C378.875 87.1016 380.942 87.2155 383.025 87.4434C385.109 87.6387 387.094 88.013 388.982 88.5664C390.903 89.0872 392.677 89.8197 394.305 90.7637C395.965 91.6751 397.397 92.847 398.602 94.2793C399.839 95.679 400.799 97.3717 401.482 99.3574C402.199 101.343 402.557 103.654 402.557 106.291C402.557 107.756 402.361 109.221 401.971 110.686C401.613 112.15 401.01 113.599 400.164 115.031C399.318 116.431 398.211 117.782 396.844 119.084C395.509 120.354 393.865 121.525 391.912 122.6C394.223 123.544 395.965 124.715 397.137 126.115C398.341 127.515 399.204 129.11 399.725 130.9C400.245 132.691 400.522 134.644 400.555 136.76C400.62 138.843 400.685 141.024 400.75 143.303C400.88 145.744 401.189 148.007 401.678 150.09C401.873 150.969 402.117 151.864 402.41 152.775C402.736 153.687 403.11 154.533 403.533 155.314C403.989 156.096 404.493 156.796 405.047 157.414C405.633 158.033 406.3 158.488 407.049 158.781ZM374.627 116.691C375.343 116.171 376.141 115.52 377.02 114.738C377.931 113.924 378.761 113.046 379.51 112.102C380.291 111.125 380.942 110.1 381.463 109.025C381.984 107.951 382.244 106.877 382.244 105.803C382.244 104.761 381.935 103.915 381.316 103.264C380.73 102.613 380.063 102.287 379.314 102.287C378.273 102.287 377.443 102.775 376.824 103.752C376.206 104.696 375.717 105.819 375.359 107.121C375.034 108.423 374.806 109.742 374.676 111.076C374.578 112.378 374.529 113.387 374.529 114.104C374.529 114.494 374.529 114.917 374.529 115.373C374.529 115.796 374.562 116.236 374.627 116.691ZM436.688 157.707C436.134 157.642 435.451 157.577 434.637 157.512C433.953 157.447 433.107 157.398 432.098 157.365C431.121 157.333 430.014 157.316 428.777 157.316C426.368 157.316 423.504 157.43 420.184 157.658C416.863 157.886 413.169 158.326 409.1 158.977C410.825 151.717 412.013 144.605 412.664 137.639C413.348 130.673 413.689 123.967 413.689 117.521C413.689 111.662 413.462 106.161 413.006 101.018C412.55 95.8418 411.948 91.0729 411.199 86.7109C414.454 87.2969 417.368 87.6875 419.939 87.8828C422.544 88.0781 424.79 88.1758 426.678 88.1758C427.98 88.1758 429.119 88.1432 430.096 88.0781C431.105 88.013 431.935 87.9479 432.586 87.8828C433.367 87.7852 434.035 87.6875 434.588 87.5898C435.695 93.9701 437.078 100.285 438.738 106.535C440.398 112.753 442.449 119.003 444.891 125.285C446.941 118.938 448.569 112.59 449.773 106.242C450.978 99.862 451.792 93.3516 452.215 86.7109L452.605 87.5898L452.215 86.7109C455.47 87.2969 458.432 87.6875 461.102 87.8828C463.771 88.0781 466.131 88.1758 468.182 88.1758C469.549 88.1758 470.753 88.1432 471.795 88.0781C472.837 88.013 473.732 87.9479 474.48 87.8828C475.327 87.7852 476.059 87.6875 476.678 87.5898C475.994 90.8451 475.473 94.7025 475.115 99.1621C474.757 103.589 474.578 108.342 474.578 113.42C474.578 117.033 474.676 120.76 474.871 124.602C475.066 128.41 475.359 132.219 475.75 136.027C476.173 139.803 476.71 143.531 477.361 147.209C478.012 150.887 478.794 154.387 479.705 157.707C479.054 157.642 478.305 157.577 477.459 157.512C476.71 157.447 475.831 157.398 474.822 157.365C473.813 157.333 472.641 157.316 471.307 157.316C468.768 157.316 465.773 157.43 462.322 157.658C458.904 157.886 455.161 158.326 451.092 158.977C451.906 157.349 452.573 155.266 453.094 152.727C453.647 150.188 454.087 147.486 454.412 144.621C454.77 141.757 455.031 138.908 455.193 136.076C455.389 133.212 455.519 130.656 455.584 128.41C454.64 130.428 453.729 132.479 452.85 134.562C451.971 136.646 451.059 138.876 450.115 141.252C449.204 143.596 448.243 146.135 447.234 148.869C446.225 151.604 445.118 154.647 443.914 158C442.677 154.647 441.554 151.604 440.545 148.869C439.536 146.135 438.576 143.596 437.664 141.252C436.785 138.908 435.906 136.695 435.027 134.611C434.181 132.495 433.302 130.396 432.391 128.312C432.684 133.456 433.172 138.534 433.855 143.547C434.539 148.527 435.483 153.247 436.688 157.707ZM540.545 158.586C538.527 158.326 536.574 158.146 534.686 158.049C532.83 157.951 530.942 157.902 529.021 157.902C523.846 157.902 518.54 158.407 513.104 159.416C513.299 158.635 513.51 157.951 513.738 157.365C513.999 156.747 514.227 156.079 514.422 155.363C514.617 154.615 514.78 153.752 514.91 152.775C515.04 151.799 515.105 150.546 515.105 149.016C515.105 147.453 514.992 145.972 514.764 144.572C514.536 143.14 514.194 141.887 513.738 140.812C513.283 139.706 512.713 138.827 512.029 138.176C511.378 137.525 510.613 137.199 509.734 137.199C508.758 137.199 507.928 137.492 507.244 138.078C506.593 138.664 506.056 139.462 505.633 140.471C505.242 141.48 504.949 142.635 504.754 143.938C504.591 145.24 504.51 146.623 504.51 148.088C504.51 149.553 504.591 150.822 504.754 151.896C504.949 152.938 505.161 153.85 505.389 154.631C505.649 155.412 505.893 156.112 506.121 156.73C506.349 157.316 506.512 157.902 506.609 158.488C504.363 158.228 502.15 158.033 499.969 157.902C497.82 157.772 495.672 157.707 493.523 157.707C491.375 157.707 489.21 157.772 487.029 157.902C484.881 158.033 482.651 158.228 480.34 158.488C482.358 152.629 484.116 146.818 485.613 141.057C487.143 135.295 488.445 129.501 489.52 123.674C490.594 117.847 491.456 111.955 492.107 105.998C492.791 100.041 493.296 93.9375 493.621 87.6875C496.03 88.013 498.667 88.2572 501.531 88.4199C504.428 88.5501 507.391 88.6152 510.418 88.6152C512.99 88.6152 515.48 88.5501 517.889 88.4199C520.33 88.2897 522.576 88.013 524.627 87.5898C524.855 93.8073 525.441 99.9271 526.385 105.949C527.329 111.971 528.501 117.945 529.9 123.869C531.333 129.761 532.96 135.604 534.783 141.398C536.606 147.16 538.527 152.889 540.545 158.586ZM513.201 120.695C513.136 120.077 512.941 119.165 512.615 117.961C512.322 116.919 511.883 115.552 511.297 113.859C510.711 112.134 509.848 109.921 508.709 107.219C508.449 108.911 508.156 110.425 507.83 111.76C507.505 113.062 507.195 114.25 506.902 115.324C506.609 116.366 506.349 117.326 506.121 118.205C505.926 119.084 505.828 119.914 505.828 120.695C505.828 122.323 506.202 123.592 506.951 124.504C507.732 125.383 508.595 125.822 509.539 125.822C510.548 125.822 511.395 125.334 512.078 124.357C512.762 123.381 513.136 122.16 513.201 120.695ZM577.605 157.805C576.857 157.74 575.994 157.674 575.018 157.609C574.171 157.544 573.178 157.495 572.039 157.463C570.9 157.43 569.614 157.414 568.182 157.414C565.773 157.414 563.055 157.512 560.027 157.707C557.033 157.87 553.859 158.195 550.506 158.684C551.645 153.866 552.508 149.227 553.094 144.768C553.68 140.308 554.119 136.337 554.412 132.854C554.738 128.785 554.933 124.96 554.998 121.379C554.998 119.849 554.965 118.173 554.9 116.35C554.835 114.787 554.754 112.98 554.656 110.93C554.559 108.846 554.428 106.6 554.266 104.191C552.736 105.656 551.206 107.235 549.676 108.928C548.178 110.588 546.73 112.329 545.33 114.152C543.93 115.943 542.612 117.766 541.375 119.621C540.171 121.477 539.113 123.299 538.201 125.09L539.373 87.7852C542.433 88.1432 545.656 88.4199 549.041 88.6152C552.459 88.8105 555.942 88.9082 559.49 88.9082C564.568 88.9082 569.598 88.7292 574.578 88.3711C579.559 88.013 584.132 87.4922 588.299 86.8086L590.105 124.504C587.762 120.044 585.158 115.861 582.293 111.955C579.461 108.016 576.434 104.729 573.211 102.092C572.951 104.305 572.755 106.633 572.625 109.074C572.527 111.483 572.479 113.957 572.479 116.496C572.479 119.784 572.576 123.169 572.771 126.652C572.999 130.103 573.309 133.586 573.699 137.102C574.122 140.617 574.66 144.117 575.311 147.6C575.962 151.083 576.727 154.484 577.605 157.805ZM622.186 157.707C621.502 157.642 620.737 157.577 619.891 157.512C619.142 157.447 618.247 157.398 617.205 157.365C616.163 157.333 614.959 157.316 613.592 157.316C610.955 157.316 607.895 157.43 604.412 157.658C600.929 157.886 597.153 158.326 593.084 158.977C593.8 157.512 594.419 155.656 594.939 153.41C595.46 151.164 595.883 148.771 596.209 146.232C596.567 143.661 596.844 141.057 597.039 138.42C597.234 135.783 597.381 133.326 597.479 131.047C597.576 128.768 597.625 126.799 597.625 125.139C597.658 123.479 597.674 122.339 597.674 121.721C597.674 121.59 597.658 121.086 597.625 120.207C597.625 119.328 597.609 118.189 597.576 116.789C597.544 115.389 597.495 113.794 597.43 112.004C597.365 110.181 597.267 108.293 597.137 106.34C597.039 104.387 596.893 102.417 596.697 100.432C596.535 98.446 596.323 96.5742 596.062 94.8164C595.835 93.0586 595.558 91.4798 595.232 90.0801C594.939 88.6478 594.581 87.5247 594.158 86.7109C597.446 87.2969 600.457 87.6875 603.191 87.8828C605.958 88.0781 608.449 88.1758 610.662 88.1758C612.127 88.1758 613.445 88.1432 614.617 88.0781C615.789 88.013 616.782 87.9479 617.596 87.8828C618.54 87.7852 619.37 87.6875 620.086 87.5898C619.695 89.4128 619.354 91.4473 619.061 93.6934C618.768 95.9069 618.507 98.2832 618.279 100.822C618.051 103.329 617.872 105.965 617.742 108.732C617.645 111.499 617.596 114.348 617.596 117.277C617.596 120.663 617.677 124.113 617.84 127.629C618.003 131.112 618.263 134.579 618.621 138.029C619.012 141.48 619.484 144.865 620.037 148.186C620.623 151.506 621.339 154.68 622.186 157.707ZM680.389 125.285C680.389 130.233 679.835 134.888 678.729 139.25C677.622 143.579 675.945 147.372 673.699 150.627C671.453 153.85 668.605 156.389 665.154 158.244C661.736 160.132 657.684 161.076 652.996 161.076C648.341 161.076 644.288 160.132 640.838 158.244C637.42 156.389 634.572 153.85 632.293 150.627C630.047 147.372 628.37 143.579 627.264 139.25C626.157 134.888 625.604 130.233 625.604 125.285C625.604 121.639 625.945 118.124 626.629 114.738C627.312 111.353 628.257 108.195 629.461 105.266C630.665 102.336 632.114 99.6667 633.807 97.2578C635.499 94.849 637.355 92.7982 639.373 91.1055C641.424 89.3802 643.589 88.0456 645.867 87.1016C648.178 86.1576 650.555 85.6855 652.996 85.6855C657.098 85.6855 660.825 86.6947 664.178 88.7129C667.563 90.6986 670.444 93.4655 672.82 97.0137C675.229 100.562 677.085 104.745 678.387 109.562C679.721 114.38 680.389 119.621 680.389 125.285ZM660.418 121.086C660.418 118.645 660.223 116.398 659.832 114.348C659.441 112.264 658.904 110.474 658.221 108.977C657.57 107.447 656.788 106.258 655.877 105.412C654.965 104.533 654.005 104.094 652.996 104.094C652.02 104.094 651.092 104.615 650.213 105.656C649.334 106.665 648.553 107.984 647.869 109.611C647.218 111.239 646.697 113.062 646.307 115.08C645.916 117.098 645.721 119.1 645.721 121.086C645.721 123.007 645.883 124.797 646.209 126.457C646.567 128.085 647.055 129.501 647.674 130.705C648.292 131.91 649.041 132.87 649.92 133.586C650.831 134.27 651.857 134.611 652.996 134.611C654.103 134.611 655.112 134.27 656.023 133.586C656.967 132.87 657.749 131.91 658.367 130.705C659.018 129.501 659.523 128.085 659.881 126.457C660.239 124.797 660.418 123.007 660.418 121.086ZM712.664 157.707C712.046 157.642 711.313 157.577 710.467 157.512C709.751 157.447 708.888 157.398 707.879 157.365C706.87 157.333 705.714 157.316 704.412 157.316C701.873 157.316 698.895 157.43 695.477 157.658C692.091 157.886 688.364 158.326 684.295 158.977C685.011 157.512 685.63 155.656 686.15 153.41C686.671 151.164 687.094 148.771 687.42 146.232C687.778 143.661 688.055 141.057 688.25 138.42C688.445 135.783 688.592 133.326 688.689 131.047C688.787 128.768 688.836 126.799 688.836 125.139C688.868 123.479 688.885 122.339 688.885 121.721C688.885 121.59 688.868 121.086 688.836 120.207C688.836 119.328 688.82 118.189 688.787 116.789C688.755 115.389 688.706 113.794 688.641 112.004C688.576 110.181 688.478 108.293 688.348 106.34C688.25 104.387 688.104 102.417 687.908 100.432C687.745 98.446 687.534 96.5742 687.273 94.8164C687.046 93.0586 686.769 91.4798 686.443 90.0801C686.15 88.6478 685.792 87.5247 685.369 86.7109C688.657 87.2969 691.652 87.6875 694.354 87.8828C697.055 88.0781 699.464 88.1758 701.58 88.1758C703.012 88.1758 704.282 88.1432 705.389 88.0781C706.528 88.013 707.472 87.9479 708.221 87.8828C709.1 87.7852 709.881 87.6875 710.564 87.5898C711.964 94.4909 713.559 100.887 715.35 106.779C717.14 112.671 719.158 118.14 721.404 123.186V121.184C721.307 115.878 721.128 110.93 720.867 106.34C720.737 104.387 720.59 102.417 720.428 100.432C720.265 98.446 720.053 96.5742 719.793 94.8164C719.565 93.0586 719.288 91.4798 718.963 90.0801C718.67 88.6478 718.312 87.5247 717.889 86.7109C721.144 87.2969 724.139 87.6875 726.873 87.8828C729.64 88.0781 732.081 88.1758 734.197 88.1758C735.63 88.1758 736.899 88.1432 738.006 88.0781C739.145 88.013 740.089 87.9479 740.838 87.8828C741.717 87.7852 742.498 87.6875 743.182 87.5898C742.791 89.4128 742.449 91.4473 742.156 93.6934C741.863 95.9395 741.603 98.332 741.375 100.871C741.147 103.41 740.968 106.079 740.838 108.879C740.74 111.678 740.691 114.559 740.691 117.521C740.691 120.874 740.773 124.292 740.936 127.775C741.098 131.226 741.359 134.676 741.717 138.127C742.107 141.545 742.579 144.914 743.133 148.234C743.719 151.522 744.402 154.68 745.184 157.707C744.598 157.642 743.898 157.577 743.084 157.512C742.4 157.447 741.57 157.398 740.594 157.365C739.617 157.333 738.51 157.316 737.273 157.316C734.93 157.316 732.228 157.43 729.168 157.658C726.108 157.886 722.82 158.326 719.305 158.977C719.305 155.624 719.028 152.352 718.475 149.162C717.954 145.939 717.205 142.782 716.229 139.689C715.252 136.564 714.08 133.505 712.713 130.51C711.346 127.515 709.832 124.553 708.172 121.623C708.204 124.683 708.318 127.775 708.514 130.9C708.742 134.025 709.035 137.118 709.393 140.178C709.783 143.238 710.239 146.249 710.76 149.211C711.313 152.141 711.948 154.973 712.664 157.707Z" fill="white" fill-opacity="0.85"/>
</g>
</g>
<defs>
<filter id="filter0_d_1_94" x="0" y="0" width="897" height="325" filterUnits="userSpaceOnUse" color-interpolation-filters="sRGB">
<feFlood flood-opacity="0" result="BackgroundImageFix"/>
<feColorMatrix in="SourceAlpha" type="matrix" values="0 0 0 0 0 0 0 0 0 0 0 0 0 0 0 0 0 0 127 0" result="hardAlpha"/>
<feOffset dx="4" dy="38"/>
<feGaussianBlur stdDeviation="31"/>
<feColorMatrix type="matrix" values="0 0 0 0 0 0 0 0 0 0 0 0 0 0 0 0 0 0 0.5 0"/>
<feBlend mode="normal" in2="BackgroundImageFix" result="effect1_dropShadow_1_94"/>
<feBlend mode="normal" in="SourceGraphic" in2="effect1_dropShadow_1_94" result="shape"/>
</filter>
<filter id="filter1_d_1_94" x="143.67" y="85.6855" width="603.514" height="77.3906" filterUnits="userSpaceOnUse" color-interpolation-filters="sRGB">
<feFlood flood-opacity="0" result="BackgroundImageFix"/>
<feColorMatrix in="SourceAlpha" type="matrix" values="0 0 0 0 0 0 0 0 0 0 0 0 0 0 0 0 0 0 127 0" result="hardAlpha"/>
<feOffset dx="1" dy="1"/>
<feGaussianBlur stdDeviation="0.5"/>
<feColorMatrix type="matrix" values="0 0 0 0 0 0 0 0 0 0 0 0 0 0 0 0 0 0 0.25 0"/>
<feBlend mode="normal" in2="BackgroundImageFix" result="effect1_dropShadow_1_94"/>
<feBlend mode="normal" in="SourceGraphic" in2="effect1_dropShadow_1_94" result="shape"/>
</filter>
<radialGradient id="paint0_radial_1_94" cx="0" cy="0" r="1" gradientUnits="userSpaceOnUse" gradientTransform="translate(305.107 63.541) rotate(21.0586) scale(353.055 255.256)">
<stop stop-color="white"/>
<stop offset="0.697917" stop-color="white" stop-opacity="0"/>
<stop offset="1" stop-color="white" stop-opacity="0"/>
</radialGradient>
</defs>
</svg>
