<svg width="710" height="440" viewBox="0 0 710 440" fill="none" xmlns="http://www.w3.org/2000/svg">
<g clip-path="url(#clip0_28_8)">
<g filter="url(#filter0_d_28_8)">
<path d="M122.3 212.169C80.5538 174.746 77.8048 110.93 114.535 69.9575C167.205 11.2039 214.548 29.9409 263.437 50.0639C289.001 60.4319 316.111 72.186 347.833 74.1302C370.757 76.5547 394.215 75.274 418.366 73.2202C450.54 69.993 471.918 71.0315 477.01 70.0183C480.635 69.0851 509.051 77.8269 509.211 80.7591C509.211 80.7591 551.383 99.0432 554.317 139.321C557.251 179.599 516.415 212.708 514.336 215.027C434.531 288.497 232.849 311.272 122.3 212.169Z" fill="#4A148C"/>
<path d="M647.612 97.4652L649.213 126.787C649.213 126.787 605.871 140.917 576.709 145.451C575.057 169.068 567.409 204.042 515.137 229.688C503.06 210.496 518.865 163.313 518.865 163.313C518.865 163.313 499.193 166.593 466.351 144.124C489.674 113.441 508.733 112.4 508.733 112.4C508.733 112.4 470.4 83.6133 469.279 63.0879C469.279 63.0879 527.655 41.5197 567.377 109.198C602.884 113.142 647.612 97.4652 647.612 97.4652Z" fill="#4CAF50"/>
<path d="M147.537 95.3594C147.537 95.3594 167.155 64.1437 227.773 83.6263C288.39 103.109 353.114 130.455 435.428 116.403" stroke="#9575CD" stroke-width="22" stroke-miterlimit="10" stroke-linecap="round"/>
<g filter="url(#filter1_d_28_8)">
<path d="M202.294 178.131C202.294 180.891 201.851 183.378 200.966 185.592C200.107 187.779 198.961 189.654 197.529 191.217C196.096 192.753 194.456 193.938 192.607 194.771C190.758 195.605 188.844 196.021 186.864 196.021C185.771 196.021 184.69 195.904 183.622 195.67C182.555 195.41 181.5 194.993 180.458 194.42C180.693 196.347 181.07 198.326 181.591 200.357C182.034 202.102 182.659 204.055 183.466 206.217C184.299 208.352 185.393 210.449 186.747 212.506C184.091 212.219 181.695 212.024 179.56 211.92C177.45 211.79 175.536 211.725 173.818 211.725C171.5 211.725 169.547 211.803 167.958 211.959C166.396 212.115 165.12 212.298 164.13 212.506C162.984 212.74 162.073 212.988 161.396 213.248C162.047 211.243 162.607 209.055 163.075 206.686C163.544 204.316 163.935 201.842 164.247 199.264C164.56 196.686 164.794 194.055 164.95 191.373C165.107 188.665 165.185 185.982 165.185 183.326C165.185 180.436 165.094 177.61 164.911 174.85C164.729 172.063 164.456 169.459 164.091 167.037C163.752 164.589 163.323 162.363 162.802 160.357C162.281 158.352 161.682 156.673 161.005 155.318C162.255 155.709 163.557 155.995 164.911 156.178C166.292 156.334 167.685 156.412 169.091 156.412C170.367 156.412 171.643 156.36 172.919 156.256C174.221 156.126 175.497 155.995 176.747 155.865C177.997 155.735 179.208 155.618 180.38 155.514C181.552 155.383 182.646 155.318 183.661 155.318C184.755 155.318 185.966 155.462 187.294 155.748C188.648 156.035 190.015 156.529 191.396 157.232C192.776 157.91 194.117 158.821 195.419 159.967C196.721 161.113 197.88 162.532 198.896 164.225C199.911 165.917 200.719 167.91 201.318 170.201C201.943 172.493 202.268 175.136 202.294 178.131ZM180.029 184.498C180.68 183.873 181.422 183.118 182.255 182.232C183.114 181.321 183.922 180.344 184.677 179.303C185.432 178.235 186.057 177.141 186.552 176.021C187.073 174.902 187.333 173.834 187.333 172.818C187.333 171.646 186.995 170.722 186.318 170.045C185.667 169.342 184.937 168.99 184.13 168.99C183.401 168.99 182.789 169.238 182.294 169.732C181.825 170.227 181.435 170.878 181.122 171.686C180.81 172.467 180.575 173.352 180.419 174.342C180.263 175.305 180.146 176.269 180.068 177.232C179.989 178.17 179.95 179.055 179.95 179.889C179.95 180.696 179.95 181.334 179.95 181.803C179.95 182.245 179.95 182.688 179.95 183.131C179.95 183.574 179.976 184.029 180.029 184.498ZM249.286 212.74C247.672 212.532 246.109 212.389 244.599 212.311C243.114 212.232 241.604 212.193 240.068 212.193C235.927 212.193 231.682 212.597 227.333 213.404C227.489 212.779 227.659 212.232 227.841 211.764C228.049 211.269 228.232 210.735 228.388 210.162C228.544 209.563 228.674 208.873 228.779 208.092C228.883 207.311 228.935 206.308 228.935 205.084C228.935 203.834 228.844 202.649 228.661 201.529C228.479 200.383 228.206 199.381 227.841 198.521C227.476 197.636 227.021 196.933 226.474 196.412C225.953 195.891 225.341 195.631 224.638 195.631C223.857 195.631 223.193 195.865 222.646 196.334C222.125 196.803 221.695 197.441 221.357 198.248C221.044 199.055 220.81 199.98 220.654 201.021C220.523 202.063 220.458 203.17 220.458 204.342C220.458 205.514 220.523 206.529 220.654 207.389C220.81 208.222 220.979 208.951 221.161 209.576C221.37 210.201 221.565 210.761 221.747 211.256C221.93 211.725 222.06 212.193 222.138 212.662C220.341 212.454 218.57 212.298 216.825 212.193C215.107 212.089 213.388 212.037 211.669 212.037C209.95 212.037 208.219 212.089 206.474 212.193C204.755 212.298 202.971 212.454 201.122 212.662C202.737 207.975 204.143 203.326 205.341 198.717C206.565 194.107 207.607 189.472 208.466 184.811C209.325 180.149 210.015 175.436 210.536 170.67C211.083 165.904 211.487 161.021 211.747 156.021C213.674 156.282 215.784 156.477 218.075 156.607C220.393 156.712 222.763 156.764 225.185 156.764C227.242 156.764 229.234 156.712 231.161 156.607C233.114 156.503 234.911 156.282 236.552 155.943C236.734 160.917 237.203 165.813 237.958 170.631C238.713 175.449 239.651 180.227 240.771 184.967C241.917 189.68 243.219 194.355 244.677 198.99C246.135 203.6 247.672 208.183 249.286 212.74ZM227.411 182.428C227.359 181.933 227.203 181.204 226.943 180.24C226.708 179.407 226.357 178.313 225.888 176.959C225.419 175.579 224.729 173.808 223.818 171.646C223.609 173.001 223.375 174.212 223.114 175.279C222.854 176.321 222.607 177.271 222.372 178.131C222.138 178.964 221.93 179.732 221.747 180.436C221.591 181.139 221.513 181.803 221.513 182.428C221.513 183.73 221.812 184.745 222.411 185.475C223.036 186.178 223.726 186.529 224.482 186.529C225.289 186.529 225.966 186.139 226.513 185.357C227.06 184.576 227.359 183.6 227.411 182.428ZM290.966 170.904C290.966 172.232 290.732 173.587 290.263 174.967C289.794 176.321 289.117 177.558 288.232 178.678C287.372 179.771 286.318 180.67 285.068 181.373C283.818 182.076 282.398 182.428 280.81 182.428C279.404 182.428 278.193 182.193 277.177 181.725C276.187 181.23 275.367 180.579 274.716 179.771C274.091 178.964 273.622 178.053 273.31 177.037C272.997 176.021 272.841 174.967 272.841 173.873C272.841 172.779 272.971 171.725 273.232 170.709C273.518 169.667 273.948 168.743 274.521 167.936C274.677 168.482 274.885 168.912 275.146 169.225C275.406 169.511 275.68 169.719 275.966 169.85C276.279 170.006 276.617 170.097 276.982 170.123C277.815 170.123 278.401 169.902 278.739 169.459C279.104 169.016 279.286 168.508 279.286 167.936C279.286 167.675 279.234 167.415 279.13 167.154C279.026 166.868 278.857 166.607 278.622 166.373C278.414 166.139 278.127 165.943 277.763 165.787C277.398 165.631 276.956 165.553 276.435 165.553C276.148 165.553 275.732 165.592 275.185 165.67C274.664 165.748 274.078 165.956 273.427 166.295C272.776 166.607 272.112 167.089 271.435 167.74C270.758 168.391 270.133 169.277 269.56 170.396C269.013 171.516 268.557 172.91 268.193 174.576C267.854 176.243 267.685 178.274 267.685 180.67C267.685 182.311 267.841 183.743 268.154 184.967C268.492 186.165 268.922 187.193 269.443 188.053C269.963 188.912 270.562 189.615 271.239 190.162C271.917 190.709 272.607 191.139 273.31 191.451C274.013 191.764 274.69 191.985 275.341 192.115C276.018 192.219 276.617 192.271 277.138 192.271C277.815 192.271 278.661 192.154 279.677 191.92C280.719 191.66 281.747 191.204 282.763 190.553C283.779 189.902 284.69 189.003 285.497 187.857C286.331 186.712 286.904 185.227 287.216 183.404C288.127 184.68 288.818 186.204 289.286 187.975C289.781 189.745 290.029 191.607 290.029 193.561C290.029 196.217 289.547 198.795 288.583 201.295C287.646 203.769 286.292 205.969 284.521 207.896C282.776 209.824 280.654 211.36 278.154 212.506C275.654 213.678 272.867 214.264 269.794 214.264C267.529 214.264 265.432 213.899 263.505 213.17C261.578 212.467 259.82 211.477 258.232 210.201C256.643 208.925 255.25 207.428 254.052 205.709C252.854 203.964 251.838 202.076 251.005 200.045C250.172 198.014 249.547 195.878 249.13 193.639C248.713 191.373 248.505 189.081 248.505 186.764C248.505 184.212 248.779 181.646 249.325 179.068C249.872 176.464 250.654 173.964 251.669 171.568C252.711 169.173 253.961 166.933 255.419 164.85C256.904 162.74 258.583 160.917 260.458 159.381C262.333 157.818 264.39 156.594 266.63 155.709C268.87 154.798 271.252 154.342 273.779 154.342C276.07 154.342 278.088 154.615 279.833 155.162C281.578 155.683 283.075 156.399 284.325 157.311C285.601 158.196 286.669 159.212 287.529 160.357C288.388 161.503 289.065 162.688 289.56 163.912C290.081 165.136 290.445 166.36 290.654 167.584C290.862 168.782 290.966 169.889 290.966 170.904ZM334.13 167.701C334.13 169.003 333.883 170.188 333.388 171.256C332.919 172.298 332.255 173.196 331.396 173.951C330.536 174.706 329.521 175.292 328.349 175.709C327.203 176.126 325.953 176.334 324.599 176.334C323.114 176.334 321.838 176.152 320.771 175.787C319.729 175.423 318.844 174.967 318.114 174.42C317.411 173.847 316.851 173.222 316.435 172.545C316.018 171.842 315.693 171.165 315.458 170.514C315.25 169.863 315.107 169.264 315.029 168.717C314.976 168.17 314.95 167.753 314.95 167.467C315.263 167.988 315.627 168.326 316.044 168.482C316.461 168.613 316.812 168.678 317.099 168.678C317.828 168.678 318.336 168.482 318.622 168.092C318.935 167.701 319.091 167.285 319.091 166.842C319.091 166.555 319.026 166.256 318.896 165.943C318.792 165.631 318.583 165.344 318.271 165.084C317.984 164.798 317.581 164.563 317.06 164.381C316.565 164.199 315.94 164.107 315.185 164.107C314.664 164.107 314.13 164.212 313.583 164.42C313.036 164.602 312.529 164.902 312.06 165.318C311.617 165.709 311.252 166.204 310.966 166.803C310.68 167.402 310.536 168.105 310.536 168.912C310.536 169.693 310.693 170.475 311.005 171.256C311.344 172.011 311.786 172.727 312.333 173.404C312.906 174.081 313.57 174.693 314.325 175.24C315.107 175.787 315.953 176.243 316.864 176.607C318.297 177.206 319.768 177.792 321.279 178.365C322.815 178.938 324.299 179.563 325.732 180.24C327.164 180.917 328.505 181.699 329.755 182.584C331.031 183.443 332.138 184.472 333.075 185.67C334.039 186.868 334.794 188.274 335.341 189.889C335.914 191.477 336.2 193.339 336.2 195.475C336.2 198.521 335.575 201.308 334.325 203.834C333.101 206.334 331.448 208.482 329.364 210.279C327.307 212.05 324.911 213.417 322.177 214.381C319.469 215.37 316.63 215.865 313.661 215.865C310.979 215.865 308.427 215.462 306.005 214.654C303.583 213.873 301.461 212.792 299.638 211.412C297.815 210.032 296.357 208.417 295.263 206.568C294.195 204.693 293.661 202.675 293.661 200.514C293.661 198.925 293.922 197.532 294.443 196.334C294.963 195.136 295.68 194.146 296.591 193.365C297.529 192.558 298.609 191.959 299.833 191.568C301.083 191.178 302.411 190.982 303.818 190.982C304.911 190.982 305.979 191.1 307.021 191.334C308.088 191.568 309.078 191.92 309.989 192.389C310.927 192.831 311.76 193.378 312.489 194.029C313.245 194.68 313.844 195.423 314.286 196.256C313.739 196.1 313.258 196.021 312.841 196.021C312.138 196.021 311.578 196.23 311.161 196.646C310.745 197.063 310.536 197.688 310.536 198.521C310.536 198.964 310.64 199.381 310.849 199.771C311.057 200.136 311.318 200.462 311.63 200.748C311.969 201.035 312.346 201.256 312.763 201.412C313.206 201.568 313.661 201.646 314.13 201.646C314.651 201.646 315.133 201.542 315.575 201.334C316.018 201.1 316.409 200.8 316.747 200.436C317.086 200.071 317.346 199.667 317.529 199.225C317.711 198.782 317.802 198.326 317.802 197.857C317.802 196.946 317.515 196.021 316.943 195.084C316.396 194.146 315.588 193.313 314.521 192.584C312.489 191.334 310.575 190.253 308.779 189.342C306.982 188.43 305.328 187.571 303.818 186.764C302.307 185.93 300.94 185.097 299.716 184.264C298.518 183.43 297.489 182.467 296.63 181.373C295.797 180.279 295.159 179.003 294.716 177.545C294.273 176.061 294.052 174.277 294.052 172.193C294.052 169.693 294.534 167.35 295.497 165.162C296.461 162.975 297.854 161.074 299.677 159.459C301.526 157.818 303.779 156.529 306.435 155.592C309.091 154.654 312.112 154.186 315.497 154.186C318.909 154.186 321.799 154.602 324.169 155.436C326.539 156.243 328.453 157.298 329.911 158.6C331.396 159.902 332.463 161.36 333.114 162.975C333.792 164.563 334.13 166.139 334.13 167.701ZM361.786 212.037C361.239 211.985 360.627 211.933 359.95 211.881C359.351 211.829 358.635 211.79 357.802 211.764C356.969 211.738 356.005 211.725 354.911 211.725C352.802 211.725 350.354 211.816 347.568 211.998C344.781 212.18 341.76 212.532 338.505 213.053C339.078 211.881 339.573 210.396 339.989 208.6C340.406 206.803 340.745 204.889 341.005 202.857C341.292 200.8 341.513 198.717 341.669 196.607C341.825 194.498 341.943 192.532 342.021 190.709C342.099 188.886 342.138 187.311 342.138 185.982C342.164 184.654 342.177 183.743 342.177 183.248C342.177 183.144 342.164 182.74 342.138 182.037C342.138 181.334 342.125 180.423 342.099 179.303C342.073 178.183 342.034 176.907 341.982 175.475C341.93 174.016 341.851 172.506 341.747 170.943C341.669 169.381 341.552 167.805 341.396 166.217C341.265 164.628 341.096 163.131 340.888 161.725C340.706 160.318 340.484 159.055 340.224 157.936C339.989 156.79 339.703 155.891 339.364 155.24C341.995 155.709 344.404 156.021 346.591 156.178C348.805 156.334 350.797 156.412 352.568 156.412C353.739 156.412 354.794 156.386 355.732 156.334C356.669 156.282 357.463 156.23 358.114 156.178C358.87 156.1 359.534 156.021 360.107 155.943C359.794 157.402 359.521 159.029 359.286 160.826C359.052 162.597 358.844 164.498 358.661 166.529C358.479 168.535 358.336 170.644 358.232 172.857C358.154 175.071 358.114 177.35 358.114 179.693C358.114 182.402 358.18 185.162 358.31 187.975C358.44 190.761 358.648 193.535 358.935 196.295C359.247 199.055 359.625 201.764 360.068 204.42C360.536 207.076 361.109 209.615 361.786 212.037ZM411.63 184.576C411.63 188.821 411.161 192.467 410.224 195.514C409.286 198.561 408.049 201.152 406.513 203.287C404.976 205.396 403.232 207.102 401.279 208.404C399.325 209.68 397.333 210.683 395.302 211.412C393.297 212.115 391.331 212.584 389.404 212.818C387.476 213.053 385.771 213.17 384.286 213.17C381.76 213.17 379.599 213.079 377.802 212.896C376.031 212.74 374.56 212.662 373.388 212.662C372.06 212.662 370.588 212.688 368.974 212.74C367.359 212.792 365.654 212.896 363.857 213.053C364.56 211.777 365.172 210.357 365.693 208.795C366.239 207.206 366.708 205.553 367.099 203.834C367.489 202.115 367.815 200.383 368.075 198.639C368.362 196.868 368.596 195.162 368.779 193.521C369.195 189.667 369.43 185.709 369.482 181.646C369.43 177.61 369.234 173.821 368.896 170.279C368.739 168.769 368.544 167.258 368.31 165.748C368.101 164.212 367.841 162.766 367.529 161.412C367.216 160.032 366.838 158.795 366.396 157.701C365.979 156.607 365.484 155.735 364.911 155.084C366.838 155.396 368.661 155.605 370.38 155.709C372.125 155.813 373.661 155.865 374.989 155.865C375.849 155.865 376.682 155.839 377.489 155.787C378.297 155.735 379.13 155.683 379.989 155.631C380.849 155.579 381.76 155.527 382.724 155.475C383.713 155.423 384.82 155.396 386.044 155.396C387.815 155.396 389.677 155.527 391.63 155.787C393.609 156.021 395.536 156.503 397.411 157.232C399.312 157.962 401.122 158.99 402.841 160.318C404.56 161.646 406.07 163.391 407.372 165.553C408.674 167.714 409.703 170.357 410.458 173.482C411.239 176.581 411.63 180.279 411.63 184.576ZM392.529 183.717C392.529 180.67 392.437 178.131 392.255 176.1C392.073 174.068 391.799 172.441 391.435 171.217C391.096 169.967 390.667 169.081 390.146 168.561C389.625 168.04 389.026 167.779 388.349 167.779C387.75 167.779 387.203 168.092 386.708 168.717C386.239 169.316 385.836 170.292 385.497 171.646C385.159 173.001 384.898 174.745 384.716 176.881C384.534 178.99 384.443 181.555 384.443 184.576C384.443 187.753 384.521 190.41 384.677 192.545C384.859 194.654 385.107 196.347 385.419 197.623C385.758 198.899 386.161 199.811 386.63 200.357C387.125 200.878 387.698 201.139 388.349 201.139C389.625 201.139 390.64 199.745 391.396 196.959C392.151 194.173 392.529 189.758 392.529 183.717ZM460.068 212.74C458.453 212.532 456.89 212.389 455.38 212.311C453.896 212.232 452.385 212.193 450.849 212.193C446.708 212.193 442.463 212.597 438.114 213.404C438.271 212.779 438.44 212.232 438.622 211.764C438.831 211.269 439.013 210.735 439.169 210.162C439.325 209.563 439.456 208.873 439.56 208.092C439.664 207.311 439.716 206.308 439.716 205.084C439.716 203.834 439.625 202.649 439.443 201.529C439.26 200.383 438.987 199.381 438.622 198.521C438.258 197.636 437.802 196.933 437.255 196.412C436.734 195.891 436.122 195.631 435.419 195.631C434.638 195.631 433.974 195.865 433.427 196.334C432.906 196.803 432.476 197.441 432.138 198.248C431.825 199.055 431.591 199.98 431.435 201.021C431.305 202.063 431.239 203.17 431.239 204.342C431.239 205.514 431.305 206.529 431.435 207.389C431.591 208.222 431.76 208.951 431.943 209.576C432.151 210.201 432.346 210.761 432.529 211.256C432.711 211.725 432.841 212.193 432.919 212.662C431.122 212.454 429.351 212.298 427.607 212.193C425.888 212.089 424.169 212.037 422.45 212.037C420.732 212.037 419 212.089 417.255 212.193C415.536 212.298 413.752 212.454 411.904 212.662C413.518 207.975 414.924 203.326 416.122 198.717C417.346 194.107 418.388 189.472 419.247 184.811C420.107 180.149 420.797 175.436 421.318 170.67C421.864 165.904 422.268 161.021 422.529 156.021C424.456 156.282 426.565 156.477 428.857 156.607C431.174 156.712 433.544 156.764 435.966 156.764C438.023 156.764 440.015 156.712 441.943 156.607C443.896 156.503 445.693 156.282 447.333 155.943C447.515 160.917 447.984 165.813 448.739 170.631C449.495 175.449 450.432 180.227 451.552 184.967C452.698 189.68 454 194.355 455.458 198.99C456.917 203.6 458.453 208.183 460.068 212.74ZM438.193 182.428C438.14 181.933 437.984 181.204 437.724 180.24C437.489 179.407 437.138 178.313 436.669 176.959C436.2 175.579 435.51 173.808 434.599 171.646C434.39 173.001 434.156 174.212 433.896 175.279C433.635 176.321 433.388 177.271 433.154 178.131C432.919 178.964 432.711 179.732 432.529 180.436C432.372 181.139 432.294 181.803 432.294 182.428C432.294 183.73 432.594 184.745 433.193 185.475C433.818 186.178 434.508 186.529 435.263 186.529C436.07 186.529 436.747 186.139 437.294 185.357C437.841 184.576 438.14 183.6 438.193 182.428Z" fill="white"/>
</g>
</g>
</g>
<defs>
<filter id="filter0_d_28_8" x="-203" y="-396" width="1124.39" height="1124.39" filterUnits="userSpaceOnUse" color-interpolation-filters="sRGB">
<feFlood flood-opacity="0" result="BackgroundImageFix"/>
<feColorMatrix in="SourceAlpha" type="matrix" values="0 0 0 0 0 0 0 0 0 0 0 0 0 0 0 0 0 0 127 0" result="hardAlpha"/>
<feOffset dx="4" dy="38"/>
<feGaussianBlur stdDeviation="31"/>
<feColorMatrix type="matrix" values="0 0 0 0 0 0 0 0 0 0 0 0 0 0 0 0 0 0 0.5 0"/>
<feBlend mode="normal" in2="BackgroundImageFix" result="effect1_dropShadow_28_8"/>
<feBlend mode="normal" in="SourceGraphic" in2="effect1_dropShadow_28_8" result="shape"/>
</filter>
<filter id="filter1_d_28_8" x="161.005" y="154.186" width="301.063" height="63.6797" filterUnits="userSpaceOnUse" color-interpolation-filters="sRGB">
<feFlood flood-opacity="0" result="BackgroundImageFix"/>
<feColorMatrix in="SourceAlpha" type="matrix" values="0 0 0 0 0 0 0 0 0 0 0 0 0 0 0 0 0 0 127 0" result="hardAlpha"/>
<feOffset dx="1" dy="1"/>
<feGaussianBlur stdDeviation="0.5"/>
<feColorMatrix type="matrix" values="0 0 0 0 0 0 0 0 0 0 0 0 0 0 0 0 0 0 0.25 0"/>
<feBlend mode="normal" in2="BackgroundImageFix" result="effect1_dropShadow_28_8"/>
<feBlend mode="normal" in="SourceGraphic" in2="effect1_dropShadow_28_8" result="shape"/>
</filter>
<clipPath id="clip0_28_8">
<rect width="710" height="440" fill="white"/>
</clipPath>
</defs>
</svg>
