<svg width="712" height="500" viewBox="0 0 712 500" fill="none" xmlns="http://www.w3.org/2000/svg">
<g clip-path="url(#clip0_1_1259)" filter="url(#filter0_d_1_1259)">
<path d="M118.971 231.898C77.2252 194.474 74.4762 130.659 111.207 89.6859C163.877 30.9322 211.22 49.6692 260.109 69.7922C285.673 80.1602 312.783 91.9143 344.504 93.8585C367.429 96.2831 390.886 95.0023 415.037 92.9485C447.211 89.7214 468.59 90.7598 473.681 89.7466C477.306 88.8134 505.722 97.5552 505.883 100.487C505.883 100.487 548.054 118.772 550.988 159.049C553.923 199.327 513.087 232.436 511.008 234.756C431.202 308.225 229.521 331 118.971 231.898Z" fill="#4A148C"/>
<path d="M644.284 117.194L645.885 146.516C645.885 146.516 602.542 160.646 573.38 165.179C571.729 188.797 564.08 223.77 511.808 249.417C499.732 230.225 515.537 183.042 515.537 183.042C515.537 183.042 495.864 186.322 463.022 163.852C486.345 133.169 505.404 132.129 505.404 132.129C505.404 132.129 467.071 103.342 465.95 82.8163C465.95 82.8163 524.327 61.2482 564.048 128.927C599.555 132.87 644.284 117.194 644.284 117.194Z" fill="#4CAF50"/>
<path d="M144.209 115.088C144.209 115.088 163.826 83.8719 224.444 103.355C285.062 122.837 349.785 150.183 432.099 136.131" stroke="#9575CD" stroke-width="22" stroke-miterlimit="10" stroke-linecap="round"/>
<g filter="url(#filter1_d_1_1259)">
<path d="M198.965 197.859C198.965 200.62 198.523 203.107 197.637 205.32C196.778 207.508 195.632 209.383 194.2 210.945C192.768 212.482 191.127 213.667 189.278 214.5C187.429 215.333 185.515 215.75 183.536 215.75C182.442 215.75 181.361 215.633 180.294 215.398C179.226 215.138 178.171 214.721 177.13 214.148C177.364 216.076 177.742 218.055 178.262 220.086C178.705 221.831 179.33 223.784 180.137 225.945C180.971 228.081 182.064 230.177 183.419 232.234C180.762 231.948 178.367 231.753 176.231 231.648C174.122 231.518 172.208 231.453 170.489 231.453C168.171 231.453 166.218 231.531 164.63 231.687C163.067 231.844 161.791 232.026 160.801 232.234C159.656 232.469 158.744 232.716 158.067 232.977C158.718 230.971 159.278 228.784 159.747 226.414C160.215 224.044 160.606 221.57 160.919 218.992C161.231 216.414 161.465 213.784 161.622 211.102C161.778 208.393 161.856 205.711 161.856 203.055C161.856 200.164 161.765 197.339 161.583 194.578C161.4 191.792 161.127 189.187 160.762 186.766C160.424 184.318 159.994 182.091 159.473 180.086C158.952 178.081 158.353 176.401 157.676 175.047C158.926 175.437 160.228 175.724 161.583 175.906C162.963 176.062 164.356 176.141 165.762 176.141C167.038 176.141 168.314 176.089 169.59 175.984C170.893 175.854 172.169 175.724 173.419 175.594C174.669 175.464 175.88 175.346 177.051 175.242C178.223 175.112 179.317 175.047 180.333 175.047C181.426 175.047 182.637 175.19 183.965 175.477C185.32 175.763 186.687 176.258 188.067 176.961C189.447 177.638 190.788 178.549 192.09 179.695C193.393 180.841 194.551 182.26 195.567 183.953C196.583 185.646 197.39 187.638 197.989 189.93C198.614 192.221 198.939 194.865 198.965 197.859ZM176.7 204.227C177.351 203.602 178.093 202.846 178.926 201.961C179.786 201.049 180.593 200.073 181.348 199.031C182.103 197.964 182.728 196.87 183.223 195.75C183.744 194.63 184.005 193.562 184.005 192.547C184.005 191.375 183.666 190.451 182.989 189.773C182.338 189.07 181.609 188.719 180.801 188.719C180.072 188.719 179.46 188.966 178.965 189.461C178.497 189.956 178.106 190.607 177.794 191.414C177.481 192.195 177.247 193.081 177.09 194.07C176.934 195.034 176.817 195.997 176.739 196.961C176.661 197.898 176.622 198.784 176.622 199.617C176.622 200.424 176.622 201.062 176.622 201.531C176.622 201.974 176.622 202.417 176.622 202.859C176.622 203.302 176.648 203.758 176.7 204.227ZM245.958 232.469C244.343 232.26 242.781 232.117 241.27 232.039C239.786 231.961 238.275 231.922 236.739 231.922C232.598 231.922 228.353 232.326 224.005 233.133C224.161 232.508 224.33 231.961 224.512 231.492C224.721 230.997 224.903 230.464 225.059 229.891C225.215 229.292 225.346 228.602 225.45 227.82C225.554 227.039 225.606 226.036 225.606 224.812C225.606 223.562 225.515 222.378 225.333 221.258C225.15 220.112 224.877 219.109 224.512 218.25C224.148 217.365 223.692 216.661 223.145 216.141C222.624 215.62 222.012 215.359 221.309 215.359C220.528 215.359 219.864 215.594 219.317 216.062C218.796 216.531 218.367 217.169 218.028 217.977C217.715 218.784 217.481 219.708 217.325 220.75C217.195 221.792 217.13 222.898 217.13 224.07C217.13 225.242 217.195 226.258 217.325 227.117C217.481 227.951 217.65 228.68 217.833 229.305C218.041 229.93 218.236 230.49 218.419 230.984C218.601 231.453 218.731 231.922 218.809 232.391C217.012 232.182 215.242 232.026 213.497 231.922C211.778 231.818 210.059 231.766 208.34 231.766C206.622 231.766 204.89 231.818 203.145 231.922C201.426 232.026 199.643 232.182 197.794 232.391C199.408 227.703 200.814 223.055 202.012 218.445C203.236 213.836 204.278 209.201 205.137 204.539C205.997 199.878 206.687 195.164 207.208 190.398C207.755 185.633 208.158 180.75 208.419 175.75C210.346 176.01 212.455 176.206 214.747 176.336C217.064 176.44 219.434 176.492 221.856 176.492C223.913 176.492 225.906 176.44 227.833 176.336C229.786 176.232 231.583 176.01 233.223 175.672C233.406 180.646 233.874 185.542 234.63 190.359C235.385 195.177 236.322 199.956 237.442 204.695C238.588 209.409 239.89 214.083 241.348 218.719C242.807 223.328 244.343 227.911 245.958 232.469ZM224.083 202.156C224.031 201.661 223.874 200.932 223.614 199.969C223.38 199.135 223.028 198.042 222.559 196.687C222.09 195.307 221.4 193.536 220.489 191.375C220.281 192.729 220.046 193.94 219.786 195.008C219.525 196.049 219.278 197 219.044 197.859C218.809 198.693 218.601 199.461 218.419 200.164C218.262 200.867 218.184 201.531 218.184 202.156C218.184 203.458 218.484 204.474 219.083 205.203C219.708 205.906 220.398 206.258 221.153 206.258C221.96 206.258 222.637 205.867 223.184 205.086C223.731 204.305 224.031 203.328 224.083 202.156ZM287.637 190.633C287.637 191.961 287.403 193.315 286.934 194.695C286.465 196.049 285.788 197.286 284.903 198.406C284.044 199.5 282.989 200.398 281.739 201.102C280.489 201.805 279.07 202.156 277.481 202.156C276.075 202.156 274.864 201.922 273.848 201.453C272.859 200.958 272.038 200.307 271.387 199.5C270.762 198.693 270.294 197.781 269.981 196.766C269.669 195.75 269.512 194.695 269.512 193.602C269.512 192.508 269.643 191.453 269.903 190.437C270.189 189.396 270.619 188.471 271.192 187.664C271.348 188.211 271.557 188.641 271.817 188.953C272.077 189.24 272.351 189.448 272.637 189.578C272.95 189.734 273.288 189.826 273.653 189.852C274.486 189.852 275.072 189.63 275.411 189.187C275.775 188.745 275.958 188.237 275.958 187.664C275.958 187.404 275.906 187.143 275.801 186.883C275.697 186.596 275.528 186.336 275.294 186.102C275.085 185.867 274.799 185.672 274.434 185.516C274.07 185.359 273.627 185.281 273.106 185.281C272.82 185.281 272.403 185.32 271.856 185.398C271.335 185.477 270.749 185.685 270.098 186.023C269.447 186.336 268.783 186.818 268.106 187.469C267.429 188.12 266.804 189.005 266.231 190.125C265.684 191.245 265.228 192.638 264.864 194.305C264.525 195.971 264.356 198.003 264.356 200.398C264.356 202.039 264.512 203.471 264.825 204.695C265.163 205.893 265.593 206.922 266.114 207.781C266.635 208.641 267.234 209.344 267.911 209.891C268.588 210.437 269.278 210.867 269.981 211.18C270.684 211.492 271.361 211.714 272.012 211.844C272.689 211.948 273.288 212 273.809 212C274.486 212 275.333 211.883 276.348 211.648C277.39 211.388 278.419 210.932 279.434 210.281C280.45 209.63 281.361 208.732 282.169 207.586C283.002 206.44 283.575 204.956 283.887 203.133C284.799 204.409 285.489 205.932 285.958 207.703C286.452 209.474 286.7 211.336 286.7 213.289C286.7 215.945 286.218 218.523 285.255 221.023C284.317 223.497 282.963 225.698 281.192 227.625C279.447 229.552 277.325 231.089 274.825 232.234C272.325 233.406 269.538 233.992 266.465 233.992C264.2 233.992 262.103 233.628 260.176 232.898C258.249 232.195 256.492 231.206 254.903 229.93C253.314 228.654 251.921 227.156 250.723 225.437C249.525 223.693 248.51 221.805 247.676 219.773C246.843 217.742 246.218 215.607 245.801 213.367C245.385 211.102 245.176 208.81 245.176 206.492C245.176 203.94 245.45 201.375 245.997 198.797C246.544 196.193 247.325 193.693 248.34 191.297C249.382 188.901 250.632 186.661 252.09 184.578C253.575 182.469 255.255 180.646 257.13 179.109C259.005 177.547 261.062 176.323 263.301 175.437C265.541 174.526 267.924 174.07 270.45 174.07C272.742 174.07 274.76 174.344 276.505 174.891C278.249 175.411 279.747 176.128 280.997 177.039C282.273 177.924 283.34 178.94 284.2 180.086C285.059 181.232 285.736 182.417 286.231 183.641C286.752 184.865 287.117 186.089 287.325 187.312C287.533 188.51 287.637 189.617 287.637 190.633ZM330.801 187.43C330.801 188.732 330.554 189.917 330.059 190.984C329.59 192.026 328.926 192.924 328.067 193.68C327.208 194.435 326.192 195.021 325.02 195.437C323.874 195.854 322.624 196.062 321.27 196.062C319.786 196.062 318.51 195.88 317.442 195.516C316.4 195.151 315.515 194.695 314.786 194.148C314.083 193.576 313.523 192.951 313.106 192.273C312.689 191.57 312.364 190.893 312.13 190.242C311.921 189.591 311.778 188.992 311.7 188.445C311.648 187.898 311.622 187.482 311.622 187.195C311.934 187.716 312.299 188.055 312.715 188.211C313.132 188.341 313.484 188.406 313.77 188.406C314.499 188.406 315.007 188.211 315.294 187.82C315.606 187.43 315.762 187.013 315.762 186.57C315.762 186.284 315.697 185.984 315.567 185.672C315.463 185.359 315.255 185.073 314.942 184.812C314.656 184.526 314.252 184.292 313.731 184.109C313.236 183.927 312.611 183.836 311.856 183.836C311.335 183.836 310.801 183.94 310.255 184.148C309.708 184.331 309.2 184.63 308.731 185.047C308.288 185.437 307.924 185.932 307.637 186.531C307.351 187.13 307.208 187.833 307.208 188.641C307.208 189.422 307.364 190.203 307.676 190.984C308.015 191.74 308.458 192.456 309.005 193.133C309.577 193.81 310.242 194.422 310.997 194.969C311.778 195.516 312.624 195.971 313.536 196.336C314.968 196.935 316.439 197.521 317.95 198.094C319.486 198.667 320.971 199.292 322.403 199.969C323.835 200.646 325.176 201.427 326.426 202.312C327.702 203.172 328.809 204.201 329.747 205.398C330.71 206.596 331.465 208.003 332.012 209.617C332.585 211.206 332.872 213.068 332.872 215.203C332.872 218.25 332.247 221.036 330.997 223.562C329.773 226.062 328.119 228.211 326.036 230.008C323.978 231.779 321.583 233.146 318.848 234.109C316.14 235.099 313.301 235.594 310.333 235.594C307.65 235.594 305.098 235.19 302.676 234.383C300.255 233.602 298.132 232.521 296.309 231.141C294.486 229.76 293.028 228.146 291.934 226.297C290.867 224.422 290.333 222.404 290.333 220.242C290.333 218.654 290.593 217.26 291.114 216.062C291.635 214.865 292.351 213.875 293.262 213.094C294.2 212.286 295.281 211.687 296.505 211.297C297.755 210.906 299.083 210.711 300.489 210.711C301.583 210.711 302.65 210.828 303.692 211.062C304.76 211.297 305.749 211.648 306.661 212.117C307.598 212.56 308.432 213.107 309.161 213.758C309.916 214.409 310.515 215.151 310.958 215.984C310.411 215.828 309.929 215.75 309.512 215.75C308.809 215.75 308.249 215.958 307.833 216.375C307.416 216.792 307.208 217.417 307.208 218.25C307.208 218.693 307.312 219.109 307.52 219.5C307.728 219.865 307.989 220.19 308.301 220.477C308.64 220.763 309.018 220.984 309.434 221.141C309.877 221.297 310.333 221.375 310.801 221.375C311.322 221.375 311.804 221.271 312.247 221.062C312.689 220.828 313.08 220.529 313.419 220.164C313.757 219.799 314.018 219.396 314.2 218.953C314.382 218.51 314.473 218.055 314.473 217.586C314.473 216.674 314.187 215.75 313.614 214.812C313.067 213.875 312.26 213.042 311.192 212.312C309.161 211.062 307.247 209.982 305.45 209.07C303.653 208.159 301.999 207.299 300.489 206.492C298.978 205.659 297.611 204.826 296.387 203.992C295.189 203.159 294.161 202.195 293.301 201.102C292.468 200.008 291.83 198.732 291.387 197.273C290.945 195.789 290.723 194.005 290.723 191.922C290.723 189.422 291.205 187.078 292.169 184.891C293.132 182.703 294.525 180.802 296.348 179.187C298.197 177.547 300.45 176.258 303.106 175.32C305.762 174.383 308.783 173.914 312.169 173.914C315.58 173.914 318.471 174.331 320.84 175.164C323.21 175.971 325.124 177.026 326.583 178.328C328.067 179.63 329.135 181.089 329.786 182.703C330.463 184.292 330.801 185.867 330.801 187.43ZM358.458 231.766C357.911 231.714 357.299 231.661 356.622 231.609C356.023 231.557 355.307 231.518 354.473 231.492C353.64 231.466 352.676 231.453 351.583 231.453C349.473 231.453 347.025 231.544 344.239 231.727C341.452 231.909 338.432 232.26 335.176 232.781C335.749 231.609 336.244 230.125 336.661 228.328C337.077 226.531 337.416 224.617 337.676 222.586C337.963 220.529 338.184 218.445 338.34 216.336C338.497 214.227 338.614 212.26 338.692 210.437C338.77 208.615 338.809 207.039 338.809 205.711C338.835 204.383 338.848 203.471 338.848 202.977C338.848 202.872 338.835 202.469 338.809 201.766C338.809 201.062 338.796 200.151 338.77 199.031C338.744 197.911 338.705 196.635 338.653 195.203C338.601 193.745 338.523 192.234 338.419 190.672C338.34 189.109 338.223 187.534 338.067 185.945C337.937 184.357 337.768 182.859 337.559 181.453C337.377 180.047 337.156 178.784 336.895 177.664C336.661 176.518 336.374 175.62 336.036 174.969C338.666 175.437 341.075 175.75 343.262 175.906C345.476 176.062 347.468 176.141 349.239 176.141C350.411 176.141 351.465 176.115 352.403 176.062C353.34 176.01 354.135 175.958 354.786 175.906C355.541 175.828 356.205 175.75 356.778 175.672C356.465 177.13 356.192 178.758 355.958 180.555C355.723 182.326 355.515 184.227 355.333 186.258C355.15 188.263 355.007 190.372 354.903 192.586C354.825 194.799 354.786 197.078 354.786 199.422C354.786 202.13 354.851 204.891 354.981 207.703C355.111 210.49 355.32 213.263 355.606 216.023C355.919 218.784 356.296 221.492 356.739 224.148C357.208 226.805 357.781 229.344 358.458 231.766ZM408.301 204.305C408.301 208.549 407.833 212.195 406.895 215.242C405.958 218.289 404.721 220.88 403.184 223.016C401.648 225.125 399.903 226.831 397.95 228.133C395.997 229.409 394.005 230.411 391.973 231.141C389.968 231.844 388.002 232.312 386.075 232.547C384.148 232.781 382.442 232.898 380.958 232.898C378.432 232.898 376.27 232.807 374.473 232.625C372.702 232.469 371.231 232.391 370.059 232.391C368.731 232.391 367.26 232.417 365.645 232.469C364.031 232.521 362.325 232.625 360.528 232.781C361.231 231.505 361.843 230.086 362.364 228.523C362.911 226.935 363.38 225.281 363.77 223.562C364.161 221.844 364.486 220.112 364.747 218.367C365.033 216.596 365.268 214.891 365.45 213.25C365.867 209.396 366.101 205.437 366.153 201.375C366.101 197.339 365.906 193.549 365.567 190.008C365.411 188.497 365.215 186.987 364.981 185.477C364.773 183.94 364.512 182.495 364.2 181.141C363.887 179.76 363.51 178.523 363.067 177.43C362.65 176.336 362.156 175.464 361.583 174.812C363.51 175.125 365.333 175.333 367.051 175.437C368.796 175.542 370.333 175.594 371.661 175.594C372.52 175.594 373.353 175.568 374.161 175.516C374.968 175.464 375.801 175.411 376.661 175.359C377.52 175.307 378.432 175.255 379.395 175.203C380.385 175.151 381.492 175.125 382.715 175.125C384.486 175.125 386.348 175.255 388.301 175.516C390.281 175.75 392.208 176.232 394.083 176.961C395.984 177.69 397.794 178.719 399.512 180.047C401.231 181.375 402.742 183.12 404.044 185.281C405.346 187.443 406.374 190.086 407.13 193.211C407.911 196.31 408.301 200.008 408.301 204.305ZM389.2 203.445C389.2 200.398 389.109 197.859 388.926 195.828C388.744 193.797 388.471 192.169 388.106 190.945C387.768 189.695 387.338 188.81 386.817 188.289C386.296 187.768 385.697 187.508 385.02 187.508C384.421 187.508 383.874 187.82 383.38 188.445C382.911 189.044 382.507 190.021 382.169 191.375C381.83 192.729 381.57 194.474 381.387 196.609C381.205 198.719 381.114 201.284 381.114 204.305C381.114 207.482 381.192 210.138 381.348 212.273C381.531 214.383 381.778 216.076 382.09 217.352C382.429 218.628 382.833 219.539 383.301 220.086C383.796 220.607 384.369 220.867 385.02 220.867C386.296 220.867 387.312 219.474 388.067 216.687C388.822 213.901 389.2 209.487 389.2 203.445ZM456.739 232.469C455.124 232.26 453.562 232.117 452.051 232.039C450.567 231.961 449.057 231.922 447.52 231.922C443.38 231.922 439.135 232.326 434.786 233.133C434.942 232.508 435.111 231.961 435.294 231.492C435.502 230.997 435.684 230.464 435.84 229.891C435.997 229.292 436.127 228.602 436.231 227.82C436.335 227.039 436.387 226.036 436.387 224.812C436.387 223.562 436.296 222.378 436.114 221.258C435.932 220.112 435.658 219.109 435.294 218.25C434.929 217.365 434.473 216.661 433.926 216.141C433.406 215.62 432.794 215.359 432.09 215.359C431.309 215.359 430.645 215.594 430.098 216.062C429.577 216.531 429.148 217.169 428.809 217.977C428.497 218.784 428.262 219.708 428.106 220.75C427.976 221.792 427.911 222.898 427.911 224.07C427.911 225.242 427.976 226.258 428.106 227.117C428.262 227.951 428.432 228.68 428.614 229.305C428.822 229.93 429.018 230.49 429.2 230.984C429.382 231.453 429.512 231.922 429.59 232.391C427.794 232.182 426.023 232.026 424.278 231.922C422.559 231.818 420.84 231.766 419.122 231.766C417.403 231.766 415.671 231.818 413.926 231.922C412.208 232.026 410.424 232.182 408.575 232.391C410.189 227.703 411.596 223.055 412.794 218.445C414.018 213.836 415.059 209.201 415.919 204.539C416.778 199.878 417.468 195.164 417.989 190.398C418.536 185.633 418.939 180.75 419.2 175.75C421.127 176.01 423.236 176.206 425.528 176.336C427.846 176.44 430.215 176.492 432.637 176.492C434.695 176.492 436.687 176.44 438.614 176.336C440.567 176.232 442.364 176.01 444.005 175.672C444.187 180.646 444.656 185.542 445.411 190.359C446.166 195.177 447.103 199.956 448.223 204.695C449.369 209.409 450.671 214.083 452.13 218.719C453.588 223.328 455.124 227.911 456.739 232.469ZM434.864 202.156C434.812 201.661 434.656 200.932 434.395 199.969C434.161 199.135 433.809 198.042 433.34 196.687C432.872 195.307 432.182 193.536 431.27 191.375C431.062 192.729 430.827 193.94 430.567 195.008C430.307 196.049 430.059 197 429.825 197.859C429.59 198.693 429.382 199.461 429.2 200.164C429.044 200.867 428.965 201.531 428.965 202.156C428.965 203.458 429.265 204.474 429.864 205.203C430.489 205.906 431.179 206.258 431.934 206.258C432.741 206.258 433.419 205.867 433.965 205.086C434.512 204.305 434.812 203.328 434.864 202.156Z" fill="white"/>
</g>
</g>
<defs>
<filter id="filter0_d_1_1259" x="-58" y="-228" width="827.728" height="827.728" filterUnits="userSpaceOnUse" color-interpolation-filters="sRGB">
<feFlood flood-opacity="0" result="BackgroundImageFix"/>
<feColorMatrix in="SourceAlpha" type="matrix" values="0 0 0 0 0 0 0 0 0 0 0 0 0 0 0 0 0 0 127 0" result="hardAlpha"/>
<feOffset dx="4" dy="38"/>
<feGaussianBlur stdDeviation="31"/>
<feColorMatrix type="matrix" values="0 0 0 0 0 0 0 0 0 0 0 0 0 0 0 0 0 0 0.5 0"/>
<feBlend mode="normal" in2="BackgroundImageFix" result="effect1_dropShadow_1_1259"/>
<feBlend mode="normal" in="SourceGraphic" in2="effect1_dropShadow_1_1259" result="shape"/>
</filter>
<filter id="filter1_d_1_1259" x="157.676" y="173.914" width="301.062" height="63.6797" filterUnits="userSpaceOnUse" color-interpolation-filters="sRGB">
<feFlood flood-opacity="0" result="BackgroundImageFix"/>
<feColorMatrix in="SourceAlpha" type="matrix" values="0 0 0 0 0 0 0 0 0 0 0 0 0 0 0 0 0 0 127 0" result="hardAlpha"/>
<feOffset dx="1" dy="1"/>
<feGaussianBlur stdDeviation="0.5"/>
<feColorMatrix type="matrix" values="0 0 0 0 0 0 0 0 0 0 0 0 0 0 0 0 0 0 0.25 0"/>
<feBlend mode="normal" in2="BackgroundImageFix" result="effect1_dropShadow_1_1259"/>
<feBlend mode="normal" in="SourceGraphic" in2="effect1_dropShadow_1_1259" result="shape"/>
</filter>
<clipPath id="clip0_1_1259">
<rect width="498.352" height="498.352" fill="white" transform="translate(332.653 -204) rotate(41.8748)"/>
</clipPath>
</defs>
</svg>
