<svg width="212" height="215" viewBox="0 0 212 215" fill="none" xmlns="http://www.w3.org/2000/svg">
<g id="pacGum" filter="url(#filter0_d_1_1266)">
<g id="Group">
<path id="Vector" d="M81.7092 12.108L79.0728 15.7366C78.3615 16.7156 78.2166 17.9984 78.6975 19.1102C78.938 19.6745 79.3986 21.1279 78.4331 22.4568C77.4675 23.7856 75.943 23.7966 75.332 23.7422C74.126 23.6284 72.9506 24.1625 72.2393 25.1415L66.9664 32.3986C66.2551 33.3776 66.1102 34.6605 66.5911 35.7723C66.8316 36.3366 67.2922 37.79 66.3267 39.1188C65.3612 40.4476 63.8366 40.4587 63.2256 40.4042C62.0196 40.2904 60.8442 40.8245 60.1329 41.8035L54.86 49.0606C54.1487 50.0397 54.0039 51.3225 54.4847 52.4343C54.7253 52.9986 55.1858 54.452 54.2203 55.7808C53.2548 57.1097 51.7302 57.1207 51.1192 57.0663C49.9132 56.9525 48.7379 57.4866 48.0265 58.4656L42.7536 65.7227C42.0423 66.7017 41.8975 67.9846 42.3783 69.0964C42.6189 69.6607 43.0794 71.1141 42.1139 72.4429C41.1484 73.7717 39.6238 73.7828 39.0128 73.7283C37.8068 73.6145 36.6315 74.1486 35.9201 75.1276L30.6472 82.3847C29.9359 83.3637 29.7911 84.6466 30.2719 85.7584C30.5125 86.3227 30.973 87.7761 30.0075 89.1049C29.042 90.4338 27.5174 90.4448 26.9064 90.3904C25.7004 90.2766 24.5251 90.8107 23.8138 91.7897L18.5409 99.0468C17.8295 100.026 17.6847 101.309 18.1655 102.42C18.4061 102.985 18.8666 104.438 17.9011 105.767C16.9356 107.096 15.411 107.107 14.8 107.052C13.5941 106.939 12.4187 107.473 11.7074 108.452L9.07092 112.08C4.6197 118.206 5.9818 126.808 12.108 131.259L112.08 203.898C118.207 208.349 126.808 206.987 131.259 200.86L133.896 197.232C134.607 196.253 134.752 194.97 134.271 193.858C134.03 193.294 133.57 191.841 134.535 190.512C135.501 189.183 137.026 189.172 137.637 189.226C138.842 189.34 140.018 188.806 140.729 187.827L146.002 180.57C146.713 179.591 146.858 178.308 146.377 177.196C146.137 176.632 145.676 175.178 146.642 173.85C147.607 172.521 149.132 172.51 149.743 172.564C150.949 172.678 152.124 172.144 152.836 171.165L158.108 163.908C158.82 162.929 158.965 161.646 158.484 160.534C158.243 159.97 157.783 158.516 158.748 157.188C159.714 155.859 161.238 155.848 161.849 155.902C163.055 156.016 164.231 155.482 164.942 154.503L170.215 147.246C170.926 146.267 171.071 144.984 170.59 143.872C170.35 143.308 169.889 141.854 170.855 140.526C171.82 139.197 173.345 139.186 173.956 139.24C175.162 139.354 176.337 138.82 177.048 137.841L182.321 130.584C183.033 129.605 183.177 128.322 182.697 127.21C182.456 126.646 181.995 125.192 182.961 123.864C183.926 122.535 185.451 122.524 186.062 122.578C187.268 122.692 188.443 122.158 189.155 121.179L194.428 113.922C195.139 112.943 195.284 111.66 194.803 110.548C194.562 109.984 194.102 108.53 195.067 107.201C196.033 105.873 197.557 105.862 198.168 105.916C199.374 106.03 200.55 105.496 201.261 104.517L203.898 100.888C208.349 94.7619 206.987 86.1604 200.86 81.7092L100.888 9.07091C94.762 4.61969 86.1605 5.98179 81.7092 12.108Z" fill="#5F37FF"/>
<path id="Vector_2" d="M196.825 87.2632C199.887 89.4879 200.568 93.791 198.343 96.8527L196.722 99.0846C190.926 99.6472 186.603 105.597 187.859 111.283L184.615 115.747C178.82 116.309 174.497 122.259 175.752 127.945L172.509 132.409C166.714 132.971 162.39 138.921 163.646 144.607L160.403 149.071C154.607 149.633 150.284 155.583 151.54 161.269L148.296 165.733C142.501 166.295 138.178 172.245 139.433 177.931L136.19 182.395C130.394 182.957 126.071 188.907 127.327 194.593L125.705 196.825C123.48 199.887 119.177 200.568 116.116 198.344L16.1434 125.705C13.0816 123.481 12.4002 119.177 14.6248 116.116L16.2465 113.884C22.0419 113.321 26.3651 107.371 25.1095 101.686L28.3529 97.2218C34.1483 96.6592 38.4715 90.7093 37.2159 85.0235L40.4593 80.5597C46.2547 79.9972 50.5779 74.0472 49.3223 68.3615L52.5656 63.8977C58.3611 63.3351 62.6842 57.3852 61.4287 51.6995L64.672 47.2356C70.4675 46.6731 74.7906 40.7231 73.5351 35.0374L76.7784 30.5736C82.5739 30.011 86.897 24.0611 85.6415 18.3754L87.2631 16.1435C89.4878 13.0817 93.7909 12.4003 96.8526 14.6249L196.825 87.2632Z" fill="#F632D2"/>
<path id="Vector_3" opacity="0.1" d="M190.012 90.7995L188.391 93.0314C182.595 93.594 178.272 99.544 179.528 105.23L176.284 109.693C170.489 110.256 166.166 116.206 167.421 121.892L164.178 126.356C158.383 126.918 154.059 132.868 155.315 138.554L152.072 143.018C146.276 143.58 141.953 149.53 143.209 155.216L139.965 159.68C134.17 160.242 129.847 166.192 131.102 171.878L127.859 176.342C122.063 176.904 117.74 182.854 118.996 188.54L117.374 190.772C115.15 193.834 110.846 194.515 107.785 192.29L116.116 198.344C119.177 200.568 123.481 199.887 125.705 196.825L127.327 194.593C126.071 188.907 130.394 182.957 136.19 182.395L139.433 177.931C138.178 172.245 142.501 166.295 148.296 165.733L151.54 161.269C150.284 155.583 154.607 149.633 160.403 149.071L163.646 144.607C162.39 138.921 166.714 132.971 172.509 132.409L175.752 127.945C174.497 122.259 178.82 116.309 184.615 115.747L187.859 111.283C186.603 105.597 190.926 99.6472 196.722 99.0846L198.343 96.8527C200.568 93.791 199.887 89.4879 196.825 87.2633L188.494 81.2101C191.556 83.4347 192.237 87.7378 190.012 90.7995Z" fill="white"/>
<path id="Vector_4" opacity="0.15" d="M149.528 137.759C167.079 113.603 161.725 79.7932 137.569 62.242C113.414 44.6908 79.6034 50.0448 62.0522 74.2006C44.501 98.3563 49.8551 132.166 74.0108 149.718C98.1666 167.269 131.977 161.915 149.528 137.759Z" fill="white"/>
<path id="Vector_5" opacity="0.15" d="M139.808 130.697C153.181 112.293 149.102 86.5325 130.697 73.1601C112.293 59.7878 86.5326 63.8671 73.1603 82.2714C59.7879 100.676 63.8672 126.436 82.2716 139.808C100.676 153.181 126.436 149.101 139.808 130.697Z" fill="white"/>
<path id="Vector_6" opacity="0.6" d="M62.052 74.2005C60.9367 75.7355 61.2763 77.88 62.8113 78.9953C64.3462 80.1105 66.4908 79.7709 67.606 78.236C83.1824 56.7982 113.295 52.0298 134.732 67.6061C156.17 83.1824 160.939 113.295 145.362 134.732C129.786 156.17 99.6736 160.939 78.2359 145.362C76.7009 144.247 74.5564 144.587 73.4411 146.122C72.3259 147.657 72.6655 149.801 74.2004 150.916C98.6999 168.717 133.115 163.267 150.916 138.768C168.717 114.268 163.267 79.8531 138.768 62.0521C114.268 44.2511 79.853 49.701 62.052 74.2005Z" fill="white"/>
<path id="Vector_7" opacity="0.6" d="M139.808 130.697C140.924 129.162 140.584 127.018 139.049 125.902C137.514 124.787 135.37 125.127 134.254 126.662C123.129 141.973 101.619 145.379 86.3071 134.254C70.9956 123.129 67.5892 101.618 78.7143 86.3069C89.8394 70.9954 111.35 67.589 126.662 78.7141C128.197 79.8294 130.341 79.4898 131.456 77.9549C132.572 76.4199 132.232 74.2754 130.697 73.1601C112.321 59.8084 86.512 63.8955 73.1603 82.2714C59.8086 100.647 63.8956 126.457 82.2716 139.808C100.648 153.16 126.457 149.073 139.808 130.697Z" fill="white"/>
</g>
</g>
<defs>
<filter id="filter0_d_1_1266" x="-4" y="0" width="220" height="220" filterUnits="userSpaceOnUse" color-interpolation-filters="sRGB">
<feFlood flood-opacity="0" result="BackgroundImageFix"/>
<feColorMatrix in="SourceAlpha" type="matrix" values="0 0 0 0 0 0 0 0 0 0 0 0 0 0 0 0 0 0 127 0" result="hardAlpha"/>
<feOffset dy="4"/>
<feGaussianBlur stdDeviation="2"/>
<feComposite in2="hardAlpha" operator="out"/>
<feColorMatrix type="matrix" values="0 0 0 0 0 0 0 0 0 0 0 0 0 0 0 0 0 0 0.25 0"/>
<feBlend mode="normal" in2="BackgroundImageFix" result="effect1_dropShadow_1_1266"/>
<feBlend mode="normal" in="SourceGraphic" in2="effect1_dropShadow_1_1266" result="shape"/>
</filter>
</defs>
</svg>
