<svg width="212" height="212" viewBox="0 0 212 212" fill="none" xmlns="http://www.w3.org/2000/svg">
<g filter="url(#filter0_d_1_1266)">
<path d="M185.5 8.83331H179.729C178.172 8.83331 176.727 9.65281 175.933 10.9942C175.528 11.6714 174.363 13.25 172.25 13.25C170.136 13.25 168.972 11.6714 168.566 10.9942C167.773 9.65281 166.328 8.83331 164.771 8.83331H153.229C151.672 8.83331 150.227 9.65281 149.433 10.9942C149.028 11.6714 147.863 13.25 145.75 13.25C143.636 13.25 142.472 11.6714 142.066 10.9942C141.273 9.65281 139.828 8.83331 138.271 8.83331H126.729C125.172 8.83331 123.727 9.65281 122.933 10.9942C122.528 11.6714 121.363 13.25 119.25 13.25C117.136 13.25 115.972 11.6714 115.566 10.9942C114.773 9.65281 113.328 8.83331 111.771 8.83331H100.229C98.6719 8.83331 97.227 9.65281 96.4333 10.9942C96.0279 11.6714 94.8634 13.25 92.7499 13.25C90.6365 13.25 89.4719 11.6714 89.0665 10.9942C88.2729 9.65281 86.828 8.83331 85.2709 8.83331H73.7289C72.1719 8.83331 70.727 9.65281 69.9333 10.9942C69.5279 11.6714 68.3634 13.25 66.2499 13.25C64.1365 13.25 62.9719 11.6714 62.5665 10.9942C61.7729 9.65281 60.328 8.83331 58.7709 8.83331H47.2289C45.6719 8.83331 44.227 9.65281 43.4333 10.9942C43.0279 11.6714 41.8634 13.25 39.7499 13.25C37.6365 13.25 36.4719 11.6714 36.0665 10.9942C35.2729 9.65281 33.828 8.83331 32.2709 8.83331H26.4999C16.7565 8.83331 8.83325 16.7566 8.83325 26.5V185.5C8.83325 195.243 16.7565 203.167 26.4999 203.167H32.2709C33.828 203.167 35.2729 202.347 36.0665 201.006C36.4719 200.329 37.6365 198.75 39.7499 198.75C41.8634 198.75 43.0279 200.329 43.4333 201.006C44.227 202.347 45.6719 203.167 47.2289 203.167H58.7709C60.328 203.167 61.7729 202.347 62.5665 201.006C62.9719 200.329 64.1365 198.75 66.2499 198.75C68.3634 198.75 69.5279 200.329 69.9333 201.006C70.727 202.347 72.1719 203.167 73.7289 203.167H85.2709C86.828 203.167 88.2729 202.347 89.0665 201.006C89.4719 200.329 90.6365 198.75 92.7499 198.75C94.8634 198.75 96.0279 200.329 96.4333 201.006C97.227 202.347 98.6719 203.167 100.229 203.167H111.771C113.328 203.167 114.773 202.347 115.566 201.006C115.972 200.329 117.136 198.75 119.25 198.75C121.363 198.75 122.528 200.329 122.933 201.006C123.727 202.347 125.172 203.167 126.729 203.167H138.271C139.828 203.167 141.273 202.347 142.066 201.006C142.472 200.329 143.636 198.75 145.75 198.75C147.863 198.75 149.028 200.329 149.433 201.006C150.227 202.347 151.672 203.167 153.229 203.167H164.771C166.328 203.167 167.773 202.347 168.566 201.006C168.972 200.329 170.136 198.75 172.25 198.75C174.363 198.75 175.528 200.329 175.933 201.006C176.727 202.347 178.172 203.167 179.729 203.167H185.5C195.243 203.167 203.167 195.243 203.167 185.5V26.5C203.167 16.7566 195.243 8.83331 185.5 8.83331Z" fill="#5F37FF"/>
<path d="M194.333 185.5C194.333 190.37 190.369 194.333 185.5 194.333H181.95C176.981 188.726 167.518 188.726 162.55 194.333H155.45C150.481 188.726 141.018 188.726 136.05 194.333H128.95C123.981 188.726 114.518 188.726 109.55 194.333H102.45C97.4814 188.726 88.0183 188.726 83.0496 194.333H75.9501C70.9814 188.726 61.5183 188.726 56.5496 194.333H49.4501C44.4814 188.726 35.0183 188.726 30.0496 194.333H26.4998C21.6303 194.333 17.6665 190.37 17.6665 185.5V26.5C17.6665 21.6304 21.6303 17.6666 26.4998 17.6666H30.0496C35.0183 23.2737 44.4814 23.2737 49.4501 17.6666H56.5496C61.5183 23.2737 70.9814 23.2737 75.9501 17.6666H83.0496C88.0183 23.2737 97.4814 23.2737 102.45 17.6666H109.55C114.518 23.2737 123.981 23.2737 128.95 17.6666H136.05C141.018 23.2737 150.481 23.2737 155.45 17.6666H162.55C167.518 23.2737 176.981 23.2737 181.95 17.6666H185.5C190.369 17.6666 194.333 21.6304 194.333 26.5V185.5Z" fill="#F632D2"/>
<path opacity="0.1" d="M185.5 181.083H181.95C176.981 175.476 167.518 175.476 162.55 181.083H155.45C150.481 175.476 141.018 175.476 136.05 181.083H128.95C123.981 175.476 114.518 175.476 109.55 181.083H102.45C97.4814 175.476 88.0183 175.476 83.0496 181.083H75.9501C70.9814 175.476 61.5183 175.476 56.5496 181.083H49.4501C44.4814 175.476 35.0183 175.476 30.0496 181.083H26.4998C21.6303 181.083 17.6665 177.12 17.6665 172.25V185.5C17.6665 190.37 21.6303 194.333 26.4998 194.333H30.0496C35.0183 188.726 44.4814 188.726 49.4501 194.333H56.5496C61.5183 188.726 70.9814 188.726 75.9501 194.333H83.0496C88.0183 188.726 97.4814 188.726 102.45 194.333H109.55C114.518 188.726 123.981 188.726 128.95 194.333H136.05C141.018 188.726 150.481 188.726 155.45 194.333H162.55C167.518 188.726 176.981 188.726 181.95 194.333H185.5C190.369 194.333 194.333 190.37 194.333 185.5V172.25C194.333 177.12 190.369 181.083 185.5 181.083Z" fill="white"/>
<path opacity="0.15" d="M106 174.458C144.418 174.458 175.562 143.314 175.562 104.896C175.562 66.4775 144.418 35.3333 106 35.3333C67.5817 35.3333 36.4375 66.4775 36.4375 104.896C36.4375 143.314 67.5817 174.458 106 174.458Z" fill="white"/>
<path opacity="0.15" d="M106 159C135.271 159 159 135.271 159 106C159 76.7289 135.271 53 106 53C76.7289 53 53 76.7289 53 106C53 135.271 76.7289 159 106 159Z" fill="white"/>
<path opacity="0.6" d="M106 35.3333C103.559 35.3333 101.583 37.3087 101.583 39.75C101.583 42.1912 103.559 44.1666 106 44.1666C140.095 44.1666 167.833 71.9045 167.833 106C167.833 140.095 140.095 167.833 106 167.833C71.9045 167.833 44.1666 140.095 44.1666 106C44.1666 103.559 42.1912 101.583 39.7499 101.583C37.3087 101.583 35.3333 103.559 35.3333 106C35.3333 144.965 67.0349 176.667 106 176.667C144.965 176.667 176.667 144.965 176.667 106C176.667 67.035 144.965 35.3333 106 35.3333Z" fill="white"/>
<path opacity="0.6" d="M106 159C108.441 159 110.417 157.025 110.417 154.583C110.417 152.142 108.441 150.167 106 150.167C81.6479 150.167 61.8333 130.352 61.8333 106C61.8333 81.6479 81.6479 61.8333 106 61.8333C130.352 61.8333 150.167 81.6479 150.167 106C150.167 108.441 152.142 110.417 154.583 110.417C157.025 110.417 159 108.441 159 106C159 76.7741 135.226 53 106 53C76.7741 53 53 76.7741 53 106C53 135.226 76.7741 159 106 159Z" fill="white"/>
</g>
<defs>
<filter id="filter0_d_1_1266" x="-4" y="0" width="220" height="220" filterUnits="userSpaceOnUse" color-interpolation-filters="sRGB">
<feFlood flood-opacity="0" result="BackgroundImageFix"/>
<feColorMatrix in="SourceAlpha" type="matrix" values="0 0 0 0 0 0 0 0 0 0 0 0 0 0 0 0 0 0 127 0" result="hardAlpha"/>
<feOffset dy="4"/>
<feGaussianBlur stdDeviation="2"/>
<feComposite in2="hardAlpha" operator="out"/>
<feColorMatrix type="matrix" values="0 0 0 0 0 0 0 0 0 0 0 0 0 0 0 0 0 0 0.25 0"/>
<feBlend mode="normal" in2="BackgroundImageFix" result="effect1_dropShadow_1_1266"/>
<feBlend mode="normal" in="SourceGraphic" in2="effect1_dropShadow_1_1266" result="shape"/>
</filter>
</defs>
</svg>
