<?xml version="1.0" ?><svg viewBox="0 0 2050 2050" xmlns="http://www.w3.org/2000/svg"><defs><style>.cls-1{fill:#ffbfbf;}.cls-2{fill:#8c0a64;}.cls-3{fill:#ff5b24;}</style></defs><title/><g data-name="Layer 3" id="Layer_3"><path class="cls-1" d="M791.1,1306.2,757,1535.7s72.1,87.3,76.5,78.8S855,1306.2,855,1306.2Z"/><path class="cls-1" d="M1544.5,778.3l-27.7,2.3L1228.7,804l69.1,69.2L1586,849.7l27.7-2.2C1605.2,816,1573.8,797.4,1544.5,778.3Z"/><path class="cls-2" d="M1642.6,839.7c-10.9-40.8-45.9-63.3-76.7-83.2-18.5-12-36-23.3-43.8-35.6s-12.1-35-15.6-57.6c-4.9-31.9-10.5-68-35-93.1s-61.9-32.2-94.3-37.8c-21.9-3.8-42.7-7.4-55.8-15.8s-23.7-25-35.9-43c-20.5-30.6-43.7-65.2-84.9-75.1a30.3,30.3,0,0,0-24.6,4.9,29.8,29.8,0,0,0-12.3,21.8l-2.2,27.5-20.8,255.7c20.1,2.9,40.2,5.8,59.1,13.4l17.2-211h0l2.2-27.4c5.5,7.2,11,15.4,16.5,23.6,15,22.3,30.5,45.4,53.2,60s51.2,19.9,78.1,24.5,49.9,8.6,61.5,20.5,15,36.4,18.7,60.5c4.3,27.7,8.8,56.4,24.3,80.7s38.8,38.7,61.9,53.7c7.9,5.1,15.6,10.1,22.7,15.2l-246.9,20.1-8.1-8.2a86.3,86.3,0,0,0,5.8,9.5c3.4,4.5,7.2,8.7,10.7,13.2a111.4,111.4,0,0,1,17,30.5c1.6,4.2,2.9,8.5,4.2,12.8l277.3-22.6a29.9,29.9,0,0,0,26.5-37.7Z"/><path class="cls-3" d="M1234.8,775.5a29.3,29.3,0,0,1-13.4-3.2,30,30,0,0,1-13.5-40.2l32.8-65.8a30,30,0,1,1,53.7,26.7l-32.8,65.9A29.9,29.9,0,0,1,1234.8,775.5Z"/><path class="cls-3" d="M1291.3,831.9a30,30,0,0,1-13.4-56.8l65.8-32.8a30,30,0,0,1,26.7,53.7l-65.8,32.8A30.1,30.1,0,0,1,1291.3,831.9Z"/><path class="cls-2" d="M838.8,1652.3a28.6,28.6,0,0,1-7.7-1c-40.8-11-63.4-45.9-83.3-76.7-11.9-18.6-23.2-36.1-35.5-43.9s-35-12-57.7-15.5c-31.8-5-68-10.6-93.1-35.1s-32.2-61.9-37.7-94.2c-3.8-22-7.4-42.8-15.9-55.9s-24.9-23.7-43-35.8c-30.5-20.5-65.2-43.8-75-84.9a30,30,0,0,1,26.7-36.9l80.7-6.6,234.9-19.1a30,30,0,0,1,23.7,8.7l129.9,129.9a29.7,29.7,0,0,1,8.6,23.6l-25.7,315.8a30,30,0,0,1-29.9,27.6Zm-364-424.5c7.2,5.6,15.3,11,23.6,16.6,22.3,14.9,45.3,30.4,60,53.1s19.8,51.3,24.5,78.2,8.6,49.9,20.5,61.5,36.3,14.9,60.4,18.7c27.8,4.3,56.5,8.7,80.8,24.2s38.7,38.8,53.6,61.9c5.1,7.9,10.1,15.7,15.2,22.7l20.1-246.8L723.2,1207.6l-221.1,18h0Zm24.9-32.1Z"/><path class="cls-1" d="M1318.8,876.6a337.1,337.1,0,0,1-98.1,264c-131.9,131.9-345.8,131.9-477.8,0a337.2,337.2,0,0,1-65.8-92.9,336.7,336.7,0,0,0,98,213.9c132,131.9,345.9,131.9,477.8,0C1357.1,1157.4,1379,1002.3,1318.8,876.6Z"/><path class="cls-3" d="M1014,1390.5a367.9,367.9,0,1,1,260.1-627.9h0A367.7,367.7,0,0,1,1014,1390.5Zm0-675.7A308,308,0,1,0,1231.7,805,305.8,305.8,0,0,0,1014,714.8Z"/><path class="cls-3" d="M671,1306.2a30,30,0,0,1-13.4-56.8l65.9-32.8a30,30,0,1,1,26.7,53.7l-65.8,32.8A30.5,30.5,0,0,1,671,1306.2Z"/><path class="cls-3" d="M760.5,1395.7a30.5,30.5,0,0,1-13.4-3.1,30.2,30.2,0,0,1-13.5-40.3l32.8-65.8a30,30,0,1,1,53.7,26.8l-32.7,65.8A30.2,30.2,0,0,1,760.5,1395.7Z"/><ellipse class="cls-1" cx="1045.8" cy="1213.4" rx="96" ry="47.9" transform="translate(-194.8 200) rotate(-10)"/><ellipse class="cls-1" cx="1145.6" cy="1146.6" rx="36.1" ry="19"/><ellipse class="cls-1" cx="1061.1" cy="1137.5" rx="20.4" ry="10.7"/></g></svg>