<svg width="605" height="325" viewBox="0 0 605 325" fill="none" xmlns="http://www.w3.org/2000/svg">
<g filter="url(#filter0_d_1_64)">
<rect x="58" y="24" width="481" height="201" rx="25" fill="#38C558"/>
<rect x="58" y="24" width="481" height="201" rx="25" fill="url(#paint0_radial_1_64)" fill-opacity="0.7"/>
<g filter="url(#filter1_d_1_64)">
<path d="M211.781 87.8828C211.358 88.9245 210.984 90.1126 210.658 91.4473C210.365 92.7819 210.089 94.1816 209.828 95.6465C209.6 97.1113 209.389 98.6087 209.193 100.139C209.031 101.669 208.9 103.15 208.803 104.582C208.542 107.967 208.38 111.467 208.314 115.08C208.314 117.326 208.298 119.702 208.266 122.209C208.266 124.715 208.168 127.271 207.973 129.875C207.81 132.479 207.501 135.067 207.045 137.639C206.622 140.178 205.954 142.619 205.043 144.963C204.164 147.307 203.008 149.488 201.576 151.506C200.176 153.492 198.402 155.233 196.254 156.73C194.105 158.195 191.55 159.335 188.588 160.148C185.658 160.995 182.224 161.418 178.285 161.418C174.835 161.418 171.758 160.848 169.057 159.709C166.387 158.57 164.125 157.056 162.27 155.168C160.414 153.28 158.998 151.099 158.021 148.625C157.077 146.151 156.605 143.579 156.605 140.91C156.605 138.469 156.996 136.288 157.777 134.367C158.559 132.447 159.584 130.835 160.854 129.533C162.123 128.199 163.572 127.189 165.199 126.506C166.827 125.822 168.487 125.48 170.18 125.48C172.556 125.48 174.786 126.18 176.869 127.58C178.985 128.98 180.596 131.112 181.703 133.977C181.312 133.618 180.873 133.358 180.385 133.195C179.929 133 179.506 132.902 179.115 132.902C178.562 132.902 178.025 133.033 177.504 133.293C176.983 133.521 176.527 133.863 176.137 134.318C175.746 134.742 175.421 135.246 175.16 135.832C174.932 136.385 174.818 137.004 174.818 137.688C174.818 138.469 174.949 139.185 175.209 139.836C175.502 140.454 175.893 140.992 176.381 141.447C176.869 141.87 177.423 142.212 178.041 142.473C178.692 142.701 179.376 142.814 180.092 142.814C181.589 142.814 182.842 142.44 183.852 141.691C184.893 140.91 185.723 139.738 186.342 138.176C186.96 136.613 187.4 134.644 187.66 132.268C187.953 129.891 188.1 127.076 188.1 123.82C188.1 121.639 188.051 119.344 187.953 116.936C187.888 114.494 187.774 112.053 187.611 109.611C187.449 107.17 187.237 104.794 186.977 102.482C186.716 100.139 186.391 97.9577 186 95.9395C185.642 93.8887 185.235 92.0495 184.779 90.4219C184.324 88.7943 183.803 87.4922 183.217 86.5156C184.389 86.9388 185.788 87.3132 187.416 87.6387C188.816 87.8991 190.557 88.1432 192.641 88.3711C194.724 88.599 197.149 88.7129 199.916 88.7129C201.674 88.7129 203.529 88.6641 205.482 88.5664C207.436 88.4362 209.535 88.2083 211.781 87.8828ZM269.252 125.285C269.252 130.233 268.699 134.888 267.592 139.25C266.485 143.579 264.809 147.372 262.562 150.627C260.316 153.85 257.468 156.389 254.018 158.244C250.6 160.132 246.547 161.076 241.859 161.076C237.204 161.076 233.152 160.132 229.701 158.244C226.283 156.389 223.435 153.85 221.156 150.627C218.91 147.372 217.234 143.579 216.127 139.25C215.02 134.888 214.467 130.233 214.467 125.285C214.467 121.639 214.809 118.124 215.492 114.738C216.176 111.353 217.12 108.195 218.324 105.266C219.529 102.336 220.977 99.6667 222.67 97.2578C224.363 94.849 226.218 92.7982 228.236 91.1055C230.287 89.3802 232.452 88.0456 234.73 87.1016C237.042 86.1576 239.418 85.6855 241.859 85.6855C245.961 85.6855 249.688 86.6947 253.041 88.7129C256.426 90.6986 259.307 93.4655 261.684 97.0137C264.092 100.562 265.948 104.745 267.25 109.562C268.585 114.38 269.252 119.621 269.252 125.285ZM249.281 121.086C249.281 118.645 249.086 116.398 248.695 114.348C248.305 112.264 247.768 110.474 247.084 108.977C246.433 107.447 245.652 106.258 244.74 105.412C243.829 104.533 242.868 104.094 241.859 104.094C240.883 104.094 239.955 104.615 239.076 105.656C238.197 106.665 237.416 107.984 236.732 109.611C236.081 111.239 235.561 113.062 235.17 115.08C234.779 117.098 234.584 119.1 234.584 121.086C234.584 123.007 234.747 124.797 235.072 126.457C235.43 128.085 235.919 129.501 236.537 130.705C237.156 131.91 237.904 132.87 238.783 133.586C239.695 134.27 240.72 134.611 241.859 134.611C242.966 134.611 243.975 134.27 244.887 133.586C245.831 132.87 246.612 131.91 247.23 130.705C247.882 129.501 248.386 128.085 248.744 126.457C249.102 124.797 249.281 123.007 249.281 121.086ZM328.334 87.5898C327.585 91.3333 326.983 95.8255 326.527 101.066C326.072 106.307 325.844 111.923 325.844 117.912C325.844 118.758 325.844 119.589 325.844 120.402C325.876 121.184 325.909 121.997 325.941 122.844C325.974 123.69 325.99 124.569 325.99 125.48C326.023 126.392 326.039 127.368 326.039 128.41C326.039 130.591 325.941 132.919 325.746 135.393C325.583 137.867 325.193 140.324 324.574 142.766C323.956 145.207 323.077 147.567 321.938 149.846C320.798 152.092 319.268 154.077 317.348 155.803C315.46 157.495 313.116 158.846 310.316 159.855C307.517 160.897 304.164 161.418 300.258 161.418C296.579 161.418 293.406 160.995 290.736 160.148C288.1 159.335 285.854 158.212 283.998 156.779C282.175 155.314 280.694 153.605 279.555 151.652C278.415 149.699 277.536 147.6 276.918 145.354C276.299 143.075 275.876 140.715 275.648 138.273C275.453 135.832 275.355 133.407 275.355 130.998C275.355 129.924 275.355 129.029 275.355 128.312C275.388 127.564 275.421 126.896 275.453 126.311C275.486 125.692 275.518 125.074 275.551 124.455C275.583 123.837 275.616 123.104 275.648 122.258C275.681 121.411 275.697 120.386 275.697 119.182C275.73 117.977 275.746 116.48 275.746 114.689C275.746 112.508 275.697 110.035 275.6 107.268C275.535 104.501 275.372 101.783 275.111 99.1133C274.851 96.4115 274.477 93.9538 273.988 91.7402C273.533 89.4941 272.914 87.8177 272.133 86.7109C275.421 87.2969 278.497 87.6875 281.361 87.8828C284.258 88.0781 286.928 88.1758 289.369 88.1758C290.932 88.1758 292.348 88.1432 293.617 88.0781C294.887 88.013 295.977 87.9479 296.889 87.8828C297.963 87.7852 298.891 87.6875 299.672 87.5898C299.249 89.6081 298.826 91.8704 298.402 94.377C297.979 96.8835 297.605 99.569 297.279 102.434C296.954 105.298 296.677 108.309 296.449 111.467C296.254 114.624 296.156 117.831 296.156 121.086C296.156 125.155 296.221 128.459 296.352 130.998C296.514 133.537 296.758 135.523 297.084 136.955C297.41 138.355 297.833 139.315 298.354 139.836C298.874 140.357 299.509 140.617 300.258 140.617C301.267 140.617 302.113 140.308 302.797 139.689C303.513 139.038 304.099 137.964 304.555 136.467C305.043 134.937 305.385 132.935 305.58 130.461C305.808 127.987 305.938 124.895 305.971 121.184C305.906 115.878 305.743 110.93 305.482 106.34C305.385 104.387 305.238 102.417 305.043 100.432C304.88 98.446 304.669 96.5742 304.408 94.8164C304.18 93.0586 303.904 91.4798 303.578 90.0801C303.253 88.6478 302.878 87.5247 302.455 86.7109C305.71 87.2969 308.721 87.6875 311.488 87.8828C314.255 88.0781 316.745 88.1758 318.959 88.1758C320.424 88.1758 321.726 88.1432 322.865 88.0781C324.037 88.013 325.03 87.9479 325.844 87.8828C326.788 87.7852 327.618 87.6875 328.334 87.5898ZM378.432 158.684C376.739 158.358 374.997 158.114 373.207 157.951C371.449 157.756 369.577 157.609 367.592 157.512C365.639 157.414 363.539 157.365 361.293 157.365C359.079 157.333 356.671 157.316 354.066 157.316C352.829 157.316 351.348 157.333 349.623 157.365C347.93 157.398 346.091 157.479 344.105 157.609C342.152 157.74 340.134 157.919 338.051 158.146C335.967 158.407 333.933 158.732 331.947 159.123C332.663 157.658 333.282 155.819 333.803 153.605C334.324 151.359 334.747 148.983 335.072 146.477C335.43 143.97 335.707 141.415 335.902 138.811C336.098 136.206 336.244 133.781 336.342 131.535C336.439 129.289 336.488 127.352 336.488 125.725C336.521 124.064 336.537 122.925 336.537 122.307C336.537 122.176 336.521 121.672 336.488 120.793C336.488 119.914 336.472 118.775 336.439 117.375C336.407 115.975 336.358 114.38 336.293 112.59C336.228 110.767 336.13 108.879 336 106.926C335.902 104.973 335.756 103.003 335.561 101.018C335.398 99.0319 335.186 97.1602 334.926 95.4023C334.698 93.612 334.421 92.0169 334.096 90.6172C333.803 89.1849 333.445 88.0456 333.021 87.1992C336.212 87.6549 339.353 87.9967 342.445 88.2246C345.538 88.4199 348.533 88.5176 351.43 88.5176C354.978 88.5176 358.298 88.4199 361.391 88.2246C364.483 88.0293 367.185 87.8014 369.496 87.541C372.198 87.248 374.656 86.9062 376.869 86.5156V109.416C374.981 107.658 373.174 106.307 371.449 105.363C369.724 104.419 368.194 103.719 366.859 103.264C365.297 102.743 363.832 102.45 362.465 102.385C360.837 102.385 359.503 102.596 358.461 103.02C357.452 103.41 356.654 103.931 356.068 104.582C355.515 105.201 355.141 105.917 354.945 106.73C354.75 107.512 354.652 108.309 354.652 109.123C354.652 109.969 354.766 110.816 354.994 111.662C355.255 112.508 355.645 113.273 356.166 113.957C356.687 114.641 357.354 115.21 358.168 115.666C359.014 116.089 360.007 116.301 361.146 116.301C362.09 116.301 362.953 116.089 363.734 115.666C364.516 115.21 365.183 114.706 365.736 114.152C366.387 113.534 366.99 112.818 367.543 112.004V131.877C367.022 130.64 366.404 129.663 365.688 128.947C365.004 128.231 364.32 127.71 363.637 127.385C362.986 127.027 362.383 126.815 361.83 126.75C361.309 126.652 360.951 126.604 360.756 126.604C358.64 126.604 357.061 127.255 356.02 128.557C354.978 129.859 354.457 131.535 354.457 133.586C354.457 135.083 354.62 136.353 354.945 137.395C355.303 138.436 355.759 139.283 356.312 139.934C356.898 140.585 357.566 141.057 358.314 141.35C359.096 141.643 359.91 141.789 360.756 141.789C362.058 141.789 363.458 141.496 364.955 140.91C366.452 140.324 367.885 139.543 369.252 138.566C370.652 137.59 371.921 136.483 373.061 135.246C374.232 133.977 375.16 132.691 375.844 131.389L378.432 158.684ZM440.053 158.781C437.937 158.618 435.951 158.505 434.096 158.439C432.273 158.407 430.58 158.391 429.018 158.391C425.958 158.391 423.402 158.472 421.352 158.635C419.301 158.83 417.624 159.025 416.322 159.221C414.792 159.449 413.572 159.709 412.66 160.002C412.79 158.993 412.921 158.049 413.051 157.17C413.181 156.291 413.279 155.445 413.344 154.631C413.441 153.785 413.507 152.954 413.539 152.141C413.604 151.294 413.637 150.415 413.637 149.504C413.637 145.923 413.49 142.945 413.197 140.568C412.937 138.192 412.546 136.206 412.025 134.611C411.505 133.016 410.87 131.73 410.121 130.754C409.372 129.777 408.542 128.898 407.631 128.117C407.566 129.582 407.517 130.998 407.484 132.365C407.452 133.732 407.436 135.181 407.436 136.711C407.436 138.208 407.468 139.771 407.533 141.398C407.598 143.026 407.712 144.751 407.875 146.574C408.038 148.397 408.282 150.35 408.607 152.434C408.933 154.484 409.34 156.714 409.828 159.123C409.796 158.993 409.372 158.846 408.559 158.684C407.745 158.521 406.654 158.374 405.287 158.244C403.92 158.114 402.341 158.016 400.551 157.951C398.793 157.854 396.954 157.805 395.033 157.805C392.527 157.805 390.02 157.886 387.514 158.049C385.007 158.244 382.745 158.602 380.727 159.123C381.508 158.114 382.208 156.844 382.826 155.314C383.477 153.752 384.047 152.043 384.535 150.188C385.023 148.332 385.43 146.379 385.756 144.328C386.114 142.277 386.423 140.259 386.684 138.273C387.27 133.618 387.66 128.654 387.855 123.381C387.855 122.079 387.855 120.435 387.855 118.449C387.888 116.464 387.855 114.299 387.758 111.955C387.693 109.611 387.562 107.202 387.367 104.729C387.204 102.255 386.911 99.8783 386.488 97.5996C386.098 95.321 385.577 93.2376 384.926 91.3496C384.275 89.4616 383.445 87.9479 382.436 86.8086C384.779 87.1667 387.058 87.4108 389.271 87.541C391.485 87.6387 393.373 87.6875 394.936 87.6875C396.303 87.6875 397.556 87.6549 398.695 87.5898C399.867 87.5247 401.023 87.4596 402.162 87.3945C403.301 87.3294 404.49 87.2643 405.727 87.1992C406.964 87.1341 408.331 87.1016 409.828 87.1016C411.879 87.1016 413.946 87.2155 416.029 87.4434C418.113 87.6387 420.098 88.013 421.986 88.5664C423.907 89.0872 425.681 89.8197 427.309 90.7637C428.969 91.6751 430.401 92.847 431.605 94.2793C432.842 95.679 433.803 97.3717 434.486 99.3574C435.202 101.343 435.561 103.654 435.561 106.291C435.561 107.756 435.365 109.221 434.975 110.686C434.617 112.15 434.014 113.599 433.168 115.031C432.322 116.431 431.215 117.782 429.848 119.084C428.513 120.354 426.869 121.525 424.916 122.6C427.227 123.544 428.969 124.715 430.141 126.115C431.345 127.515 432.208 129.11 432.729 130.9C433.249 132.691 433.526 134.644 433.559 136.76C433.624 138.843 433.689 141.024 433.754 143.303C433.884 145.744 434.193 148.007 434.682 150.09C434.877 150.969 435.121 151.864 435.414 152.775C435.74 153.687 436.114 154.533 436.537 155.314C436.993 156.096 437.497 156.796 438.051 157.414C438.637 158.033 439.304 158.488 440.053 158.781ZM407.631 116.691C408.347 116.171 409.145 115.52 410.023 114.738C410.935 113.924 411.765 113.046 412.514 112.102C413.295 111.125 413.946 110.1 414.467 109.025C414.988 107.951 415.248 106.877 415.248 105.803C415.248 104.761 414.939 103.915 414.32 103.264C413.734 102.613 413.067 102.287 412.318 102.287C411.277 102.287 410.447 102.775 409.828 103.752C409.21 104.696 408.721 105.819 408.363 107.121C408.038 108.423 407.81 109.742 407.68 111.076C407.582 112.378 407.533 113.387 407.533 114.104C407.533 114.494 407.533 114.917 407.533 115.373C407.533 115.796 407.566 116.236 407.631 116.691Z" fill="white" fill-opacity="0.85"/>
</g>
</g>
<defs>
<filter id="filter0_d_1_64" x="0" y="0" width="605" height="325" filterUnits="userSpaceOnUse" color-interpolation-filters="sRGB">
<feFlood flood-opacity="0" result="BackgroundImageFix"/>
<feColorMatrix in="SourceAlpha" type="matrix" values="0 0 0 0 0 0 0 0 0 0 0 0 0 0 0 0 0 0 127 0" result="hardAlpha"/>
<feOffset dx="4" dy="38"/>
<feGaussianBlur stdDeviation="31"/>
<feColorMatrix type="matrix" values="0 0 0 0 0 0 0 0 0 0 0 0 0 0 0 0 0 0 0.5 0"/>
<feBlend mode="normal" in2="BackgroundImageFix" result="effect1_dropShadow_1_64"/>
<feBlend mode="normal" in="SourceGraphic" in2="effect1_dropShadow_1_64" result="shape"/>
</filter>
<filter id="filter1_d_1_64" x="156.605" y="85.6855" width="285.447" height="77.7324" filterUnits="userSpaceOnUse" color-interpolation-filters="sRGB">
<feFlood flood-opacity="0" result="BackgroundImageFix"/>
<feColorMatrix in="SourceAlpha" type="matrix" values="0 0 0 0 0 0 0 0 0 0 0 0 0 0 0 0 0 0 127 0" result="hardAlpha"/>
<feOffset dx="1" dy="1"/>
<feGaussianBlur stdDeviation="0.5"/>
<feColorMatrix type="matrix" values="0 0 0 0 0 0 0 0 0 0 0 0 0 0 0 0 0 0 0.25 0"/>
<feBlend mode="normal" in2="BackgroundImageFix" result="effect1_dropShadow_1_64"/>
<feBlend mode="normal" in="SourceGraphic" in2="effect1_dropShadow_1_64" result="shape"/>
</filter>
<radialGradient id="paint0_radial_1_64" cx="0" cy="0" r="1" gradientUnits="userSpaceOnUse" gradientTransform="translate(211.762 63.541) rotate(31.7485) scale(241.092 232.595)">
<stop stop-color="white"/>
<stop offset="0.697917" stop-color="white" stop-opacity="0"/>
<stop offset="1" stop-color="white" stop-opacity="0"/>
</radialGradient>
</defs>
</svg>
