<svg width="318" height="318" viewBox="0 0 318 318" fill="none" xmlns="http://www.w3.org/2000/svg">
<path d="M137.007 297.946C106.899 308.608 74.2373 292.565 63.773 263.015C48.7676 220.641 71.0585 202.08 94.4646 183.124C106.627 173.17 119.904 162.822 129.533 147.49C137.003 136.687 142.764 124.608 148.329 111.97C155.496 95.0001 161.851 84.5928 162.733 81.7703C163.256 79.7028 175.383 67.8787 176.893 68.5989C176.893 68.5989 197.546 52.5007 218.489 62.0263C239.431 71.5519 244.843 101.009 245.435 102.682C260.393 162.642 216.738 269.712 137.007 297.946Z" fill="#4A148C"/>
<path d="M223.022 3.9488L238.122 11.1511C238.122 11.1511 233.358 36.6818 227.666 52.5019C239.026 59.7737 254.427 73.1438 252.985 106.283C240.092 107.084 220.811 86.3028 220.811 86.3028C220.811 86.3028 220.7 84.7095 200.5 95C191.522 74.9628 192.586 77.4738 192.586 77.4738C192.586 77.4738 167.728 88.7863 157.158 83.7447C157.158 83.7447 162.305 48.666 206.99 47.274C218.653 30.5946 223.022 3.9488 223.022 3.9488Z" fill="#4CAF50"/>
<path d="M85.483 253.445C85.483 253.445 75.2272 235.115 101.514 210.119C127.801 185.124 159.141 160.221 174.58 115.224" stroke="#9575CD" stroke-width="22" stroke-miterlimit="10" stroke-linecap="round"/>
<path d="M63.9035 263.384C74.2965 292.732 107.191 308.504 137.666 297.713C214.387 267.825 247.054 185.207 249 128.5C218.667 120.833 153.7 102 152.5 102C146.368 114.882 138 134.395 131 145.5C114.235 170.12 99.0193 176.688 83.4997 191C67.9801 205.312 48.7619 216.948 63.9035 263.384Z" fill="#DE51B6" fill-opacity="0.65"/>
<path d="M152 104L251 129" stroke="#DE51B6" stroke-width="15" stroke-linecap="round" stroke-linejoin="round"/>
</svg>
