<svg width="481" height="201" viewBox="0 0 481 201" fill="none" xmlns="http://www.w3.org/2000/svg">
<rect width="481" height="201" rx="25" fill="#38C558"/>
<rect width="481" height="201" rx="25" fill="url(#paint0_radial_34_31)" fill-opacity="0.7"/>
<g filter="url(#filter0_d_34_31)">
<path d="M129.172 134.781C127.056 134.618 125.07 134.505 123.215 134.439C121.392 134.407 119.699 134.391 118.137 134.391C115.077 134.391 112.521 134.472 110.471 134.635C108.42 134.83 106.743 135.025 105.441 135.221C103.911 135.449 102.691 135.709 101.779 136.002C101.91 134.993 102.04 134.049 102.17 133.17C102.3 132.291 102.398 131.445 102.463 130.631C102.561 129.785 102.626 128.954 102.658 128.141C102.723 127.294 102.756 126.415 102.756 125.504C102.756 121.923 102.609 118.945 102.316 116.568C102.056 114.192 101.665 112.206 101.145 110.611C100.624 109.016 99.9889 107.73 99.2402 106.754C98.4915 105.777 97.6615 104.898 96.75 104.117C96.6849 105.582 96.6361 106.998 96.6035 108.365C96.571 109.732 96.5547 111.181 96.5547 112.711C96.5547 114.208 96.5872 115.771 96.6523 117.398C96.7174 119.026 96.8314 120.751 96.9941 122.574C97.1569 124.397 97.401 126.35 97.7266 128.434C98.0521 130.484 98.459 132.714 98.9473 135.123C98.9147 134.993 98.4915 134.846 97.6777 134.684C96.8639 134.521 95.7734 134.374 94.4062 134.244C93.0391 134.114 91.4603 134.016 89.6699 133.951C87.9121 133.854 86.0729 133.805 84.1523 133.805C81.6458 133.805 79.1393 133.886 76.6328 134.049C74.1263 134.244 71.8639 134.602 69.8457 135.123C70.627 134.114 71.3268 132.844 71.9453 131.314C72.5964 129.752 73.166 128.043 73.6543 126.188C74.1426 124.332 74.5495 122.379 74.875 120.328C75.2331 118.277 75.5423 116.259 75.8027 114.273C76.3887 109.618 76.7793 104.654 76.9746 99.3809C76.9746 98.0788 76.9746 96.4349 76.9746 94.4492C77.0072 92.4635 76.9746 90.2988 76.877 87.9551C76.8118 85.6113 76.6816 83.2025 76.4863 80.7285C76.3236 78.2546 76.0306 75.8783 75.6074 73.5996C75.2168 71.321 74.696 69.2376 74.0449 67.3496C73.3939 65.4616 72.5638 63.9479 71.5547 62.8086C73.8984 63.1667 76.1771 63.4108 78.3906 63.541C80.6042 63.6387 82.4922 63.6875 84.0547 63.6875C85.4219 63.6875 86.6751 63.6549 87.8145 63.5898C88.9863 63.5247 90.1419 63.4596 91.2812 63.3945C92.4206 63.3294 93.6087 63.2643 94.8457 63.1992C96.0827 63.1341 97.4499 63.1016 98.9473 63.1016C100.998 63.1016 103.065 63.2155 105.148 63.4434C107.232 63.6387 109.217 64.013 111.105 64.5664C113.026 65.0872 114.8 65.8197 116.428 66.7637C118.088 67.6751 119.52 68.847 120.725 70.2793C121.962 71.679 122.922 73.3717 123.605 75.3574C124.322 77.3431 124.68 79.6543 124.68 82.291C124.68 83.7559 124.484 85.2207 124.094 86.6855C123.736 88.1504 123.133 89.599 122.287 91.0312C121.441 92.431 120.334 93.7819 118.967 95.084C117.632 96.3535 115.988 97.5254 114.035 98.5996C116.346 99.5436 118.088 100.715 119.26 102.115C120.464 103.515 121.327 105.11 121.848 106.9C122.368 108.691 122.645 110.644 122.678 112.76C122.743 114.843 122.808 117.024 122.873 119.303C123.003 121.744 123.312 124.007 123.801 126.09C123.996 126.969 124.24 127.864 124.533 128.775C124.859 129.687 125.233 130.533 125.656 131.314C126.112 132.096 126.617 132.796 127.17 133.414C127.756 134.033 128.423 134.488 129.172 134.781ZM96.75 92.6914C97.4661 92.1706 98.2637 91.5195 99.1426 90.7383C100.054 89.9245 100.884 89.0456 101.633 88.1016C102.414 87.125 103.065 86.0996 103.586 85.0254C104.107 83.9512 104.367 82.877 104.367 81.8027C104.367 80.7611 104.058 79.9147 103.439 79.2637C102.854 78.6126 102.186 78.2871 101.438 78.2871C100.396 78.2871 99.5658 78.7754 98.9473 79.752C98.3288 80.696 97.8405 81.819 97.4824 83.1211C97.1569 84.4232 96.929 85.7415 96.7988 87.0762C96.7012 88.3783 96.6523 89.3874 96.6523 90.1035C96.6523 90.4941 96.6523 90.9173 96.6523 91.373C96.6523 91.7962 96.6849 92.2357 96.75 92.6914ZM177.805 134.684C176.112 134.358 174.37 134.114 172.58 133.951C170.822 133.756 168.951 133.609 166.965 133.512C165.012 133.414 162.912 133.365 160.666 133.365C158.452 133.333 156.044 133.316 153.439 133.316C152.202 133.316 150.721 133.333 148.996 133.365C147.303 133.398 145.464 133.479 143.479 133.609C141.525 133.74 139.507 133.919 137.424 134.146C135.34 134.407 133.306 134.732 131.32 135.123C132.036 133.658 132.655 131.819 133.176 129.605C133.697 127.359 134.12 124.983 134.445 122.477C134.803 119.97 135.08 117.415 135.275 114.811C135.471 112.206 135.617 109.781 135.715 107.535C135.812 105.289 135.861 103.352 135.861 101.725C135.894 100.064 135.91 98.9251 135.91 98.3066C135.91 98.1764 135.894 97.6719 135.861 96.793C135.861 95.9141 135.845 94.7747 135.812 93.375C135.78 91.9753 135.731 90.3802 135.666 88.5898C135.601 86.7669 135.503 84.8789 135.373 82.9258C135.275 80.9727 135.129 79.0033 134.934 77.0176C134.771 75.0319 134.559 73.1602 134.299 71.4023C134.071 69.612 133.794 68.0169 133.469 66.6172C133.176 65.1849 132.818 64.0456 132.395 63.1992C135.585 63.6549 138.726 63.9967 141.818 64.2246C144.911 64.4199 147.906 64.5176 150.803 64.5176C154.351 64.5176 157.671 64.4199 160.764 64.2246C163.856 64.0293 166.558 63.8014 168.869 63.541C171.571 63.248 174.029 62.9062 176.242 62.5156V85.416C174.354 83.6582 172.548 82.3073 170.822 81.3633C169.097 80.4193 167.567 79.7194 166.232 79.2637C164.67 78.7428 163.205 78.4499 161.838 78.3848C160.21 78.3848 158.876 78.5964 157.834 79.0195C156.825 79.4102 156.027 79.931 155.441 80.582C154.888 81.2005 154.514 81.9167 154.318 82.7305C154.123 83.5117 154.025 84.3092 154.025 85.123C154.025 85.9694 154.139 86.8158 154.367 87.6621C154.628 88.5085 155.018 89.2734 155.539 89.957C156.06 90.6406 156.727 91.2103 157.541 91.666C158.387 92.0892 159.38 92.3008 160.52 92.3008C161.464 92.3008 162.326 92.0892 163.107 91.666C163.889 91.2103 164.556 90.7057 165.109 90.1523C165.76 89.5339 166.363 88.8177 166.916 88.0039V107.877C166.395 106.64 165.777 105.663 165.061 104.947C164.377 104.231 163.693 103.71 163.01 103.385C162.359 103.027 161.757 102.815 161.203 102.75C160.682 102.652 160.324 102.604 160.129 102.604C158.013 102.604 156.434 103.255 155.393 104.557C154.351 105.859 153.83 107.535 153.83 109.586C153.83 111.083 153.993 112.353 154.318 113.395C154.676 114.436 155.132 115.283 155.686 115.934C156.271 116.585 156.939 117.057 157.688 117.35C158.469 117.643 159.283 117.789 160.129 117.789C161.431 117.789 162.831 117.496 164.328 116.91C165.826 116.324 167.258 115.543 168.625 114.566C170.025 113.59 171.294 112.483 172.434 111.246C173.605 109.977 174.533 108.691 175.217 107.389L177.805 134.684ZM220.529 133.805C219.781 133.74 218.918 133.674 217.941 133.609C217.095 133.544 216.102 133.495 214.963 133.463C213.824 133.43 212.538 133.414 211.105 133.414C208.697 133.414 205.979 133.512 202.951 133.707C199.956 133.87 196.783 134.195 193.43 134.684C194.569 129.866 195.432 125.227 196.018 120.768C196.604 116.308 197.043 112.337 197.336 108.854C197.661 104.785 197.857 100.96 197.922 97.3789C197.922 95.849 197.889 94.1725 197.824 92.3496C197.759 90.7871 197.678 88.9805 197.58 86.9297C197.482 84.8464 197.352 82.6003 197.189 80.1914C195.66 81.6562 194.13 83.235 192.6 84.9277C191.102 86.5879 189.654 88.3294 188.254 90.1523C186.854 91.9427 185.536 93.7656 184.299 95.6211C183.094 97.4766 182.036 99.2995 181.125 101.09L182.297 63.7852C185.357 64.1432 188.579 64.4199 191.965 64.6152C195.383 64.8105 198.866 64.9082 202.414 64.9082C207.492 64.9082 212.521 64.7292 217.502 64.3711C222.482 64.013 227.056 63.4922 231.223 62.8086L233.029 100.504C230.686 96.0443 228.081 91.8613 225.217 87.9551C222.385 84.0163 219.357 80.7285 216.135 78.0918C215.874 80.3053 215.679 82.6328 215.549 85.0742C215.451 87.4831 215.402 89.957 215.402 92.4961C215.402 95.7839 215.5 99.1693 215.695 102.652C215.923 106.103 216.232 109.586 216.623 113.102C217.046 116.617 217.583 120.117 218.234 123.6C218.885 127.083 219.65 130.484 220.529 133.805ZM290.988 101.285C290.988 106.233 290.435 110.888 289.328 115.25C288.221 119.579 286.545 123.372 284.299 126.627C282.053 129.85 279.204 132.389 275.754 134.244C272.336 136.132 268.283 137.076 263.596 137.076C258.941 137.076 254.888 136.132 251.438 134.244C248.02 132.389 245.171 129.85 242.893 126.627C240.646 123.372 238.97 119.579 237.863 115.25C236.757 110.888 236.203 106.233 236.203 101.285C236.203 97.6393 236.545 94.1237 237.229 90.7383C237.912 87.3529 238.856 84.1953 240.061 81.2656C241.265 78.3359 242.714 75.6667 244.406 73.2578C246.099 70.849 247.954 68.7982 249.973 67.1055C252.023 65.3802 254.188 64.0456 256.467 63.1016C258.778 62.1576 261.154 61.6855 263.596 61.6855C267.697 61.6855 271.424 62.6947 274.777 64.7129C278.163 66.6986 281.044 69.4655 283.42 73.0137C285.829 76.5618 287.684 80.7448 288.986 85.5625C290.321 90.3802 290.988 95.6211 290.988 101.285ZM271.018 97.0859C271.018 94.6445 270.822 92.3984 270.432 90.3477C270.041 88.2643 269.504 86.474 268.82 84.9766C268.169 83.4466 267.388 82.2585 266.477 81.4121C265.565 80.5332 264.605 80.0938 263.596 80.0938C262.619 80.0938 261.691 80.6146 260.812 81.6562C259.934 82.6654 259.152 83.9837 258.469 85.6113C257.818 87.2389 257.297 89.0618 256.906 91.0801C256.516 93.0983 256.32 95.1003 256.32 97.0859C256.32 99.0065 256.483 100.797 256.809 102.457C257.167 104.085 257.655 105.501 258.273 106.705C258.892 107.91 259.641 108.87 260.52 109.586C261.431 110.27 262.456 110.611 263.596 110.611C264.702 110.611 265.712 110.27 266.623 109.586C267.567 108.87 268.348 107.91 268.967 106.705C269.618 105.501 270.122 104.085 270.48 102.457C270.839 100.797 271.018 99.0065 271.018 97.0859ZM350.07 63.5898C349.322 67.3333 348.719 71.8255 348.264 77.0664C347.808 82.3073 347.58 87.9225 347.58 93.9121C347.58 94.7585 347.58 95.5885 347.58 96.4023C347.613 97.1836 347.645 97.9974 347.678 98.8438C347.71 99.6901 347.727 100.569 347.727 101.48C347.759 102.392 347.775 103.368 347.775 104.41C347.775 106.591 347.678 108.919 347.482 111.393C347.32 113.867 346.929 116.324 346.311 118.766C345.692 121.207 344.813 123.567 343.674 125.846C342.535 128.092 341.005 130.077 339.084 131.803C337.196 133.495 334.852 134.846 332.053 135.855C329.253 136.897 325.9 137.418 321.994 137.418C318.316 137.418 315.142 136.995 312.473 136.148C309.836 135.335 307.59 134.212 305.734 132.779C303.911 131.314 302.43 129.605 301.291 127.652C300.152 125.699 299.273 123.6 298.654 121.354C298.036 119.075 297.613 116.715 297.385 114.273C297.189 111.832 297.092 109.407 297.092 106.998C297.092 105.924 297.092 105.029 297.092 104.312C297.124 103.564 297.157 102.896 297.189 102.311C297.222 101.692 297.255 101.074 297.287 100.455C297.32 99.8366 297.352 99.1042 297.385 98.2578C297.417 97.4115 297.434 96.3861 297.434 95.1816C297.466 93.9772 297.482 92.4798 297.482 90.6895C297.482 88.5085 297.434 86.0345 297.336 83.2676C297.271 80.5007 297.108 77.7826 296.848 75.1133C296.587 72.4115 296.213 69.9538 295.725 67.7402C295.269 65.4941 294.65 63.8177 293.869 62.7109C297.157 63.2969 300.233 63.6875 303.098 63.8828C305.995 64.0781 308.664 64.1758 311.105 64.1758C312.668 64.1758 314.084 64.1432 315.354 64.0781C316.623 64.013 317.714 63.9479 318.625 63.8828C319.699 63.7852 320.627 63.6875 321.408 63.5898C320.985 65.6081 320.562 67.8704 320.139 70.377C319.715 72.8835 319.341 75.569 319.016 78.4336C318.69 81.2982 318.413 84.3092 318.186 87.4668C317.99 90.6243 317.893 93.8307 317.893 97.0859C317.893 101.155 317.958 104.459 318.088 106.998C318.251 109.537 318.495 111.523 318.82 112.955C319.146 114.355 319.569 115.315 320.09 115.836C320.611 116.357 321.245 116.617 321.994 116.617C323.003 116.617 323.85 116.308 324.533 115.689C325.249 115.038 325.835 113.964 326.291 112.467C326.779 110.937 327.121 108.935 327.316 106.461C327.544 103.987 327.674 100.895 327.707 97.1836C327.642 91.8776 327.479 86.9297 327.219 82.3398C327.121 80.3867 326.975 78.4173 326.779 76.4316C326.617 74.446 326.405 72.5742 326.145 70.8164C325.917 69.0586 325.64 67.4798 325.314 66.0801C324.989 64.6478 324.615 63.5247 324.191 62.7109C327.447 63.2969 330.458 63.6875 333.225 63.8828C335.992 64.0781 338.482 64.1758 340.695 64.1758C342.16 64.1758 343.462 64.1432 344.602 64.0781C345.773 64.013 346.766 63.9479 347.58 63.8828C348.524 63.7852 349.354 63.6875 350.07 63.5898ZM411.496 134.781C409.38 134.618 407.395 134.505 405.539 134.439C403.716 134.407 402.023 134.391 400.461 134.391C397.401 134.391 394.846 134.472 392.795 134.635C390.744 134.83 389.068 135.025 387.766 135.221C386.236 135.449 385.015 135.709 384.104 136.002C384.234 134.993 384.364 134.049 384.494 133.17C384.624 132.291 384.722 131.445 384.787 130.631C384.885 129.785 384.95 128.954 384.982 128.141C385.048 127.294 385.08 126.415 385.08 125.504C385.08 121.923 384.934 118.945 384.641 116.568C384.38 114.192 383.99 112.206 383.469 110.611C382.948 109.016 382.313 107.73 381.564 106.754C380.816 105.777 379.986 104.898 379.074 104.117C379.009 105.582 378.96 106.998 378.928 108.365C378.895 109.732 378.879 111.181 378.879 112.711C378.879 114.208 378.911 115.771 378.977 117.398C379.042 119.026 379.156 120.751 379.318 122.574C379.481 124.397 379.725 126.35 380.051 128.434C380.376 130.484 380.783 132.714 381.271 135.123C381.239 134.993 380.816 134.846 380.002 134.684C379.188 134.521 378.098 134.374 376.73 134.244C375.363 134.114 373.785 134.016 371.994 133.951C370.236 133.854 368.397 133.805 366.477 133.805C363.97 133.805 361.464 133.886 358.957 134.049C356.451 134.244 354.188 134.602 352.17 135.123C352.951 134.114 353.651 132.844 354.27 131.314C354.921 129.752 355.49 128.043 355.979 126.188C356.467 124.332 356.874 122.379 357.199 120.328C357.557 118.277 357.867 116.259 358.127 114.273C358.713 109.618 359.104 104.654 359.299 99.3809C359.299 98.0788 359.299 96.4349 359.299 94.4492C359.331 92.4635 359.299 90.2988 359.201 87.9551C359.136 85.6113 359.006 83.2025 358.811 80.7285C358.648 78.2546 358.355 75.8783 357.932 73.5996C357.541 71.321 357.02 69.2376 356.369 67.3496C355.718 65.4616 354.888 63.9479 353.879 62.8086C356.223 63.1667 358.501 63.4108 360.715 63.541C362.928 63.6387 364.816 63.6875 366.379 63.6875C367.746 63.6875 368.999 63.6549 370.139 63.5898C371.311 63.5247 372.466 63.4596 373.605 63.3945C374.745 63.3294 375.933 63.2643 377.17 63.1992C378.407 63.1341 379.774 63.1016 381.271 63.1016C383.322 63.1016 385.389 63.2155 387.473 63.4434C389.556 63.6387 391.542 64.013 393.43 64.5664C395.35 65.0872 397.124 65.8197 398.752 66.7637C400.412 67.6751 401.844 68.847 403.049 70.2793C404.286 71.679 405.246 73.3717 405.93 75.3574C406.646 77.3431 407.004 79.6543 407.004 82.291C407.004 83.7559 406.809 85.2207 406.418 86.6855C406.06 88.1504 405.458 89.599 404.611 91.0312C403.765 92.431 402.658 93.7819 401.291 95.084C399.956 96.3535 398.312 97.5254 396.359 98.5996C398.671 99.5436 400.412 100.715 401.584 102.115C402.788 103.515 403.651 105.11 404.172 106.9C404.693 108.691 404.969 110.644 405.002 112.76C405.067 114.843 405.132 117.024 405.197 119.303C405.327 121.744 405.637 124.007 406.125 126.09C406.32 126.969 406.564 127.864 406.857 128.775C407.183 129.687 407.557 130.533 407.98 131.314C408.436 132.096 408.941 132.796 409.494 133.414C410.08 134.033 410.747 134.488 411.496 134.781ZM379.074 92.6914C379.79 92.1706 380.588 91.5195 381.467 90.7383C382.378 89.9245 383.208 89.0456 383.957 88.1016C384.738 87.125 385.389 86.0996 385.91 85.0254C386.431 83.9512 386.691 82.877 386.691 81.8027C386.691 80.7611 386.382 79.9147 385.764 79.2637C385.178 78.6126 384.51 78.2871 383.762 78.2871C382.72 78.2871 381.89 78.7754 381.271 79.752C380.653 80.696 380.165 81.819 379.807 83.1211C379.481 84.4232 379.253 85.7415 379.123 87.0762C379.025 88.3783 378.977 89.3874 378.977 90.1035C378.977 90.4941 378.977 90.9173 378.977 91.373C378.977 91.7962 379.009 92.2357 379.074 92.6914Z" fill="white" fill-opacity="0.85"/>
</g>
<defs>
<filter id="filter0_d_34_31" x="69.8457" y="61.6855" width="343.65" height="77.7324" filterUnits="userSpaceOnUse" color-interpolation-filters="sRGB">
<feFlood flood-opacity="0" result="BackgroundImageFix"/>
<feColorMatrix in="SourceAlpha" type="matrix" values="0 0 0 0 0 0 0 0 0 0 0 0 0 0 0 0 0 0 127 0" result="hardAlpha"/>
<feOffset dx="1" dy="1"/>
<feGaussianBlur stdDeviation="0.5"/>
<feColorMatrix type="matrix" values="0 0 0 0 0 0 0 0 0 0 0 0 0 0 0 0 0 0 0.25 0"/>
<feBlend mode="normal" in2="BackgroundImageFix" result="effect1_dropShadow_34_31"/>
<feBlend mode="normal" in="SourceGraphic" in2="effect1_dropShadow_34_31" result="shape"/>
</filter>
<radialGradient id="paint0_radial_34_31" cx="0" cy="0" r="1" gradientUnits="userSpaceOnUse" gradientTransform="translate(153.762 39.541) rotate(31.7485) scale(241.092 232.595)">
<stop stop-color="white"/>
<stop offset="0.697917" stop-color="white" stop-opacity="0"/>
<stop offset="1" stop-color="white" stop-opacity="0"/>
</radialGradient>
</defs>
</svg>
