<svg width="732" height="325" viewBox="0 0 732 325" fill="none" xmlns="http://www.w3.org/2000/svg">
<g filter="url(#filter0_d_1_70)">
<rect x="58" y="24" width="608" height="201" rx="25" fill="#DD6F6F"/>
<rect x="58" y="24" width="608" height="201" rx="25" fill="url(#paint0_radial_1_70)" fill-opacity="0.7"/>
<g filter="url(#filter1_d_1_70)">
<path d="M230.848 106.291C230.848 107.951 230.555 109.644 229.969 111.369C229.383 113.062 228.536 114.608 227.43 116.008C226.355 117.375 225.037 118.498 223.475 119.377C221.912 120.256 220.138 120.695 218.152 120.695C216.395 120.695 214.881 120.402 213.611 119.816C212.374 119.198 211.349 118.384 210.535 117.375C209.754 116.366 209.168 115.227 208.777 113.957C208.387 112.688 208.191 111.369 208.191 110.002C208.191 108.635 208.354 107.316 208.68 106.047C209.038 104.745 209.575 103.589 210.291 102.58C210.486 103.264 210.747 103.801 211.072 104.191C211.398 104.549 211.74 104.81 212.098 104.973C212.488 105.168 212.911 105.282 213.367 105.314C214.409 105.314 215.141 105.038 215.564 104.484C216.02 103.931 216.248 103.296 216.248 102.58C216.248 102.255 216.183 101.929 216.053 101.604C215.923 101.245 215.711 100.92 215.418 100.627C215.158 100.334 214.799 100.09 214.344 99.8945C213.888 99.6992 213.335 99.6016 212.684 99.6016C212.326 99.6016 211.805 99.6504 211.121 99.748C210.47 99.8457 209.738 100.106 208.924 100.529C208.11 100.92 207.28 101.522 206.434 102.336C205.587 103.15 204.806 104.257 204.09 105.656C203.406 107.056 202.837 108.798 202.381 110.881C201.958 112.964 201.746 115.503 201.746 118.498C201.746 120.549 201.941 122.339 202.332 123.869C202.755 125.367 203.292 126.652 203.943 127.727C204.594 128.801 205.343 129.68 206.189 130.363C207.036 131.047 207.898 131.584 208.777 131.975C209.656 132.365 210.503 132.642 211.316 132.805C212.163 132.935 212.911 133 213.562 133C214.409 133 215.467 132.854 216.736 132.561C218.038 132.235 219.324 131.665 220.594 130.852C221.863 130.038 223.003 128.915 224.012 127.482C225.053 126.05 225.77 124.195 226.16 121.916C227.299 123.511 228.162 125.415 228.748 127.629C229.367 129.842 229.676 132.17 229.676 134.611C229.676 137.932 229.074 141.154 227.869 144.279C226.697 147.372 225.005 150.122 222.791 152.531C220.61 154.94 217.957 156.861 214.832 158.293C211.707 159.758 208.224 160.49 204.383 160.49C201.551 160.49 198.93 160.035 196.521 159.123C194.113 158.244 191.915 157.007 189.93 155.412C187.944 153.817 186.202 151.945 184.705 149.797C183.208 147.616 181.938 145.256 180.896 142.717C179.855 140.178 179.074 137.508 178.553 134.709C178.032 131.877 177.771 129.012 177.771 126.115C177.771 122.925 178.113 119.719 178.797 116.496C179.48 113.241 180.457 110.116 181.727 107.121C183.029 104.126 184.591 101.327 186.414 98.7227C188.27 96.0859 190.369 93.8073 192.713 91.8867C195.057 89.9336 197.628 88.4036 200.428 87.2969C203.227 86.1576 206.206 85.5879 209.363 85.5879C212.228 85.5879 214.751 85.9297 216.932 86.6133C219.113 87.2643 220.984 88.1595 222.547 89.2988C224.142 90.4056 225.477 91.6751 226.551 93.1074C227.625 94.5397 228.471 96.0208 229.09 97.5508C229.741 99.0807 230.197 100.611 230.457 102.141C230.717 103.638 230.848 105.021 230.848 106.291ZM280.896 158.684C279.204 158.358 277.462 158.114 275.672 157.951C273.914 157.756 272.042 157.609 270.057 157.512C268.104 157.414 266.004 157.365 263.758 157.365C261.544 157.333 259.135 157.316 256.531 157.316C255.294 157.316 253.813 157.333 252.088 157.365C250.395 157.398 248.556 157.479 246.57 157.609C244.617 157.74 242.599 157.919 240.516 158.146C238.432 158.407 236.398 158.732 234.412 159.123C235.128 157.658 235.747 155.819 236.268 153.605C236.788 151.359 237.212 148.983 237.537 146.477C237.895 143.97 238.172 141.415 238.367 138.811C238.562 136.206 238.709 133.781 238.807 131.535C238.904 129.289 238.953 127.352 238.953 125.725C238.986 124.064 239.002 122.925 239.002 122.307C239.002 122.176 238.986 121.672 238.953 120.793C238.953 119.914 238.937 118.775 238.904 117.375C238.872 115.975 238.823 114.38 238.758 112.59C238.693 110.767 238.595 108.879 238.465 106.926C238.367 104.973 238.221 103.003 238.025 101.018C237.863 99.0319 237.651 97.1602 237.391 95.4023C237.163 93.612 236.886 92.0169 236.561 90.6172C236.268 89.1849 235.91 88.0456 235.486 87.1992C238.676 87.6549 241.818 87.9967 244.91 88.2246C248.003 88.4199 250.997 88.5176 253.895 88.5176C257.443 88.5176 260.763 88.4199 263.855 88.2246C266.948 88.0293 269.65 87.8014 271.961 87.541C274.663 87.248 277.12 86.9062 279.334 86.5156V109.416C277.446 107.658 275.639 106.307 273.914 105.363C272.189 104.419 270.659 103.719 269.324 103.264C267.762 102.743 266.297 102.45 264.93 102.385C263.302 102.385 261.967 102.596 260.926 103.02C259.917 103.41 259.119 103.931 258.533 104.582C257.98 105.201 257.605 105.917 257.41 106.73C257.215 107.512 257.117 108.309 257.117 109.123C257.117 109.969 257.231 110.816 257.459 111.662C257.719 112.508 258.11 113.273 258.631 113.957C259.152 114.641 259.819 115.21 260.633 115.666C261.479 116.089 262.472 116.301 263.611 116.301C264.555 116.301 265.418 116.089 266.199 115.666C266.98 115.21 267.648 114.706 268.201 114.152C268.852 113.534 269.454 112.818 270.008 112.004V131.877C269.487 130.64 268.868 129.663 268.152 128.947C267.469 128.231 266.785 127.71 266.102 127.385C265.451 127.027 264.848 126.815 264.295 126.75C263.774 126.652 263.416 126.604 263.221 126.604C261.105 126.604 259.526 127.255 258.484 128.557C257.443 129.859 256.922 131.535 256.922 133.586C256.922 135.083 257.085 136.353 257.41 137.395C257.768 138.436 258.224 139.283 258.777 139.934C259.363 140.585 260.031 141.057 260.779 141.35C261.561 141.643 262.374 141.789 263.221 141.789C264.523 141.789 265.923 141.496 267.42 140.91C268.917 140.324 270.35 139.543 271.717 138.566C273.117 137.59 274.386 136.483 275.525 135.246C276.697 133.977 277.625 132.691 278.309 131.389L280.896 158.684ZM262.732 85.4414L253.016 81.0957C255.001 78.2311 256.857 75.4805 258.582 72.8438C259.298 71.737 260.031 70.5977 260.779 69.4258C261.561 68.2539 262.277 67.1309 262.928 66.0566C263.611 64.9499 264.23 63.9082 264.783 62.9316C265.337 61.9551 265.776 61.125 266.102 60.4414C267.111 61.1901 268.331 62.0039 269.764 62.8828C271.229 63.7617 272.645 64.5755 274.012 65.3242C275.574 66.2031 277.202 67.0983 278.895 68.0098L262.732 85.4414ZM342.518 158.781C340.402 158.618 338.416 158.505 336.561 158.439C334.738 158.407 333.045 158.391 331.482 158.391C328.423 158.391 325.867 158.472 323.816 158.635C321.766 158.83 320.089 159.025 318.787 159.221C317.257 159.449 316.036 159.709 315.125 160.002C315.255 158.993 315.385 158.049 315.516 157.17C315.646 156.291 315.743 155.445 315.809 154.631C315.906 153.785 315.971 152.954 316.004 152.141C316.069 151.294 316.102 150.415 316.102 149.504C316.102 145.923 315.955 142.945 315.662 140.568C315.402 138.192 315.011 136.206 314.49 134.611C313.969 133.016 313.335 131.73 312.586 130.754C311.837 129.777 311.007 128.898 310.096 128.117C310.031 129.582 309.982 130.998 309.949 132.365C309.917 133.732 309.9 135.181 309.9 136.711C309.9 138.208 309.933 139.771 309.998 141.398C310.063 143.026 310.177 144.751 310.34 146.574C310.503 148.397 310.747 150.35 311.072 152.434C311.398 154.484 311.805 156.714 312.293 159.123C312.26 158.993 311.837 158.846 311.023 158.684C310.21 158.521 309.119 158.374 307.752 158.244C306.385 158.114 304.806 158.016 303.016 157.951C301.258 157.854 299.419 157.805 297.498 157.805C294.992 157.805 292.485 157.886 289.979 158.049C287.472 158.244 285.21 158.602 283.191 159.123C283.973 158.114 284.673 156.844 285.291 155.314C285.942 153.752 286.512 152.043 287 150.188C287.488 148.332 287.895 146.379 288.221 144.328C288.579 142.277 288.888 140.259 289.148 138.273C289.734 133.618 290.125 128.654 290.32 123.381C290.32 122.079 290.32 120.435 290.32 118.449C290.353 116.464 290.32 114.299 290.223 111.955C290.158 109.611 290.027 107.202 289.832 104.729C289.669 102.255 289.376 99.8783 288.953 97.5996C288.562 95.321 288.042 93.2376 287.391 91.3496C286.74 89.4616 285.91 87.9479 284.9 86.8086C287.244 87.1667 289.523 87.4108 291.736 87.541C293.95 87.6387 295.838 87.6875 297.4 87.6875C298.768 87.6875 300.021 87.6549 301.16 87.5898C302.332 87.5247 303.488 87.4596 304.627 87.3945C305.766 87.3294 306.954 87.2643 308.191 87.1992C309.428 87.1341 310.796 87.1016 312.293 87.1016C314.344 87.1016 316.411 87.2155 318.494 87.4434C320.577 87.6387 322.563 88.013 324.451 88.5664C326.372 89.0872 328.146 89.8197 329.773 90.7637C331.434 91.6751 332.866 92.847 334.07 94.2793C335.307 95.679 336.268 97.3717 336.951 99.3574C337.667 101.343 338.025 103.654 338.025 106.291C338.025 107.756 337.83 109.221 337.439 110.686C337.081 112.15 336.479 113.599 335.633 115.031C334.786 116.431 333.68 117.782 332.312 119.084C330.978 120.354 329.334 121.525 327.381 122.6C329.692 123.544 331.434 124.715 332.605 126.115C333.81 127.515 334.673 129.11 335.193 130.9C335.714 132.691 335.991 134.644 336.023 136.76C336.089 138.843 336.154 141.024 336.219 143.303C336.349 145.744 336.658 148.007 337.146 150.09C337.342 150.969 337.586 151.864 337.879 152.775C338.204 153.687 338.579 154.533 339.002 155.314C339.458 156.096 339.962 156.796 340.516 157.414C341.102 158.033 341.769 158.488 342.518 158.781ZM310.096 116.691C310.812 116.171 311.609 115.52 312.488 114.738C313.4 113.924 314.23 113.046 314.979 112.102C315.76 111.125 316.411 110.1 316.932 109.025C317.452 107.951 317.713 106.877 317.713 105.803C317.713 104.761 317.404 103.915 316.785 103.264C316.199 102.613 315.532 102.287 314.783 102.287C313.742 102.287 312.911 102.775 312.293 103.752C311.674 104.696 311.186 105.819 310.828 107.121C310.503 108.423 310.275 109.742 310.145 111.076C310.047 112.378 309.998 113.387 309.998 114.104C309.998 114.494 309.998 114.917 309.998 115.373C309.998 115.796 310.031 116.236 310.096 116.691ZM403.064 123.381C403.064 128.687 402.479 133.244 401.307 137.053C400.135 140.861 398.589 144.1 396.668 146.77C394.747 149.406 392.566 151.538 390.125 153.166C387.684 154.761 385.193 156.014 382.654 156.926C380.148 157.805 377.69 158.391 375.281 158.684C372.872 158.977 370.74 159.123 368.885 159.123C365.727 159.123 363.025 159.009 360.779 158.781C358.566 158.586 356.727 158.488 355.262 158.488C353.602 158.488 351.762 158.521 349.744 158.586C347.726 158.651 345.594 158.781 343.348 158.977C344.227 157.382 344.992 155.607 345.643 153.654C346.326 151.669 346.912 149.602 347.4 147.453C347.889 145.305 348.296 143.14 348.621 140.959C348.979 138.745 349.272 136.613 349.5 134.562C350.021 129.745 350.314 124.797 350.379 119.719C350.314 114.673 350.07 109.937 349.646 105.51C349.451 103.622 349.207 101.734 348.914 99.8457C348.654 97.9251 348.328 96.1185 347.938 94.4258C347.547 92.7005 347.075 91.1543 346.521 89.7871C346.001 88.4199 345.382 87.3294 344.666 86.5156C347.075 86.9062 349.354 87.1667 351.502 87.2969C353.683 87.4271 355.604 87.4922 357.264 87.4922C358.338 87.4922 359.38 87.4596 360.389 87.3945C361.398 87.3294 362.439 87.2643 363.514 87.1992C364.588 87.1341 365.727 87.069 366.932 87.0039C368.169 86.9388 369.552 86.9062 371.082 86.9062C373.296 86.9062 375.623 87.069 378.064 87.3945C380.538 87.6875 382.947 88.2897 385.291 89.2012C387.667 90.1126 389.93 91.3984 392.078 93.0586C394.227 94.7188 396.115 96.8997 397.742 99.6016C399.37 102.303 400.656 105.607 401.6 109.514C402.576 113.387 403.064 118.01 403.064 123.381ZM379.188 122.307C379.188 118.498 379.074 115.324 378.846 112.785C378.618 110.246 378.276 108.212 377.82 106.682C377.397 105.119 376.86 104.012 376.209 103.361C375.558 102.71 374.809 102.385 373.963 102.385C373.214 102.385 372.531 102.775 371.912 103.557C371.326 104.305 370.822 105.526 370.398 107.219C369.975 108.911 369.65 111.092 369.422 113.762C369.194 116.398 369.08 119.605 369.08 123.381C369.08 127.352 369.178 130.673 369.373 133.342C369.601 135.979 369.91 138.094 370.301 139.689C370.724 141.285 371.229 142.424 371.814 143.107C372.433 143.758 373.149 144.084 373.963 144.084C375.558 144.084 376.827 142.342 377.771 138.859C378.715 135.376 379.188 129.859 379.188 122.307ZM435.584 157.707C434.9 157.642 434.135 157.577 433.289 157.512C432.54 157.447 431.645 157.398 430.604 157.365C429.562 157.333 428.357 157.316 426.99 157.316C424.354 157.316 421.294 157.43 417.811 157.658C414.327 157.886 410.551 158.326 406.482 158.977C407.199 157.512 407.817 155.656 408.338 153.41C408.859 151.164 409.282 148.771 409.607 146.232C409.965 143.661 410.242 141.057 410.438 138.42C410.633 135.783 410.779 133.326 410.877 131.047C410.975 128.768 411.023 126.799 411.023 125.139C411.056 123.479 411.072 122.339 411.072 121.721C411.072 121.59 411.056 121.086 411.023 120.207C411.023 119.328 411.007 118.189 410.975 116.789C410.942 115.389 410.893 113.794 410.828 112.004C410.763 110.181 410.665 108.293 410.535 106.34C410.438 104.387 410.291 102.417 410.096 100.432C409.933 98.446 409.721 96.5742 409.461 94.8164C409.233 93.0586 408.956 91.4798 408.631 90.0801C408.338 88.6478 407.98 87.5247 407.557 86.7109C410.844 87.2969 413.855 87.6875 416.59 87.8828C419.357 88.0781 421.847 88.1758 424.061 88.1758C425.525 88.1758 426.844 88.1432 428.016 88.0781C429.188 88.013 430.18 87.9479 430.994 87.8828C431.938 87.7852 432.768 87.6875 433.484 87.5898C433.094 89.4128 432.752 91.4473 432.459 93.6934C432.166 95.9069 431.906 98.2832 431.678 100.822C431.45 103.329 431.271 105.965 431.141 108.732C431.043 111.499 430.994 114.348 430.994 117.277C430.994 120.663 431.076 124.113 431.238 127.629C431.401 131.112 431.661 134.579 432.02 138.029C432.41 141.48 432.882 144.865 433.436 148.186C434.021 151.506 434.738 154.68 435.584 157.707ZM478.113 157.805C477.365 157.74 476.502 157.674 475.525 157.609C474.679 157.544 473.686 157.495 472.547 157.463C471.408 157.43 470.122 157.414 468.689 157.414C466.281 157.414 463.562 157.512 460.535 157.707C457.54 157.87 454.367 158.195 451.014 158.684C452.153 153.866 453.016 149.227 453.602 144.768C454.188 140.308 454.627 136.337 454.92 132.854C455.245 128.785 455.441 124.96 455.506 121.379C455.506 119.849 455.473 118.173 455.408 116.35C455.343 114.787 455.262 112.98 455.164 110.93C455.066 108.846 454.936 106.6 454.773 104.191C453.243 105.656 451.714 107.235 450.184 108.928C448.686 110.588 447.238 112.329 445.838 114.152C444.438 115.943 443.12 117.766 441.883 119.621C440.678 121.477 439.62 123.299 438.709 125.09L439.881 87.7852C442.941 88.1432 446.163 88.4199 449.549 88.6152C452.967 88.8105 456.45 88.9082 459.998 88.9082C465.076 88.9082 470.105 88.7292 475.086 88.3711C480.066 88.013 484.64 87.4922 488.807 86.8086L490.613 124.504C488.27 120.044 485.665 115.861 482.801 111.955C479.969 108.016 476.941 104.729 473.719 102.092C473.458 104.305 473.263 106.633 473.133 109.074C473.035 111.483 472.986 113.957 472.986 116.496C472.986 119.784 473.084 123.169 473.279 126.652C473.507 130.103 473.816 133.586 474.207 137.102C474.63 140.617 475.167 144.117 475.818 147.6C476.469 151.083 477.234 154.484 478.113 157.805ZM544.178 102.287C544.178 103.915 543.868 105.396 543.25 106.73C542.664 108.033 541.834 109.156 540.76 110.1C539.686 111.044 538.416 111.776 536.951 112.297C535.519 112.818 533.956 113.078 532.264 113.078C530.408 113.078 528.813 112.85 527.479 112.395C526.176 111.939 525.07 111.369 524.158 110.686C523.279 109.969 522.579 109.188 522.059 108.342C521.538 107.463 521.131 106.617 520.838 105.803C520.577 104.989 520.398 104.24 520.301 103.557C520.236 102.873 520.203 102.352 520.203 101.994C520.594 102.645 521.049 103.068 521.57 103.264C522.091 103.426 522.531 103.508 522.889 103.508C523.8 103.508 524.435 103.264 524.793 102.775C525.184 102.287 525.379 101.766 525.379 101.213C525.379 100.855 525.298 100.48 525.135 100.09C525.005 99.6992 524.744 99.3411 524.354 99.0156C523.995 98.6576 523.491 98.3646 522.84 98.1367C522.221 97.9089 521.44 97.7949 520.496 97.7949C519.845 97.7949 519.178 97.9251 518.494 98.1855C517.811 98.4134 517.176 98.7878 516.59 99.3086C516.036 99.7969 515.581 100.415 515.223 101.164C514.865 101.913 514.686 102.792 514.686 103.801C514.686 104.777 514.881 105.754 515.271 106.73C515.695 107.674 516.248 108.57 516.932 109.416C517.648 110.262 518.478 111.027 519.422 111.711C520.398 112.395 521.456 112.964 522.596 113.42C524.386 114.169 526.225 114.901 528.113 115.617C530.034 116.333 531.889 117.115 533.68 117.961C535.47 118.807 537.146 119.784 538.709 120.891C540.304 121.965 541.688 123.251 542.859 124.748C544.064 126.245 545.008 128.003 545.691 130.021C546.408 132.007 546.766 134.335 546.766 137.004C546.766 140.812 545.984 144.296 544.422 147.453C542.892 150.578 540.825 153.264 538.221 155.51C535.649 157.723 532.654 159.432 529.236 160.637C525.851 161.874 522.303 162.492 518.592 162.492C515.239 162.492 512.049 161.988 509.021 160.979C505.994 160.002 503.341 158.651 501.062 156.926C498.784 155.201 496.961 153.182 495.594 150.871C494.259 148.527 493.592 146.005 493.592 143.303C493.592 141.317 493.917 139.576 494.568 138.078C495.219 136.581 496.115 135.344 497.254 134.367C498.426 133.358 499.777 132.609 501.307 132.121C502.869 131.633 504.529 131.389 506.287 131.389C507.654 131.389 508.989 131.535 510.291 131.828C511.626 132.121 512.863 132.561 514.002 133.146C515.174 133.7 516.215 134.383 517.127 135.197C518.071 136.011 518.82 136.939 519.373 137.98C518.689 137.785 518.087 137.688 517.566 137.688C516.688 137.688 515.988 137.948 515.467 138.469C514.946 138.99 514.686 139.771 514.686 140.812C514.686 141.366 514.816 141.887 515.076 142.375C515.337 142.831 515.662 143.238 516.053 143.596C516.476 143.954 516.948 144.23 517.469 144.426C518.022 144.621 518.592 144.719 519.178 144.719C519.829 144.719 520.431 144.589 520.984 144.328C521.538 144.035 522.026 143.661 522.449 143.205C522.872 142.749 523.198 142.245 523.426 141.691C523.654 141.138 523.768 140.568 523.768 139.982C523.768 138.843 523.41 137.688 522.693 136.516C522.01 135.344 521.001 134.302 519.666 133.391C517.127 131.828 514.734 130.477 512.488 129.338C510.242 128.199 508.175 127.124 506.287 126.115C504.399 125.074 502.69 124.032 501.16 122.99C499.663 121.949 498.377 120.744 497.303 119.377C496.261 118.01 495.464 116.415 494.91 114.592C494.357 112.736 494.08 110.507 494.08 107.902C494.08 104.777 494.682 101.848 495.887 99.1133C497.091 96.3789 498.833 94.0026 501.111 91.9844C503.423 89.9336 506.238 88.3223 509.559 87.1504C512.879 85.9785 516.655 85.3926 520.887 85.3926C525.151 85.3926 528.764 85.9134 531.727 86.9551C534.689 87.9642 537.081 89.2826 538.904 90.9102C540.76 92.5378 542.094 94.3607 542.908 96.3789C543.755 98.3646 544.178 100.334 544.178 102.287Z" fill="white" fill-opacity="0.85"/>
</g>
</g>
<defs>
<filter id="filter0_d_1_70" x="0" y="0" width="732" height="325" filterUnits="userSpaceOnUse" color-interpolation-filters="sRGB">
<feFlood flood-opacity="0" result="BackgroundImageFix"/>
<feColorMatrix in="SourceAlpha" type="matrix" values="0 0 0 0 0 0 0 0 0 0 0 0 0 0 0 0 0 0 127 0" result="hardAlpha"/>
<feOffset dx="4" dy="38"/>
<feGaussianBlur stdDeviation="31"/>
<feColorMatrix type="matrix" values="0 0 0 0 0 0 0 0 0 0 0 0 0 0 0 0 0 0 0.5 0"/>
<feBlend mode="normal" in2="BackgroundImageFix" result="effect1_dropShadow_1_70"/>
<feBlend mode="normal" in="SourceGraphic" in2="effect1_dropShadow_1_70" result="shape"/>
</filter>
<filter id="filter1_d_1_70" x="177.771" y="60.4414" width="370.994" height="104.051" filterUnits="userSpaceOnUse" color-interpolation-filters="sRGB">
<feFlood flood-opacity="0" result="BackgroundImageFix"/>
<feColorMatrix in="SourceAlpha" type="matrix" values="0 0 0 0 0 0 0 0 0 0 0 0 0 0 0 0 0 0 127 0" result="hardAlpha"/>
<feOffset dx="1" dy="1"/>
<feGaussianBlur stdDeviation="0.5"/>
<feColorMatrix type="matrix" values="0 0 0 0 0 0 0 0 0 0 0 0 0 0 0 0 0 0 0.25 0"/>
<feBlend mode="normal" in2="BackgroundImageFix" result="effect1_dropShadow_1_70"/>
<feBlend mode="normal" in="SourceGraphic" in2="effect1_dropShadow_1_70" result="shape"/>
</filter>
<radialGradient id="paint0_radial_1_70" cx="0" cy="0" r="1" gradientUnits="userSpaceOnUse" gradientTransform="translate(252.361 63.541) rotate(26.0832) scale(288.533 245.667)">
<stop stop-color="white"/>
<stop offset="0.697917" stop-color="white" stop-opacity="0"/>
<stop offset="1" stop-color="white" stop-opacity="0"/>
</radialGradient>
</defs>
</svg>
