<svg width="732" height="325" viewBox="0 0 732 325" fill="none" xmlns="http://www.w3.org/2000/svg">
<g filter="url(#filter0_d_1_70)">
<rect x="58" y="24" width="608" height="201" rx="25" fill="#DD6F6F"/>
<rect x="58" y="24" width="608" height="201" rx="25" fill="url(#paint0_radial_1_70)" fill-opacity="0.7"/>
<g filter="url(#filter1_d_1_70)">
<path d="M230.848 106.291C230.848 107.951 230.555 109.644 229.969 111.369C229.383 113.062 228.536 114.608 227.43 116.008C226.355 117.375 225.037 118.498 223.475 119.377C221.912 120.256 220.138 120.695 218.152 120.695C216.395 120.695 214.881 120.402 213.611 119.816C212.374 119.198 211.349 118.384 210.535 117.375C209.754 116.366 209.168 115.227 208.777 113.957C208.387 112.688 208.191 111.369 208.191 110.002C208.191 108.635 208.354 107.316 208.68 106.047C209.038 104.745 209.575 103.589 210.291 102.58C210.486 103.264 210.747 103.801 211.072 104.191C211.398 104.549 211.74 104.81 212.098 104.973C212.488 105.168 212.911 105.282 213.367 105.314C214.409 105.314 215.141 105.038 215.564 104.484C216.02 103.931 216.248 103.296 216.248 102.58C216.248 102.255 216.183 101.929 216.053 101.604C215.923 101.245 215.711 100.92 215.418 100.627C215.158 100.334 214.799 100.09 214.344 99.8945C213.888 99.6992 213.335 99.6016 212.684 99.6016C212.326 99.6016 211.805 99.6504 211.121 99.748C210.47 99.8457 209.738 100.106 208.924 100.529C208.11 100.92 207.28 101.522 206.434 102.336C205.587 103.15 204.806 104.257 204.09 105.656C203.406 107.056 202.837 108.798 202.381 110.881C201.958 112.964 201.746 115.503 201.746 118.498C201.746 120.549 201.941 122.339 202.332 123.869C202.755 125.367 203.292 126.652 203.943 127.727C204.594 128.801 205.343 129.68 206.189 130.363C207.036 131.047 207.898 131.584 208.777 131.975C209.656 132.365 210.503 132.642 211.316 132.805C212.163 132.935 212.911 133 213.562 133C214.409 133 215.467 132.854 216.736 132.561C218.038 132.235 219.324 131.665 220.594 130.852C221.863 130.038 223.003 128.915 224.012 127.482C225.053 126.05 225.77 124.195 226.16 121.916C227.299 123.511 228.162 125.415 228.748 127.629C229.367 129.842 229.676 132.17 229.676 134.611C229.676 137.932 229.074 141.154 227.869 144.279C226.697 147.372 225.005 150.122 222.791 152.531C220.61 154.94 217.957 156.861 214.832 158.293C211.707 159.758 208.224 160.49 204.383 160.49C201.551 160.49 198.93 160.035 196.521 159.123C194.113 158.244 191.915 157.007 189.93 155.412C187.944 153.817 186.202 151.945 184.705 149.797C183.208 147.616 181.938 145.256 180.896 142.717C179.855 140.178 179.074 137.508 178.553 134.709C178.032 131.877 177.771 129.012 177.771 126.115C177.771 122.925 178.113 119.719 178.797 116.496C179.48 113.241 180.457 110.116 181.727 107.121C183.029 104.126 184.591 101.327 186.414 98.7227C188.27 96.0859 190.369 93.8073 192.713 91.8867C195.057 89.9336 197.628 88.4036 200.428 87.2969C203.227 86.1576 206.206 85.5879 209.363 85.5879C212.228 85.5879 214.751 85.9297 216.932 86.6133C219.113 87.2643 220.984 88.1595 222.547 89.2988C224.142 90.4056 225.477 91.6751 226.551 93.1074C227.625 94.5397 228.471 96.0208 229.09 97.5508C229.741 99.0807 230.197 100.611 230.457 102.141C230.717 103.638 230.848 105.021 230.848 106.291ZM292.225 158.781C290.109 158.618 288.123 158.505 286.268 158.439C284.445 158.407 282.752 158.391 281.189 158.391C278.13 158.391 275.574 158.472 273.523 158.635C271.473 158.83 269.796 159.025 268.494 159.221C266.964 159.449 265.743 159.709 264.832 160.002C264.962 158.993 265.092 158.049 265.223 157.17C265.353 156.291 265.451 155.445 265.516 154.631C265.613 153.785 265.678 152.954 265.711 152.141C265.776 151.294 265.809 150.415 265.809 149.504C265.809 145.923 265.662 142.945 265.369 140.568C265.109 138.192 264.718 136.206 264.197 134.611C263.676 133.016 263.042 131.73 262.293 130.754C261.544 129.777 260.714 128.898 259.803 128.117C259.738 129.582 259.689 130.998 259.656 132.365C259.624 133.732 259.607 135.181 259.607 136.711C259.607 138.208 259.64 139.771 259.705 141.398C259.77 143.026 259.884 144.751 260.047 146.574C260.21 148.397 260.454 150.35 260.779 152.434C261.105 154.484 261.512 156.714 262 159.123C261.967 158.993 261.544 158.846 260.73 158.684C259.917 158.521 258.826 158.374 257.459 158.244C256.092 158.114 254.513 158.016 252.723 157.951C250.965 157.854 249.126 157.805 247.205 157.805C244.699 157.805 242.192 157.886 239.686 158.049C237.179 158.244 234.917 158.602 232.898 159.123C233.68 158.114 234.38 156.844 234.998 155.314C235.649 153.752 236.219 152.043 236.707 150.188C237.195 148.332 237.602 146.379 237.928 144.328C238.286 142.277 238.595 140.259 238.855 138.273C239.441 133.618 239.832 128.654 240.027 123.381C240.027 122.079 240.027 120.435 240.027 118.449C240.06 116.464 240.027 114.299 239.93 111.955C239.865 109.611 239.734 107.202 239.539 104.729C239.376 102.255 239.083 99.8783 238.66 97.5996C238.27 95.321 237.749 93.2376 237.098 91.3496C236.447 89.4616 235.617 87.9479 234.607 86.8086C236.951 87.1667 239.23 87.4108 241.443 87.541C243.657 87.6387 245.545 87.6875 247.107 87.6875C248.475 87.6875 249.728 87.6549 250.867 87.5898C252.039 87.5247 253.195 87.4596 254.334 87.3945C255.473 87.3294 256.661 87.2643 257.898 87.1992C259.135 87.1341 260.503 87.1016 262 87.1016C264.051 87.1016 266.118 87.2155 268.201 87.4434C270.285 87.6387 272.27 88.013 274.158 88.5664C276.079 89.0872 277.853 89.8197 279.48 90.7637C281.141 91.6751 282.573 92.847 283.777 94.2793C285.014 95.679 285.975 97.3717 286.658 99.3574C287.374 101.343 287.732 103.654 287.732 106.291C287.732 107.756 287.537 109.221 287.146 110.686C286.788 112.15 286.186 113.599 285.34 115.031C284.493 116.431 283.387 117.782 282.02 119.084C280.685 120.354 279.041 121.525 277.088 122.6C279.399 123.544 281.141 124.715 282.312 126.115C283.517 127.515 284.38 129.11 284.9 130.9C285.421 132.691 285.698 134.644 285.73 136.76C285.796 138.843 285.861 141.024 285.926 143.303C286.056 145.744 286.365 148.007 286.854 150.09C287.049 150.969 287.293 151.864 287.586 152.775C287.911 153.687 288.286 154.533 288.709 155.314C289.165 156.096 289.669 156.796 290.223 157.414C290.809 158.033 291.476 158.488 292.225 158.781ZM259.803 116.691C260.519 116.171 261.316 115.52 262.195 114.738C263.107 113.924 263.937 113.046 264.686 112.102C265.467 111.125 266.118 110.1 266.639 109.025C267.16 107.951 267.42 106.877 267.42 105.803C267.42 104.761 267.111 103.915 266.492 103.264C265.906 102.613 265.239 102.287 264.49 102.287C263.449 102.287 262.618 102.775 262 103.752C261.382 104.696 260.893 105.819 260.535 107.121C260.21 108.423 259.982 109.742 259.852 111.076C259.754 112.378 259.705 113.387 259.705 114.104C259.705 114.494 259.705 114.917 259.705 115.373C259.705 115.796 259.738 116.236 259.803 116.691ZM340.857 158.684C339.165 158.358 337.423 158.114 335.633 157.951C333.875 157.756 332.003 157.609 330.018 157.512C328.064 157.414 325.965 157.365 323.719 157.365C321.505 157.333 319.096 157.316 316.492 157.316C315.255 157.316 313.774 157.333 312.049 157.365C310.356 157.398 308.517 157.479 306.531 157.609C304.578 157.74 302.56 157.919 300.477 158.146C298.393 158.407 296.359 158.732 294.373 159.123C295.089 157.658 295.708 155.819 296.229 153.605C296.749 151.359 297.173 148.983 297.498 146.477C297.856 143.97 298.133 141.415 298.328 138.811C298.523 136.206 298.67 133.781 298.768 131.535C298.865 129.289 298.914 127.352 298.914 125.725C298.947 124.064 298.963 122.925 298.963 122.307C298.963 122.176 298.947 121.672 298.914 120.793C298.914 119.914 298.898 118.775 298.865 117.375C298.833 115.975 298.784 114.38 298.719 112.59C298.654 110.767 298.556 108.879 298.426 106.926C298.328 104.973 298.182 103.003 297.986 101.018C297.824 99.0319 297.612 97.1602 297.352 95.4023C297.124 93.612 296.847 92.0169 296.521 90.6172C296.229 89.1849 295.87 88.0456 295.447 87.1992C298.637 87.6549 301.779 87.9967 304.871 88.2246C307.964 88.4199 310.958 88.5176 313.855 88.5176C317.404 88.5176 320.724 88.4199 323.816 88.2246C326.909 88.0293 329.611 87.8014 331.922 87.541C334.624 87.248 337.081 86.9062 339.295 86.5156V109.416C337.407 107.658 335.6 106.307 333.875 105.363C332.15 104.419 330.62 103.719 329.285 103.264C327.723 102.743 326.258 102.45 324.891 102.385C323.263 102.385 321.928 102.596 320.887 103.02C319.878 103.41 319.08 103.931 318.494 104.582C317.941 105.201 317.566 105.917 317.371 106.73C317.176 107.512 317.078 108.309 317.078 109.123C317.078 109.969 317.192 110.816 317.42 111.662C317.68 112.508 318.071 113.273 318.592 113.957C319.113 114.641 319.78 115.21 320.594 115.666C321.44 116.089 322.433 116.301 323.572 116.301C324.516 116.301 325.379 116.089 326.16 115.666C326.941 115.21 327.609 114.706 328.162 114.152C328.813 113.534 329.415 112.818 329.969 112.004V131.877C329.448 130.64 328.829 129.663 328.113 128.947C327.43 128.231 326.746 127.71 326.062 127.385C325.411 127.027 324.809 126.815 324.256 126.75C323.735 126.652 323.377 126.604 323.182 126.604C321.066 126.604 319.487 127.255 318.445 128.557C317.404 129.859 316.883 131.535 316.883 133.586C316.883 135.083 317.046 136.353 317.371 137.395C317.729 138.436 318.185 139.283 318.738 139.934C319.324 140.585 319.992 141.057 320.74 141.35C321.521 141.643 322.335 141.789 323.182 141.789C324.484 141.789 325.883 141.496 327.381 140.91C328.878 140.324 330.311 139.543 331.678 138.566C333.077 137.59 334.347 136.483 335.486 135.246C336.658 133.977 337.586 132.691 338.27 131.389L340.857 158.684ZM322.693 85.4414L312.977 81.0957C314.962 78.2311 316.818 75.4805 318.543 72.8438C319.259 71.737 319.992 70.5977 320.74 69.4258C321.521 68.2539 322.238 67.1309 322.889 66.0566C323.572 64.9499 324.191 63.9082 324.744 62.9316C325.298 61.9551 325.737 61.125 326.062 60.4414C327.072 61.1901 328.292 62.0039 329.725 62.8828C331.189 63.7617 332.605 64.5755 333.973 65.3242C335.535 66.2031 337.163 67.0983 338.855 68.0098L322.693 85.4414ZM403.064 123.381C403.064 128.687 402.479 133.244 401.307 137.053C400.135 140.861 398.589 144.1 396.668 146.77C394.747 149.406 392.566 151.538 390.125 153.166C387.684 154.761 385.193 156.014 382.654 156.926C380.148 157.805 377.69 158.391 375.281 158.684C372.872 158.977 370.74 159.123 368.885 159.123C365.727 159.123 363.025 159.009 360.779 158.781C358.566 158.586 356.727 158.488 355.262 158.488C353.602 158.488 351.762 158.521 349.744 158.586C347.726 158.651 345.594 158.781 343.348 158.977C344.227 157.382 344.992 155.607 345.643 153.654C346.326 151.669 346.912 149.602 347.4 147.453C347.889 145.305 348.296 143.14 348.621 140.959C348.979 138.745 349.272 136.613 349.5 134.562C350.021 129.745 350.314 124.797 350.379 119.719C350.314 114.673 350.07 109.937 349.646 105.51C349.451 103.622 349.207 101.734 348.914 99.8457C348.654 97.9251 348.328 96.1185 347.938 94.4258C347.547 92.7005 347.075 91.1543 346.521 89.7871C346.001 88.4199 345.382 87.3294 344.666 86.5156C347.075 86.9062 349.354 87.1667 351.502 87.2969C353.683 87.4271 355.604 87.4922 357.264 87.4922C358.338 87.4922 359.38 87.4596 360.389 87.3945C361.398 87.3294 362.439 87.2643 363.514 87.1992C364.588 87.1341 365.727 87.069 366.932 87.0039C368.169 86.9388 369.552 86.9062 371.082 86.9062C373.296 86.9062 375.623 87.069 378.064 87.3945C380.538 87.6875 382.947 88.2897 385.291 89.2012C387.667 90.1126 389.93 91.3984 392.078 93.0586C394.227 94.7188 396.115 96.8997 397.742 99.6016C399.37 102.303 400.656 105.607 401.6 109.514C402.576 113.387 403.064 118.01 403.064 123.381ZM379.188 122.307C379.188 118.498 379.074 115.324 378.846 112.785C378.618 110.246 378.276 108.212 377.82 106.682C377.397 105.119 376.86 104.012 376.209 103.361C375.558 102.71 374.809 102.385 373.963 102.385C373.214 102.385 372.531 102.775 371.912 103.557C371.326 104.305 370.822 105.526 370.398 107.219C369.975 108.911 369.65 111.092 369.422 113.762C369.194 116.398 369.08 119.605 369.08 123.381C369.08 127.352 369.178 130.673 369.373 133.342C369.601 135.979 369.91 138.094 370.301 139.689C370.724 141.285 371.229 142.424 371.814 143.107C372.433 143.758 373.149 144.084 373.963 144.084C375.558 144.084 376.827 142.342 377.771 138.859C378.715 135.376 379.188 129.859 379.188 122.307ZM435.584 157.707C434.9 157.642 434.135 157.577 433.289 157.512C432.54 157.447 431.645 157.398 430.604 157.365C429.562 157.333 428.357 157.316 426.99 157.316C424.354 157.316 421.294 157.43 417.811 157.658C414.327 157.886 410.551 158.326 406.482 158.977C407.199 157.512 407.817 155.656 408.338 153.41C408.859 151.164 409.282 148.771 409.607 146.232C409.965 143.661 410.242 141.057 410.438 138.42C410.633 135.783 410.779 133.326 410.877 131.047C410.975 128.768 411.023 126.799 411.023 125.139C411.056 123.479 411.072 122.339 411.072 121.721C411.072 121.59 411.056 121.086 411.023 120.207C411.023 119.328 411.007 118.189 410.975 116.789C410.942 115.389 410.893 113.794 410.828 112.004C410.763 110.181 410.665 108.293 410.535 106.34C410.438 104.387 410.291 102.417 410.096 100.432C409.933 98.446 409.721 96.5742 409.461 94.8164C409.233 93.0586 408.956 91.4798 408.631 90.0801C408.338 88.6478 407.98 87.5247 407.557 86.7109C410.844 87.2969 413.855 87.6875 416.59 87.8828C419.357 88.0781 421.847 88.1758 424.061 88.1758C425.525 88.1758 426.844 88.1432 428.016 88.0781C429.188 88.013 430.18 87.9479 430.994 87.8828C431.938 87.7852 432.768 87.6875 433.484 87.5898C433.094 89.4128 432.752 91.4473 432.459 93.6934C432.166 95.9069 431.906 98.2832 431.678 100.822C431.45 103.329 431.271 105.965 431.141 108.732C431.043 111.499 430.994 114.348 430.994 117.277C430.994 120.663 431.076 124.113 431.238 127.629C431.401 131.112 431.661 134.579 432.02 138.029C432.41 141.48 432.882 144.865 433.436 148.186C434.021 151.506 434.738 154.68 435.584 157.707ZM478.113 157.805C477.365 157.74 476.502 157.674 475.525 157.609C474.679 157.544 473.686 157.495 472.547 157.463C471.408 157.43 470.122 157.414 468.689 157.414C466.281 157.414 463.562 157.512 460.535 157.707C457.54 157.87 454.367 158.195 451.014 158.684C452.153 153.866 453.016 149.227 453.602 144.768C454.188 140.308 454.627 136.337 454.92 132.854C455.245 128.785 455.441 124.96 455.506 121.379C455.506 119.849 455.473 118.173 455.408 116.35C455.343 114.787 455.262 112.98 455.164 110.93C455.066 108.846 454.936 106.6 454.773 104.191C453.243 105.656 451.714 107.235 450.184 108.928C448.686 110.588 447.238 112.329 445.838 114.152C444.438 115.943 443.12 117.766 441.883 119.621C440.678 121.477 439.62 123.299 438.709 125.09L439.881 87.7852C442.941 88.1432 446.163 88.4199 449.549 88.6152C452.967 88.8105 456.45 88.9082 459.998 88.9082C465.076 88.9082 470.105 88.7292 475.086 88.3711C480.066 88.013 484.64 87.4922 488.807 86.8086L490.613 124.504C488.27 120.044 485.665 115.861 482.801 111.955C479.969 108.016 476.941 104.729 473.719 102.092C473.458 104.305 473.263 106.633 473.133 109.074C473.035 111.483 472.986 113.957 472.986 116.496C472.986 119.784 473.084 123.169 473.279 126.652C473.507 130.103 473.816 133.586 474.207 137.102C474.63 140.617 475.167 144.117 475.818 147.6C476.469 151.083 477.234 154.484 478.113 157.805ZM544.178 102.287C544.178 103.915 543.868 105.396 543.25 106.73C542.664 108.033 541.834 109.156 540.76 110.1C539.686 111.044 538.416 111.776 536.951 112.297C535.519 112.818 533.956 113.078 532.264 113.078C530.408 113.078 528.813 112.85 527.479 112.395C526.176 111.939 525.07 111.369 524.158 110.686C523.279 109.969 522.579 109.188 522.059 108.342C521.538 107.463 521.131 106.617 520.838 105.803C520.577 104.989 520.398 104.24 520.301 103.557C520.236 102.873 520.203 102.352 520.203 101.994C520.594 102.645 521.049 103.068 521.57 103.264C522.091 103.426 522.531 103.508 522.889 103.508C523.8 103.508 524.435 103.264 524.793 102.775C525.184 102.287 525.379 101.766 525.379 101.213C525.379 100.855 525.298 100.48 525.135 100.09C525.005 99.6992 524.744 99.3411 524.354 99.0156C523.995 98.6576 523.491 98.3646 522.84 98.1367C522.221 97.9089 521.44 97.7949 520.496 97.7949C519.845 97.7949 519.178 97.9251 518.494 98.1855C517.811 98.4134 517.176 98.7878 516.59 99.3086C516.036 99.7969 515.581 100.415 515.223 101.164C514.865 101.913 514.686 102.792 514.686 103.801C514.686 104.777 514.881 105.754 515.271 106.73C515.695 107.674 516.248 108.57 516.932 109.416C517.648 110.262 518.478 111.027 519.422 111.711C520.398 112.395 521.456 112.964 522.596 113.42C524.386 114.169 526.225 114.901 528.113 115.617C530.034 116.333 531.889 117.115 533.68 117.961C535.47 118.807 537.146 119.784 538.709 120.891C540.304 121.965 541.688 123.251 542.859 124.748C544.064 126.245 545.008 128.003 545.691 130.021C546.408 132.007 546.766 134.335 546.766 137.004C546.766 140.812 545.984 144.296 544.422 147.453C542.892 150.578 540.825 153.264 538.221 155.51C535.649 157.723 532.654 159.432 529.236 160.637C525.851 161.874 522.303 162.492 518.592 162.492C515.239 162.492 512.049 161.988 509.021 160.979C505.994 160.002 503.341 158.651 501.062 156.926C498.784 155.201 496.961 153.182 495.594 150.871C494.259 148.527 493.592 146.005 493.592 143.303C493.592 141.317 493.917 139.576 494.568 138.078C495.219 136.581 496.115 135.344 497.254 134.367C498.426 133.358 499.777 132.609 501.307 132.121C502.869 131.633 504.529 131.389 506.287 131.389C507.654 131.389 508.989 131.535 510.291 131.828C511.626 132.121 512.863 132.561 514.002 133.146C515.174 133.7 516.215 134.383 517.127 135.197C518.071 136.011 518.82 136.939 519.373 137.98C518.689 137.785 518.087 137.688 517.566 137.688C516.688 137.688 515.988 137.948 515.467 138.469C514.946 138.99 514.686 139.771 514.686 140.812C514.686 141.366 514.816 141.887 515.076 142.375C515.337 142.831 515.662 143.238 516.053 143.596C516.476 143.954 516.948 144.23 517.469 144.426C518.022 144.621 518.592 144.719 519.178 144.719C519.829 144.719 520.431 144.589 520.984 144.328C521.538 144.035 522.026 143.661 522.449 143.205C522.872 142.749 523.198 142.245 523.426 141.691C523.654 141.138 523.768 140.568 523.768 139.982C523.768 138.843 523.41 137.688 522.693 136.516C522.01 135.344 521.001 134.302 519.666 133.391C517.127 131.828 514.734 130.477 512.488 129.338C510.242 128.199 508.175 127.124 506.287 126.115C504.399 125.074 502.69 124.032 501.16 122.99C499.663 121.949 498.377 120.744 497.303 119.377C496.261 118.01 495.464 116.415 494.91 114.592C494.357 112.736 494.08 110.507 494.08 107.902C494.08 104.777 494.682 101.848 495.887 99.1133C497.091 96.3789 498.833 94.0026 501.111 91.9844C503.423 89.9336 506.238 88.3223 509.559 87.1504C512.879 85.9785 516.655 85.3926 520.887 85.3926C525.151 85.3926 528.764 85.9134 531.727 86.9551C534.689 87.9642 537.081 89.2826 538.904 90.9102C540.76 92.5378 542.094 94.3607 542.908 96.3789C543.755 98.3646 544.178 100.334 544.178 102.287Z" fill="white" fill-opacity="0.85"/>
</g>
</g>
<defs>
<filter id="filter0_d_1_70" x="0" y="0" width="732" height="325" filterUnits="userSpaceOnUse" color-interpolation-filters="sRGB">
<feFlood flood-opacity="0" result="BackgroundImageFix"/>
<feColorMatrix in="SourceAlpha" type="matrix" values="0 0 0 0 0 0 0 0 0 0 0 0 0 0 0 0 0 0 127 0" result="hardAlpha"/>
<feOffset dx="4" dy="38"/>
<feGaussianBlur stdDeviation="31"/>
<feColorMatrix type="matrix" values="0 0 0 0 0 0 0 0 0 0 0 0 0 0 0 0 0 0 0.5 0"/>
<feBlend mode="normal" in2="BackgroundImageFix" result="effect1_dropShadow_1_70"/>
<feBlend mode="normal" in="SourceGraphic" in2="effect1_dropShadow_1_70" result="shape"/>
</filter>
<filter id="filter1_d_1_70" x="177.771" y="60.4414" width="370.994" height="104.051" filterUnits="userSpaceOnUse" color-interpolation-filters="sRGB">
<feFlood flood-opacity="0" result="BackgroundImageFix"/>
<feColorMatrix in="SourceAlpha" type="matrix" values="0 0 0 0 0 0 0 0 0 0 0 0 0 0 0 0 0 0 127 0" result="hardAlpha"/>
<feOffset dx="1" dy="1"/>
<feGaussianBlur stdDeviation="0.5"/>
<feColorMatrix type="matrix" values="0 0 0 0 0 0 0 0 0 0 0 0 0 0 0 0 0 0 0.25 0"/>
<feBlend mode="normal" in2="BackgroundImageFix" result="effect1_dropShadow_1_70"/>
<feBlend mode="normal" in="SourceGraphic" in2="effect1_dropShadow_1_70" result="shape"/>
</filter>
<radialGradient id="paint0_radial_1_70" cx="0" cy="0" r="1" gradientUnits="userSpaceOnUse" gradientTransform="translate(252.361 63.541) rotate(26.0832) scale(288.533 245.667)">
<stop stop-color="white"/>
<stop offset="0.697917" stop-color="white" stop-opacity="0"/>
<stop offset="1" stop-color="white" stop-opacity="0"/>
</radialGradient>
</defs>
</svg>
