<svg width="732" height="325" viewBox="0 0 732 325" fill="none" xmlns="http://www.w3.org/2000/svg">
<g filter="url(#filter0_d_1_70)">
<rect x="58" y="24" width="608" height="201" rx="25" fill="#DD6F6F"/>
<rect x="58" y="24" width="608" height="201" rx="25" fill="url(#paint0_radial_1_70)" fill-opacity="0.7"/>
<g filter="url(#filter1_d_1_70)">
<path d="M259.021 106.291C259.021 107.951 258.729 109.644 258.143 111.369C257.557 113.062 256.71 114.608 255.604 116.008C254.529 117.375 253.211 118.498 251.648 119.377C250.086 120.256 248.312 120.695 246.326 120.695C244.568 120.695 243.055 120.402 241.785 119.816C240.548 119.198 239.523 118.384 238.709 117.375C237.928 116.366 237.342 115.227 236.951 113.957C236.561 112.688 236.365 111.369 236.365 110.002C236.365 108.635 236.528 107.316 236.854 106.047C237.212 104.745 237.749 103.589 238.465 102.58C238.66 103.264 238.921 103.801 239.246 104.191C239.572 104.549 239.913 104.81 240.271 104.973C240.662 105.168 241.085 105.282 241.541 105.314C242.583 105.314 243.315 105.038 243.738 104.484C244.194 103.931 244.422 103.296 244.422 102.58C244.422 102.255 244.357 101.929 244.227 101.604C244.096 101.245 243.885 100.92 243.592 100.627C243.331 100.334 242.973 100.09 242.518 99.8945C242.062 99.6992 241.508 99.6016 240.857 99.6016C240.499 99.6016 239.979 99.6504 239.295 99.748C238.644 99.8457 237.911 100.106 237.098 100.529C236.284 100.92 235.454 101.522 234.607 102.336C233.761 103.15 232.98 104.257 232.264 105.656C231.58 107.056 231.01 108.798 230.555 110.881C230.132 112.964 229.92 115.503 229.92 118.498C229.92 120.549 230.115 122.339 230.506 123.869C230.929 125.367 231.466 126.652 232.117 127.727C232.768 128.801 233.517 129.68 234.363 130.363C235.21 131.047 236.072 131.584 236.951 131.975C237.83 132.365 238.676 132.642 239.49 132.805C240.337 132.935 241.085 133 241.736 133C242.583 133 243.641 132.854 244.91 132.561C246.212 132.235 247.498 131.665 248.768 130.852C250.037 130.038 251.176 128.915 252.186 127.482C253.227 126.05 253.943 124.195 254.334 121.916C255.473 123.511 256.336 125.415 256.922 127.629C257.54 129.842 257.85 132.17 257.85 134.611C257.85 137.932 257.247 141.154 256.043 144.279C254.871 147.372 253.178 150.122 250.965 152.531C248.784 154.94 246.131 156.861 243.006 158.293C239.881 159.758 236.398 160.49 232.557 160.49C229.725 160.49 227.104 160.035 224.695 159.123C222.286 158.244 220.089 157.007 218.104 155.412C216.118 153.817 214.376 151.945 212.879 149.797C211.382 147.616 210.112 145.256 209.07 142.717C208.029 140.178 207.247 137.508 206.727 134.709C206.206 131.877 205.945 129.012 205.945 126.115C205.945 122.925 206.287 119.719 206.971 116.496C207.654 113.241 208.631 110.116 209.9 107.121C211.202 104.126 212.765 101.327 214.588 98.7227C216.443 96.0859 218.543 93.8073 220.887 91.8867C223.23 89.9336 225.802 88.4036 228.602 87.2969C231.401 86.1576 234.38 85.5879 237.537 85.5879C240.402 85.5879 242.924 85.9297 245.105 86.6133C247.286 87.2643 249.158 88.1595 250.721 89.2988C252.316 90.4056 253.65 91.6751 254.725 93.1074C255.799 94.5397 256.645 96.0208 257.264 97.5508C257.915 99.0807 258.37 100.611 258.631 102.141C258.891 103.638 259.021 105.021 259.021 106.291ZM309.07 158.684C307.378 158.358 305.636 158.114 303.846 157.951C302.088 157.756 300.216 157.609 298.23 157.512C296.277 157.414 294.178 157.365 291.932 157.365C289.718 157.333 287.309 157.316 284.705 157.316C283.468 157.316 281.987 157.333 280.262 157.365C278.569 157.398 276.73 157.479 274.744 157.609C272.791 157.74 270.773 157.919 268.689 158.146C266.606 158.407 264.572 158.732 262.586 159.123C263.302 157.658 263.921 155.819 264.441 153.605C264.962 151.359 265.385 148.983 265.711 146.477C266.069 143.97 266.346 141.415 266.541 138.811C266.736 136.206 266.883 133.781 266.98 131.535C267.078 129.289 267.127 127.352 267.127 125.725C267.16 124.064 267.176 122.925 267.176 122.307C267.176 122.176 267.16 121.672 267.127 120.793C267.127 119.914 267.111 118.775 267.078 117.375C267.046 115.975 266.997 114.38 266.932 112.59C266.867 110.767 266.769 108.879 266.639 106.926C266.541 104.973 266.395 103.003 266.199 101.018C266.036 99.0319 265.825 97.1602 265.564 95.4023C265.337 93.612 265.06 92.0169 264.734 90.6172C264.441 89.1849 264.083 88.0456 263.66 87.1992C266.85 87.6549 269.992 87.9967 273.084 88.2246C276.176 88.4199 279.171 88.5176 282.068 88.5176C285.617 88.5176 288.937 88.4199 292.029 88.2246C295.122 88.0293 297.824 87.8014 300.135 87.541C302.837 87.248 305.294 86.9062 307.508 86.5156V109.416C305.62 107.658 303.813 106.307 302.088 105.363C300.363 104.419 298.833 103.719 297.498 103.264C295.936 102.743 294.471 102.45 293.104 102.385C291.476 102.385 290.141 102.596 289.1 103.02C288.09 103.41 287.293 103.931 286.707 104.582C286.154 105.201 285.779 105.917 285.584 106.73C285.389 107.512 285.291 108.309 285.291 109.123C285.291 109.969 285.405 110.816 285.633 111.662C285.893 112.508 286.284 113.273 286.805 113.957C287.326 114.641 287.993 115.21 288.807 115.666C289.653 116.089 290.646 116.301 291.785 116.301C292.729 116.301 293.592 116.089 294.373 115.666C295.154 115.21 295.822 114.706 296.375 114.152C297.026 113.534 297.628 112.818 298.182 112.004V131.877C297.661 130.64 297.042 129.663 296.326 128.947C295.643 128.231 294.959 127.71 294.275 127.385C293.624 127.027 293.022 126.815 292.469 126.75C291.948 126.652 291.59 126.604 291.395 126.604C289.279 126.604 287.7 127.255 286.658 128.557C285.617 129.859 285.096 131.535 285.096 133.586C285.096 135.083 285.258 136.353 285.584 137.395C285.942 138.436 286.398 139.283 286.951 139.934C287.537 140.585 288.204 141.057 288.953 141.35C289.734 141.643 290.548 141.789 291.395 141.789C292.697 141.789 294.096 141.496 295.594 140.91C297.091 140.324 298.523 139.543 299.891 138.566C301.29 137.59 302.56 136.483 303.699 135.246C304.871 133.977 305.799 132.691 306.482 131.389L309.07 158.684ZM290.906 85.4414L281.189 81.0957C283.175 78.2311 285.031 75.4805 286.756 72.8438C287.472 71.737 288.204 70.5977 288.953 69.4258C289.734 68.2539 290.451 67.1309 291.102 66.0566C291.785 64.9499 292.404 63.9082 292.957 62.9316C293.51 61.9551 293.95 61.125 294.275 60.4414C295.285 61.1901 296.505 62.0039 297.938 62.8828C299.402 63.7617 300.818 64.5755 302.186 65.3242C303.748 66.2031 305.376 67.0983 307.068 68.0098L290.906 85.4414ZM370.691 158.781C368.576 158.618 366.59 158.505 364.734 158.439C362.911 158.407 361.219 158.391 359.656 158.391C356.596 158.391 354.041 158.472 351.99 158.635C349.939 158.83 348.263 159.025 346.961 159.221C345.431 159.449 344.21 159.709 343.299 160.002C343.429 158.993 343.559 158.049 343.689 157.17C343.82 156.291 343.917 155.445 343.982 154.631C344.08 153.785 344.145 152.954 344.178 152.141C344.243 151.294 344.275 150.415 344.275 149.504C344.275 145.923 344.129 142.945 343.836 140.568C343.576 138.192 343.185 136.206 342.664 134.611C342.143 133.016 341.508 131.73 340.76 130.754C340.011 129.777 339.181 128.898 338.27 128.117C338.204 129.582 338.156 130.998 338.123 132.365C338.09 133.732 338.074 135.181 338.074 136.711C338.074 138.208 338.107 139.771 338.172 141.398C338.237 143.026 338.351 144.751 338.514 146.574C338.676 148.397 338.921 150.35 339.246 152.434C339.572 154.484 339.979 156.714 340.467 159.123C340.434 158.993 340.011 158.846 339.197 158.684C338.383 158.521 337.293 158.374 335.926 158.244C334.559 158.114 332.98 158.016 331.189 157.951C329.432 157.854 327.592 157.805 325.672 157.805C323.165 157.805 320.659 157.886 318.152 158.049C315.646 158.244 313.383 158.602 311.365 159.123C312.146 158.114 312.846 156.844 313.465 155.314C314.116 153.752 314.686 152.043 315.174 150.188C315.662 148.332 316.069 146.379 316.395 144.328C316.753 142.277 317.062 140.259 317.322 138.273C317.908 133.618 318.299 128.654 318.494 123.381C318.494 122.079 318.494 120.435 318.494 118.449C318.527 116.464 318.494 114.299 318.396 111.955C318.331 109.611 318.201 107.202 318.006 104.729C317.843 102.255 317.55 99.8783 317.127 97.5996C316.736 95.321 316.215 93.2376 315.564 91.3496C314.913 89.4616 314.083 87.9479 313.074 86.8086C315.418 87.1667 317.697 87.4108 319.91 87.541C322.124 87.6387 324.012 87.6875 325.574 87.6875C326.941 87.6875 328.195 87.6549 329.334 87.5898C330.506 87.5247 331.661 87.4596 332.801 87.3945C333.94 87.3294 335.128 87.2643 336.365 87.1992C337.602 87.1341 338.969 87.1016 340.467 87.1016C342.518 87.1016 344.585 87.2155 346.668 87.4434C348.751 87.6387 350.737 88.013 352.625 88.5664C354.546 89.0872 356.32 89.8197 357.947 90.7637C359.607 91.6751 361.04 92.847 362.244 94.2793C363.481 95.679 364.441 97.3717 365.125 99.3574C365.841 101.343 366.199 103.654 366.199 106.291C366.199 107.756 366.004 109.221 365.613 110.686C365.255 112.15 364.653 113.599 363.807 115.031C362.96 116.431 361.854 117.782 360.486 119.084C359.152 120.354 357.508 121.525 355.555 122.6C357.866 123.544 359.607 124.715 360.779 126.115C361.984 127.515 362.846 129.11 363.367 130.9C363.888 132.691 364.165 134.644 364.197 136.76C364.262 138.843 364.327 141.024 364.393 143.303C364.523 145.744 364.832 148.007 365.32 150.09C365.516 150.969 365.76 151.864 366.053 152.775C366.378 153.687 366.753 154.533 367.176 155.314C367.632 156.096 368.136 156.796 368.689 157.414C369.275 158.033 369.943 158.488 370.691 158.781ZM338.27 116.691C338.986 116.171 339.783 115.52 340.662 114.738C341.574 113.924 342.404 113.046 343.152 112.102C343.934 111.125 344.585 110.1 345.105 109.025C345.626 107.951 345.887 106.877 345.887 105.803C345.887 104.761 345.577 103.915 344.959 103.264C344.373 102.613 343.706 102.287 342.957 102.287C341.915 102.287 341.085 102.775 340.467 103.752C339.848 104.696 339.36 105.819 339.002 107.121C338.676 108.423 338.449 109.742 338.318 111.076C338.221 112.378 338.172 113.387 338.172 114.104C338.172 114.494 338.172 114.917 338.172 115.373C338.172 115.796 338.204 116.236 338.27 116.691ZM431.238 123.381C431.238 128.687 430.652 133.244 429.48 137.053C428.309 140.861 426.762 144.1 424.842 146.77C422.921 149.406 420.74 151.538 418.299 153.166C415.857 154.761 413.367 156.014 410.828 156.926C408.322 157.805 405.864 158.391 403.455 158.684C401.046 158.977 398.914 159.123 397.059 159.123C393.901 159.123 391.199 159.009 388.953 158.781C386.74 158.586 384.9 158.488 383.436 158.488C381.775 158.488 379.936 158.521 377.918 158.586C375.9 158.651 373.768 158.781 371.521 158.977C372.4 157.382 373.165 155.607 373.816 153.654C374.5 151.669 375.086 149.602 375.574 147.453C376.062 145.305 376.469 143.14 376.795 140.959C377.153 138.745 377.446 136.613 377.674 134.562C378.195 129.745 378.488 124.797 378.553 119.719C378.488 114.673 378.243 109.937 377.82 105.51C377.625 103.622 377.381 101.734 377.088 99.8457C376.827 97.9251 376.502 96.1185 376.111 94.4258C375.721 92.7005 375.249 91.1543 374.695 89.7871C374.174 88.4199 373.556 87.3294 372.84 86.5156C375.249 86.9062 377.527 87.1667 379.676 87.2969C381.857 87.4271 383.777 87.4922 385.438 87.4922C386.512 87.4922 387.553 87.4596 388.562 87.3945C389.572 87.3294 390.613 87.2643 391.688 87.1992C392.762 87.1341 393.901 87.069 395.105 87.0039C396.342 86.9388 397.726 86.9062 399.256 86.9062C401.469 86.9062 403.797 87.069 406.238 87.3945C408.712 87.6875 411.121 88.2897 413.465 89.2012C415.841 90.1126 418.104 91.3984 420.252 93.0586C422.4 94.7188 424.288 96.8997 425.916 99.6016C427.544 102.303 428.829 105.607 429.773 109.514C430.75 113.387 431.238 118.01 431.238 123.381ZM407.361 122.307C407.361 118.498 407.247 115.324 407.02 112.785C406.792 110.246 406.45 108.212 405.994 106.682C405.571 105.119 405.034 104.012 404.383 103.361C403.732 102.71 402.983 102.385 402.137 102.385C401.388 102.385 400.704 102.775 400.086 103.557C399.5 104.305 398.995 105.526 398.572 107.219C398.149 108.911 397.824 111.092 397.596 113.762C397.368 116.398 397.254 119.605 397.254 123.381C397.254 127.352 397.352 130.673 397.547 133.342C397.775 135.979 398.084 138.094 398.475 139.689C398.898 141.285 399.402 142.424 399.988 143.107C400.607 143.758 401.323 144.084 402.137 144.084C403.732 144.084 405.001 142.342 405.945 138.859C406.889 135.376 407.361 129.859 407.361 122.307ZM463.758 157.707C463.074 157.642 462.309 157.577 461.463 157.512C460.714 157.447 459.819 157.398 458.777 157.365C457.736 157.333 456.531 157.316 455.164 157.316C452.527 157.316 449.467 157.43 445.984 157.658C442.501 157.886 438.725 158.326 434.656 158.977C435.372 157.512 435.991 155.656 436.512 153.41C437.033 151.164 437.456 148.771 437.781 146.232C438.139 143.661 438.416 141.057 438.611 138.42C438.807 135.783 438.953 133.326 439.051 131.047C439.148 128.768 439.197 126.799 439.197 125.139C439.23 123.479 439.246 122.339 439.246 121.721C439.246 121.59 439.23 121.086 439.197 120.207C439.197 119.328 439.181 118.189 439.148 116.789C439.116 115.389 439.067 113.794 439.002 112.004C438.937 110.181 438.839 108.293 438.709 106.34C438.611 104.387 438.465 102.417 438.27 100.432C438.107 98.446 437.895 96.5742 437.635 94.8164C437.407 93.0586 437.13 91.4798 436.805 90.0801C436.512 88.6478 436.154 87.5247 435.73 86.7109C439.018 87.2969 442.029 87.6875 444.764 87.8828C447.531 88.0781 450.021 88.1758 452.234 88.1758C453.699 88.1758 455.018 88.1432 456.189 88.0781C457.361 88.013 458.354 87.9479 459.168 87.8828C460.112 87.7852 460.942 87.6875 461.658 87.5898C461.268 89.4128 460.926 91.4473 460.633 93.6934C460.34 95.9069 460.079 98.2832 459.852 100.822C459.624 103.329 459.445 105.965 459.314 108.732C459.217 111.499 459.168 114.348 459.168 117.277C459.168 120.663 459.249 124.113 459.412 127.629C459.575 131.112 459.835 134.579 460.193 138.029C460.584 141.48 461.056 144.865 461.609 148.186C462.195 151.506 462.911 154.68 463.758 157.707ZM506.287 157.805C505.538 157.74 504.676 157.674 503.699 157.609C502.853 157.544 501.86 157.495 500.721 157.463C499.581 157.43 498.296 157.414 496.863 157.414C494.454 157.414 491.736 157.512 488.709 157.707C485.714 157.87 482.54 158.195 479.188 158.684C480.327 153.866 481.189 149.227 481.775 144.768C482.361 140.308 482.801 136.337 483.094 132.854C483.419 128.785 483.615 124.96 483.68 121.379C483.68 119.849 483.647 118.173 483.582 116.35C483.517 114.787 483.436 112.98 483.338 110.93C483.24 108.846 483.11 106.6 482.947 104.191C481.417 105.656 479.887 107.235 478.357 108.928C476.86 110.588 475.411 112.329 474.012 114.152C472.612 115.943 471.294 117.766 470.057 119.621C468.852 121.477 467.794 123.299 466.883 125.09L468.055 87.7852C471.115 88.1432 474.337 88.4199 477.723 88.6152C481.141 88.8105 484.624 88.9082 488.172 88.9082C493.25 88.9082 498.279 88.7292 503.26 88.3711C508.24 88.013 512.814 87.4922 516.98 86.8086L518.787 124.504C516.443 120.044 513.839 115.861 510.975 111.955C508.143 108.016 505.115 104.729 501.893 102.092C501.632 104.305 501.437 106.633 501.307 109.074C501.209 111.483 501.16 113.957 501.16 116.496C501.16 119.784 501.258 123.169 501.453 126.652C501.681 130.103 501.99 133.586 502.381 137.102C502.804 140.617 503.341 144.117 503.992 147.6C504.643 151.083 505.408 154.484 506.287 157.805Z" fill="white" fill-opacity="0.85"/>
</g>
</g>
<defs>
<filter id="filter0_d_1_70" x="0" y="0" width="732" height="325" filterUnits="userSpaceOnUse" color-interpolation-filters="sRGB">
<feFlood flood-opacity="0" result="BackgroundImageFix"/>
<feColorMatrix in="SourceAlpha" type="matrix" values="0 0 0 0 0 0 0 0 0 0 0 0 0 0 0 0 0 0 127 0" result="hardAlpha"/>
<feOffset dx="4" dy="38"/>
<feGaussianBlur stdDeviation="31"/>
<feColorMatrix type="matrix" values="0 0 0 0 0 0 0 0 0 0 0 0 0 0 0 0 0 0 0.5 0"/>
<feBlend mode="normal" in2="BackgroundImageFix" result="effect1_dropShadow_1_70"/>
<feBlend mode="normal" in="SourceGraphic" in2="effect1_dropShadow_1_70" result="shape"/>
</filter>
<filter id="filter1_d_1_70" x="205.945" y="60.4414" width="314.842" height="102.049" filterUnits="userSpaceOnUse" color-interpolation-filters="sRGB">
<feFlood flood-opacity="0" result="BackgroundImageFix"/>
<feColorMatrix in="SourceAlpha" type="matrix" values="0 0 0 0 0 0 0 0 0 0 0 0 0 0 0 0 0 0 127 0" result="hardAlpha"/>
<feOffset dx="1" dy="1"/>
<feGaussianBlur stdDeviation="0.5"/>
<feColorMatrix type="matrix" values="0 0 0 0 0 0 0 0 0 0 0 0 0 0 0 0 0 0 0.25 0"/>
<feBlend mode="normal" in2="BackgroundImageFix" result="effect1_dropShadow_1_70"/>
<feBlend mode="normal" in="SourceGraphic" in2="effect1_dropShadow_1_70" result="shape"/>
</filter>
<radialGradient id="paint0_radial_1_70" cx="0" cy="0" r="1" gradientUnits="userSpaceOnUse" gradientTransform="translate(252.361 63.541) rotate(26.0832) scale(288.533 245.667)">
<stop stop-color="white"/>
<stop offset="0.697917" stop-color="white" stop-opacity="0"/>
<stop offset="1" stop-color="white" stop-opacity="0"/>
</radialGradient>
</defs>
</svg>
