<svg width="732" height="325" viewBox="0 0 732 325" fill="none" xmlns="http://www.w3.org/2000/svg">
<g filter="url(#filter0_d_1_70)">
<rect x="58" y="24" width="608" height="201" rx="25" fill="#DD6F6F"/>
<rect x="58" y="24" width="608" height="201" rx="25" fill="url(#paint0_radial_1_70)" fill-opacity="0.7"/>
<g filter="url(#filter1_d_1_70)">
<path d="M230.799 158.781C228.683 158.618 226.697 158.505 224.842 158.439C223.019 158.407 221.326 158.391 219.764 158.391C216.704 158.391 214.148 158.472 212.098 158.635C210.047 158.83 208.37 159.025 207.068 159.221C205.538 159.449 204.318 159.709 203.406 160.002C203.536 158.993 203.667 158.049 203.797 157.17C203.927 156.291 204.025 155.445 204.09 154.631C204.188 153.785 204.253 152.954 204.285 152.141C204.35 151.294 204.383 150.415 204.383 149.504C204.383 145.923 204.236 142.945 203.943 140.568C203.683 138.192 203.292 136.206 202.771 134.611C202.251 133.016 201.616 131.73 200.867 130.754C200.118 129.777 199.288 128.898 198.377 128.117C198.312 129.582 198.263 130.998 198.23 132.365C198.198 133.732 198.182 135.181 198.182 136.711C198.182 138.208 198.214 139.771 198.279 141.398C198.344 143.026 198.458 144.751 198.621 146.574C198.784 148.397 199.028 150.35 199.354 152.434C199.679 154.484 200.086 156.714 200.574 159.123C200.542 158.993 200.118 158.846 199.305 158.684C198.491 158.521 197.4 158.374 196.033 158.244C194.666 158.114 193.087 158.016 191.297 157.951C189.539 157.854 187.7 157.805 185.779 157.805C183.273 157.805 180.766 157.886 178.26 158.049C175.753 158.244 173.491 158.602 171.473 159.123C172.254 158.114 172.954 156.844 173.572 155.314C174.223 153.752 174.793 152.043 175.281 150.188C175.77 148.332 176.176 146.379 176.502 144.328C176.86 142.277 177.169 140.259 177.43 138.273C178.016 133.618 178.406 128.654 178.602 123.381C178.602 122.079 178.602 120.435 178.602 118.449C178.634 116.464 178.602 114.299 178.504 111.955C178.439 109.611 178.309 107.202 178.113 104.729C177.951 102.255 177.658 99.8783 177.234 97.5996C176.844 95.321 176.323 93.2376 175.672 91.3496C175.021 89.4616 174.191 87.9479 173.182 86.8086C175.525 87.1667 177.804 87.4108 180.018 87.541C182.231 87.6387 184.119 87.6875 185.682 87.6875C187.049 87.6875 188.302 87.6549 189.441 87.5898C190.613 87.5247 191.769 87.4596 192.908 87.3945C194.048 87.3294 195.236 87.2643 196.473 87.1992C197.71 87.1341 199.077 87.1016 200.574 87.1016C202.625 87.1016 204.692 87.2155 206.775 87.4434C208.859 87.6387 210.844 88.013 212.732 88.5664C214.653 89.0872 216.427 89.8197 218.055 90.7637C219.715 91.6751 221.147 92.847 222.352 94.2793C223.589 95.679 224.549 97.3717 225.232 99.3574C225.949 101.343 226.307 103.654 226.307 106.291C226.307 107.756 226.111 109.221 225.721 110.686C225.363 112.15 224.76 113.599 223.914 115.031C223.068 116.431 221.961 117.782 220.594 119.084C219.259 120.354 217.615 121.525 215.662 122.6C217.973 123.544 219.715 124.715 220.887 126.115C222.091 127.515 222.954 129.11 223.475 130.9C223.995 132.691 224.272 134.644 224.305 136.76C224.37 138.843 224.435 141.024 224.5 143.303C224.63 145.744 224.939 148.007 225.428 150.09C225.623 150.969 225.867 151.864 226.16 152.775C226.486 153.687 226.86 154.533 227.283 155.314C227.739 156.096 228.243 156.796 228.797 157.414C229.383 158.033 230.05 158.488 230.799 158.781ZM198.377 116.691C199.093 116.171 199.891 115.52 200.77 114.738C201.681 113.924 202.511 113.046 203.26 112.102C204.041 111.125 204.692 110.1 205.213 109.025C205.734 107.951 205.994 106.877 205.994 105.803C205.994 104.761 205.685 103.915 205.066 103.264C204.48 102.613 203.813 102.287 203.064 102.287C202.023 102.287 201.193 102.775 200.574 103.752C199.956 104.696 199.467 105.819 199.109 107.121C198.784 108.423 198.556 109.742 198.426 111.076C198.328 112.378 198.279 113.387 198.279 114.104C198.279 114.494 198.279 114.917 198.279 115.373C198.279 115.796 198.312 116.236 198.377 116.691ZM279.432 158.684C277.739 158.358 275.997 158.114 274.207 157.951C272.449 157.756 270.577 157.609 268.592 157.512C266.639 157.414 264.539 157.365 262.293 157.365C260.079 157.333 257.671 157.316 255.066 157.316C253.829 157.316 252.348 157.333 250.623 157.365C248.93 157.398 247.091 157.479 245.105 157.609C243.152 157.74 241.134 157.919 239.051 158.146C236.967 158.407 234.933 158.732 232.947 159.123C233.663 157.658 234.282 155.819 234.803 153.605C235.324 151.359 235.747 148.983 236.072 146.477C236.43 143.97 236.707 141.415 236.902 138.811C237.098 136.206 237.244 133.781 237.342 131.535C237.439 129.289 237.488 127.352 237.488 125.725C237.521 124.064 237.537 122.925 237.537 122.307C237.537 122.176 237.521 121.672 237.488 120.793C237.488 119.914 237.472 118.775 237.439 117.375C237.407 115.975 237.358 114.38 237.293 112.59C237.228 110.767 237.13 108.879 237 106.926C236.902 104.973 236.756 103.003 236.561 101.018C236.398 99.0319 236.186 97.1602 235.926 95.4023C235.698 93.612 235.421 92.0169 235.096 90.6172C234.803 89.1849 234.445 88.0456 234.021 87.1992C237.212 87.6549 240.353 87.9967 243.445 88.2246C246.538 88.4199 249.533 88.5176 252.43 88.5176C255.978 88.5176 259.298 88.4199 262.391 88.2246C265.483 88.0293 268.185 87.8014 270.496 87.541C273.198 87.248 275.656 86.9062 277.869 86.5156V109.416C275.981 107.658 274.174 106.307 272.449 105.363C270.724 104.419 269.194 103.719 267.859 103.264C266.297 102.743 264.832 102.45 263.465 102.385C261.837 102.385 260.503 102.596 259.461 103.02C258.452 103.41 257.654 103.931 257.068 104.582C256.515 105.201 256.141 105.917 255.945 106.73C255.75 107.512 255.652 108.309 255.652 109.123C255.652 109.969 255.766 110.816 255.994 111.662C256.255 112.508 256.645 113.273 257.166 113.957C257.687 114.641 258.354 115.21 259.168 115.666C260.014 116.089 261.007 116.301 262.146 116.301C263.09 116.301 263.953 116.089 264.734 115.666C265.516 115.21 266.183 114.706 266.736 114.152C267.387 113.534 267.99 112.818 268.543 112.004V131.877C268.022 130.64 267.404 129.663 266.688 128.947C266.004 128.231 265.32 127.71 264.637 127.385C263.986 127.027 263.383 126.815 262.83 126.75C262.309 126.652 261.951 126.604 261.756 126.604C259.64 126.604 258.061 127.255 257.02 128.557C255.978 129.859 255.457 131.535 255.457 133.586C255.457 135.083 255.62 136.353 255.945 137.395C256.303 138.436 256.759 139.283 257.312 139.934C257.898 140.585 258.566 141.057 259.314 141.35C260.096 141.643 260.91 141.789 261.756 141.789C263.058 141.789 264.458 141.496 265.955 140.91C267.452 140.324 268.885 139.543 270.252 138.566C271.652 137.59 272.921 136.483 274.061 135.246C275.232 133.977 276.16 132.691 276.844 131.389L279.432 158.684ZM261.268 85.4414L251.551 81.0957C253.536 78.2311 255.392 75.4805 257.117 72.8438C257.833 71.737 258.566 70.5977 259.314 69.4258C260.096 68.2539 260.812 67.1309 261.463 66.0566C262.146 64.9499 262.765 63.9082 263.318 62.9316C263.872 61.9551 264.311 61.125 264.637 60.4414C265.646 61.1901 266.867 62.0039 268.299 62.8828C269.764 63.7617 271.18 64.5755 272.547 65.3242C274.109 66.2031 275.737 67.0983 277.43 68.0098L261.268 85.4414ZM338.855 121.281C336.186 127.889 334.852 134.302 334.852 140.52C334.852 143.514 335.128 146.542 335.682 149.602C336.235 152.629 337.098 155.721 338.27 158.879C336.414 158.423 334.689 158.081 333.094 157.854C331.499 157.626 329.92 157.512 328.357 157.512C326.697 157.512 325.005 157.658 323.279 157.951C321.554 158.244 319.682 158.7 317.664 159.318L319.666 151.506C319.015 152.548 318.234 153.622 317.322 154.729C316.411 155.803 315.32 156.779 314.051 157.658C312.814 158.537 311.382 159.253 309.754 159.807C308.159 160.393 306.32 160.686 304.236 160.686C301.111 160.686 298.23 159.937 295.594 158.439C292.99 156.942 290.743 154.777 288.855 151.945C286.967 149.113 285.486 145.646 284.412 141.545C283.37 137.411 282.85 132.723 282.85 127.482C282.85 123.999 283.175 120.549 283.826 117.131C284.477 113.68 285.421 110.409 286.658 107.316C287.895 104.191 289.425 101.311 291.248 98.6738C293.071 96.0046 295.138 93.7096 297.449 91.7891C299.76 89.8359 302.316 88.3223 305.115 87.248C307.947 86.1413 310.991 85.5879 314.246 85.5879C317.208 85.5879 319.796 85.8971 322.01 86.5156C324.223 87.1016 326.144 87.8991 327.771 88.9082C329.399 89.8848 330.734 91.0241 331.775 92.3262C332.85 93.5957 333.696 94.9303 334.314 96.3301C334.933 97.7298 335.372 99.1296 335.633 100.529C335.893 101.896 336.023 103.182 336.023 104.387C336.023 106.112 335.714 107.772 335.096 109.367C334.51 110.962 333.68 112.362 332.605 113.566C331.531 114.771 330.262 115.731 328.797 116.447C327.332 117.163 325.721 117.521 323.963 117.521C322.14 117.521 320.561 117.245 319.227 116.691C317.892 116.138 316.785 115.422 315.906 114.543C315.027 113.632 314.36 112.622 313.904 111.516C313.481 110.409 313.27 109.302 313.27 108.195C313.27 107.251 313.432 106.291 313.758 105.314C314.083 104.338 314.539 103.426 315.125 102.58C315.32 103.264 315.597 103.801 315.955 104.191C316.313 104.549 316.671 104.81 317.029 104.973C317.42 105.168 317.859 105.282 318.348 105.314C319.454 105.314 320.236 105.038 320.691 104.484C321.18 103.931 321.424 103.296 321.424 102.58C321.424 102.255 321.342 101.929 321.18 101.604C321.049 101.245 320.838 100.92 320.545 100.627C320.252 100.334 319.861 100.09 319.373 99.8945C318.917 99.6992 318.348 99.6016 317.664 99.6016C317.208 99.6016 316.574 99.6992 315.76 99.8945C314.979 100.057 314.116 100.399 313.172 100.92C312.26 101.441 311.333 102.189 310.389 103.166C309.445 104.11 308.582 105.38 307.801 106.975C307.02 108.57 306.385 110.523 305.896 112.834C305.408 115.145 305.164 117.896 305.164 121.086C305.164 123.723 305.376 126.034 305.799 128.02C306.255 130.005 306.873 131.665 307.654 133C308.436 134.335 309.363 135.344 310.438 136.027C311.512 136.678 312.684 137.004 313.953 137.004C315.158 137.004 316.15 136.695 316.932 136.076C317.713 135.458 318.331 134.709 318.787 133.83C319.243 132.951 319.552 132.04 319.715 131.096C319.878 130.152 319.959 129.354 319.959 128.703C319.959 128.671 319.926 128.443 319.861 128.02C319.829 127.596 319.682 127.108 319.422 126.555C319.161 126.001 318.738 125.432 318.152 124.846C317.566 124.26 316.736 123.771 315.662 123.381C319.503 123.381 323.361 123.218 327.234 122.893C331.108 122.535 334.982 121.997 338.855 121.281ZM386.316 158.684C385.177 158.423 383.826 158.195 382.264 158C380.734 157.805 379.122 157.658 377.43 157.561C375.77 157.463 374.109 157.398 372.449 157.365C370.822 157.3 369.34 157.268 368.006 157.268C366.704 157.235 365.63 157.219 364.783 157.219C363.937 157.219 363.481 157.219 363.416 157.219C361.398 157.251 359.217 157.349 356.873 157.512C354.855 157.674 352.544 157.902 349.939 158.195C347.368 158.521 344.666 158.96 341.834 159.514C342.485 157.007 343.055 154.208 343.543 151.115C344.031 147.99 344.438 144.686 344.764 141.203C345.089 137.72 345.333 134.123 345.496 130.412C345.659 126.701 345.74 122.99 345.74 119.279C345.74 116.219 345.675 113.208 345.545 110.246C345.447 107.251 345.268 104.387 345.008 101.652C344.78 98.918 344.487 96.3301 344.129 93.8887C343.803 91.4473 343.396 89.2174 342.908 87.1992C346.294 87.8177 349.354 88.2246 352.088 88.4199C354.855 88.6152 357.296 88.7129 359.412 88.7129C360.747 88.7129 361.935 88.6966 362.977 88.6641C364.018 88.599 364.897 88.5339 365.613 88.4688C366.46 88.3711 367.192 88.2734 367.811 88.1758C367.094 90.5195 366.427 93.0586 365.809 95.793C365.19 98.5273 364.653 101.343 364.197 104.24C363.774 107.105 363.432 109.986 363.172 112.883C362.944 115.78 362.83 118.547 362.83 121.184C362.83 124.536 363.042 127.417 363.465 129.826C363.888 132.202 364.507 134.156 365.32 135.686C366.167 137.183 367.176 138.29 368.348 139.006C369.552 139.722 370.919 140.08 372.449 140.08C374.5 140.08 376.518 139.348 378.504 137.883C380.522 136.385 382.264 134.221 383.729 131.389L386.316 158.684ZM446.326 158.586C444.308 158.326 442.355 158.146 440.467 158.049C438.611 157.951 436.723 157.902 434.803 157.902C429.627 157.902 424.321 158.407 418.885 159.416C419.08 158.635 419.292 157.951 419.52 157.365C419.78 156.747 420.008 156.079 420.203 155.363C420.398 154.615 420.561 153.752 420.691 152.775C420.822 151.799 420.887 150.546 420.887 149.016C420.887 147.453 420.773 145.972 420.545 144.572C420.317 143.14 419.975 141.887 419.52 140.812C419.064 139.706 418.494 138.827 417.811 138.176C417.16 137.525 416.395 137.199 415.516 137.199C414.539 137.199 413.709 137.492 413.025 138.078C412.374 138.664 411.837 139.462 411.414 140.471C411.023 141.48 410.73 142.635 410.535 143.938C410.372 145.24 410.291 146.623 410.291 148.088C410.291 149.553 410.372 150.822 410.535 151.896C410.73 152.938 410.942 153.85 411.17 154.631C411.43 155.412 411.674 156.112 411.902 156.73C412.13 157.316 412.293 157.902 412.391 158.488C410.145 158.228 407.931 158.033 405.75 157.902C403.602 157.772 401.453 157.707 399.305 157.707C397.156 157.707 394.992 157.772 392.811 157.902C390.662 158.033 388.432 158.228 386.121 158.488C388.139 152.629 389.897 146.818 391.395 141.057C392.924 135.295 394.227 129.501 395.301 123.674C396.375 117.847 397.238 111.955 397.889 105.998C398.572 100.041 399.077 93.9375 399.402 87.6875C401.811 88.013 404.448 88.2572 407.312 88.4199C410.21 88.5501 413.172 88.6152 416.199 88.6152C418.771 88.6152 421.261 88.5501 423.67 88.4199C426.111 88.2897 428.357 88.013 430.408 87.5898C430.636 93.8073 431.222 99.9271 432.166 105.949C433.11 111.971 434.282 117.945 435.682 123.869C437.114 129.761 438.742 135.604 440.564 141.398C442.387 147.16 444.308 152.889 446.326 158.586ZM418.982 120.695C418.917 120.077 418.722 119.165 418.396 117.961C418.104 116.919 417.664 115.552 417.078 113.859C416.492 112.134 415.63 109.921 414.49 107.219C414.23 108.911 413.937 110.425 413.611 111.76C413.286 113.062 412.977 114.25 412.684 115.324C412.391 116.366 412.13 117.326 411.902 118.205C411.707 119.084 411.609 119.914 411.609 120.695C411.609 122.323 411.984 123.592 412.732 124.504C413.514 125.383 414.376 125.822 415.32 125.822C416.329 125.822 417.176 125.334 417.859 124.357C418.543 123.381 418.917 122.16 418.982 120.695ZM501.746 121.281C499.077 127.889 497.742 134.302 497.742 140.52C497.742 143.514 498.019 146.542 498.572 149.602C499.126 152.629 499.988 155.721 501.16 158.879C499.305 158.423 497.579 158.081 495.984 157.854C494.389 157.626 492.811 157.512 491.248 157.512C489.588 157.512 487.895 157.658 486.17 157.951C484.445 158.244 482.573 158.7 480.555 159.318L482.557 151.506C481.906 152.548 481.124 153.622 480.213 154.729C479.301 155.803 478.211 156.779 476.941 157.658C475.704 158.537 474.272 159.253 472.645 159.807C471.049 160.393 469.21 160.686 467.127 160.686C464.002 160.686 461.121 159.937 458.484 158.439C455.88 156.942 453.634 154.777 451.746 151.945C449.858 149.113 448.377 145.646 447.303 141.545C446.261 137.411 445.74 132.723 445.74 127.482C445.74 123.999 446.066 120.549 446.717 117.131C447.368 113.68 448.312 110.409 449.549 107.316C450.786 104.191 452.316 101.311 454.139 98.6738C455.962 96.0046 458.029 93.7096 460.34 91.7891C462.651 89.8359 465.206 88.3223 468.006 87.248C470.838 86.1413 473.882 85.5879 477.137 85.5879C480.099 85.5879 482.687 85.8971 484.9 86.5156C487.114 87.1016 489.035 87.8991 490.662 88.9082C492.29 89.8848 493.624 91.0241 494.666 92.3262C495.74 93.5957 496.587 94.9303 497.205 96.3301C497.824 97.7298 498.263 99.1296 498.523 100.529C498.784 101.896 498.914 103.182 498.914 104.387C498.914 106.112 498.605 107.772 497.986 109.367C497.4 110.962 496.57 112.362 495.496 113.566C494.422 114.771 493.152 115.731 491.688 116.447C490.223 117.163 488.611 117.521 486.854 117.521C485.031 117.521 483.452 117.245 482.117 116.691C480.783 116.138 479.676 115.422 478.797 114.543C477.918 113.632 477.251 112.622 476.795 111.516C476.372 110.409 476.16 109.302 476.16 108.195C476.16 107.251 476.323 106.291 476.648 105.314C476.974 104.338 477.43 103.426 478.016 102.58C478.211 103.264 478.488 103.801 478.846 104.191C479.204 104.549 479.562 104.81 479.92 104.973C480.311 105.168 480.75 105.282 481.238 105.314C482.345 105.314 483.126 105.038 483.582 104.484C484.07 103.931 484.314 103.296 484.314 102.58C484.314 102.255 484.233 101.929 484.07 101.604C483.94 101.245 483.729 100.92 483.436 100.627C483.143 100.334 482.752 100.09 482.264 99.8945C481.808 99.6992 481.238 99.6016 480.555 99.6016C480.099 99.6016 479.464 99.6992 478.65 99.8945C477.869 100.057 477.007 100.399 476.062 100.92C475.151 101.441 474.223 102.189 473.279 103.166C472.335 104.11 471.473 105.38 470.691 106.975C469.91 108.57 469.275 110.523 468.787 112.834C468.299 115.145 468.055 117.896 468.055 121.086C468.055 123.723 468.266 126.034 468.689 128.02C469.145 130.005 469.764 131.665 470.545 133C471.326 134.335 472.254 135.344 473.328 136.027C474.402 136.678 475.574 137.004 476.844 137.004C478.048 137.004 479.041 136.695 479.822 136.076C480.604 135.458 481.222 134.709 481.678 133.83C482.133 132.951 482.443 132.04 482.605 131.096C482.768 130.152 482.85 129.354 482.85 128.703C482.85 128.671 482.817 128.443 482.752 128.02C482.719 127.596 482.573 127.108 482.312 126.555C482.052 126.001 481.629 125.432 481.043 124.846C480.457 124.26 479.627 123.771 478.553 123.381C482.394 123.381 486.251 123.218 490.125 122.893C493.999 122.535 497.872 121.997 501.746 121.281ZM551.209 158.684C549.516 158.358 547.775 158.114 545.984 157.951C544.227 157.756 542.355 157.609 540.369 157.512C538.416 157.414 536.316 157.365 534.07 157.365C531.857 157.333 529.448 157.316 526.844 157.316C525.607 157.316 524.126 157.333 522.4 157.365C520.708 157.398 518.868 157.479 516.883 157.609C514.93 157.74 512.911 157.919 510.828 158.146C508.745 158.407 506.71 158.732 504.725 159.123C505.441 157.658 506.059 155.819 506.58 153.605C507.101 151.359 507.524 148.983 507.85 146.477C508.208 143.97 508.484 141.415 508.68 138.811C508.875 136.206 509.021 133.781 509.119 131.535C509.217 129.289 509.266 127.352 509.266 125.725C509.298 124.064 509.314 122.925 509.314 122.307C509.314 122.176 509.298 121.672 509.266 120.793C509.266 119.914 509.249 118.775 509.217 117.375C509.184 115.975 509.135 114.38 509.07 112.59C509.005 110.767 508.908 108.879 508.777 106.926C508.68 104.973 508.533 103.003 508.338 101.018C508.175 99.0319 507.964 97.1602 507.703 95.4023C507.475 93.612 507.199 92.0169 506.873 90.6172C506.58 89.1849 506.222 88.0456 505.799 87.1992C508.989 87.6549 512.13 87.9967 515.223 88.2246C518.315 88.4199 521.31 88.5176 524.207 88.5176C527.755 88.5176 531.076 88.4199 534.168 88.2246C537.26 88.0293 539.962 87.8014 542.273 87.541C544.975 87.248 547.433 86.9062 549.646 86.5156V109.416C547.758 107.658 545.952 106.307 544.227 105.363C542.501 104.419 540.971 103.719 539.637 103.264C538.074 102.743 536.609 102.45 535.242 102.385C533.615 102.385 532.28 102.596 531.238 103.02C530.229 103.41 529.432 103.931 528.846 104.582C528.292 105.201 527.918 105.917 527.723 106.73C527.527 107.512 527.43 108.309 527.43 109.123C527.43 109.969 527.544 110.816 527.771 111.662C528.032 112.508 528.423 113.273 528.943 113.957C529.464 114.641 530.132 115.21 530.945 115.666C531.792 116.089 532.785 116.301 533.924 116.301C534.868 116.301 535.73 116.089 536.512 115.666C537.293 115.21 537.96 114.706 538.514 114.152C539.165 113.534 539.767 112.818 540.32 112.004V131.877C539.799 130.64 539.181 129.663 538.465 128.947C537.781 128.231 537.098 127.71 536.414 127.385C535.763 127.027 535.161 126.815 534.607 126.75C534.087 126.652 533.729 126.604 533.533 126.604C531.417 126.604 529.839 127.255 528.797 128.557C527.755 129.859 527.234 131.535 527.234 133.586C527.234 135.083 527.397 136.353 527.723 137.395C528.081 138.436 528.536 139.283 529.09 139.934C529.676 140.585 530.343 141.057 531.092 141.35C531.873 141.643 532.687 141.789 533.533 141.789C534.835 141.789 536.235 141.496 537.732 140.91C539.23 140.324 540.662 139.543 542.029 138.566C543.429 137.59 544.699 136.483 545.838 135.246C547.01 133.977 547.938 132.691 548.621 131.389L551.209 158.684Z" fill="white" fill-opacity="0.85"/>
</g>
</g>
<defs>
<filter id="filter0_d_1_70" x="0" y="0" width="732" height="325" filterUnits="userSpaceOnUse" color-interpolation-filters="sRGB">
<feFlood flood-opacity="0" result="BackgroundImageFix"/>
<feColorMatrix in="SourceAlpha" type="matrix" values="0 0 0 0 0 0 0 0 0 0 0 0 0 0 0 0 0 0 127 0" result="hardAlpha"/>
<feOffset dx="4" dy="38"/>
<feGaussianBlur stdDeviation="31"/>
<feColorMatrix type="matrix" values="0 0 0 0 0 0 0 0 0 0 0 0 0 0 0 0 0 0 0.5 0"/>
<feBlend mode="normal" in2="BackgroundImageFix" result="effect1_dropShadow_1_70"/>
<feBlend mode="normal" in="SourceGraphic" in2="effect1_dropShadow_1_70" result="shape"/>
</filter>
<filter id="filter1_d_1_70" x="171.473" y="60.4414" width="381.736" height="102.244" filterUnits="userSpaceOnUse" color-interpolation-filters="sRGB">
<feFlood flood-opacity="0" result="BackgroundImageFix"/>
<feColorMatrix in="SourceAlpha" type="matrix" values="0 0 0 0 0 0 0 0 0 0 0 0 0 0 0 0 0 0 127 0" result="hardAlpha"/>
<feOffset dx="1" dy="1"/>
<feGaussianBlur stdDeviation="0.5"/>
<feColorMatrix type="matrix" values="0 0 0 0 0 0 0 0 0 0 0 0 0 0 0 0 0 0 0.25 0"/>
<feBlend mode="normal" in2="BackgroundImageFix" result="effect1_dropShadow_1_70"/>
<feBlend mode="normal" in="SourceGraphic" in2="effect1_dropShadow_1_70" result="shape"/>
</filter>
<radialGradient id="paint0_radial_1_70" cx="0" cy="0" r="1" gradientUnits="userSpaceOnUse" gradientTransform="translate(252.361 63.541) rotate(26.0832) scale(288.533 245.667)">
<stop stop-color="white"/>
<stop offset="0.697917" stop-color="white" stop-opacity="0"/>
<stop offset="1" stop-color="white" stop-opacity="0"/>
</radialGradient>
</defs>
</svg>
